%TF.GenerationSoftware,KiCad,Pcbnew,9.0.4*%
%TF.CreationDate,2025-10-16T20:01:58-07:00*%
%TF.ProjectId,E-Stop,452d5374-6f70-42e6-9b69-6361645f7063,rev?*%
%TF.SameCoordinates,Original*%
%TF.FileFunction,Copper,L1,Top*%
%TF.FilePolarity,Positive*%
%FSLAX46Y46*%
G04 Gerber Fmt 4.6, Leading zero omitted, Abs format (unit mm)*
G04 Created by KiCad (PCBNEW 9.0.4) date 2025-10-16 20:01:58*
%MOMM*%
%LPD*%
G01*
G04 APERTURE LIST*
G04 Aperture macros list*
%AMRoundRect*
0 Rectangle with rounded corners*
0 $1 Rounding radius*
0 $2 $3 $4 $5 $6 $7 $8 $9 X,Y pos of 4 corners*
0 Add a 4 corners polygon primitive as box body*
4,1,4,$2,$3,$4,$5,$6,$7,$8,$9,$2,$3,0*
0 Add four circle primitives for the rounded corners*
1,1,$1+$1,$2,$3*
1,1,$1+$1,$4,$5*
1,1,$1+$1,$6,$7*
1,1,$1+$1,$8,$9*
0 Add four rect primitives between the rounded corners*
20,1,$1+$1,$2,$3,$4,$5,0*
20,1,$1+$1,$4,$5,$6,$7,0*
20,1,$1+$1,$6,$7,$8,$9,0*
20,1,$1+$1,$8,$9,$2,$3,0*%
G04 Aperture macros list end*
%TA.AperFunction,SMDPad,CuDef*%
%ADD10RoundRect,0.375000X-0.625000X-0.375000X0.625000X-0.375000X0.625000X0.375000X-0.625000X0.375000X0*%
%TD*%
%TA.AperFunction,SMDPad,CuDef*%
%ADD11RoundRect,0.500000X-0.500000X-1.400000X0.500000X-1.400000X0.500000X1.400000X-0.500000X1.400000X0*%
%TD*%
%TA.AperFunction,SMDPad,CuDef*%
%ADD12RoundRect,0.100000X-0.130000X-0.100000X0.130000X-0.100000X0.130000X0.100000X-0.130000X0.100000X0*%
%TD*%
%TA.AperFunction,ComponentPad*%
%ADD13R,0.900000X2.000000*%
%TD*%
%TA.AperFunction,ComponentPad*%
%ADD14RoundRect,1.025000X-1.025000X-1.025000X1.025000X-1.025000X1.025000X1.025000X-1.025000X1.025000X0*%
%TD*%
%TA.AperFunction,ComponentPad*%
%ADD15C,4.100000*%
%TD*%
%TA.AperFunction,SMDPad,CuDef*%
%ADD16R,1.066800X0.254000*%
%TD*%
%TA.AperFunction,SMDPad,CuDef*%
%ADD17RoundRect,0.150000X-0.150000X0.512500X-0.150000X-0.512500X0.150000X-0.512500X0.150000X0.512500X0*%
%TD*%
%TA.AperFunction,SMDPad,CuDef*%
%ADD18RoundRect,0.150000X0.150000X-0.587500X0.150000X0.587500X-0.150000X0.587500X-0.150000X-0.587500X0*%
%TD*%
%TA.AperFunction,SMDPad,CuDef*%
%ADD19RoundRect,0.100000X0.100000X-0.130000X0.100000X0.130000X-0.100000X0.130000X-0.100000X-0.130000X0*%
%TD*%
%TA.AperFunction,ComponentPad*%
%ADD20C,1.950000*%
%TD*%
%TA.AperFunction,SMDPad,CuDef*%
%ADD21RoundRect,0.100000X0.130000X0.100000X-0.130000X0.100000X-0.130000X-0.100000X0.130000X-0.100000X0*%
%TD*%
%TA.AperFunction,ComponentPad*%
%ADD22R,1.700000X1.700000*%
%TD*%
%TA.AperFunction,ComponentPad*%
%ADD23O,1.700000X1.700000*%
%TD*%
%TA.AperFunction,ComponentPad*%
%ADD24RoundRect,0.249999X-0.850001X0.850001X-0.850001X-0.850001X0.850001X-0.850001X0.850001X0.850001X0*%
%TD*%
%TA.AperFunction,ComponentPad*%
%ADD25C,2.200000*%
%TD*%
%TA.AperFunction,SMDPad,CuDef*%
%ADD26RoundRect,0.250000X-1.000000X-0.650000X1.000000X-0.650000X1.000000X0.650000X-1.000000X0.650000X0*%
%TD*%
%TA.AperFunction,SMDPad,CuDef*%
%ADD27RoundRect,0.125000X-0.687500X-0.125000X0.687500X-0.125000X0.687500X0.125000X-0.687500X0.125000X0*%
%TD*%
%TA.AperFunction,ComponentPad*%
%ADD28R,2.000000X0.900000*%
%TD*%
%TA.AperFunction,ComponentPad*%
%ADD29RoundRect,1.025000X-1.025000X1.025000X-1.025000X-1.025000X1.025000X-1.025000X1.025000X1.025000X0*%
%TD*%
%TA.AperFunction,ViaPad*%
%ADD30C,0.600000*%
%TD*%
%TA.AperFunction,Conductor*%
%ADD31C,0.254000*%
%TD*%
%TA.AperFunction,Conductor*%
%ADD32C,0.381000*%
%TD*%
G04 APERTURE END LIST*
D10*
%TO.P,U1,1,VI*%
%TO.N,Vin*%
X134500000Y-94700000D03*
%TO.P,U1,2,GND*%
%TO.N,GND*%
X134500000Y-97000000D03*
D11*
X140800000Y-97000000D03*
D10*
%TO.P,U1,3,VO*%
%TO.N,/Vout*%
X134500000Y-99300000D03*
%TD*%
D12*
%TO.P,100nF,1*%
%TO.N,Net-(U2-\u002ACLR)*%
X117571600Y-93980000D03*
%TO.P,100nF,2*%
%TO.N,GND*%
X118211600Y-93980000D03*
%TD*%
D13*
%TO.P,J2,*%
%TO.N,*%
X152150000Y-68000000D03*
X165650000Y-68000000D03*
D14*
%TO.P,J2,1,Pin_1*%
%TO.N,GND*%
X162500000Y-74000000D03*
D15*
%TO.P,J2,2,Pin_2*%
%TO.N,Vbat2*%
X155300000Y-74000000D03*
%TD*%
D12*
%TO.P,10K,1*%
%TO.N,Net-(Q2A-B1)*%
X144135000Y-77730000D03*
%TO.P,10K,2*%
%TO.N,GND*%
X144775000Y-77730000D03*
%TD*%
D16*
%TO.P,U2,1,CP*%
%TO.N,Input*%
X118567200Y-98442401D03*
%TO.P,U2,2,D*%
%TO.N,Net-(U2-\u002AQ)*%
X118567200Y-97942400D03*
%TO.P,U2,3,\u002AQ*%
X118567200Y-97442400D03*
%TO.P,U2,4,GND*%
%TO.N,GND*%
X118567200Y-96942399D03*
%TO.P,U2,5,Q*%
%TO.N,Net-(U2-Q)*%
X115722400Y-96942399D03*
%TO.P,U2,6,\u002ACLR*%
%TO.N,Net-(U2-\u002ACLR)*%
X115722400Y-97442400D03*
%TO.P,U2,7,\u002APR*%
%TO.N,+3.3V*%
X115722400Y-97942400D03*
%TO.P,U2,8,VCC*%
X115722400Y-98442401D03*
%TD*%
D13*
%TO.P,J1,*%
%TO.N,*%
X134000000Y-68000000D03*
X147500000Y-68000000D03*
D14*
%TO.P,J1,1,Pin_1*%
%TO.N,GND*%
X144350000Y-74000000D03*
D15*
%TO.P,J1,2,Pin_2*%
%TO.N,Vbat*%
X137150000Y-74000000D03*
%TD*%
D17*
%TO.P,Q1,1,C1*%
%TO.N,Net-(Q1A-B1)*%
X165472500Y-82992500D03*
%TO.P,Q1,2,B1*%
X164522500Y-82992500D03*
%TO.P,Q1,3,B2*%
X163572500Y-82992500D03*
%TO.P,Q1,4,C2*%
%TO.N,Net-(Q1B-C2)*%
X163572500Y-85267500D03*
%TO.P,Q1,5,E2*%
%TO.N,Vin*%
X164522500Y-85267500D03*
%TO.P,Q1,6,E1*%
%TO.N,Vbat2*%
X165472500Y-85267500D03*
%TD*%
D18*
%TO.P,Q4,1,G*%
%TO.N,Net-(Q2B-C2)*%
X132680000Y-84250000D03*
%TO.P,Q4,2,S*%
%TO.N,Vin*%
X134580000Y-84250000D03*
%TO.P,Q4,3,D*%
%TO.N,Vbat*%
X133630000Y-82375000D03*
%TD*%
D19*
%TO.P,10k,1*%
%TO.N,+3.3V*%
X117500400Y-95585200D03*
%TO.P,10k,2*%
%TO.N,Net-(U2-\u002ACLR)*%
X117500400Y-94945200D03*
%TD*%
D20*
%TO.P,K1,11*%
%TO.N,unconnected-(K1-Pad11)*%
X164770000Y-95270000D03*
%TO.P,K1,12*%
%TO.N,unconnected-(K1-Pad12)*%
X164770000Y-100310000D03*
%TO.P,K1,14*%
%TO.N,unconnected-(K1-Pad14)*%
X164770000Y-90230000D03*
%TO.P,K1,21*%
%TO.N,Vin*%
X172270000Y-95270000D03*
%TO.P,K1,22*%
%TO.N,/Relay wire*%
X172270000Y-100310000D03*
%TO.P,K1,24*%
%TO.N,unconnected-(K1-Pad24)*%
X172270000Y-90230000D03*
%TO.P,K1,A1*%
%TO.N,Net-(D1-K)*%
X164770000Y-115570000D03*
%TO.P,K1,A2*%
%TO.N,GND*%
X172270000Y-115570000D03*
%TD*%
D21*
%TO.P,47k,1*%
%TO.N,Net-(Q1B-C2)*%
X165760000Y-79600000D03*
%TO.P,47k,2*%
%TO.N,GND*%
X165120000Y-79600000D03*
%TD*%
D18*
%TO.P,Q3,1,G*%
%TO.N,Net-(Q1B-C2)*%
X154000000Y-85000000D03*
%TO.P,Q3,2,S*%
%TO.N,Vin*%
X155900000Y-85000000D03*
%TO.P,Q3,3,D*%
%TO.N,Vbat2*%
X154950000Y-83125000D03*
%TD*%
D22*
%TO.P,J3,1,Pin_1*%
%TO.N,GND*%
X125500000Y-96960000D03*
D23*
%TO.P,J3,2,Pin_2*%
%TO.N,Input*%
X125500000Y-99500000D03*
%TO.P,J3,3,Pin_3*%
%TO.N,/Vout*%
X125500000Y-102040000D03*
%TD*%
D24*
%TO.P,Button,1,Pin_1*%
%TO.N,unconnected-(J4-Pin_1-Pad1)*%
X122834400Y-109372400D03*
D25*
%TO.P,Button,2,Pin_2*%
%TO.N,+3.3V*%
X122834400Y-111912400D03*
%TO.P,Button,3,Pin_3*%
%TO.N,Net-(J4-Pin_3)*%
X122834400Y-114452400D03*
%TD*%
D26*
%TO.P,D1,1,K*%
%TO.N,Net-(D1-K)*%
X164270000Y-121220000D03*
%TO.P,D1,2,A*%
%TO.N,GND*%
X168270000Y-121220000D03*
%TD*%
D27*
%TO.P,XOR,1*%
%TO.N,Net-(U2-Q)*%
X155287000Y-119970000D03*
%TO.P,XOR,2*%
%TO.N,Net-(J4-Pin_3)*%
X155287000Y-120620000D03*
%TO.P,XOR,3*%
%TO.N,unconnected-(U4-Pad3)*%
X155287000Y-121270000D03*
%TO.P,XOR,4,GND*%
%TO.N,unconnected-(U4C-GND-Pad4)*%
X155287000Y-121920000D03*
%TO.P,XOR,5*%
%TO.N,unconnected-(U4-Pad5)*%
X159512000Y-121920000D03*
%TO.P,XOR,6*%
%TO.N,unconnected-(U4-Pad6)*%
X159512000Y-121270000D03*
%TO.P,XOR,7*%
%TO.N,Net-(D1-K)*%
X159512000Y-120620000D03*
%TO.P,XOR,8,VCC*%
%TO.N,unconnected-(U4C-VCC-Pad8)*%
X159512000Y-119970000D03*
%TD*%
D17*
%TO.P,Transistor,1,C1*%
%TO.N,Net-(Q2A-B1)*%
X143752500Y-81462500D03*
%TO.P,Transistor,2,B1*%
X142802500Y-81462500D03*
%TO.P,Transistor,3,B2*%
X141852500Y-81462500D03*
%TO.P,Transistor,4,C2*%
%TO.N,Net-(Q2B-C2)*%
X141852500Y-83737500D03*
%TO.P,Transistor,5,E2*%
%TO.N,Vin*%
X142802500Y-83737500D03*
%TO.P,Transistor,6,E1*%
%TO.N,Vbat*%
X143752500Y-83737500D03*
%TD*%
D28*
%TO.P,J5,*%
%TO.N,*%
X188000000Y-98000000D03*
X188000000Y-111500000D03*
D29*
%TO.P,J5,1,Pin_1*%
%TO.N,GND*%
X182000000Y-108350000D03*
D15*
%TO.P,J5,2,Pin_2*%
%TO.N,/Relay wire*%
X182000000Y-101150000D03*
%TD*%
D21*
%TO.P,47k,1*%
%TO.N,Net-(Q2B-C2)*%
X147465000Y-77560000D03*
%TO.P,47k,2*%
%TO.N,GND*%
X146825000Y-77560000D03*
%TD*%
D12*
%TO.P,10K,1*%
%TO.N,Net-(Q1A-B1)*%
X161665000Y-79590000D03*
%TO.P,10K,2*%
%TO.N,GND*%
X162305000Y-79590000D03*
%TD*%
D30*
%TO.N,Vbat*%
X126650000Y-82450000D03*
X128000000Y-81650000D03*
X145050000Y-84600000D03*
X145050000Y-83450000D03*
X146150000Y-83450000D03*
X126650000Y-80800000D03*
X128000000Y-80800000D03*
X145050000Y-85700000D03*
X126650000Y-81650000D03*
X146150000Y-84600000D03*
X146200000Y-85700000D03*
X128000000Y-82450000D03*
%TO.N,GND*%
X144130000Y-69070000D03*
X163590000Y-67590000D03*
X162360000Y-68950000D03*
X143660000Y-95410000D03*
X144620000Y-95430000D03*
X145380000Y-69100000D03*
X172960000Y-108080000D03*
X144140000Y-67680000D03*
X162370000Y-67560000D03*
X143660000Y-95410000D03*
X163610000Y-68980000D03*
X173270000Y-123220000D03*
X145360000Y-67710000D03*
X145360000Y-67710000D03*
X172980000Y-109470000D03*
X171740000Y-108050000D03*
X144530000Y-94080000D03*
X144130000Y-69070000D03*
X173270000Y-121720000D03*
X144620000Y-95430000D03*
X162360000Y-68950000D03*
X162370000Y-67560000D03*
X172980000Y-109470000D03*
X171730000Y-109440000D03*
X163610000Y-68980000D03*
X163590000Y-67590000D03*
X145380000Y-69100000D03*
X172960000Y-108080000D03*
X171740000Y-108050000D03*
X173270000Y-120220000D03*
X171730000Y-109440000D03*
X143660000Y-94100000D03*
X143660000Y-94100000D03*
X144140000Y-67680000D03*
X144530000Y-94080000D03*
%TO.N,Net-(Q1B-C2)*%
X162350000Y-86800000D03*
X166610000Y-78820000D03*
X162350000Y-84650000D03*
X154050000Y-86650000D03*
X152950000Y-86650000D03*
X152950000Y-85500000D03*
X152950000Y-84400000D03*
X162350000Y-85850000D03*
X165880000Y-78810000D03*
X163350000Y-86800000D03*
%TO.N,Net-(Q2B-C2)*%
X130300000Y-84950000D03*
X130300000Y-83850000D03*
X131200000Y-83850000D03*
X139100000Y-84000000D03*
X148500000Y-78300000D03*
X139900000Y-84050000D03*
X148500000Y-77600000D03*
X139900000Y-83150000D03*
X131250000Y-84950000D03*
X147700000Y-78300000D03*
X139100000Y-83150000D03*
%TO.N,Vbat2*%
X168210000Y-85710000D03*
X152520000Y-82590000D03*
X151650000Y-82560000D03*
X166580000Y-84610000D03*
X153350000Y-81460000D03*
X153340000Y-82560000D03*
X151710000Y-81460000D03*
X167410000Y-84600000D03*
X167390000Y-85740000D03*
X168220000Y-84610000D03*
X166520000Y-85710000D03*
X152540000Y-81450000D03*
%TO.N,Net-(U2-\u002ACLR)*%
X114200000Y-95509500D03*
X114200000Y-97000000D03*
%TD*%
D31*
%TO.N,Net-(U2-\u002ACLR)*%
X115722400Y-97442400D02*
X114642400Y-97442400D01*
X117500400Y-94051200D02*
X117571600Y-93980000D01*
X117500400Y-94945200D02*
X117500400Y-94051200D01*
X114642400Y-97442400D02*
X114200000Y-97000000D01*
X114200000Y-95509500D02*
X114764300Y-94945200D01*
X114764300Y-94945200D02*
X117500400Y-94945200D01*
D32*
%TO.N,Net-(U2-Q)*%
X156191906Y-122561500D02*
X125311500Y-122561500D01*
X156491000Y-120277594D02*
X156491000Y-122262406D01*
X115722400Y-96622400D02*
X115722400Y-96923900D01*
X115300000Y-96200000D02*
X115722400Y-96622400D01*
X125311500Y-122561500D02*
X113100000Y-110350000D01*
X155287000Y-119970000D02*
X156183406Y-119970000D01*
X113100000Y-96900000D02*
X113800000Y-96200000D01*
X156491000Y-122262406D02*
X156191906Y-122561500D01*
X113100000Y-110350000D02*
X113100000Y-96900000D01*
X113800000Y-96200000D02*
X115300000Y-96200000D01*
X156183406Y-119970000D02*
X156491000Y-120277594D01*
%TO.N,Net-(J4-Pin_3)*%
X155287000Y-120620000D02*
X129002000Y-120620000D01*
X129002000Y-120620000D02*
X122834400Y-114452400D01*
%TD*%
%TA.AperFunction,Conductor*%
%TO.N,Vin*%
G36*
X143199039Y-82569685D02*
G01*
X143244794Y-82622489D01*
X143256000Y-82674000D01*
X143256000Y-83155302D01*
X143254705Y-83173169D01*
X143252000Y-83191740D01*
X143252000Y-84283260D01*
X143253373Y-84292686D01*
X143254704Y-84301817D01*
X143256000Y-84319696D01*
X143256000Y-87475000D01*
X155100000Y-87475000D01*
X155100000Y-84175088D01*
X155119685Y-84108049D01*
X155172489Y-84062294D01*
X155185492Y-84057219D01*
X155195598Y-84053917D01*
X155201393Y-84053073D01*
X155207861Y-84049910D01*
X155216058Y-84047233D01*
X155221526Y-84047067D01*
X155236515Y-84042424D01*
X155488983Y-84005296D01*
X155516032Y-84001319D01*
X155534072Y-84000000D01*
X160076895Y-84000000D01*
X160143934Y-84019685D01*
X160189689Y-84072489D01*
X160200892Y-84123101D01*
X160225000Y-87450000D01*
X161600000Y-87475000D01*
X164175000Y-87475000D01*
X164175000Y-84249551D01*
X164194685Y-84182512D01*
X164247489Y-84136757D01*
X164299685Y-84125553D01*
X164977920Y-84129321D01*
X164985657Y-84131640D01*
X164993645Y-84130410D01*
X165018645Y-84141526D01*
X165044847Y-84149378D01*
X165050104Y-84155513D01*
X165057489Y-84158797D01*
X165072509Y-84181662D01*
X165090308Y-84202435D01*
X165092397Y-84211938D01*
X165095850Y-84217194D01*
X165101223Y-84252077D01*
X165102968Y-84426239D01*
X165083956Y-84493472D01*
X165066657Y-84515160D01*
X165033302Y-84548515D01*
X164981926Y-84653608D01*
X164972000Y-84721739D01*
X164972000Y-85813260D01*
X164981926Y-85881391D01*
X165033303Y-85986485D01*
X165083659Y-86036841D01*
X165117144Y-86098164D01*
X165119972Y-86123279D01*
X165125000Y-86625000D01*
X171499235Y-86550009D01*
X171500694Y-86550000D01*
X175575379Y-86550000D01*
X175642418Y-86569685D01*
X175688173Y-86622489D01*
X175699376Y-86674619D01*
X175655329Y-95484315D01*
X175650617Y-96426620D01*
X175630598Y-96493560D01*
X175577566Y-96539051D01*
X175526619Y-96550000D01*
X166974000Y-96550000D01*
X166906961Y-96530315D01*
X166861206Y-96477511D01*
X166850000Y-96426000D01*
X166850000Y-91440000D01*
X165486091Y-91440000D01*
X165419052Y-91420315D01*
X165373297Y-91367511D01*
X165363353Y-91298353D01*
X165392378Y-91234797D01*
X165413205Y-91215682D01*
X165535787Y-91126621D01*
X165666621Y-90995787D01*
X165775378Y-90846096D01*
X165859379Y-90681235D01*
X165916555Y-90505264D01*
X165945500Y-90322514D01*
X165945500Y-90137486D01*
X171094500Y-90137486D01*
X171094500Y-90322513D01*
X171123445Y-90505265D01*
X171180619Y-90681232D01*
X171180620Y-90681235D01*
X171264622Y-90846096D01*
X171373379Y-90995787D01*
X171504213Y-91126621D01*
X171653904Y-91235378D01*
X171723840Y-91271012D01*
X171818764Y-91319379D01*
X171818767Y-91319380D01*
X171884157Y-91340626D01*
X171994736Y-91376555D01*
X172177486Y-91405500D01*
X172177487Y-91405500D01*
X172362513Y-91405500D01*
X172362514Y-91405500D01*
X172545264Y-91376555D01*
X172721235Y-91319379D01*
X172886096Y-91235378D01*
X173035787Y-91126621D01*
X173166621Y-90995787D01*
X173275378Y-90846096D01*
X173359379Y-90681235D01*
X173416555Y-90505264D01*
X173445500Y-90322514D01*
X173445500Y-90137486D01*
X173416555Y-89954736D01*
X173359379Y-89778765D01*
X173359379Y-89778764D01*
X173275377Y-89613903D01*
X173166621Y-89464213D01*
X173035787Y-89333379D01*
X172886096Y-89224622D01*
X172721235Y-89140620D01*
X172721232Y-89140619D01*
X172545265Y-89083445D01*
X172453889Y-89068972D01*
X172362514Y-89054500D01*
X172177486Y-89054500D01*
X172116569Y-89064148D01*
X171994734Y-89083445D01*
X171818767Y-89140619D01*
X171818764Y-89140620D01*
X171653903Y-89224622D01*
X171568499Y-89286672D01*
X171504213Y-89333379D01*
X171504211Y-89333381D01*
X171504210Y-89333381D01*
X171373381Y-89464210D01*
X171373381Y-89464211D01*
X171373379Y-89464213D01*
X171326672Y-89528499D01*
X171264622Y-89613903D01*
X171180620Y-89778764D01*
X171180619Y-89778767D01*
X171123445Y-89954734D01*
X171094500Y-90137486D01*
X165945500Y-90137486D01*
X165916555Y-89954736D01*
X165859379Y-89778765D01*
X165859379Y-89778764D01*
X165775377Y-89613903D01*
X165666621Y-89464213D01*
X165535787Y-89333379D01*
X165386096Y-89224622D01*
X165221235Y-89140620D01*
X165221232Y-89140619D01*
X165045265Y-89083445D01*
X164953889Y-89068972D01*
X164862514Y-89054500D01*
X164677486Y-89054500D01*
X164616569Y-89064148D01*
X164494734Y-89083445D01*
X164318767Y-89140619D01*
X164318764Y-89140620D01*
X164153903Y-89224622D01*
X164068499Y-89286672D01*
X164004213Y-89333379D01*
X164004211Y-89333381D01*
X164004210Y-89333381D01*
X163873381Y-89464210D01*
X163873381Y-89464211D01*
X163873379Y-89464213D01*
X163826672Y-89528499D01*
X163764622Y-89613903D01*
X163680620Y-89778764D01*
X163680619Y-89778767D01*
X163623445Y-89954734D01*
X163594500Y-90137486D01*
X163594500Y-90322513D01*
X163623445Y-90505265D01*
X163680619Y-90681232D01*
X163680620Y-90681235D01*
X163764622Y-90846096D01*
X163873379Y-90995787D01*
X164004213Y-91126621D01*
X164126795Y-91215682D01*
X164169460Y-91271012D01*
X164175439Y-91340626D01*
X164142833Y-91402421D01*
X164081994Y-91436778D01*
X164053909Y-91440000D01*
X135636000Y-91440000D01*
X135636000Y-95380000D01*
X135616315Y-95447039D01*
X135563511Y-95492794D01*
X135512000Y-95504000D01*
X133474000Y-95504000D01*
X133406961Y-95484315D01*
X133361206Y-95431511D01*
X133350000Y-95380000D01*
X133350000Y-83690000D01*
X133369685Y-83622961D01*
X133422489Y-83577206D01*
X133474000Y-83566000D01*
X138052000Y-83566000D01*
X138119039Y-83585685D01*
X138164794Y-83638489D01*
X138176000Y-83690000D01*
X138176000Y-84836000D01*
X142240000Y-84836000D01*
X142240000Y-84559543D01*
X142259685Y-84492504D01*
X142276321Y-84471860D01*
X142282379Y-84465802D01*
X142291698Y-84456483D01*
X142343073Y-84351393D01*
X142353000Y-84283260D01*
X142353000Y-83191740D01*
X142343073Y-83123607D01*
X142291698Y-83018517D01*
X142291696Y-83018515D01*
X142291696Y-83018514D01*
X142276319Y-83003137D01*
X142261615Y-82976209D01*
X142245023Y-82950391D01*
X142244131Y-82944190D01*
X142242834Y-82941814D01*
X142240000Y-82915456D01*
X142240000Y-82674000D01*
X142259685Y-82606961D01*
X142312489Y-82561206D01*
X142364000Y-82550000D01*
X143132000Y-82550000D01*
X143199039Y-82569685D01*
G37*
%TD.AperFunction*%
%TD*%
%TA.AperFunction,Conductor*%
%TO.N,/Vout*%
G36*
X129850586Y-98356762D02*
G01*
X129856052Y-98357547D01*
X129911362Y-98365500D01*
X137600340Y-98365500D01*
X137667379Y-98385185D01*
X137713134Y-98437989D01*
X137724337Y-98488614D01*
X137736757Y-100227579D01*
X137748465Y-100332198D01*
X137759459Y-100382363D01*
X137792581Y-100482288D01*
X137792583Y-100482293D01*
X137847859Y-100569066D01*
X137869883Y-100603641D01*
X137915426Y-100656629D01*
X137957580Y-100693453D01*
X137995116Y-100752379D01*
X138000000Y-100786837D01*
X138000000Y-106764335D01*
X137980315Y-106831374D01*
X137927511Y-106877129D01*
X137858360Y-106887074D01*
X137848802Y-106885700D01*
X137848800Y-106885700D01*
X118485500Y-106885700D01*
X118418461Y-106866015D01*
X118372706Y-106813211D01*
X118361500Y-106761700D01*
X118361500Y-101124000D01*
X118381185Y-101056961D01*
X118433989Y-101011206D01*
X118485500Y-101000000D01*
X127500000Y-101000000D01*
X127500000Y-98479500D01*
X127519685Y-98412461D01*
X127572489Y-98366706D01*
X127624000Y-98355500D01*
X129832940Y-98355500D01*
X129850586Y-98356762D01*
G37*
%TD.AperFunction*%
%TD*%
%TA.AperFunction,Conductor*%
%TO.N,Vbat*%
G36*
X147542936Y-82569740D02*
G01*
X147588743Y-82622499D01*
X147600000Y-82674122D01*
X147600000Y-86876000D01*
X147580315Y-86943039D01*
X147527511Y-86988794D01*
X147476000Y-87000000D01*
X143624000Y-87000000D01*
X143556961Y-86980315D01*
X143511206Y-86927511D01*
X143500000Y-86876000D01*
X143500000Y-82677935D01*
X143519685Y-82610896D01*
X143572489Y-82565141D01*
X143623875Y-82553935D01*
X147475879Y-82550122D01*
X147542936Y-82569740D01*
G37*
%TD.AperFunction*%
%TD*%
%TA.AperFunction,Conductor*%
%TO.N,GND*%
G36*
X150184039Y-58520185D02*
G01*
X150229794Y-58572989D01*
X150241000Y-58624500D01*
X150241000Y-77077000D01*
X150221315Y-77144039D01*
X150168511Y-77189794D01*
X150117000Y-77201000D01*
X149066018Y-77201000D01*
X148998979Y-77181315D01*
X148987955Y-77172338D01*
X148987798Y-77172544D01*
X148980750Y-77167154D01*
X148900940Y-77122511D01*
X148900935Y-77122509D01*
X148833903Y-77102826D01*
X148833899Y-77102825D01*
X148833898Y-77102825D01*
X148776000Y-77094500D01*
X147396817Y-77094500D01*
X147396807Y-77094500D01*
X147396780Y-77094501D01*
X147378021Y-77095362D01*
X147377980Y-77095365D01*
X147355382Y-77097443D01*
X147281314Y-77118771D01*
X147218980Y-77150357D01*
X147218979Y-77150357D01*
X147197306Y-77163063D01*
X147197300Y-77163068D01*
X147184216Y-77176974D01*
X147123940Y-77212309D01*
X147093909Y-77216000D01*
X147039000Y-77216000D01*
X147039000Y-77369178D01*
X147038174Y-77383469D01*
X147034500Y-77415131D01*
X147034500Y-77704856D01*
X147034501Y-77704865D01*
X147038175Y-77736543D01*
X147039000Y-77750827D01*
X147039000Y-78616000D01*
X147019315Y-78683039D01*
X146966511Y-78728794D01*
X146915000Y-78740000D01*
X144679500Y-78740000D01*
X144612461Y-78720315D01*
X144566706Y-78667511D01*
X144555500Y-78616000D01*
X144555500Y-77942195D01*
X144562382Y-77909603D01*
X144560136Y-77908992D01*
X144562583Y-77899995D01*
X144562585Y-77899991D01*
X144565500Y-77874865D01*
X144565499Y-77585136D01*
X144562585Y-77560009D01*
X144562584Y-77560006D01*
X144560136Y-77551008D01*
X144562375Y-77550398D01*
X144555500Y-77517805D01*
X144555500Y-77274008D01*
X144555499Y-77273992D01*
X144550803Y-77230316D01*
X144546886Y-77212309D01*
X144539602Y-77178825D01*
X144538067Y-77172544D01*
X144537110Y-77168627D01*
X144494100Y-77087915D01*
X144448345Y-77035111D01*
X144430754Y-77017157D01*
X144399000Y-76999394D01*
X144399000Y-76962000D01*
X144315144Y-76962000D01*
X144287142Y-76953777D01*
X144287135Y-76953774D01*
X144283907Y-76952827D01*
X144283902Y-76952826D01*
X144283898Y-76952825D01*
X144226000Y-76944500D01*
X140839301Y-76944500D01*
X140772262Y-76924815D01*
X140726507Y-76872011D01*
X140715303Y-76821114D01*
X140666612Y-66980247D01*
X146849500Y-66980247D01*
X146849500Y-69019752D01*
X146861131Y-69078229D01*
X146861132Y-69078230D01*
X146905447Y-69144552D01*
X146971769Y-69188867D01*
X146971770Y-69188868D01*
X147030247Y-69200499D01*
X147030250Y-69200500D01*
X147030252Y-69200500D01*
X147969750Y-69200500D01*
X147969751Y-69200499D01*
X147984568Y-69197552D01*
X148028229Y-69188868D01*
X148028229Y-69188867D01*
X148028231Y-69188867D01*
X148094552Y-69144552D01*
X148138867Y-69078231D01*
X148138867Y-69078229D01*
X148138868Y-69078229D01*
X148150499Y-69019752D01*
X148150500Y-69019750D01*
X148150500Y-66980249D01*
X148150499Y-66980247D01*
X148138868Y-66921770D01*
X148138867Y-66921769D01*
X148094552Y-66855447D01*
X148028230Y-66811132D01*
X148028229Y-66811131D01*
X147969752Y-66799500D01*
X147969748Y-66799500D01*
X147030252Y-66799500D01*
X147030247Y-66799500D01*
X146971770Y-66811131D01*
X146971769Y-66811132D01*
X146905447Y-66855447D01*
X146861132Y-66921769D01*
X146861131Y-66921770D01*
X146849500Y-66980247D01*
X140666612Y-66980247D01*
X140666585Y-66974774D01*
X140625272Y-58625114D01*
X140644624Y-58557977D01*
X140697201Y-58511962D01*
X140749270Y-58500500D01*
X150117000Y-58500500D01*
X150184039Y-58520185D01*
G37*
%TD.AperFunction*%
%TD*%
%TA.AperFunction,Conductor*%
%TO.N,Vbat*%
G36*
X140132949Y-58520185D02*
G01*
X140178704Y-58572989D01*
X140189909Y-58624554D01*
X140187444Y-63958204D01*
X140181369Y-77103041D01*
X140173492Y-77142096D01*
X140174471Y-77142384D01*
X140152827Y-77216090D01*
X140144500Y-77274003D01*
X140144500Y-82076007D01*
X140149197Y-82119688D01*
X140149729Y-82122970D01*
X140148937Y-82123098D01*
X140144210Y-82189318D01*
X140102346Y-82245257D01*
X140036885Y-82269683D01*
X140028022Y-82270000D01*
X135240000Y-82270000D01*
X135240000Y-82956000D01*
X135220315Y-83023039D01*
X135167511Y-83068794D01*
X135116000Y-83080000D01*
X123533920Y-83080000D01*
X123466881Y-83060315D01*
X123421126Y-83007511D01*
X123409920Y-82955932D01*
X123410515Y-81866889D01*
X123417701Y-68729797D01*
X123437421Y-68662775D01*
X123452336Y-68643907D01*
X125053217Y-66980247D01*
X133349500Y-66980247D01*
X133349500Y-69019752D01*
X133361131Y-69078229D01*
X133361132Y-69078230D01*
X133405447Y-69144552D01*
X133471769Y-69188867D01*
X133471770Y-69188868D01*
X133530247Y-69200499D01*
X133530250Y-69200500D01*
X133530252Y-69200500D01*
X134469750Y-69200500D01*
X134469751Y-69200499D01*
X134484568Y-69197552D01*
X134528229Y-69188868D01*
X134528229Y-69188867D01*
X134528231Y-69188867D01*
X134594552Y-69144552D01*
X134638867Y-69078231D01*
X134638867Y-69078229D01*
X134638868Y-69078229D01*
X134650499Y-69019752D01*
X134650500Y-69019750D01*
X134650500Y-66980249D01*
X134650499Y-66980247D01*
X134638868Y-66921770D01*
X134638867Y-66921769D01*
X134594552Y-66855447D01*
X134528230Y-66811132D01*
X134528229Y-66811131D01*
X134469752Y-66799500D01*
X134469748Y-66799500D01*
X133530252Y-66799500D01*
X133530247Y-66799500D01*
X133471770Y-66811131D01*
X133471769Y-66811132D01*
X133405447Y-66855447D01*
X133361132Y-66921769D01*
X133361131Y-66921770D01*
X133349500Y-66980247D01*
X125053217Y-66980247D01*
X133092084Y-58626131D01*
X133176388Y-58538521D01*
X133237056Y-58503863D01*
X133265739Y-58500500D01*
X140065910Y-58500500D01*
X140132949Y-58520185D01*
G37*
%TD.AperFunction*%
%TD*%
%TA.AperFunction,Conductor*%
%TO.N,Net-(Q2B-C2)*%
G36*
X148843039Y-77319685D02*
G01*
X148888794Y-77372489D01*
X148900000Y-77424000D01*
X148900000Y-78616000D01*
X148880315Y-78683039D01*
X148827511Y-78728794D01*
X148776000Y-78740000D01*
X147374000Y-78740000D01*
X147306961Y-78720315D01*
X147261206Y-78667511D01*
X147250000Y-78616000D01*
X147250000Y-77756060D01*
X147252234Y-77739340D01*
X147251510Y-77739256D01*
X147252585Y-77729991D01*
X147255500Y-77704865D01*
X147255499Y-77493267D01*
X147259202Y-77463193D01*
X147276520Y-77393924D01*
X147311877Y-77333661D01*
X147374201Y-77302080D01*
X147396817Y-77300000D01*
X148776000Y-77300000D01*
X148843039Y-77319685D01*
G37*
%TD.AperFunction*%
%TD*%
%TA.AperFunction,Conductor*%
%TO.N,Net-(Q2B-C2)*%
G36*
X141979367Y-82548101D02*
G01*
X142025122Y-82600905D01*
X142035066Y-82670060D01*
X142034500Y-82673993D01*
X142034500Y-82915459D01*
X142035314Y-82930656D01*
X142035317Y-82930692D01*
X142035678Y-82937425D01*
X142036478Y-82944869D01*
X142036482Y-82944913D01*
X142038512Y-82963787D01*
X142039754Y-82969752D01*
X142039478Y-82969809D01*
X142041452Y-82978510D01*
X142041614Y-82979640D01*
X142041616Y-82979646D01*
X142041617Y-82979651D01*
X142052040Y-83007594D01*
X142052039Y-83007594D01*
X142053202Y-83010713D01*
X142062458Y-83040277D01*
X142063755Y-83042653D01*
X142064886Y-83042034D01*
X142071150Y-83058827D01*
X142071153Y-83058832D01*
X142072145Y-83061492D01*
X142072147Y-83061497D01*
X142082325Y-83077333D01*
X142086719Y-83084721D01*
X142088256Y-83087522D01*
X142088261Y-83087545D01*
X142088347Y-83087703D01*
X142088379Y-83087746D01*
X142095957Y-83101624D01*
X142110940Y-83121641D01*
X142123069Y-83141483D01*
X142134900Y-83165683D01*
X142147500Y-83220145D01*
X142147500Y-84254853D01*
X142134898Y-84309318D01*
X142127923Y-84323584D01*
X142113080Y-84346921D01*
X142099675Y-84363556D01*
X142062509Y-84434608D01*
X142042826Y-84501638D01*
X142042825Y-84501645D01*
X142039589Y-84524150D01*
X142010564Y-84587704D01*
X141951786Y-84625477D01*
X141916852Y-84630500D01*
X138624000Y-84630500D01*
X138556961Y-84610815D01*
X138511206Y-84558011D01*
X138500000Y-84506500D01*
X138500000Y-82652416D01*
X138519685Y-82585377D01*
X138572489Y-82539622D01*
X138624000Y-82528416D01*
X141912328Y-82528416D01*
X141979367Y-82548101D01*
G37*
%TD.AperFunction*%
%TD*%
%TA.AperFunction,Conductor*%
%TO.N,Net-(Q2A-B1)*%
G36*
X144293039Y-77169685D02*
G01*
X144338794Y-77222489D01*
X144350000Y-77274000D01*
X144350000Y-77533940D01*
X144347766Y-77550662D01*
X144348490Y-77550746D01*
X144344500Y-77585131D01*
X144344500Y-77874856D01*
X144344501Y-77874865D01*
X144348490Y-77909259D01*
X144347765Y-77909342D01*
X144350000Y-77926060D01*
X144350000Y-82076000D01*
X144330315Y-82143039D01*
X144277511Y-82188794D01*
X144226000Y-82200000D01*
X140474000Y-82200000D01*
X140406961Y-82180315D01*
X140361206Y-82127511D01*
X140350000Y-82076000D01*
X140350000Y-77274000D01*
X140369685Y-77206961D01*
X140422489Y-77161206D01*
X140474000Y-77150000D01*
X144226000Y-77150000D01*
X144293039Y-77169685D01*
G37*
%TD.AperFunction*%
%TD*%
%TA.AperFunction,Conductor*%
%TO.N,GND*%
G36*
X196323039Y-106239685D02*
G01*
X196368794Y-106292489D01*
X196380000Y-106344000D01*
X196380000Y-117606000D01*
X196360315Y-117673039D01*
X196307511Y-117718794D01*
X196256000Y-117730000D01*
X192610435Y-117730000D01*
X192543396Y-117710315D01*
X192497641Y-117657511D01*
X192487962Y-117625398D01*
X192454769Y-117415827D01*
X192454769Y-117415825D01*
X192389080Y-117213656D01*
X192292574Y-117024252D01*
X192292572Y-117024249D01*
X192292571Y-117024247D01*
X192167632Y-116852281D01*
X192017309Y-116701958D01*
X191845343Y-116577019D01*
X191655937Y-116480512D01*
X191655936Y-116480511D01*
X191655935Y-116480511D01*
X191453766Y-116414822D01*
X191453764Y-116414821D01*
X191453763Y-116414821D01*
X191292480Y-116389276D01*
X191243810Y-116381568D01*
X191031236Y-116381568D01*
X190982565Y-116389276D01*
X190821283Y-116414821D01*
X190619108Y-116480512D01*
X190429702Y-116577019D01*
X190257736Y-116701958D01*
X190107413Y-116852281D01*
X189982474Y-117024247D01*
X189885967Y-117213653D01*
X189820276Y-117415827D01*
X189787084Y-117625398D01*
X189757155Y-117688533D01*
X189697843Y-117725464D01*
X189664611Y-117730000D01*
X169594000Y-117730000D01*
X169526961Y-117710315D01*
X169481206Y-117657511D01*
X169470000Y-117606000D01*
X169470000Y-111002135D01*
X186499500Y-111002135D01*
X186499500Y-111997870D01*
X186499501Y-111997876D01*
X186505908Y-112057483D01*
X186556202Y-112192328D01*
X186556206Y-112192335D01*
X186642452Y-112307544D01*
X186642455Y-112307547D01*
X186757664Y-112393793D01*
X186757671Y-112393797D01*
X186892517Y-112444091D01*
X186892516Y-112444091D01*
X186899444Y-112444835D01*
X186952127Y-112450500D01*
X189047872Y-112450499D01*
X189107483Y-112444091D01*
X189242331Y-112393796D01*
X189357546Y-112307546D01*
X189443796Y-112192331D01*
X189494091Y-112057483D01*
X189500500Y-111997873D01*
X189500499Y-111002128D01*
X189494091Y-110942517D01*
X189443796Y-110807669D01*
X189443795Y-110807668D01*
X189443793Y-110807664D01*
X189357547Y-110692455D01*
X189357544Y-110692452D01*
X189242335Y-110606206D01*
X189242328Y-110606202D01*
X189107482Y-110555908D01*
X189107483Y-110555908D01*
X189047883Y-110549501D01*
X189047881Y-110549500D01*
X189047873Y-110549500D01*
X189047864Y-110549500D01*
X186952129Y-110549500D01*
X186952123Y-110549501D01*
X186892516Y-110555908D01*
X186757671Y-110606202D01*
X186757664Y-110606206D01*
X186642455Y-110692452D01*
X186642452Y-110692455D01*
X186556206Y-110807664D01*
X186556202Y-110807671D01*
X186505908Y-110942517D01*
X186499501Y-111002116D01*
X186499501Y-111002123D01*
X186499500Y-111002135D01*
X169470000Y-111002135D01*
X169470000Y-106344000D01*
X169489685Y-106276961D01*
X169542489Y-106231206D01*
X169594000Y-106220000D01*
X196256000Y-106220000D01*
X196323039Y-106239685D01*
G37*
%TD.AperFunction*%
%TD*%
%TA.AperFunction,Conductor*%
%TO.N,GND*%
G36*
X175213039Y-118239685D02*
G01*
X175258794Y-118292489D01*
X175270000Y-118344000D01*
X175270000Y-124096000D01*
X175250315Y-124163039D01*
X175197511Y-124208794D01*
X175146000Y-124220000D01*
X166399500Y-124220000D01*
X166332461Y-124200315D01*
X166286706Y-124147511D01*
X166275500Y-124096000D01*
X166275500Y-118349500D01*
X166295185Y-118282461D01*
X166347989Y-118236706D01*
X166399500Y-118225500D01*
X168645990Y-118225500D01*
X168646000Y-118225500D01*
X168690543Y-118220710D01*
X168703798Y-118220000D01*
X175146000Y-118220000D01*
X175213039Y-118239685D01*
G37*
%TD.AperFunction*%
%TD*%
%TA.AperFunction,Conductor*%
%TO.N,Input*%
G36*
X126877445Y-98299437D02*
G01*
X126944457Y-98319207D01*
X126990145Y-98372069D01*
X127000023Y-98441082D01*
X126994500Y-98479496D01*
X126994500Y-100370500D01*
X126974815Y-100437539D01*
X126922011Y-100483294D01*
X126870500Y-100494500D01*
X118485500Y-100494500D01*
X118485491Y-100494500D01*
X118485490Y-100494501D01*
X118378049Y-100506052D01*
X118378037Y-100506054D01*
X118326536Y-100517258D01*
X118224659Y-100551166D01*
X118154834Y-100553659D01*
X118094745Y-100518007D01*
X118063470Y-100455527D01*
X118061500Y-100433511D01*
X118061500Y-98699018D01*
X118061500Y-98699014D01*
X118057550Y-98658916D01*
X118057548Y-98658910D01*
X118057546Y-98658892D01*
X118048112Y-98611473D01*
X118048110Y-98611465D01*
X118047424Y-98609205D01*
X118044463Y-98597390D01*
X118041180Y-98580881D01*
X118038800Y-98556702D01*
X118038800Y-98444401D01*
X118058485Y-98377362D01*
X118111289Y-98331607D01*
X118162800Y-98320401D01*
X119057325Y-98320401D01*
X119124364Y-98340086D01*
X119131746Y-98345217D01*
X119134420Y-98347223D01*
X119140051Y-98351058D01*
X119153679Y-98358584D01*
X119153649Y-98358636D01*
X119156895Y-98360121D01*
X119213419Y-98392673D01*
X119280207Y-98413194D01*
X119337994Y-98422241D01*
X119532908Y-98424677D01*
X121871869Y-98453914D01*
X121871870Y-98453913D01*
X121871881Y-98453914D01*
X121897259Y-98451426D01*
X121916860Y-98449505D01*
X121916862Y-98449504D01*
X121916877Y-98449503D01*
X121969938Y-98438307D01*
X121981373Y-98435550D01*
X122062085Y-98392540D01*
X122114889Y-98346785D01*
X122132843Y-98329194D01*
X122132843Y-98329193D01*
X122133094Y-98328948D01*
X122194755Y-98296090D01*
X122220026Y-98293519D01*
X126877445Y-98299437D01*
G37*
%TD.AperFunction*%
%TD*%
%TA.AperFunction,Conductor*%
%TO.N,Net-(Q1B-C2)*%
G36*
X154675351Y-84041704D02*
G01*
X154680449Y-84044196D01*
X154732034Y-84091314D01*
X154750000Y-84155601D01*
X154750000Y-87145500D01*
X154730315Y-87212539D01*
X154677511Y-87258294D01*
X154626000Y-87269500D01*
X152324000Y-87269500D01*
X152256961Y-87249815D01*
X152211206Y-87197011D01*
X152200000Y-87145500D01*
X152200000Y-84153113D01*
X152219685Y-84086074D01*
X152272489Y-84040319D01*
X152324000Y-84029113D01*
X154620909Y-84029113D01*
X154675351Y-84041704D01*
G37*
%TD.AperFunction*%
%TD*%
%TA.AperFunction,Conductor*%
%TO.N,GND*%
G36*
X146436103Y-91959750D02*
G01*
X146503101Y-91979570D01*
X146548750Y-92032466D01*
X146559852Y-92083897D01*
X146550147Y-100255647D01*
X146530383Y-100322663D01*
X146477524Y-100368355D01*
X146425648Y-100379499D01*
X138365743Y-100347088D01*
X138298784Y-100327134D01*
X138253241Y-100274146D01*
X138242245Y-100223975D01*
X138225360Y-97860000D01*
X129911362Y-97860000D01*
X129877306Y-97850000D01*
X129850000Y-97850000D01*
X123634000Y-97850000D01*
X123566961Y-97830315D01*
X123521206Y-97777511D01*
X123510000Y-97726000D01*
X123510000Y-97100000D01*
X122085506Y-97100000D01*
X122023624Y-97083455D01*
X122004695Y-97072554D01*
X122004691Y-97072552D01*
X121937914Y-97052034D01*
X121937909Y-97052033D01*
X121880121Y-97042984D01*
X119283809Y-97010531D01*
X119283777Y-97010530D01*
X119283710Y-97010530D01*
X119280581Y-97010515D01*
X119280573Y-97010515D01*
X119280569Y-97010515D01*
X119276913Y-97010525D01*
X119216063Y-97019913D01*
X119149395Y-97040790D01*
X119131646Y-97049282D01*
X119125637Y-97052158D01*
X119125434Y-97052255D01*
X119071915Y-97064399D01*
X118162800Y-97064399D01*
X118154114Y-97061848D01*
X118145153Y-97063137D01*
X118121112Y-97052158D01*
X118095761Y-97044714D01*
X118089833Y-97037873D01*
X118081597Y-97034112D01*
X118067307Y-97011877D01*
X118050006Y-96991910D01*
X118047718Y-96981395D01*
X118043823Y-96975334D01*
X118038800Y-96940399D01*
X118038800Y-96828094D01*
X118041182Y-96803908D01*
X118044461Y-96787420D01*
X118047422Y-96775605D01*
X118048113Y-96773329D01*
X118057552Y-96725875D01*
X118061500Y-96685785D01*
X118061500Y-95481131D01*
X118061500Y-95481121D01*
X118059589Y-95453169D01*
X118059589Y-95453168D01*
X118054997Y-95419735D01*
X118025671Y-95338782D01*
X117988640Y-95279533D01*
X117987463Y-95277883D01*
X117964546Y-95211878D01*
X117964400Y-95205857D01*
X117964400Y-94254927D01*
X117974964Y-94204844D01*
X117999185Y-94149991D01*
X118002100Y-94124865D01*
X118002099Y-93835136D01*
X118002097Y-93835117D01*
X117999186Y-93810012D01*
X117999185Y-93810011D01*
X117999185Y-93810009D01*
X117974965Y-93755155D01*
X117972915Y-93745439D01*
X117969423Y-93740005D01*
X117964400Y-93705070D01*
X117964400Y-93623953D01*
X117984085Y-93556914D01*
X118036889Y-93511159D01*
X118088400Y-93499953D01*
X127336844Y-93499953D01*
X131646086Y-93502881D01*
X131713110Y-93522611D01*
X131758829Y-93575446D01*
X131770000Y-93626881D01*
X131770000Y-95720000D01*
X132979860Y-95720000D01*
X132980289Y-95720001D01*
X135869999Y-95730000D01*
X135869999Y-95729999D01*
X135870000Y-95730000D01*
X135877366Y-92938007D01*
X135879674Y-92063673D01*
X135899536Y-91996686D01*
X135952460Y-91951070D01*
X136003674Y-91940000D01*
X136630000Y-91940000D01*
X146436103Y-91959750D01*
G37*
%TD.AperFunction*%
%TD*%
%TA.AperFunction,Conductor*%
%TO.N,Net-(D1-K)*%
G36*
X168713039Y-112239685D02*
G01*
X168758794Y-112292489D01*
X168770000Y-112344000D01*
X168770000Y-117596000D01*
X168750315Y-117663039D01*
X168697511Y-117708794D01*
X168646000Y-117720000D01*
X165770000Y-117720000D01*
X165770000Y-126096000D01*
X165750315Y-126163039D01*
X165697511Y-126208794D01*
X165646000Y-126220000D01*
X165270000Y-126220000D01*
X163270000Y-126220000D01*
X157862000Y-126220000D01*
X157794961Y-126200315D01*
X157749206Y-126147511D01*
X157738000Y-126096000D01*
X157738000Y-121106859D01*
X158499000Y-121106859D01*
X158499000Y-121433132D01*
X158499001Y-121433138D01*
X158505241Y-121480545D01*
X158505242Y-121480548D01*
X158505243Y-121480551D01*
X158534175Y-121542596D01*
X158544667Y-121611673D01*
X158534176Y-121647404D01*
X158505240Y-121709458D01*
X158499000Y-121756859D01*
X158499000Y-122083132D01*
X158499001Y-122083138D01*
X158505241Y-122130545D01*
X158553753Y-122234579D01*
X158634921Y-122315747D01*
X158738955Y-122364259D01*
X158786361Y-122370500D01*
X160237638Y-122370499D01*
X160285045Y-122364259D01*
X160389079Y-122315747D01*
X160470247Y-122234579D01*
X160518759Y-122130545D01*
X160525000Y-122083139D01*
X160524999Y-121756862D01*
X160518759Y-121709455D01*
X160489823Y-121647403D01*
X160479332Y-121578327D01*
X160489821Y-121542601D01*
X160518759Y-121480545D01*
X160525000Y-121433139D01*
X160524999Y-121106862D01*
X160518759Y-121059455D01*
X160470247Y-120955421D01*
X160389079Y-120874253D01*
X160285045Y-120825741D01*
X160285043Y-120825740D01*
X160285044Y-120825740D01*
X160237639Y-120819500D01*
X158786367Y-120819500D01*
X158771339Y-120821478D01*
X158738955Y-120825741D01*
X158738953Y-120825742D01*
X158738951Y-120825742D01*
X158634920Y-120874253D01*
X158553753Y-120955420D01*
X158505240Y-121059456D01*
X158499000Y-121106859D01*
X157738000Y-121106859D01*
X157738000Y-119806859D01*
X158499000Y-119806859D01*
X158499000Y-120133132D01*
X158499001Y-120133138D01*
X158505241Y-120180545D01*
X158553753Y-120284579D01*
X158634921Y-120365747D01*
X158738955Y-120414259D01*
X158786361Y-120420500D01*
X160237638Y-120420499D01*
X160285045Y-120414259D01*
X160389079Y-120365747D01*
X160470247Y-120284579D01*
X160518759Y-120180545D01*
X160525000Y-120133139D01*
X160524999Y-119806862D01*
X160518759Y-119759455D01*
X160470247Y-119655421D01*
X160389079Y-119574253D01*
X160285045Y-119525741D01*
X160285043Y-119525740D01*
X160285044Y-119525740D01*
X160237639Y-119519500D01*
X158786367Y-119519500D01*
X158771339Y-119521478D01*
X158738955Y-119525741D01*
X158738953Y-119525742D01*
X158738951Y-119525742D01*
X158634920Y-119574253D01*
X158553753Y-119655420D01*
X158505240Y-119759456D01*
X158499000Y-119806859D01*
X157738000Y-119806859D01*
X157738000Y-112344000D01*
X157757685Y-112276961D01*
X157810489Y-112231206D01*
X157862000Y-112220000D01*
X168646000Y-112220000D01*
X168713039Y-112239685D01*
G37*
%TD.AperFunction*%
%TD*%
%TA.AperFunction,Conductor*%
%TO.N,Net-(Q1A-B1)*%
G36*
X161853039Y-79059685D02*
G01*
X161898794Y-79112489D01*
X161910000Y-79164000D01*
X161910000Y-79320051D01*
X161899435Y-79370136D01*
X161877415Y-79420006D01*
X161877415Y-79420008D01*
X161874500Y-79445131D01*
X161874500Y-79734856D01*
X161874502Y-79734882D01*
X161877413Y-79759987D01*
X161877414Y-79759988D01*
X161877414Y-79759990D01*
X161877415Y-79759991D01*
X161899434Y-79809860D01*
X161910000Y-79859945D01*
X161910000Y-80010000D01*
X161910000Y-80160000D01*
X166686905Y-80160000D01*
X166753944Y-80179685D01*
X166799699Y-80232489D01*
X166810905Y-80284345D01*
X166801595Y-83626345D01*
X166781723Y-83693330D01*
X166728792Y-83738937D01*
X166677595Y-83750000D01*
X160434000Y-83750000D01*
X160366961Y-83730315D01*
X160321206Y-83677511D01*
X160310000Y-83626000D01*
X160310000Y-79164000D01*
X160329685Y-79096961D01*
X160382489Y-79051206D01*
X160434000Y-79040000D01*
X161786000Y-79040000D01*
X161853039Y-79059685D01*
G37*
%TD.AperFunction*%
%TD*%
%TA.AperFunction,Conductor*%
%TO.N,Net-(Q1B-C2)*%
G36*
X166943039Y-77819685D02*
G01*
X166988794Y-77872489D01*
X167000000Y-77924000D01*
X167000000Y-79776000D01*
X166980315Y-79843039D01*
X166927511Y-79888794D01*
X166876000Y-79900000D01*
X165671720Y-79900000D01*
X165604681Y-79880315D01*
X165558926Y-79827511D01*
X165548546Y-79761710D01*
X165550499Y-79744871D01*
X165550500Y-79744865D01*
X165550499Y-79455136D01*
X165550497Y-79455117D01*
X165547586Y-79430012D01*
X165547585Y-79430010D01*
X165547585Y-79430009D01*
X165510566Y-79346168D01*
X165500000Y-79296082D01*
X165500000Y-77924000D01*
X165519685Y-77856961D01*
X165572489Y-77811206D01*
X165624000Y-77800000D01*
X166876000Y-77800000D01*
X166943039Y-77819685D01*
G37*
%TD.AperFunction*%
%TD*%
%TA.AperFunction,Conductor*%
%TO.N,Net-(U2-\u002AQ)*%
G36*
X121877551Y-97248469D02*
G01*
X121944338Y-97268990D01*
X121989429Y-97322361D01*
X122000000Y-97372459D01*
X122000000Y-98124440D01*
X121980315Y-98191479D01*
X121927511Y-98237234D01*
X121874450Y-98248430D01*
X119340563Y-98216757D01*
X119273775Y-98196236D01*
X119255357Y-98177914D01*
X119253788Y-98179484D01*
X119245153Y-98170849D01*
X119178830Y-98126533D01*
X119178829Y-98126532D01*
X119120352Y-98114901D01*
X119120348Y-98114901D01*
X118124000Y-98114901D01*
X118056961Y-98095216D01*
X118011206Y-98042412D01*
X118000000Y-97990901D01*
X118000000Y-97393899D01*
X118019685Y-97326860D01*
X118072489Y-97281105D01*
X118124000Y-97269899D01*
X119120350Y-97269899D01*
X119120351Y-97269898D01*
X119178831Y-97258266D01*
X119210804Y-97236901D01*
X119277474Y-97216024D01*
X119281141Y-97216014D01*
X121877551Y-97248469D01*
G37*
%TD.AperFunction*%
%TD*%
%TA.AperFunction,Conductor*%
%TO.N,Net-(Q2B-C2)*%
G36*
X130400216Y-83300001D02*
G01*
X132976575Y-83311928D01*
X133043522Y-83331923D01*
X133089032Y-83384938D01*
X133100000Y-83435927D01*
X133100000Y-85476000D01*
X133080315Y-85543039D01*
X133027511Y-85588794D01*
X132976000Y-85600000D01*
X129874000Y-85600000D01*
X129806961Y-85580315D01*
X129761206Y-85527511D01*
X129750000Y-85476000D01*
X129750000Y-83424000D01*
X129769685Y-83356961D01*
X129822489Y-83311206D01*
X129874000Y-83300000D01*
X130399642Y-83300000D01*
X130400216Y-83300001D01*
G37*
%TD.AperFunction*%
%TD*%
%TA.AperFunction,Conductor*%
%TO.N,Net-(Q1B-C2)*%
G36*
X163922127Y-84069685D02*
G01*
X163967882Y-84122489D01*
X163977826Y-84191647D01*
X163977826Y-84191648D01*
X163969500Y-84249553D01*
X163969500Y-87145500D01*
X163949815Y-87212539D01*
X163897011Y-87258294D01*
X163845500Y-87269500D01*
X161674000Y-87269500D01*
X161606961Y-87249815D01*
X161561206Y-87197011D01*
X161550000Y-87145500D01*
X161550000Y-84174000D01*
X161569685Y-84106961D01*
X161622489Y-84061206D01*
X161674000Y-84050000D01*
X163855088Y-84050000D01*
X163922127Y-84069685D01*
G37*
%TD.AperFunction*%
%TD*%
%TA.AperFunction,Conductor*%
%TO.N,/Relay wire*%
G36*
X186605842Y-97019685D02*
G01*
X186651597Y-97072489D01*
X186661541Y-97141647D01*
X186638069Y-97198311D01*
X186556206Y-97307664D01*
X186556202Y-97307671D01*
X186505908Y-97442517D01*
X186499501Y-97502116D01*
X186499501Y-97502123D01*
X186499500Y-97502135D01*
X186499500Y-98497870D01*
X186499501Y-98497876D01*
X186505908Y-98557483D01*
X186556202Y-98692328D01*
X186556206Y-98692335D01*
X186642452Y-98807544D01*
X186642455Y-98807547D01*
X186757664Y-98893793D01*
X186757671Y-98893797D01*
X186892517Y-98944091D01*
X186892516Y-98944091D01*
X186899444Y-98944835D01*
X186952127Y-98950500D01*
X189047872Y-98950499D01*
X189107483Y-98944091D01*
X189242331Y-98893796D01*
X189357546Y-98807546D01*
X189443796Y-98692331D01*
X189494091Y-98557483D01*
X189500500Y-98497873D01*
X189500499Y-97502128D01*
X189494091Y-97442517D01*
X189443796Y-97307669D01*
X189443795Y-97307668D01*
X189443793Y-97307664D01*
X189361931Y-97198311D01*
X189337513Y-97132847D01*
X189352364Y-97064574D01*
X189401769Y-97015168D01*
X189461197Y-97000000D01*
X196513023Y-97000000D01*
X196580062Y-97019685D01*
X196625817Y-97072489D01*
X196637023Y-97124000D01*
X196637023Y-105536000D01*
X196617338Y-105603039D01*
X196564534Y-105648794D01*
X196513023Y-105660000D01*
X166894737Y-105660000D01*
X166827698Y-105640315D01*
X166781943Y-105587511D01*
X166770739Y-105535266D01*
X166810075Y-98893793D01*
X166820250Y-97175759D01*
X166840331Y-97108841D01*
X166893405Y-97063400D01*
X166961893Y-97053759D01*
X166974000Y-97055500D01*
X166974005Y-97055500D01*
X175526614Y-97055500D01*
X175526619Y-97055500D01*
X175632831Y-97044216D01*
X175683778Y-97033267D01*
X175744713Y-97013238D01*
X175766130Y-97006200D01*
X175804848Y-97000000D01*
X186538803Y-97000000D01*
X186605842Y-97019685D01*
G37*
%TD.AperFunction*%
%TD*%
%TA.AperFunction,Conductor*%
%TO.N,+3.3V*%
G36*
X117265985Y-95353649D02*
G01*
X117272369Y-95352649D01*
X117306356Y-95362165D01*
X117318883Y-95367696D01*
X117330409Y-95372785D01*
X117355535Y-95375700D01*
X117645264Y-95375699D01*
X117645279Y-95375697D01*
X117645282Y-95375697D01*
X117670385Y-95372786D01*
X117670385Y-95372785D01*
X117670391Y-95372785D01*
X117681917Y-95367695D01*
X117751192Y-95358625D01*
X117814377Y-95388449D01*
X117851408Y-95447698D01*
X117856000Y-95481131D01*
X117856000Y-96685785D01*
X117846561Y-96733239D01*
X117844931Y-96737173D01*
X117833300Y-96795646D01*
X117833300Y-97089151D01*
X117847315Y-97159609D01*
X117843584Y-97160350D01*
X117848735Y-97208246D01*
X117834926Y-97246764D01*
X117822511Y-97268958D01*
X117802826Y-97335995D01*
X117794500Y-97393902D01*
X117794500Y-97990908D01*
X117799197Y-98034587D01*
X117810397Y-98086075D01*
X117812890Y-98096273D01*
X117812891Y-98096277D01*
X117836220Y-98140056D01*
X117850374Y-98208477D01*
X117846382Y-98225006D01*
X117847315Y-98225192D01*
X117833300Y-98295648D01*
X117833300Y-98589153D01*
X117844931Y-98647629D01*
X117846558Y-98651555D01*
X117856000Y-98699014D01*
X117856000Y-107391200D01*
X137848800Y-107391200D01*
X137915839Y-107410885D01*
X137961594Y-107463689D01*
X137972800Y-107515200D01*
X137972800Y-112804400D01*
X137953115Y-112871439D01*
X137900311Y-112917194D01*
X137848800Y-112928400D01*
X120548843Y-112928400D01*
X120481804Y-112908715D01*
X120436049Y-112855911D01*
X120426105Y-112786753D01*
X120455130Y-112723197D01*
X120513908Y-112685423D01*
X120524651Y-112682783D01*
X120526684Y-112682378D01*
X120527897Y-112682137D01*
X120673579Y-112621794D01*
X120804689Y-112534189D01*
X120916189Y-112422689D01*
X121003794Y-112291579D01*
X121064137Y-112145897D01*
X121094900Y-111991242D01*
X121094900Y-111833558D01*
X121094900Y-111833555D01*
X121094899Y-111833553D01*
X121064137Y-111678903D01*
X121064135Y-111678898D01*
X121003797Y-111533227D01*
X121003790Y-111533214D01*
X120916189Y-111402111D01*
X120916186Y-111402107D01*
X120804692Y-111290613D01*
X120804688Y-111290610D01*
X120673585Y-111203009D01*
X120673572Y-111203002D01*
X120527901Y-111142664D01*
X120527889Y-111142661D01*
X120373245Y-111111900D01*
X120373242Y-111111900D01*
X120215558Y-111111900D01*
X120215555Y-111111900D01*
X120060910Y-111142661D01*
X120060898Y-111142664D01*
X119915227Y-111203002D01*
X119915214Y-111203009D01*
X119784111Y-111290610D01*
X119784107Y-111290613D01*
X119672613Y-111402107D01*
X119672610Y-111402111D01*
X119585009Y-111533214D01*
X119585002Y-111533227D01*
X119524664Y-111678898D01*
X119524661Y-111678910D01*
X119493900Y-111833553D01*
X119493900Y-111991246D01*
X119524661Y-112145889D01*
X119524664Y-112145901D01*
X119585002Y-112291572D01*
X119585009Y-112291585D01*
X119672610Y-112422688D01*
X119672613Y-112422692D01*
X119784107Y-112534186D01*
X119784111Y-112534189D01*
X119915214Y-112621790D01*
X119915227Y-112621797D01*
X120060898Y-112682135D01*
X120060903Y-112682137D01*
X120060907Y-112682137D01*
X120060908Y-112682138D01*
X120064149Y-112682783D01*
X120065689Y-112683588D01*
X120066735Y-112683906D01*
X120066674Y-112684104D01*
X120126060Y-112715168D01*
X120160634Y-112775884D01*
X120156894Y-112845653D01*
X120116027Y-112902325D01*
X120051009Y-112927906D01*
X120039957Y-112928400D01*
X116282720Y-112928400D01*
X116215681Y-112908715D01*
X116195039Y-112892081D01*
X113777519Y-110474561D01*
X113744034Y-110413238D01*
X113741200Y-110386880D01*
X113741200Y-109293553D01*
X119493900Y-109293553D01*
X119493900Y-109451246D01*
X119524661Y-109605889D01*
X119524664Y-109605901D01*
X119585002Y-109751572D01*
X119585009Y-109751585D01*
X119672610Y-109882688D01*
X119672613Y-109882692D01*
X119784107Y-109994186D01*
X119784111Y-109994189D01*
X119915214Y-110081790D01*
X119915227Y-110081797D01*
X120060898Y-110142135D01*
X120060903Y-110142137D01*
X120215553Y-110172899D01*
X120215556Y-110172900D01*
X120215558Y-110172900D01*
X120373244Y-110172900D01*
X120373245Y-110172899D01*
X120527897Y-110142137D01*
X120673579Y-110081794D01*
X120804689Y-109994189D01*
X120916189Y-109882689D01*
X121003794Y-109751579D01*
X121064137Y-109605897D01*
X121094900Y-109451242D01*
X121094900Y-109293558D01*
X121094900Y-109293555D01*
X121094899Y-109293553D01*
X121064138Y-109138910D01*
X121064137Y-109138903D01*
X121064135Y-109138898D01*
X121003797Y-108993227D01*
X121003790Y-108993214D01*
X120916189Y-108862111D01*
X120916186Y-108862107D01*
X120804692Y-108750613D01*
X120804688Y-108750610D01*
X120673585Y-108663009D01*
X120673572Y-108663002D01*
X120527901Y-108602664D01*
X120527889Y-108602661D01*
X120448408Y-108586851D01*
X120448407Y-108586851D01*
X120373244Y-108571900D01*
X120373242Y-108571900D01*
X120215558Y-108571900D01*
X120215555Y-108571900D01*
X120060910Y-108602661D01*
X120060898Y-108602664D01*
X119915227Y-108663002D01*
X119915214Y-108663009D01*
X119784111Y-108750610D01*
X119784107Y-108750613D01*
X119672613Y-108862107D01*
X119672610Y-108862111D01*
X119585009Y-108993214D01*
X119585002Y-108993227D01*
X119524664Y-109138898D01*
X119524661Y-109138910D01*
X119493900Y-109293553D01*
X113741200Y-109293553D01*
X113741200Y-108468129D01*
X121533900Y-108468129D01*
X121533900Y-110276660D01*
X121533901Y-110276666D01*
X121536754Y-110307100D01*
X121536754Y-110307102D01*
X121536755Y-110307103D01*
X121536755Y-110307105D01*
X121581606Y-110435282D01*
X121662249Y-110544550D01*
X121716883Y-110584871D01*
X121771517Y-110625193D01*
X121814244Y-110640144D01*
X121899698Y-110670046D01*
X121906723Y-110670704D01*
X121930133Y-110672900D01*
X123738666Y-110672899D01*
X123769100Y-110670046D01*
X123897283Y-110625193D01*
X124006550Y-110544550D01*
X124087193Y-110435283D01*
X124109619Y-110371191D01*
X124132046Y-110307102D01*
X124132046Y-110307100D01*
X124132850Y-110298524D01*
X124134900Y-110276667D01*
X124134899Y-108468134D01*
X124132046Y-108437700D01*
X124087193Y-108309517D01*
X124006550Y-108200249D01*
X123932523Y-108145615D01*
X123897283Y-108119607D01*
X123897281Y-108119606D01*
X123769101Y-108074753D01*
X123738670Y-108071900D01*
X121930139Y-108071900D01*
X121916151Y-108073211D01*
X121899700Y-108074754D01*
X121899697Y-108074754D01*
X121899696Y-108074755D01*
X121899694Y-108074755D01*
X121771517Y-108119606D01*
X121662249Y-108200249D01*
X121581606Y-108309518D01*
X121536753Y-108437697D01*
X121536753Y-108437699D01*
X121533900Y-108468129D01*
X113741200Y-108468129D01*
X113741200Y-97863200D01*
X113760885Y-97796161D01*
X113813689Y-97750406D01*
X113865200Y-97739200D01*
X114471092Y-97739200D01*
X114507860Y-97746514D01*
X114508139Y-97745477D01*
X114515988Y-97747580D01*
X114515990Y-97747581D01*
X114599284Y-97769900D01*
X114599286Y-97769900D01*
X116275550Y-97769900D01*
X116275551Y-97769899D01*
X116290368Y-97766952D01*
X116334029Y-97758268D01*
X116345313Y-97753594D01*
X116346088Y-97755465D01*
X116397967Y-97739220D01*
X116400182Y-97739200D01*
X116535200Y-97739200D01*
X116535200Y-95475600D01*
X116554885Y-95408561D01*
X116607689Y-95362806D01*
X116659200Y-95351600D01*
X117256271Y-95351600D01*
X117265985Y-95353649D01*
G37*
%TD.AperFunction*%
%TD*%
%TA.AperFunction,Conductor*%
%TO.N,GND*%
G36*
X165313039Y-58520185D02*
G01*
X165358794Y-58572989D01*
X165370000Y-58624500D01*
X165370000Y-66675500D01*
X165350315Y-66742539D01*
X165297511Y-66788294D01*
X165246000Y-66799500D01*
X165180247Y-66799500D01*
X165121770Y-66811131D01*
X165121769Y-66811132D01*
X165055447Y-66855447D01*
X165011132Y-66921769D01*
X165011131Y-66921770D01*
X164999500Y-66980247D01*
X164999500Y-69019752D01*
X165011131Y-69078229D01*
X165011132Y-69078230D01*
X165055447Y-69144552D01*
X165121769Y-69188867D01*
X165121770Y-69188868D01*
X165180247Y-69200499D01*
X165180250Y-69200500D01*
X165246000Y-69200500D01*
X165313039Y-69220185D01*
X165358794Y-69272989D01*
X165370000Y-69324500D01*
X165370000Y-77681839D01*
X165354221Y-77742373D01*
X165322509Y-77799065D01*
X165302826Y-77866096D01*
X165294500Y-77924003D01*
X165294500Y-79296086D01*
X165298924Y-79338489D01*
X165298927Y-79338507D01*
X165309492Y-79388585D01*
X165323520Y-79432104D01*
X165329500Y-79470147D01*
X165329500Y-79744856D01*
X165329502Y-79744880D01*
X165332413Y-79769985D01*
X165332415Y-79769992D01*
X165337017Y-79780413D01*
X165346089Y-79849691D01*
X165316266Y-79912876D01*
X165257017Y-79949908D01*
X165223583Y-79954500D01*
X162237101Y-79954500D01*
X162205567Y-79945240D01*
X162173727Y-79937082D01*
X162172205Y-79935444D01*
X162170062Y-79934815D01*
X162148548Y-79909987D01*
X162126165Y-79885900D01*
X162125398Y-79883271D01*
X162124307Y-79882011D01*
X162115051Y-79852402D01*
X162114243Y-79847901D01*
X162111074Y-79817526D01*
X162100508Y-79767441D01*
X162098921Y-79762519D01*
X162097449Y-79754314D01*
X162098111Y-79748209D01*
X162095499Y-79732417D01*
X162095499Y-79447588D01*
X162100557Y-79415900D01*
X162099682Y-79415668D01*
X162100510Y-79412552D01*
X162111073Y-79362475D01*
X162111075Y-79362466D01*
X162115500Y-79320051D01*
X162115500Y-79164000D01*
X162110803Y-79120316D01*
X162106897Y-79102364D01*
X162099602Y-79068825D01*
X162099348Y-79067789D01*
X162097110Y-79058627D01*
X162097107Y-79058622D01*
X162097107Y-79058620D01*
X162068558Y-79005045D01*
X162068554Y-79005040D01*
X162054100Y-78977915D01*
X162050000Y-78973183D01*
X162050000Y-78970000D01*
X162047242Y-78970000D01*
X162008345Y-78925111D01*
X162008344Y-78925110D01*
X162008338Y-78925103D01*
X161990757Y-78907160D01*
X161990756Y-78907159D01*
X161990754Y-78907157D01*
X161990752Y-78907156D01*
X161990750Y-78907154D01*
X161910940Y-78862511D01*
X161910935Y-78862509D01*
X161843903Y-78842826D01*
X161843899Y-78842825D01*
X161843898Y-78842825D01*
X161786000Y-78834500D01*
X160434000Y-78834500D01*
X160433992Y-78834500D01*
X160390313Y-78839197D01*
X160338825Y-78850397D01*
X160328627Y-78852890D01*
X160328624Y-78852891D01*
X160247916Y-78895899D01*
X160247915Y-78895900D01*
X160197351Y-78939713D01*
X160133797Y-78968738D01*
X160116150Y-78970000D01*
X159704000Y-78970000D01*
X159636961Y-78950315D01*
X159591206Y-78897511D01*
X159580000Y-78846000D01*
X159580000Y-76150055D01*
X159570000Y-64769876D01*
X159539390Y-58625118D01*
X159558740Y-58557981D01*
X159611315Y-58511964D01*
X159663388Y-58500500D01*
X165246000Y-58500500D01*
X165313039Y-58520185D01*
G37*
%TD.AperFunction*%
%TD*%
%TA.AperFunction,Conductor*%
%TO.N,Vbat2*%
G36*
X158854080Y-58520185D02*
G01*
X158899835Y-58572989D01*
X158911039Y-58623791D01*
X159054087Y-83644491D01*
X159034786Y-83711642D01*
X158982244Y-83757698D01*
X158930089Y-83769200D01*
X150796800Y-83769200D01*
X150729761Y-83749515D01*
X150684006Y-83696711D01*
X150672800Y-83645200D01*
X150672800Y-66980247D01*
X151499500Y-66980247D01*
X151499500Y-69019752D01*
X151511131Y-69078229D01*
X151511132Y-69078230D01*
X151555447Y-69144552D01*
X151621769Y-69188867D01*
X151621770Y-69188868D01*
X151680247Y-69200499D01*
X151680250Y-69200500D01*
X151680252Y-69200500D01*
X152619750Y-69200500D01*
X152619751Y-69200499D01*
X152634568Y-69197552D01*
X152678229Y-69188868D01*
X152678229Y-69188867D01*
X152678231Y-69188867D01*
X152744552Y-69144552D01*
X152788867Y-69078231D01*
X152788867Y-69078229D01*
X152788868Y-69078229D01*
X152800499Y-69019752D01*
X152800500Y-69019750D01*
X152800500Y-66980249D01*
X152800499Y-66980247D01*
X152788868Y-66921770D01*
X152788867Y-66921769D01*
X152744552Y-66855447D01*
X152678230Y-66811132D01*
X152678229Y-66811131D01*
X152619752Y-66799500D01*
X152619748Y-66799500D01*
X151680252Y-66799500D01*
X151680247Y-66799500D01*
X151621770Y-66811131D01*
X151621769Y-66811132D01*
X151555447Y-66855447D01*
X151511132Y-66921769D01*
X151511131Y-66921770D01*
X151499500Y-66980247D01*
X150672800Y-66980247D01*
X150672800Y-58624500D01*
X150692485Y-58557461D01*
X150745289Y-58511706D01*
X150796800Y-58500500D01*
X158787041Y-58500500D01*
X158854080Y-58520185D01*
G37*
%TD.AperFunction*%
%TD*%
%TA.AperFunction,Conductor*%
%TO.N,Vbat2*%
G36*
X169243039Y-84019685D02*
G01*
X169288794Y-84072489D01*
X169300000Y-84124000D01*
X169300000Y-86247817D01*
X169280315Y-86314856D01*
X169227511Y-86360611D01*
X169177459Y-86371808D01*
X165452635Y-86415630D01*
X165385368Y-86396736D01*
X165338995Y-86344474D01*
X165327182Y-86292881D01*
X165325462Y-86121220D01*
X165324181Y-86100285D01*
X165321353Y-86075170D01*
X165297507Y-85999678D01*
X165275168Y-85958767D01*
X165260000Y-85899340D01*
X165260000Y-84621627D01*
X165273695Y-84564980D01*
X165281702Y-84549390D01*
X165300714Y-84482157D01*
X165300715Y-84482150D01*
X165308457Y-84424191D01*
X165308457Y-84424187D01*
X165308458Y-84424180D01*
X165306713Y-84250018D01*
X165304328Y-84220793D01*
X165298955Y-84185910D01*
X165297936Y-84183261D01*
X165292826Y-84166525D01*
X165292708Y-84166014D01*
X165291016Y-84158314D01*
X165289599Y-84152476D01*
X165289434Y-84151755D01*
X165291479Y-84117625D01*
X165293108Y-84083443D01*
X165293566Y-84082798D01*
X165293614Y-84082010D01*
X165313776Y-84054417D01*
X165333636Y-84026529D01*
X165334370Y-84026234D01*
X165334837Y-84025597D01*
X165366722Y-84013283D01*
X165398501Y-84000561D01*
X165399829Y-84000497D01*
X165400015Y-84000426D01*
X165400263Y-84000477D01*
X165410288Y-84000000D01*
X169176000Y-84000000D01*
X169243039Y-84019685D01*
G37*
%TD.AperFunction*%
%TD*%
M02*
