<?xml version="1.0" standalone="no"?>
 <!DOCTYPE svg PUBLIC "-//W3C//DTD SVG 1.1//EN" 
 "http://www.w3.org/Graphics/SVG/1.1/DTD/svg11.dtd"> 
<svg
  xmlns:svg="http://www.w3.org/2000/svg"
  xmlns="http://www.w3.org/2000/svg"
  xmlns:xlink="http://www.w3.org/1999/xlink"
  version="1.1"
  width="297.0022mm" height="210.0072mm" viewBox="0.0000 0.0000 297.0022 210.0072">
<title>SVG Image created as E-Stop-F_Paste.svg date 2025/10/16 20:11:00 </title>
  <desc>Image generated by PCBNEW </desc>
<g style="fill:#000000; fill-opacity:1.0000;stroke:#000000; stroke-opacity:1.0000;
stroke-linecap:round; stroke-linejoin:round;"
 transform="translate(0 0) scale(1 1)">
</g>
<g style="fill:#000000; fill-opacity:1.0000; 
stroke:#000000; stroke-width:0.0212; stroke-opacity:1; 
stroke-linecap:round; stroke-linejoin:round;">
<rect x="82.915477" y="51.651750" width="139.769048" height="99.948250" rx="0.000000" />
<path style="fill:#4A5F65; fill-opacity:0.9000; stroke:none;fill-rule:evenodd;"
d="M 133.5000,94.3250
133.5156,94.2180
133.5698,94.1071
133.6571,94.0198
133.7680,93.9656
133.8750,93.9500
135.1250,93.9500
135.2320,93.9656
135.3429,94.0198
135.4302,94.1071
135.4844,94.2180
135.5000,94.3250
135.5000,95.0750
135.4844,95.1820
135.4302,95.2929
135.3429,95.3802
135.2320,95.4344
135.1250,95.4500
133.8750,95.4500
133.7680,95.4344
133.6571,95.3802
133.5698,95.2929
133.5156,95.1820
133.5000,95.0750
Z" /> 
<path style="fill:#4A5F65; fill-opacity:0.9000; stroke:none;fill-rule:evenodd;"
d="M 133.5000,96.6250
133.5156,96.5180
133.5698,96.4071
133.6571,96.3198
133.7680,96.2656
133.8750,96.2500
135.1250,96.2500
135.2320,96.2656
135.3429,96.3198
135.4302,96.4071
135.4844,96.5180
135.5000,96.6250
135.5000,97.3750
135.4844,97.4820
135.4302,97.5929
135.3429,97.6802
135.2320,97.7344
135.1250,97.7500
133.8750,97.7500
133.7680,97.7344
133.6571,97.6802
133.5698,97.5929
133.5156,97.4820
133.5000,97.3750
Z" /> 
<path style="fill:#4A5F65; fill-opacity:0.9000; stroke:none;fill-rule:evenodd;"
d="M 139.8000,95.6000
139.8114,95.4937
139.8612,95.3604
139.9464,95.2464
140.0604,95.1612
140.1937,95.1114
140.3000,95.1000
141.3000,95.1000
141.4063,95.1114
141.5396,95.1612
141.6536,95.2464
141.7388,95.3604
141.7886,95.4937
141.8000,95.6000
141.8000,98.4000
141.7886,98.5063
141.7388,98.6396
141.6536,98.7536
141.5396,98.8388
141.4063,98.8886
141.3000,98.9000
140.3000,98.9000
140.1937,98.8886
140.0604,98.8388
139.9464,98.7536
139.8612,98.6396
139.8114,98.5063
139.8000,98.4000
Z" /> 
<path style="fill:#4A5F65; fill-opacity:0.9000; stroke:none;fill-rule:evenodd;"
d="M 133.5000,98.9250
133.5156,98.8180
133.5698,98.7071
133.6571,98.6198
133.7680,98.5656
133.8750,98.5500
135.1250,98.5500
135.2320,98.5656
135.3429,98.6198
135.4302,98.7071
135.4844,98.8180
135.5000,98.9250
135.5000,99.6750
135.4844,99.7820
135.4302,99.8929
135.3429,99.9802
135.2320,100.0344
135.1250,100.0500
133.8750,100.0500
133.7680,100.0344
133.6571,99.9802
133.5698,99.8929
133.5156,99.7820
133.5000,99.6750
Z" /> 
<path style="fill:#4A5F65; fill-opacity:0.9000; stroke:none;fill-rule:evenodd;"
d="M 117.3876,93.8795
117.3937,93.8491
117.4109,93.8233
117.4367,93.8061
117.4671,93.8000
117.6261,93.8000
117.6565,93.8061
117.6823,93.8233
117.6995,93.8491
117.7056,93.8795
117.7056,94.0805
117.6995,94.1109
117.6823,94.1367
117.6565,94.1539
117.6261,94.1600
117.4671,94.1600
117.4367,94.1539
117.4109,94.1367
117.3937,94.1109
117.3876,94.0805
Z" /> 
<path style="fill:#4A5F65; fill-opacity:0.9000; stroke:none;fill-rule:evenodd;"
d="M 118.0776,93.8795
118.0837,93.8491
118.1009,93.8233
118.1267,93.8061
118.1571,93.8000
118.3161,93.8000
118.3465,93.8061
118.3723,93.8233
118.3895,93.8491
118.3956,93.8795
118.3956,94.0805
118.3895,94.1109
118.3723,94.1367
118.3465,94.1539
118.3161,94.1600
118.1571,94.1600
118.1267,94.1539
118.1009,94.1367
118.0837,94.1109
118.0776,94.0805
Z" /> 
<path style="fill:#4A5F65; fill-opacity:0.9000; stroke:none;fill-rule:evenodd;"
d="M 143.9510,77.6295
143.9571,77.5991
143.9743,77.5733
144.0001,77.5561
144.0305,77.5500
144.1895,77.5500
144.2199,77.5561
144.2457,77.5733
144.2629,77.5991
144.2690,77.6295
144.2690,77.8305
144.2629,77.8609
144.2457,77.8867
144.2199,77.9039
144.1895,77.9100
144.0305,77.9100
144.0001,77.9039
143.9743,77.8867
143.9571,77.8609
143.9510,77.8305
Z" /> 
<path style="fill:#4A5F65; fill-opacity:0.9000; stroke:none;fill-rule:evenodd;"
d="M 144.6410,77.6295
144.6471,77.5991
144.6643,77.5733
144.6901,77.5561
144.7205,77.5500
144.8795,77.5500
144.9099,77.5561
144.9357,77.5733
144.9529,77.5991
144.9590,77.6295
144.9590,77.8305
144.9529,77.8609
144.9357,77.8867
144.9099,77.9039
144.8795,77.9100
144.7205,77.9100
144.6901,77.9039
144.6643,77.8867
144.6471,77.8609
144.6410,77.8305
Z" /> 
<path style="fill:#4A5F65; fill-opacity:0.9000; stroke:none;fill-rule:evenodd;"
d="M 119.1006,98.3154
119.1006,98.5694
118.0338,98.5694
118.0338,98.3154
Z" /> 
<path style="fill:#4A5F65; fill-opacity:0.9000; stroke:none;fill-rule:evenodd;"
d="M 119.1006,97.8154
119.1006,98.0694
118.0338,98.0694
118.0338,97.8154
Z" /> 
<path style="fill:#4A5F65; fill-opacity:0.9000; stroke:none;fill-rule:evenodd;"
d="M 119.1006,97.3154
119.1006,97.5694
118.0338,97.5694
118.0338,97.3154
Z" /> 
<path style="fill:#4A5F65; fill-opacity:0.9000; stroke:none;fill-rule:evenodd;"
d="M 119.1006,96.8154
119.1006,97.0694
118.0338,97.0694
118.0338,96.8154
Z" /> 
<path style="fill:#4A5F65; fill-opacity:0.9000; stroke:none;fill-rule:evenodd;"
d="M 116.2558,96.8154
116.2558,97.0694
115.1890,97.0694
115.1890,96.8154
Z" /> 
<path style="fill:#4A5F65; fill-opacity:0.9000; stroke:none;fill-rule:evenodd;"
d="M 116.2558,97.3154
116.2558,97.5694
115.1890,97.5694
115.1890,97.3154
Z" /> 
<path style="fill:#4A5F65; fill-opacity:0.9000; stroke:none;fill-rule:evenodd;"
d="M 116.2558,97.8154
116.2558,98.0694
115.1890,98.0694
115.1890,97.8154
Z" /> 
<path style="fill:#4A5F65; fill-opacity:0.9000; stroke:none;fill-rule:evenodd;"
d="M 116.2558,98.3154
116.2558,98.5694
115.1890,98.5694
115.1890,98.3154
Z" /> 
<path style="fill:#4A5F65; fill-opacity:0.9000; stroke:none;fill-rule:evenodd;"
d="M 165.6225,82.3300
165.6799,82.3414
165.7286,82.3739
165.7611,82.4226
165.7725,82.4800
165.7725,83.5050
165.7611,83.5624
165.7286,83.6111
165.6799,83.6436
165.6225,83.6550
165.3225,83.6550
165.2651,83.6436
165.2164,83.6111
165.1839,83.5624
165.1725,83.5050
165.1725,82.4800
165.1839,82.4226
165.2164,82.3739
165.2651,82.3414
165.3225,82.3300
Z" /> 
<path style="fill:#4A5F65; fill-opacity:0.9000; stroke:none;fill-rule:evenodd;"
d="M 164.6725,82.3300
164.7299,82.3414
164.7786,82.3739
164.8111,82.4226
164.8225,82.4800
164.8225,83.5050
164.8111,83.5624
164.7786,83.6111
164.7299,83.6436
164.6725,83.6550
164.3725,83.6550
164.3151,83.6436
164.2664,83.6111
164.2339,83.5624
164.2225,83.5050
164.2225,82.4800
164.2339,82.4226
164.2664,82.3739
164.3151,82.3414
164.3725,82.3300
Z" /> 
<path style="fill:#4A5F65; fill-opacity:0.9000; stroke:none;fill-rule:evenodd;"
d="M 163.7225,82.3300
163.7799,82.3414
163.8286,82.3739
163.8611,82.4226
163.8725,82.4800
163.8725,83.5050
163.8611,83.5624
163.8286,83.6111
163.7799,83.6436
163.7225,83.6550
163.4225,83.6550
163.3651,83.6436
163.3164,83.6111
163.2839,83.5624
163.2725,83.5050
163.2725,82.4800
163.2839,82.4226
163.3164,82.3739
163.3651,82.3414
163.4225,82.3300
Z" /> 
<path style="fill:#4A5F65; fill-opacity:0.9000; stroke:none;fill-rule:evenodd;"
d="M 163.7225,84.6050
163.7799,84.6164
163.8286,84.6489
163.8611,84.6976
163.8725,84.7550
163.8725,85.7800
163.8611,85.8374
163.8286,85.8861
163.7799,85.9186
163.7225,85.9300
163.4225,85.9300
163.3651,85.9186
163.3164,85.8861
163.2839,85.8374
163.2725,85.7800
163.2725,84.7550
163.2839,84.6976
163.3164,84.6489
163.3651,84.6164
163.4225,84.6050
Z" /> 
<path style="fill:#4A5F65; fill-opacity:0.9000; stroke:none;fill-rule:evenodd;"
d="M 164.6725,84.6050
164.7299,84.6164
164.7786,84.6489
164.8111,84.6976
164.8225,84.7550
164.8225,85.7800
164.8111,85.8374
164.7786,85.8861
164.7299,85.9186
164.6725,85.9300
164.3725,85.9300
164.3151,85.9186
164.2664,85.8861
164.2339,85.8374
164.2225,85.7800
164.2225,84.7550
164.2339,84.6976
164.2664,84.6489
164.3151,84.6164
164.3725,84.6050
Z" /> 
<path style="fill:#4A5F65; fill-opacity:0.9000; stroke:none;fill-rule:evenodd;"
d="M 165.6225,84.6050
165.6799,84.6164
165.7286,84.6489
165.7611,84.6976
165.7725,84.7550
165.7725,85.7800
165.7611,85.8374
165.7286,85.8861
165.6799,85.9186
165.6225,85.9300
165.3225,85.9300
165.2651,85.9186
165.2164,85.8861
165.1839,85.8374
165.1725,85.7800
165.1725,84.7550
165.1839,84.6976
165.2164,84.6489
165.2651,84.6164
165.3225,84.6050
Z" /> 
<path style="fill:#4A5F65; fill-opacity:0.9000; stroke:none;fill-rule:evenodd;"
d="M 132.5300,84.9875
132.4726,84.9761
132.4239,84.9436
132.3914,84.8949
132.3800,84.8375
132.3800,83.6625
132.3914,83.6051
132.4239,83.5564
132.4726,83.5239
132.5300,83.5125
132.8300,83.5125
132.8874,83.5239
132.9361,83.5564
132.9686,83.6051
132.9800,83.6625
132.9800,84.8375
132.9686,84.8949
132.9361,84.9436
132.8874,84.9761
132.8300,84.9875
Z" /> 
<path style="fill:#4A5F65; fill-opacity:0.9000; stroke:none;fill-rule:evenodd;"
d="M 134.4300,84.9875
134.3726,84.9761
134.3239,84.9436
134.2914,84.8949
134.2800,84.8375
134.2800,83.6625
134.2914,83.6051
134.3239,83.5564
134.3726,83.5239
134.4300,83.5125
134.7300,83.5125
134.7874,83.5239
134.8361,83.5564
134.8686,83.6051
134.8800,83.6625
134.8800,84.8375
134.8686,84.8949
134.8361,84.9436
134.7874,84.9761
134.7300,84.9875
Z" /> 
<path style="fill:#4A5F65; fill-opacity:0.9000; stroke:none;fill-rule:evenodd;"
d="M 133.4800,83.1125
133.4226,83.1011
133.3739,83.0686
133.3414,83.0199
133.3300,82.9625
133.3300,81.7875
133.3414,81.7301
133.3739,81.6814
133.4226,81.6489
133.4800,81.6375
133.7800,81.6375
133.8374,81.6489
133.8861,81.6814
133.9186,81.7301
133.9300,81.7875
133.9300,82.9625
133.9186,83.0199
133.8861,83.0686
133.8374,83.1011
133.7800,83.1125
Z" /> 
<path style="fill:#4A5F65; fill-opacity:0.9000; stroke:none;fill-rule:evenodd;"
d="M 117.3999,95.7692
117.3695,95.7631
117.3437,95.7459
117.3265,95.7201
117.3204,95.6897
117.3204,95.5307
117.3265,95.5003
117.3437,95.4745
117.3695,95.4573
117.3999,95.4512
117.6009,95.4512
117.6313,95.4573
117.6571,95.4745
117.6743,95.5003
117.6804,95.5307
117.6804,95.6897
117.6743,95.7201
117.6571,95.7459
117.6313,95.7631
117.6009,95.7692
Z" /> 
<path style="fill:#4A5F65; fill-opacity:0.9000; stroke:none;fill-rule:evenodd;"
d="M 117.3999,95.0792
117.3695,95.0731
117.3437,95.0559
117.3265,95.0301
117.3204,94.9997
117.3204,94.8407
117.3265,94.8103
117.3437,94.7845
117.3695,94.7673
117.3999,94.7612
117.6009,94.7612
117.6313,94.7673
117.6571,94.7845
117.6743,94.8103
117.6804,94.8407
117.6804,94.9997
117.6743,95.0301
117.6571,95.0559
117.6313,95.0731
117.6009,95.0792
Z" /> 
<path style="fill:#4A5F65; fill-opacity:0.9000; stroke:none;fill-rule:evenodd;"
d="M 165.9440,79.7005
165.9379,79.7309
165.9207,79.7567
165.8949,79.7739
165.8645,79.7800
165.7055,79.7800
165.6751,79.7739
165.6493,79.7567
165.6321,79.7309
165.6260,79.7005
165.6260,79.4995
165.6321,79.4691
165.6493,79.4433
165.6751,79.4261
165.7055,79.4200
165.8645,79.4200
165.8949,79.4261
165.9207,79.4433
165.9379,79.4691
165.9440,79.4995
Z" /> 
<path style="fill:#4A5F65; fill-opacity:0.9000; stroke:none;fill-rule:evenodd;"
d="M 165.2540,79.7005
165.2479,79.7309
165.2307,79.7567
165.2049,79.7739
165.1745,79.7800
165.0155,79.7800
164.9851,79.7739
164.9593,79.7567
164.9421,79.7309
164.9360,79.7005
164.9360,79.4995
164.9421,79.4691
164.9593,79.4433
164.9851,79.4261
165.0155,79.4200
165.1745,79.4200
165.2049,79.4261
165.2307,79.4433
165.2479,79.4691
165.2540,79.4995
Z" /> 
<path style="fill:#4A5F65; fill-opacity:0.9000; stroke:none;fill-rule:evenodd;"
d="M 153.8500,85.7375
153.7926,85.7261
153.7439,85.6936
153.7114,85.6449
153.7000,85.5875
153.7000,84.4125
153.7114,84.3551
153.7439,84.3064
153.7926,84.2739
153.8500,84.2625
154.1500,84.2625
154.2074,84.2739
154.2561,84.3064
154.2886,84.3551
154.3000,84.4125
154.3000,85.5875
154.2886,85.6449
154.2561,85.6936
154.2074,85.7261
154.1500,85.7375
Z" /> 
<path style="fill:#4A5F65; fill-opacity:0.9000; stroke:none;fill-rule:evenodd;"
d="M 155.7500,85.7375
155.6926,85.7261
155.6439,85.6936
155.6114,85.6449
155.6000,85.5875
155.6000,84.4125
155.6114,84.3551
155.6439,84.3064
155.6926,84.2739
155.7500,84.2625
156.0500,84.2625
156.1074,84.2739
156.1561,84.3064
156.1886,84.3551
156.2000,84.4125
156.2000,85.5875
156.1886,85.6449
156.1561,85.6936
156.1074,85.7261
156.0500,85.7375
Z" /> 
<path style="fill:#4A5F65; fill-opacity:0.9000; stroke:none;fill-rule:evenodd;"
d="M 154.8000,83.8625
154.7426,83.8511
154.6939,83.8186
154.6614,83.7699
154.6500,83.7125
154.6500,82.5375
154.6614,82.4801
154.6939,82.4314
154.7426,82.3989
154.8000,82.3875
155.1000,82.3875
155.1574,82.3989
155.2061,82.4314
155.2386,82.4801
155.2500,82.5375
155.2500,83.7125
155.2386,83.7699
155.2061,83.8186
155.1574,83.8511
155.1000,83.8625
Z" /> 
<path style="fill:#4A5F65; fill-opacity:0.9000; stroke:none;fill-rule:evenodd;"
d="M 163.0200,120.5700
163.0390,120.4743
163.0932,120.3932
163.1743,120.3390
163.2700,120.3200
165.2700,120.3200
165.3657,120.3390
165.4468,120.3932
165.5010,120.4743
165.5200,120.5700
165.5200,121.8700
165.5010,121.9657
165.4468,122.0468
165.3657,122.1010
165.2700,122.1200
163.2700,122.1200
163.1743,122.1010
163.0932,122.0468
163.0390,121.9657
163.0200,121.8700
Z" /> 
<path style="fill:#4A5F65; fill-opacity:0.9000; stroke:none;fill-rule:evenodd;"
d="M 167.0200,120.5700
167.0390,120.4743
167.0932,120.3932
167.1743,120.3390
167.2700,120.3200
169.2700,120.3200
169.3657,120.3390
169.4468,120.3932
169.5010,120.4743
169.5200,120.5700
169.5200,121.8700
169.5010,121.9657
169.4468,122.0468
169.3657,122.1010
169.2700,122.1200
167.2700,122.1200
167.1743,122.1010
167.0932,122.0468
167.0390,121.9657
167.0200,121.8700
Z" /> 
<path style="fill:#4A5F65; fill-opacity:0.9000; stroke:none;fill-rule:evenodd;"
d="M 154.4745,119.8450
154.4840,119.7972
154.5111,119.7566
154.5517,119.7295
154.5995,119.7200
155.9745,119.7200
156.0223,119.7295
156.0629,119.7566
156.0900,119.7972
156.0995,119.8450
156.0995,120.0950
156.0900,120.1428
156.0629,120.1834
156.0223,120.2105
155.9745,120.2200
154.5995,120.2200
154.5517,120.2105
154.5111,120.1834
154.4840,120.1428
154.4745,120.0950
Z" /> 
<path style="fill:#4A5F65; fill-opacity:0.9000; stroke:none;fill-rule:evenodd;"
d="M 154.4745,120.4950
154.4840,120.4472
154.5111,120.4066
154.5517,120.3795
154.5995,120.3700
155.9745,120.3700
156.0223,120.3795
156.0629,120.4066
156.0900,120.4472
156.0995,120.4950
156.0995,120.7450
156.0900,120.7928
156.0629,120.8334
156.0223,120.8605
155.9745,120.8700
154.5995,120.8700
154.5517,120.8605
154.5111,120.8334
154.4840,120.7928
154.4745,120.7450
Z" /> 
<path style="fill:#4A5F65; fill-opacity:0.9000; stroke:none;fill-rule:evenodd;"
d="M 154.4745,121.1450
154.4840,121.0972
154.5111,121.0566
154.5517,121.0295
154.5995,121.0200
155.9745,121.0200
156.0223,121.0295
156.0629,121.0566
156.0900,121.0972
156.0995,121.1450
156.0995,121.3950
156.0900,121.4428
156.0629,121.4834
156.0223,121.5105
155.9745,121.5200
154.5995,121.5200
154.5517,121.5105
154.5111,121.4834
154.4840,121.4428
154.4745,121.3950
Z" /> 
<path style="fill:#4A5F65; fill-opacity:0.9000; stroke:none;fill-rule:evenodd;"
d="M 154.4745,121.7950
154.4840,121.7472
154.5111,121.7066
154.5517,121.6795
154.5995,121.6700
155.9745,121.6700
156.0223,121.6795
156.0629,121.7066
156.0900,121.7472
156.0995,121.7950
156.0995,122.0450
156.0900,122.0928
156.0629,122.1334
156.0223,122.1605
155.9745,122.1700
154.5995,122.1700
154.5517,122.1605
154.5111,122.1334
154.4840,122.0928
154.4745,122.0450
Z" /> 
<path style="fill:#4A5F65; fill-opacity:0.9000; stroke:none;fill-rule:evenodd;"
d="M 158.6995,121.7950
158.7090,121.7472
158.7361,121.7066
158.7767,121.6795
158.8245,121.6700
160.1995,121.6700
160.2473,121.6795
160.2879,121.7066
160.3150,121.7472
160.3245,121.7950
160.3245,122.0450
160.3150,122.0928
160.2879,122.1334
160.2473,122.1605
160.1995,122.1700
158.8245,122.1700
158.7767,122.1605
158.7361,122.1334
158.7090,122.0928
158.6995,122.0450
Z" /> 
<path style="fill:#4A5F65; fill-opacity:0.9000; stroke:none;fill-rule:evenodd;"
d="M 158.6995,121.1450
158.7090,121.0972
158.7361,121.0566
158.7767,121.0295
158.8245,121.0200
160.1995,121.0200
160.2473,121.0295
160.2879,121.0566
160.3150,121.0972
160.3245,121.1450
160.3245,121.3950
160.3150,121.4428
160.2879,121.4834
160.2473,121.5105
160.1995,121.5200
158.8245,121.5200
158.7767,121.5105
158.7361,121.4834
158.7090,121.4428
158.6995,121.3950
Z" /> 
<path style="fill:#4A5F65; fill-opacity:0.9000; stroke:none;fill-rule:evenodd;"
d="M 158.6995,120.4950
158.7090,120.4472
158.7361,120.4066
158.7767,120.3795
158.8245,120.3700
160.1995,120.3700
160.2473,120.3795
160.2879,120.4066
160.3150,120.4472
160.3245,120.4950
160.3245,120.7450
160.3150,120.7928
160.2879,120.8334
160.2473,120.8605
160.1995,120.8700
158.8245,120.8700
158.7767,120.8605
158.7361,120.8334
158.7090,120.7928
158.6995,120.7450
Z" /> 
<path style="fill:#4A5F65; fill-opacity:0.9000; stroke:none;fill-rule:evenodd;"
d="M 158.6995,119.8450
158.7090,119.7972
158.7361,119.7566
158.7767,119.7295
158.8245,119.7200
160.1995,119.7200
160.2473,119.7295
160.2879,119.7566
160.3150,119.7972
160.3245,119.8450
160.3245,120.0950
160.3150,120.1428
160.2879,120.1834
160.2473,120.2105
160.1995,120.2200
158.8245,120.2200
158.7767,120.2105
158.7361,120.1834
158.7090,120.1428
158.6995,120.0950
Z" /> 
<path style="fill:#4A5F65; fill-opacity:0.9000; stroke:none;fill-rule:evenodd;"
d="M 143.9025,80.8000
143.9599,80.8114
144.0086,80.8439
144.0411,80.8926
144.0525,80.9500
144.0525,81.9750
144.0411,82.0324
144.0086,82.0811
143.9599,82.1136
143.9025,82.1250
143.6025,82.1250
143.5451,82.1136
143.4964,82.0811
143.4639,82.0324
143.4525,81.9750
143.4525,80.9500
143.4639,80.8926
143.4964,80.8439
143.5451,80.8114
143.6025,80.8000
Z" /> 
<path style="fill:#4A5F65; fill-opacity:0.9000; stroke:none;fill-rule:evenodd;"
d="M 142.9525,80.8000
143.0099,80.8114
143.0586,80.8439
143.0911,80.8926
143.1025,80.9500
143.1025,81.9750
143.0911,82.0324
143.0586,82.0811
143.0099,82.1136
142.9525,82.1250
142.6525,82.1250
142.5951,82.1136
142.5464,82.0811
142.5139,82.0324
142.5025,81.9750
142.5025,80.9500
142.5139,80.8926
142.5464,80.8439
142.5951,80.8114
142.6525,80.8000
Z" /> 
<path style="fill:#4A5F65; fill-opacity:0.9000; stroke:none;fill-rule:evenodd;"
d="M 142.0025,80.8000
142.0599,80.8114
142.1086,80.8439
142.1411,80.8926
142.1525,80.9500
142.1525,81.9750
142.1411,82.0324
142.1086,82.0811
142.0599,82.1136
142.0025,82.1250
141.7025,82.1250
141.6451,82.1136
141.5964,82.0811
141.5639,82.0324
141.5525,81.9750
141.5525,80.9500
141.5639,80.8926
141.5964,80.8439
141.6451,80.8114
141.7025,80.8000
Z" /> 
<path style="fill:#4A5F65; fill-opacity:0.9000; stroke:none;fill-rule:evenodd;"
d="M 142.0025,83.0750
142.0599,83.0864
142.1086,83.1189
142.1411,83.1676
142.1525,83.2250
142.1525,84.2500
142.1411,84.3074
142.1086,84.3561
142.0599,84.3886
142.0025,84.4000
141.7025,84.4000
141.6451,84.3886
141.5964,84.3561
141.5639,84.3074
141.5525,84.2500
141.5525,83.2250
141.5639,83.1676
141.5964,83.1189
141.6451,83.0864
141.7025,83.0750
Z" /> 
<path style="fill:#4A5F65; fill-opacity:0.9000; stroke:none;fill-rule:evenodd;"
d="M 142.9525,83.0750
143.0099,83.0864
143.0586,83.1189
143.0911,83.1676
143.1025,83.2250
143.1025,84.2500
143.0911,84.3074
143.0586,84.3561
143.0099,84.3886
142.9525,84.4000
142.6525,84.4000
142.5951,84.3886
142.5464,84.3561
142.5139,84.3074
142.5025,84.2500
142.5025,83.2250
142.5139,83.1676
142.5464,83.1189
142.5951,83.0864
142.6525,83.0750
Z" /> 
<path style="fill:#4A5F65; fill-opacity:0.9000; stroke:none;fill-rule:evenodd;"
d="M 143.9025,83.0750
143.9599,83.0864
144.0086,83.1189
144.0411,83.1676
144.0525,83.2250
144.0525,84.2500
144.0411,84.3074
144.0086,84.3561
143.9599,84.3886
143.9025,84.4000
143.6025,84.4000
143.5451,84.3886
143.4964,84.3561
143.4639,84.3074
143.4525,84.2500
143.4525,83.2250
143.4639,83.1676
143.4964,83.1189
143.5451,83.0864
143.6025,83.0750
Z" /> 
<path style="fill:#4A5F65; fill-opacity:0.9000; stroke:none;fill-rule:evenodd;"
d="M 147.6490,77.6605
147.6429,77.6909
147.6257,77.7167
147.5999,77.7339
147.5695,77.7400
147.4105,77.7400
147.3801,77.7339
147.3543,77.7167
147.3371,77.6909
147.3310,77.6605
147.3310,77.4595
147.3371,77.4291
147.3543,77.4033
147.3801,77.3861
147.4105,77.3800
147.5695,77.3800
147.5999,77.3861
147.6257,77.4033
147.6429,77.4291
147.6490,77.4595
Z" /> 
<path style="fill:#4A5F65; fill-opacity:0.9000; stroke:none;fill-rule:evenodd;"
d="M 146.9590,77.6605
146.9529,77.6909
146.9357,77.7167
146.9099,77.7339
146.8795,77.7400
146.7205,77.7400
146.6901,77.7339
146.6643,77.7167
146.6471,77.6909
146.6410,77.6605
146.6410,77.4595
146.6471,77.4291
146.6643,77.4033
146.6901,77.3861
146.7205,77.3800
146.8795,77.3800
146.9099,77.3861
146.9357,77.4033
146.9529,77.4291
146.9590,77.4595
Z" /> 
<path style="fill:#4A5F65; fill-opacity:0.9000; stroke:none;fill-rule:evenodd;"
d="M 161.4810,79.4895
161.4871,79.4591
161.5043,79.4333
161.5301,79.4161
161.5605,79.4100
161.7195,79.4100
161.7499,79.4161
161.7757,79.4333
161.7929,79.4591
161.7990,79.4895
161.7990,79.6905
161.7929,79.7209
161.7757,79.7467
161.7499,79.7639
161.7195,79.7700
161.5605,79.7700
161.5301,79.7639
161.5043,79.7467
161.4871,79.7209
161.4810,79.6905
Z" /> 
<path style="fill:#4A5F65; fill-opacity:0.9000; stroke:none;fill-rule:evenodd;"
d="M 162.1710,79.4895
162.1771,79.4591
162.1943,79.4333
162.2201,79.4161
162.2505,79.4100
162.4095,79.4100
162.4399,79.4161
162.4657,79.4333
162.4829,79.4591
162.4890,79.4895
162.4890,79.6905
162.4829,79.7209
162.4657,79.7467
162.4399,79.7639
162.4095,79.7700
162.2505,79.7700
162.2201,79.7639
162.1943,79.7467
162.1771,79.7209
162.1710,79.6905
Z" /> 
</g>
<g style="fill:#FFFFFF; fill-opacity:1.0000; stroke:none;">
<circle cx="191.1375" cy="117.7321" r="0.1750" /> 
</g>
<g style="fill:#FFFFFF; fill-opacity:1.0000; stroke:none;">
<circle cx="113.5000" cy="87.7321" r="0.1750" /> 
</g>
<g style="fill:#FFFFFF; fill-opacity:1.0000; stroke:none;">
<circle cx="191.1375" cy="87.7321" r="0.1750" /> 
</g>
<g style="fill:none; 
stroke:#FFFFFF; stroke-width:0.6000; stroke-opacity:1; 
stroke-linecap:round; stroke-linejoin:round;">
<path d="M152.1500 67.4500
L152.1500 68.5500
" />
<path d="M165.6500 67.4500
L165.6500 68.5500
" />
</g>
<g style="fill:#FFFFFF; fill-opacity:1.0000; stroke:none;">
<circle cx="162.5000" cy="74.0000" r="0.1750" /> 
</g>
<g style="fill:#FFFFFF; fill-opacity:1.0000; stroke:none;">
<circle cx="155.3000" cy="74.0000" r="0.1750" /> 
</g>
<g style="fill:none; 
stroke:#FFFFFF; stroke-width:0.6000; stroke-opacity:1; 
stroke-linecap:round; stroke-linejoin:round;">
<path d="M134.0000 67.4500
L134.0000 68.5500
" />
<path d="M147.5000 67.4500
L147.5000 68.5500
" />
</g>
<g style="fill:#FFFFFF; fill-opacity:1.0000; stroke:none;">
<circle cx="144.3500" cy="74.0000" r="0.1750" /> 
</g>
<g style="fill:#FFFFFF; fill-opacity:1.0000; stroke:none;">
<circle cx="137.1500" cy="74.0000" r="0.1750" /> 
</g>
<g style="fill:#FFFFFF; fill-opacity:1.0000; stroke:none;">
<circle cx="164.7700" cy="95.2700" r="0.1750" /> 
</g>
<g style="fill:#FFFFFF; fill-opacity:1.0000; stroke:none;">
<circle cx="164.7700" cy="100.3100" r="0.1750" /> 
</g>
<g style="fill:#FFFFFF; fill-opacity:1.0000; stroke:none;">
<circle cx="164.7700" cy="90.2300" r="0.1750" /> 
</g>
<g style="fill:#FFFFFF; fill-opacity:1.0000; stroke:none;">
<circle cx="172.2700" cy="95.2700" r="0.1750" /> 
</g>
<g style="fill:#FFFFFF; fill-opacity:1.0000; stroke:none;">
<circle cx="172.2700" cy="100.3100" r="0.1750" /> 
</g>
<g style="fill:#FFFFFF; fill-opacity:1.0000; stroke:none;">
<circle cx="172.2700" cy="90.2300" r="0.1750" /> 
</g>
<g style="fill:#FFFFFF; fill-opacity:1.0000; stroke:none;">
<circle cx="164.7700" cy="115.5700" r="0.1750" /> 
</g>
<g style="fill:#FFFFFF; fill-opacity:1.0000; stroke:none;">
<circle cx="172.2700" cy="115.5700" r="0.1750" /> 
</g>
<g style="fill:#FFFFFF; fill-opacity:1.0000; stroke:none;">
<circle cx="113.5000" cy="117.7321" r="0.1750" /> 
</g>
<g style="fill:#FFFFFF; fill-opacity:1.0000; stroke:none;">
<circle cx="125.5000" cy="96.9600" r="0.1750" /> 
</g>
<g style="fill:#FFFFFF; fill-opacity:1.0000; stroke:none;">
<circle cx="125.5000" cy="99.5000" r="0.1750" /> 
</g>
<g style="fill:#FFFFFF; fill-opacity:1.0000; stroke:none;">
<circle cx="125.5000" cy="102.0400" r="0.1750" /> 
</g>
<g style="fill:#FFFFFF; fill-opacity:1.0000; stroke:none;">
<circle cx="120.2944" cy="109.3724" r="0.1750" /> 
</g>
<g style="fill:#FFFFFF; fill-opacity:1.0000; stroke:none;">
<circle cx="120.2944" cy="111.9124" r="0.1750" /> 
</g>
<g style="fill:#FFFFFF; fill-opacity:1.0000; stroke:none;">
<circle cx="120.2944" cy="114.4524" r="0.1750" /> 
</g>
<g style="fill:#FFFFFF; fill-opacity:1.0000; stroke:none;">
<circle cx="122.8344" cy="109.3724" r="0.1750" /> 
</g>
<g style="fill:#FFFFFF; fill-opacity:1.0000; stroke:none;">
<circle cx="122.8344" cy="111.9124" r="0.1750" /> 
</g>
<g style="fill:#FFFFFF; fill-opacity:1.0000; stroke:none;">
<circle cx="122.8344" cy="114.4524" r="0.1750" /> 
</g>
<g style="fill:none; 
stroke:#FFFFFF; stroke-width:0.6000; stroke-opacity:1; 
stroke-linecap:round; stroke-linejoin:round;">
<path d="M188.5500 98.0000
L187.4500 98.0000
" />
<path d="M188.5500 111.5000
L187.4500 111.5000
" />
</g>
<g style="fill:#FFFFFF; fill-opacity:1.0000; stroke:none;">
<circle cx="182.0000" cy="108.3500" r="0.1750" /> 
</g>
<g style="fill:#FFFFFF; fill-opacity:1.0000; stroke:none;">
<circle cx="182.0000" cy="101.1500" r="0.1750" /> 
</g> 
</svg>
