%TF.GenerationSoftware,KiCad,Pcbnew,9.0.4*%
%TF.CreationDate,2025-10-16T20:01:58-07:00*%
%TF.ProjectId,E-Stop,452d5374-6f70-42e6-9b69-6361645f7063,rev?*%
%TF.SameCoordinates,Original*%
%TF.FileFunction,Legend,Top*%
%TF.FilePolarity,Positive*%
%FSLAX46Y46*%
G04 Gerber Fmt 4.6, Leading zero omitted, Abs format (unit mm)*
G04 Created by KiCad (PCBNEW 9.0.4) date 2025-10-16 20:01:58*
%MOMM*%
%LPD*%
G01*
G04 APERTURE LIST*
%ADD10C,0.187500*%
%ADD11C,0.300000*%
%ADD12C,0.150000*%
%ADD13C,0.120000*%
%ADD14C,0.152400*%
%ADD15C,0.127000*%
G04 APERTURE END LIST*
D10*
G36*
X153091819Y-87219081D02*
G01*
X153197384Y-87241967D01*
X153286143Y-87277842D01*
X153360767Y-87325956D01*
X153421014Y-87385260D01*
X153462985Y-87451365D01*
X153488377Y-87525696D01*
X153497146Y-87610529D01*
X153486089Y-87685739D01*
X153452297Y-87757508D01*
X153392183Y-87828149D01*
X153323997Y-87879674D01*
X153244122Y-87917379D01*
X153150309Y-87941108D01*
X153039649Y-87949508D01*
X152720637Y-87949508D01*
X152720637Y-88428254D01*
X152723419Y-88484438D01*
X152729064Y-88507022D01*
X152758373Y-88525157D01*
X152857016Y-88541094D01*
X153058517Y-88547414D01*
X153058517Y-88565000D01*
X152151948Y-88565000D01*
X152151948Y-88547414D01*
X152329269Y-88541094D01*
X152424798Y-88525249D01*
X152454107Y-88507297D01*
X152459753Y-88484847D01*
X152462534Y-88429078D01*
X152462534Y-87342625D01*
X152462515Y-87342259D01*
X152720637Y-87342259D01*
X152720637Y-87931922D01*
X152932579Y-87931922D01*
X153020430Y-87925076D01*
X153087484Y-87906586D01*
X153138239Y-87878502D01*
X153176028Y-87841338D01*
X153206151Y-87785891D01*
X153226874Y-87705780D01*
X153234829Y-87592852D01*
X153224880Y-87475750D01*
X153198058Y-87387375D01*
X153157160Y-87321193D01*
X153115297Y-87282221D01*
X153063114Y-87253503D01*
X152998355Y-87235134D01*
X152917924Y-87228503D01*
X152817174Y-87228503D01*
X152752144Y-87234822D01*
X152734989Y-87244675D01*
X152725858Y-87261201D01*
X152720637Y-87342259D01*
X152462515Y-87342259D01*
X152459791Y-87290579D01*
X152454107Y-87268620D01*
X152428920Y-87251767D01*
X152345757Y-87236054D01*
X152151948Y-87228503D01*
X152151948Y-87210917D01*
X152966193Y-87210917D01*
X153091819Y-87219081D01*
G37*
G36*
X154055211Y-87210917D02*
G01*
X154409851Y-88189201D01*
X154703675Y-87210917D01*
X155285004Y-87210917D01*
X155285004Y-87228503D01*
X155110217Y-87236668D01*
X155033220Y-87253873D01*
X155008032Y-87270818D01*
X155000839Y-87294656D01*
X154997500Y-87346838D01*
X154997500Y-88429078D01*
X155000361Y-88486466D01*
X155005926Y-88507297D01*
X155013473Y-88514696D01*
X155036243Y-88525249D01*
X155127559Y-88541094D01*
X155285004Y-88547414D01*
X155285004Y-88565000D01*
X154477079Y-88565000D01*
X154477079Y-88547414D01*
X154616572Y-88541094D01*
X154704683Y-88525341D01*
X154732984Y-88507297D01*
X154738629Y-88484938D01*
X154741411Y-88429262D01*
X154739304Y-87281900D01*
X154736172Y-87251544D01*
X154730878Y-87246088D01*
X154723818Y-87251184D01*
X154712010Y-87277595D01*
X154328060Y-88565000D01*
X154281898Y-88565000D01*
X153828614Y-87271825D01*
X153811853Y-87240226D01*
X153808018Y-87245232D01*
X153805533Y-87276222D01*
X153805533Y-88162457D01*
X153814818Y-88320327D01*
X153837417Y-88417159D01*
X153867449Y-88472309D01*
X153900766Y-88502225D01*
X153947946Y-88525600D01*
X154013071Y-88541435D01*
X154101372Y-88547414D01*
X154101372Y-88565000D01*
X153507496Y-88565000D01*
X153507496Y-88547414D01*
X153602253Y-88537517D01*
X153669013Y-88511316D01*
X153715225Y-88471302D01*
X153746093Y-88416621D01*
X153767706Y-88334046D01*
X153776133Y-88213473D01*
X153776133Y-87560337D01*
X153768094Y-87436286D01*
X153747793Y-87353842D01*
X153719438Y-87301409D01*
X153675808Y-87263767D01*
X153608359Y-87238354D01*
X153507496Y-87228503D01*
X153507496Y-87208811D01*
X154055211Y-87210917D01*
G37*
G36*
X156068374Y-87204203D02*
G01*
X156177131Y-87236317D01*
X156279647Y-87290108D01*
X156377411Y-87367538D01*
X156451511Y-87450464D01*
X156508905Y-87542266D01*
X156550480Y-87644192D01*
X156576206Y-87757998D01*
X156585139Y-87885852D01*
X156576414Y-88007892D01*
X156551079Y-88118477D01*
X156509765Y-88219434D01*
X156452237Y-88312240D01*
X156377411Y-88397937D01*
X156276931Y-88480794D01*
X156173502Y-88537695D01*
X156065652Y-88571302D01*
X155951329Y-88582585D01*
X155834440Y-88571605D01*
X155725763Y-88539149D01*
X155623228Y-88484726D01*
X155525339Y-88406272D01*
X155451180Y-88322516D01*
X155393767Y-88230059D01*
X155352211Y-88127676D01*
X155326522Y-88013647D01*
X155317687Y-87886951D01*
X155596780Y-87886951D01*
X155603583Y-88056276D01*
X155622182Y-88193221D01*
X155650223Y-88302851D01*
X155685898Y-88389694D01*
X155727188Y-88455567D01*
X155773670Y-88503957D01*
X155825650Y-88537611D01*
X155884278Y-88557965D01*
X155951420Y-88565000D01*
X156032853Y-88554181D01*
X156102540Y-88522701D01*
X156163482Y-88469373D01*
X156216851Y-88389694D01*
X156253450Y-88302723D01*
X156282173Y-88193049D01*
X156301208Y-88056148D01*
X156308168Y-87886951D01*
X156301287Y-87715002D01*
X156282561Y-87577304D01*
X156254481Y-87468320D01*
X156218958Y-87383108D01*
X156166753Y-87305406D01*
X156105961Y-87252973D01*
X156035254Y-87221736D01*
X155951420Y-87210917D01*
X155868699Y-87221682D01*
X155798651Y-87252829D01*
X155738142Y-87305247D01*
X155685898Y-87383108D01*
X155650413Y-87468314D01*
X155622362Y-87577297D01*
X155603654Y-87714997D01*
X155596780Y-87886951D01*
X155317687Y-87886951D01*
X155317610Y-87885852D01*
X155326357Y-87763758D01*
X155351727Y-87653393D01*
X155393059Y-87552886D01*
X155450570Y-87460733D01*
X155525339Y-87375873D01*
X155625694Y-87294041D01*
X155729076Y-87237772D01*
X155836947Y-87204505D01*
X155951329Y-87193332D01*
X156068374Y-87204203D01*
G37*
G36*
X157368060Y-87312858D02*
G01*
X157506545Y-87193332D01*
X157506545Y-87650554D01*
X157487677Y-87644692D01*
X157466613Y-87554769D01*
X157434085Y-87474075D01*
X157390190Y-87401350D01*
X157334446Y-87335664D01*
X157268418Y-87279645D01*
X157200280Y-87241224D01*
X157129032Y-87218538D01*
X157053261Y-87210917D01*
X156981998Y-87216823D01*
X156919572Y-87233785D01*
X156864400Y-87261292D01*
X156820722Y-87295815D01*
X156790509Y-87336187D01*
X156772166Y-87383482D01*
X156765757Y-87439712D01*
X156772319Y-87493279D01*
X156791615Y-87541006D01*
X156824345Y-87584462D01*
X156872827Y-87624451D01*
X156935997Y-87659311D01*
X157029578Y-87695271D01*
X157162346Y-87731521D01*
X157336615Y-87779720D01*
X157442298Y-87819298D01*
X157500225Y-87851230D01*
X157554775Y-87903216D01*
X157595008Y-87970348D01*
X157620927Y-88056134D01*
X157630376Y-88165571D01*
X157621214Y-88267522D01*
X157595314Y-88352981D01*
X157553807Y-88425144D01*
X157496104Y-88486231D01*
X157436893Y-88528100D01*
X157372108Y-88557989D01*
X157300663Y-88576278D01*
X157221147Y-88582585D01*
X157101652Y-88572198D01*
X156999680Y-88542651D01*
X156938419Y-88510741D01*
X156882306Y-88467014D01*
X156830786Y-88410211D01*
X156698620Y-88582585D01*
X156698620Y-88002264D01*
X156717488Y-88000249D01*
X156762511Y-88171660D01*
X156807705Y-88291051D01*
X156854595Y-88377787D01*
X156906349Y-88444832D01*
X156965541Y-88495599D01*
X157037264Y-88532872D01*
X157124114Y-88556533D01*
X157229574Y-88565000D01*
X157293058Y-88557849D01*
X157352740Y-88536466D01*
X157410008Y-88499878D01*
X157463267Y-88444187D01*
X157494027Y-88382098D01*
X157504439Y-88311017D01*
X157496443Y-88245431D01*
X157473165Y-88188408D01*
X157434033Y-88137834D01*
X157376394Y-88092664D01*
X157270515Y-88042477D01*
X157068923Y-87978267D01*
X156922377Y-87932658D01*
X156824738Y-87891721D01*
X156763650Y-87855443D01*
X156709189Y-87803536D01*
X156670364Y-87741826D01*
X156646244Y-87668356D01*
X156637712Y-87580121D01*
X156645029Y-87501420D01*
X156666377Y-87430466D01*
X156701709Y-87365640D01*
X156752110Y-87305806D01*
X156812817Y-87256044D01*
X156877584Y-87221310D01*
X156947448Y-87200442D01*
X157023860Y-87193332D01*
X157112982Y-87198331D01*
X157185508Y-87212097D01*
X157244228Y-87233174D01*
X157368060Y-87312858D01*
G37*
D11*
G36*
X159484355Y-99293295D02*
G01*
X159495208Y-99358295D01*
X159505289Y-99375683D01*
X159518197Y-99386230D01*
X159538923Y-99391520D01*
X159593852Y-99394199D01*
X160680305Y-99394199D01*
X160733257Y-99391480D01*
X160752937Y-99386139D01*
X160768415Y-99360402D01*
X160783926Y-99281846D01*
X160791496Y-99091948D01*
X160814944Y-99091948D01*
X160814944Y-99953179D01*
X160806468Y-100066537D01*
X160782495Y-100162992D01*
X160744377Y-100245420D01*
X160692303Y-100316063D01*
X160622141Y-100379222D01*
X160555709Y-100413357D01*
X160490528Y-100424140D01*
X160412111Y-100414385D01*
X160345848Y-100386269D01*
X160288845Y-100339327D01*
X160249003Y-100286655D01*
X160215411Y-100218024D01*
X160188926Y-100129962D01*
X160171150Y-100018300D01*
X160147049Y-100104579D01*
X160110594Y-100175274D01*
X160062084Y-100233002D01*
X160000533Y-100279362D01*
X159923763Y-100314781D01*
X159853656Y-100332906D01*
X159753149Y-100345741D01*
X159613818Y-100350684D01*
X159558047Y-100353769D01*
X159527173Y-100360942D01*
X159508838Y-100376617D01*
X159501894Y-100408570D01*
X159508270Y-100431657D01*
X159528812Y-100450931D01*
X159570679Y-100466822D01*
X159646698Y-100478551D01*
X159765676Y-100483308D01*
X159765676Y-100508038D01*
X159693228Y-100508038D01*
X159577924Y-100500856D01*
X159519113Y-100484682D01*
X159474800Y-100451927D01*
X159447514Y-100403334D01*
X159437414Y-100333007D01*
X159445264Y-100261949D01*
X159466695Y-100208503D01*
X159500490Y-100168393D01*
X159548148Y-100139384D01*
X159610211Y-100121084D01*
X159716368Y-100107086D01*
X159884653Y-100101373D01*
X159928709Y-100101373D01*
X159972764Y-100103480D01*
X160043845Y-100096464D01*
X160090649Y-100078469D01*
X160120317Y-100051914D01*
X160140282Y-100015565D01*
X160153500Y-99967042D01*
X160158419Y-99902896D01*
X160158419Y-99850414D01*
X160187728Y-99850414D01*
X160195236Y-99950755D01*
X160215018Y-100023462D01*
X160244240Y-100075178D01*
X160280757Y-100111227D01*
X160328639Y-100138184D01*
X160390648Y-100155743D01*
X160470561Y-100162190D01*
X160586499Y-100152482D01*
X160666145Y-100127368D01*
X160719323Y-100090657D01*
X160756724Y-100037990D01*
X160781887Y-99961408D01*
X160791496Y-99852429D01*
X160791496Y-99751770D01*
X160785451Y-99688114D01*
X160776041Y-99671790D01*
X160760264Y-99663110D01*
X160680122Y-99658164D01*
X160187728Y-99658164D01*
X160187728Y-99850414D01*
X160158419Y-99850414D01*
X160158419Y-99658164D01*
X159595775Y-99658164D01*
X159538830Y-99660497D01*
X159517007Y-99665125D01*
X159503298Y-99675453D01*
X159491819Y-99695350D01*
X159485218Y-99725042D01*
X159480553Y-99792895D01*
X159478447Y-99951897D01*
X159455000Y-99951897D01*
X159455000Y-99091948D01*
X159478447Y-99091948D01*
X159484355Y-99293295D01*
G37*
G36*
X160158419Y-101090099D02*
G01*
X159597515Y-101090099D01*
X159525158Y-101095961D01*
X159513319Y-101106514D01*
X159499879Y-101134704D01*
X159491040Y-101169084D01*
X159486415Y-101211274D01*
X159484309Y-101368353D01*
X159494222Y-101486257D01*
X159521926Y-101583008D01*
X159565668Y-101662677D01*
X159625542Y-101728214D01*
X159697996Y-101778587D01*
X159794409Y-101822093D01*
X159920316Y-101857309D01*
X160082215Y-101881904D01*
X160082215Y-101912678D01*
X159455000Y-101912678D01*
X159455000Y-100542751D01*
X159478447Y-100542751D01*
X159485878Y-100715928D01*
X159501528Y-100792245D01*
X159511266Y-100809610D01*
X159522411Y-100819081D01*
X159540973Y-100823652D01*
X159593852Y-100826042D01*
X160676092Y-100826042D01*
X160730900Y-100823302D01*
X160750738Y-100817982D01*
X160766400Y-100791878D01*
X160783070Y-100698456D01*
X160791496Y-100542751D01*
X160814944Y-100542751D01*
X160814944Y-101843435D01*
X160281517Y-101843435D01*
X160281517Y-101812386D01*
X160389975Y-101803345D01*
X160494138Y-101776355D01*
X160595400Y-101730870D01*
X160669187Y-101681401D01*
X160723408Y-101626869D01*
X160761042Y-101566890D01*
X160783706Y-101500255D01*
X160791496Y-101425047D01*
X160790397Y-101264672D01*
X160784604Y-101186763D01*
X160770339Y-101121789D01*
X160749181Y-101096968D01*
X160730334Y-101092476D01*
X160675176Y-101090099D01*
X160181866Y-101090099D01*
X160188877Y-101236148D01*
X160205135Y-101316791D01*
X160225189Y-101355988D01*
X160260729Y-101385564D01*
X160324178Y-101414965D01*
X160427745Y-101442775D01*
X160586332Y-101466447D01*
X160586332Y-101495115D01*
X159759815Y-101495115D01*
X159759815Y-101466447D01*
X159914313Y-101443018D01*
X160015631Y-101415721D01*
X160078038Y-101386963D01*
X160113265Y-101358094D01*
X160134309Y-101317503D01*
X160151188Y-101235858D01*
X160158419Y-101090099D01*
G37*
G36*
X159484309Y-102827032D02*
G01*
X159495046Y-102951835D01*
X159525203Y-103055256D01*
X159573114Y-103141393D01*
X159639098Y-103213180D01*
X159719072Y-103267611D01*
X159820975Y-103309317D01*
X159949780Y-103336702D01*
X160111524Y-103346720D01*
X160111524Y-103377769D01*
X159455000Y-103377769D01*
X159455000Y-101999415D01*
X159478447Y-101999415D01*
X159484675Y-102159241D01*
X159500245Y-102247535D01*
X159511226Y-102267922D01*
X159522411Y-102277852D01*
X159540973Y-102282423D01*
X159593852Y-102284813D01*
X160676092Y-102284813D01*
X160730900Y-102282073D01*
X160750738Y-102276753D01*
X160766400Y-102249642D01*
X160783070Y-102156127D01*
X160791496Y-101999415D01*
X160814944Y-101999415D01*
X160814944Y-102867790D01*
X160791496Y-102867790D01*
X160785177Y-102681585D01*
X160777027Y-102620763D01*
X160768599Y-102589170D01*
X160750830Y-102558945D01*
X160727658Y-102552017D01*
X160676183Y-102548778D01*
X159597515Y-102548778D01*
X159542457Y-102551482D01*
X159520670Y-102556930D01*
X159505191Y-102580469D01*
X159490733Y-102664347D01*
X159484309Y-102827032D01*
G37*
G36*
X159485659Y-103493336D02*
G01*
X159506193Y-103553101D01*
X159539569Y-103604006D01*
X159586891Y-103647505D01*
X159665266Y-103690728D01*
X159839316Y-103760437D01*
X160832529Y-104115718D01*
X160832529Y-104163895D01*
X159594676Y-104615806D01*
X159520409Y-104650867D01*
X159493834Y-104677538D01*
X159483875Y-104723718D01*
X159478447Y-104867864D01*
X159455000Y-104867864D01*
X159455000Y-104089706D01*
X159478447Y-104089706D01*
X159482051Y-104237046D01*
X159489896Y-104307235D01*
X159501738Y-104342379D01*
X159516731Y-104359406D01*
X159535050Y-104364663D01*
X159555841Y-104360541D01*
X159929808Y-104227001D01*
X159929808Y-104214362D01*
X159959117Y-104214362D01*
X160480819Y-104025501D01*
X159959117Y-103836640D01*
X159959117Y-104214362D01*
X159929808Y-104214362D01*
X159929808Y-103824092D01*
X159743695Y-103759612D01*
X159675424Y-103740239D01*
X159622978Y-103734608D01*
X159574622Y-103741515D01*
X159538670Y-103760682D01*
X159511969Y-103792310D01*
X159494627Y-103832336D01*
X159482871Y-103886661D01*
X159478447Y-103959189D01*
X159455000Y-103959189D01*
X159455000Y-103422374D01*
X159478447Y-103422374D01*
X159485659Y-103493336D01*
G37*
G36*
X160028451Y-105525671D02*
G01*
X160674626Y-105148316D01*
X160741062Y-105100474D01*
X160771713Y-105057274D01*
X160785027Y-104995599D01*
X160791496Y-104847806D01*
X160814944Y-104847806D01*
X160814944Y-105680552D01*
X160791496Y-105680552D01*
X160786490Y-105557097D01*
X160774918Y-105489310D01*
X160759665Y-105454279D01*
X160741033Y-105436472D01*
X160718315Y-105430783D01*
X160695405Y-105434842D01*
X160664826Y-105449284D01*
X160102640Y-105782493D01*
X160487231Y-106008722D01*
X160568048Y-106044250D01*
X160631670Y-106054518D01*
X160687446Y-106045905D01*
X160729491Y-106021676D01*
X160761305Y-105980710D01*
X160783049Y-105917582D01*
X160791496Y-105823617D01*
X160814944Y-105823617D01*
X160814944Y-106391939D01*
X160791496Y-106391939D01*
X160784673Y-106325278D01*
X160764883Y-106266581D01*
X160732145Y-106214124D01*
X160685159Y-106166809D01*
X160453251Y-106026308D01*
X160055013Y-105791743D01*
X159594126Y-105791743D01*
X159538896Y-105794445D01*
X159517007Y-105799895D01*
X159500337Y-105827922D01*
X159484767Y-105923451D01*
X159478447Y-106116983D01*
X159455000Y-106116983D01*
X159455000Y-105200340D01*
X159478447Y-105200340D01*
X159484675Y-105393872D01*
X159500245Y-105489493D01*
X159516915Y-105517520D01*
X159538783Y-105522970D01*
X159593852Y-105525671D01*
X160028451Y-105525671D01*
G37*
G36*
X114010151Y-99315055D02*
G01*
X114010151Y-99918824D01*
X113975255Y-99918824D01*
X113942645Y-99737463D01*
X113905051Y-99604410D01*
X113864509Y-99509784D01*
X113822390Y-99445023D01*
X113776114Y-99399481D01*
X113720221Y-99366564D01*
X113652733Y-99345876D01*
X113570789Y-99338503D01*
X113526550Y-99341983D01*
X113521855Y-99352846D01*
X113519132Y-99394740D01*
X113519132Y-100536147D01*
X113521832Y-100591216D01*
X113527283Y-100613084D01*
X113555310Y-100629754D01*
X113650840Y-100645324D01*
X113846478Y-100651552D01*
X113846478Y-100675000D01*
X112927728Y-100675000D01*
X112927728Y-100651552D01*
X113121260Y-100645324D01*
X113216881Y-100629754D01*
X113238139Y-100618641D01*
X113248205Y-100607497D01*
X113252774Y-100589016D01*
X113255166Y-100536147D01*
X113255166Y-99396846D01*
X113251270Y-99350791D01*
X113244633Y-99340426D01*
X113201402Y-99338503D01*
X113121533Y-99345675D01*
X113055328Y-99365854D01*
X113000108Y-99398042D01*
X112954015Y-99442642D01*
X112911475Y-99508182D01*
X112870177Y-99602849D01*
X112831336Y-99734694D01*
X112796753Y-99912962D01*
X112761948Y-99912962D01*
X112761948Y-99315055D01*
X114010151Y-99315055D01*
G37*
G36*
X114472503Y-100165020D02*
G01*
X114472503Y-100288119D01*
X114042758Y-100288119D01*
X114042758Y-100165020D01*
X114472503Y-100165020D01*
G37*
G36*
X115560605Y-100645690D02*
G01*
X115685408Y-100634953D01*
X115788828Y-100604796D01*
X115874966Y-100556885D01*
X115946753Y-100490901D01*
X116001184Y-100410927D01*
X116042890Y-100309024D01*
X116070275Y-100180219D01*
X116080293Y-100018475D01*
X116111342Y-100018475D01*
X116111342Y-100675000D01*
X114732988Y-100675000D01*
X114732988Y-100651552D01*
X114892814Y-100645324D01*
X114981108Y-100629754D01*
X115001495Y-100618773D01*
X115011425Y-100607588D01*
X115015996Y-100589026D01*
X115018386Y-100536147D01*
X115018386Y-99453907D01*
X115015646Y-99399099D01*
X115010326Y-99379261D01*
X114983215Y-99363599D01*
X114889700Y-99346929D01*
X114732988Y-99338503D01*
X114732988Y-99315055D01*
X115601363Y-99315055D01*
X115601363Y-99338503D01*
X115415158Y-99344822D01*
X115354336Y-99352972D01*
X115322743Y-99361400D01*
X115292518Y-99379169D01*
X115285590Y-99402341D01*
X115282351Y-99453816D01*
X115282351Y-100532484D01*
X115285055Y-100587542D01*
X115290503Y-100609329D01*
X115314042Y-100624808D01*
X115397920Y-100639266D01*
X115560605Y-100645690D01*
G37*
G36*
X116692064Y-99780028D02*
G01*
X116769040Y-99800740D01*
X116825935Y-99831812D01*
X116867080Y-99871797D01*
X116890571Y-99916218D01*
X116898476Y-99967001D01*
X116898476Y-100432741D01*
X116904704Y-100588080D01*
X116920223Y-100628365D01*
X116943844Y-100649998D01*
X116977336Y-100657414D01*
X117008348Y-100651262D01*
X117031388Y-100633425D01*
X117048227Y-100601269D01*
X117061344Y-100538577D01*
X117066728Y-100437229D01*
X117065629Y-100377786D01*
X117064622Y-100316054D01*
X117064622Y-100293981D01*
X117093565Y-100293981D01*
X117093565Y-100389327D01*
X117095671Y-100473224D01*
X117091231Y-100555951D01*
X117080316Y-100608120D01*
X117065721Y-100638913D01*
X117035302Y-100666399D01*
X116986160Y-100685195D01*
X116910199Y-100692585D01*
X116826071Y-100683675D01*
X116774278Y-100661352D01*
X116743756Y-100632716D01*
X116720796Y-100594341D01*
X116705585Y-100543841D01*
X116672451Y-100600036D01*
X116629491Y-100642116D01*
X116575525Y-100671885D01*
X116517790Y-100686780D01*
X116433834Y-100692585D01*
X116375811Y-100687623D01*
X116324635Y-100673315D01*
X116279045Y-100649995D01*
X116238971Y-100617449D01*
X116210865Y-100578405D01*
X116193564Y-100531628D01*
X116187454Y-100474965D01*
X116189243Y-100461867D01*
X116394816Y-100461867D01*
X116402212Y-100573949D01*
X116418355Y-100626731D01*
X116437131Y-100650343D01*
X116461294Y-100664242D01*
X116492636Y-100669138D01*
X116542214Y-100662097D01*
X116588923Y-100640741D01*
X116634235Y-100603101D01*
X116669346Y-100555930D01*
X116690259Y-100503084D01*
X116697433Y-100442725D01*
X116697433Y-100169142D01*
X116671244Y-100191005D01*
X116626908Y-100204496D01*
X116530921Y-100218326D01*
X116477657Y-100242190D01*
X116436307Y-100285096D01*
X116414548Y-100329064D01*
X116400150Y-100386776D01*
X116394816Y-100461867D01*
X116189243Y-100461867D01*
X116197370Y-100402358D01*
X116226556Y-100338639D01*
X116276572Y-100281341D01*
X116339381Y-100238023D01*
X116410445Y-100209074D01*
X116491628Y-100194421D01*
X116607025Y-100178785D01*
X116660705Y-100161265D01*
X116683115Y-100142087D01*
X116697958Y-100110337D01*
X116703753Y-100060423D01*
X116703753Y-99937233D01*
X116695695Y-99861438D01*
X116677283Y-99824576D01*
X116657041Y-99810437D01*
X116621119Y-99800005D01*
X116561878Y-99795725D01*
X116492379Y-99803081D01*
X116435300Y-99823844D01*
X116390054Y-99856902D01*
X116367064Y-99894186D01*
X116383459Y-99893270D01*
X116420819Y-99901360D01*
X116450595Y-99925693D01*
X116470134Y-99960214D01*
X116476607Y-99998783D01*
X116468379Y-100042178D01*
X116444275Y-100076269D01*
X116409112Y-100098911D01*
X116368713Y-100106402D01*
X116341993Y-100102569D01*
X116318796Y-100091290D01*
X116283164Y-100060461D01*
X116263291Y-100026678D01*
X116256697Y-99988433D01*
X116259632Y-99957993D01*
X116269428Y-99920655D01*
X116297104Y-99872803D01*
X116344659Y-99832519D01*
X116418172Y-99799664D01*
X116503407Y-99779083D01*
X116589173Y-99772278D01*
X116692064Y-99780028D01*
G37*
G36*
X117733603Y-100223639D02*
G01*
X117733603Y-100322557D01*
X117735710Y-100414240D01*
X117730720Y-100513216D01*
X117718335Y-100577166D01*
X117701638Y-100616106D01*
X117663825Y-100656414D01*
X117606184Y-100682605D01*
X117520837Y-100692585D01*
X117438276Y-100684632D01*
X117377813Y-100663340D01*
X117333991Y-100630761D01*
X117302118Y-100586038D01*
X117281836Y-100528458D01*
X117274457Y-100454265D01*
X117274457Y-99860205D01*
X117106571Y-99860205D01*
X117106571Y-99837399D01*
X117187298Y-99808652D01*
X117255910Y-99766309D01*
X117314201Y-99709810D01*
X117363025Y-99637364D01*
X117400795Y-99550804D01*
X117423929Y-99455669D01*
X117431902Y-99350226D01*
X117475499Y-99350226D01*
X117475499Y-99795725D01*
X117718948Y-99795725D01*
X117718948Y-99860205D01*
X117475499Y-99860205D01*
X117475499Y-100432100D01*
X117478229Y-100535987D01*
X117483834Y-100579287D01*
X117504166Y-100624164D01*
X117533873Y-100648855D01*
X117575425Y-100657414D01*
X117624671Y-100647477D01*
X117660527Y-100618761D01*
X117685884Y-100566830D01*
X117698737Y-100489987D01*
X117704660Y-100327686D01*
X117704660Y-100223639D01*
X117733603Y-100223639D01*
G37*
G36*
X118398279Y-99930547D02*
G01*
X118388132Y-99890035D01*
X118369155Y-99857301D01*
X118340943Y-99830805D01*
X118286826Y-99804966D01*
X118216837Y-99795725D01*
X118162167Y-99802587D01*
X118118560Y-99821933D01*
X118083384Y-99853696D01*
X118055546Y-99900139D01*
X118032706Y-99971992D01*
X118016325Y-100078912D01*
X118009933Y-100231882D01*
X118017732Y-100372125D01*
X118038258Y-100475389D01*
X118068094Y-100549795D01*
X118101886Y-100599561D01*
X118138468Y-100632228D01*
X118178388Y-100651071D01*
X118223157Y-100657414D01*
X118297614Y-100648627D01*
X118362616Y-100623055D01*
X118420444Y-100580203D01*
X118463072Y-100528168D01*
X118494746Y-100464002D01*
X118515062Y-100385112D01*
X118522385Y-100288119D01*
X118547206Y-100288119D01*
X118540378Y-100382389D01*
X118521184Y-100461616D01*
X118490897Y-100528374D01*
X118449845Y-100584691D01*
X118397741Y-100631144D01*
X118337179Y-100664526D01*
X118266489Y-100685280D01*
X118183315Y-100692585D01*
X118117144Y-100686013D01*
X118053125Y-100666228D01*
X117990132Y-100632381D01*
X117927318Y-100582676D01*
X117865359Y-100512717D01*
X117821654Y-100435006D01*
X117795021Y-100347939D01*
X117785810Y-100249193D01*
X117795259Y-100142870D01*
X117822484Y-100049524D01*
X117866906Y-99966695D01*
X117929425Y-99892629D01*
X117996083Y-99837411D01*
X118060966Y-99800462D01*
X118125038Y-99779233D01*
X118189543Y-99772278D01*
X118277989Y-99780346D01*
X118358529Y-99803968D01*
X118430182Y-99844411D01*
X118477552Y-99894403D01*
X118505075Y-99955185D01*
X118515699Y-100021039D01*
X118508579Y-100063331D01*
X118487789Y-100097765D01*
X118451402Y-100126369D01*
X118425932Y-100137643D01*
X118395257Y-100141573D01*
X118358571Y-100134482D01*
X118324915Y-100112539D01*
X118301793Y-100079081D01*
X118293682Y-100033954D01*
X118301158Y-99992373D01*
X118322900Y-99959673D01*
X118355806Y-99938042D01*
X118398279Y-99930547D01*
G37*
G36*
X119017069Y-100150824D02*
G01*
X119017069Y-100572234D01*
X119023022Y-100625632D01*
X119041707Y-100637172D01*
X119097486Y-100647431D01*
X119172407Y-100651552D01*
X119172407Y-100675000D01*
X118606191Y-100675000D01*
X118606191Y-100651552D01*
X118718940Y-100647339D01*
X118766051Y-100640770D01*
X118802837Y-100630761D01*
X118810229Y-100615885D01*
X118814011Y-100571960D01*
X118814011Y-99465265D01*
X118813004Y-99419378D01*
X118804028Y-99390893D01*
X118778291Y-99366621D01*
X118729320Y-99359567D01*
X118608298Y-99356088D01*
X118608298Y-99332916D01*
X119017069Y-99297195D01*
X119014138Y-100045494D01*
X119033313Y-99963116D01*
X119072481Y-99882645D01*
X119119055Y-99824736D01*
X119167577Y-99790948D01*
X119219576Y-99776491D01*
X119256304Y-99774385D01*
X119284881Y-99772278D01*
X119380331Y-99782364D01*
X119452652Y-99809902D01*
X119507356Y-99853153D01*
X119540233Y-99900150D01*
X119560043Y-99953479D01*
X119566890Y-100014994D01*
X119566890Y-100572418D01*
X119572843Y-100625632D01*
X119592535Y-100637172D01*
X119652527Y-100647431D01*
X119743203Y-100651552D01*
X119743203Y-100675000D01*
X119195946Y-100675000D01*
X119195946Y-100651552D01*
X119276088Y-100647431D01*
X119352750Y-100630853D01*
X119360076Y-100616076D01*
X119363832Y-100572234D01*
X119363832Y-100003087D01*
X119358370Y-99919120D01*
X119345239Y-99869273D01*
X119320495Y-99831735D01*
X119285455Y-99809559D01*
X119236612Y-99801587D01*
X119197598Y-99807824D01*
X119160590Y-99826984D01*
X119124240Y-99861530D01*
X119088052Y-99915984D01*
X119045312Y-100019284D01*
X119017069Y-100150824D01*
G37*
G36*
X128151171Y-102852585D02*
G01*
X127703474Y-101614365D01*
X127669385Y-101542573D01*
X127639635Y-101514897D01*
X127589216Y-101504189D01*
X127440974Y-101498503D01*
X127440974Y-101475055D01*
X128212812Y-101475055D01*
X128212812Y-101498503D01*
X128077247Y-101502724D01*
X128013235Y-101511875D01*
X127982469Y-101524906D01*
X127966359Y-101542371D01*
X127961028Y-101565181D01*
X127971286Y-101612717D01*
X128295885Y-102495013D01*
X128517810Y-101838489D01*
X128545707Y-101732000D01*
X128553256Y-101662176D01*
X128544810Y-101603866D01*
X128521355Y-101560576D01*
X128482454Y-101528440D01*
X128423593Y-101506825D01*
X128337101Y-101498503D01*
X128337101Y-101475055D01*
X128884357Y-101475055D01*
X128884357Y-101498503D01*
X128798279Y-101509070D01*
X128727939Y-101539103D01*
X128669655Y-101588615D01*
X128621766Y-101660894D01*
X128546295Y-101856074D01*
X128211987Y-102852585D01*
X128151171Y-102852585D01*
G37*
G36*
X129405527Y-101939423D02*
G01*
X129478950Y-101960507D01*
X129548073Y-101995745D01*
X129613880Y-102046309D01*
X129676334Y-102116360D01*
X129720719Y-102195681D01*
X129747992Y-102286119D01*
X129757495Y-102390325D01*
X129748311Y-102490109D01*
X129721701Y-102578626D01*
X129677979Y-102658111D01*
X129615987Y-102730128D01*
X129547616Y-102785005D01*
X129477285Y-102822763D01*
X129404016Y-102845089D01*
X129326468Y-102852585D01*
X129246234Y-102845370D01*
X129172470Y-102824168D01*
X129103756Y-102788893D01*
X129039055Y-102738463D01*
X128976641Y-102667461D01*
X128932241Y-102587138D01*
X128904949Y-102495640D01*
X128895440Y-102390325D01*
X129119563Y-102390325D01*
X129125562Y-102545863D01*
X129140873Y-102653641D01*
X129162062Y-102725182D01*
X129188469Y-102770906D01*
X129223449Y-102802535D01*
X129268398Y-102822098D01*
X129326468Y-102829138D01*
X129378789Y-102822332D01*
X129421432Y-102802929D01*
X129456725Y-102770664D01*
X129485561Y-102722984D01*
X129509595Y-102649936D01*
X129526719Y-102542560D01*
X129533372Y-102390325D01*
X129527617Y-102232853D01*
X129513213Y-102128519D01*
X129493804Y-102063253D01*
X129465860Y-102015650D01*
X129429773Y-101982941D01*
X129384290Y-101962885D01*
X129326468Y-101955725D01*
X129273995Y-101962437D01*
X129231296Y-101981534D01*
X129196039Y-102013185D01*
X129167282Y-102059773D01*
X129143359Y-102131491D01*
X129126239Y-102238023D01*
X129119563Y-102390325D01*
X128895440Y-102390325D01*
X128904654Y-102290522D01*
X128931303Y-102202392D01*
X128975022Y-102123629D01*
X129036948Y-102052629D01*
X129105195Y-101998777D01*
X129175494Y-101961650D01*
X129248814Y-101939665D01*
X129326468Y-101932278D01*
X129405527Y-101939423D01*
G37*
G36*
X130493063Y-102065360D02*
G01*
X130489608Y-102021844D01*
X130482164Y-102002437D01*
X130468395Y-101990567D01*
X130445710Y-101983294D01*
X130272786Y-101979173D01*
X130272786Y-101955908D01*
X130696212Y-101932095D01*
X130696212Y-102648795D01*
X130697219Y-102703017D01*
X130706287Y-102741943D01*
X130718560Y-102762551D01*
X130752578Y-102771269D01*
X130878845Y-102776381D01*
X130878845Y-102799554D01*
X130493063Y-102835274D01*
X130495994Y-102568286D01*
X130476100Y-102651037D01*
X130435452Y-102727746D01*
X130386284Y-102783172D01*
X130332968Y-102817155D01*
X130273886Y-102832893D01*
X130248332Y-102835000D01*
X130223144Y-102835000D01*
X130143330Y-102825571D01*
X130079504Y-102799072D01*
X130027964Y-102755956D01*
X129994999Y-102708995D01*
X129975232Y-102656244D01*
X129968429Y-102595947D01*
X129968429Y-102045759D01*
X129965691Y-102012018D01*
X129959637Y-101996025D01*
X129948778Y-101986067D01*
X129932617Y-101981188D01*
X129834981Y-101979173D01*
X129783782Y-101979173D01*
X129783782Y-101955908D01*
X130171578Y-101932095D01*
X130171578Y-102630568D01*
X130179523Y-102728065D01*
X130197132Y-102774549D01*
X130228091Y-102802096D01*
X130271504Y-102811552D01*
X130313848Y-102805179D01*
X130353360Y-102785821D01*
X130391425Y-102751451D01*
X130428583Y-102698071D01*
X130464386Y-102620302D01*
X130485820Y-102538553D01*
X130493063Y-102451599D01*
X130493063Y-102065360D01*
G37*
G36*
X131525020Y-102383639D02*
G01*
X131525020Y-102482557D01*
X131527126Y-102574240D01*
X131522136Y-102673216D01*
X131509752Y-102737166D01*
X131493054Y-102776106D01*
X131455242Y-102816414D01*
X131397600Y-102842605D01*
X131312254Y-102852585D01*
X131229693Y-102844632D01*
X131169230Y-102823340D01*
X131125408Y-102790761D01*
X131093534Y-102746038D01*
X131073253Y-102688458D01*
X131065874Y-102614265D01*
X131065874Y-102020205D01*
X130897987Y-102020205D01*
X130897987Y-101997399D01*
X130978714Y-101968652D01*
X131047327Y-101926309D01*
X131105617Y-101869810D01*
X131154442Y-101797364D01*
X131192212Y-101710804D01*
X131215346Y-101615669D01*
X131223319Y-101510226D01*
X131266916Y-101510226D01*
X131266916Y-101955725D01*
X131510365Y-101955725D01*
X131510365Y-102020205D01*
X131266916Y-102020205D01*
X131266916Y-102592100D01*
X131269645Y-102695987D01*
X131275251Y-102739287D01*
X131295583Y-102784164D01*
X131325290Y-102808855D01*
X131366842Y-102817414D01*
X131416088Y-102807477D01*
X131451943Y-102778761D01*
X131477301Y-102726830D01*
X131490154Y-102649987D01*
X131496077Y-102487686D01*
X131496077Y-102383639D01*
X131525020Y-102383639D01*
G37*
G36*
X164259192Y-124615817D02*
G01*
X164368138Y-124647830D01*
X164472599Y-124701826D01*
X164573982Y-124779994D01*
X164653997Y-124865062D01*
X164715249Y-124957511D01*
X164759119Y-125058412D01*
X164786000Y-125169355D01*
X164795266Y-125292355D01*
X164786796Y-125415116D01*
X164762434Y-125524156D01*
X164723127Y-125621571D01*
X164668963Y-125709066D01*
X164599169Y-125787862D01*
X164521546Y-125851615D01*
X164438030Y-125900711D01*
X164347741Y-125935977D01*
X164249475Y-125957576D01*
X164141763Y-125965000D01*
X163322481Y-125965000D01*
X163322481Y-125941552D01*
X163486612Y-125935324D01*
X163578020Y-125919754D01*
X163606139Y-125902992D01*
X163611445Y-125882834D01*
X163614199Y-125826147D01*
X163614199Y-124743907D01*
X163878164Y-124743907D01*
X163878164Y-125826147D01*
X163880432Y-125881626D01*
X163885125Y-125905099D01*
X163895257Y-125920548D01*
X163912328Y-125931386D01*
X163938521Y-125937010D01*
X164001446Y-125940545D01*
X164141763Y-125941552D01*
X164236596Y-125930800D01*
X164313949Y-125900417D01*
X164377756Y-125850941D01*
X164430092Y-125779894D01*
X164466049Y-125699612D01*
X164494582Y-125595412D01*
X164513706Y-125462014D01*
X164520767Y-125293454D01*
X164513890Y-125135200D01*
X164494936Y-125005117D01*
X164466046Y-124898965D01*
X164428810Y-124812967D01*
X164383873Y-124743849D01*
X164333488Y-124692921D01*
X164277279Y-124657421D01*
X164214020Y-124635929D01*
X164141763Y-124628503D01*
X163987890Y-124631708D01*
X163913335Y-124642974D01*
X163895073Y-124653332D01*
X163885125Y-124666147D01*
X163880527Y-124686998D01*
X163878164Y-124743907D01*
X163614199Y-124743907D01*
X163611514Y-124690712D01*
X163606047Y-124669169D01*
X163580402Y-124653690D01*
X163498214Y-124636472D01*
X163322481Y-124628503D01*
X163322481Y-124605055D01*
X164143870Y-124605055D01*
X164259192Y-124615817D01*
G37*
G36*
X165386852Y-124739694D02*
G01*
X165386852Y-125826147D01*
X165389553Y-125881216D01*
X165395004Y-125903084D01*
X165418634Y-125918471D01*
X165495131Y-125934102D01*
X165670235Y-125941552D01*
X165670235Y-125965000D01*
X164837489Y-125965000D01*
X164837489Y-125941552D01*
X164996308Y-125935324D01*
X165085609Y-125919754D01*
X165105996Y-125908773D01*
X165115926Y-125897588D01*
X165120497Y-125879026D01*
X165122887Y-125826147D01*
X165122887Y-124739694D01*
X165120168Y-124686742D01*
X165114827Y-124667062D01*
X165089090Y-124651584D01*
X165012523Y-124635950D01*
X164837489Y-124628503D01*
X164837489Y-124605055D01*
X165672250Y-124605055D01*
X165672250Y-124628503D01*
X165513340Y-124634822D01*
X165452486Y-124643018D01*
X165420649Y-124651584D01*
X165400133Y-124659827D01*
X165391473Y-124678846D01*
X165386852Y-124739694D01*
G37*
G36*
X166472778Y-124598394D02*
G01*
X166582057Y-124630663D01*
X166685049Y-124684708D01*
X166783250Y-124762500D01*
X166857681Y-124845776D01*
X166915329Y-124937959D01*
X166957085Y-125040300D01*
X166982923Y-125154562D01*
X166991894Y-125282921D01*
X166983132Y-125405424D01*
X166957690Y-125516445D01*
X166916197Y-125617820D01*
X166858414Y-125711027D01*
X166783250Y-125797113D01*
X166682333Y-125880332D01*
X166578428Y-125937487D01*
X166470055Y-125971249D01*
X166355153Y-125982585D01*
X166237685Y-125971552D01*
X166128485Y-125938941D01*
X166025475Y-125884264D01*
X165927148Y-125805448D01*
X165852658Y-125721342D01*
X165794992Y-125628504D01*
X165753254Y-125525706D01*
X165727453Y-125411221D01*
X165718581Y-125284020D01*
X166003535Y-125284020D01*
X166010306Y-125453029D01*
X166028807Y-125589538D01*
X166056676Y-125698651D01*
X166092103Y-125784931D01*
X166144205Y-125863970D01*
X166204314Y-125916958D01*
X166273630Y-125948324D01*
X166355245Y-125959138D01*
X166435826Y-125948404D01*
X166504872Y-125917150D01*
X166565341Y-125864161D01*
X166618386Y-125784931D01*
X166654697Y-125698529D01*
X166683220Y-125589374D01*
X166702139Y-125452906D01*
X166709061Y-125284020D01*
X166702219Y-125112381D01*
X166683610Y-124975119D01*
X166655730Y-124866654D01*
X166620492Y-124782009D01*
X166568613Y-124704758D01*
X166508292Y-124652664D01*
X166438225Y-124621651D01*
X166355245Y-124610917D01*
X166273377Y-124621598D01*
X166203986Y-124652522D01*
X166143979Y-124704600D01*
X166092103Y-124782009D01*
X166056866Y-124866654D01*
X166028986Y-124975119D01*
X166010377Y-125112381D01*
X166003535Y-125284020D01*
X165718581Y-125284020D01*
X165718504Y-125282921D01*
X165727288Y-125160322D01*
X165752770Y-125049501D01*
X165794284Y-124948579D01*
X165852048Y-124856046D01*
X165927148Y-124770835D01*
X166027941Y-124688641D01*
X166131799Y-124632117D01*
X166240192Y-124598696D01*
X166355153Y-124587470D01*
X166472778Y-124598394D01*
G37*
G36*
X167985849Y-124615817D02*
G01*
X168094796Y-124647830D01*
X168199256Y-124701826D01*
X168300639Y-124779994D01*
X168380655Y-124865062D01*
X168441906Y-124957511D01*
X168485776Y-125058412D01*
X168512657Y-125169355D01*
X168521923Y-125292355D01*
X168513453Y-125415116D01*
X168489091Y-125524156D01*
X168449784Y-125621571D01*
X168395620Y-125709066D01*
X168325826Y-125787862D01*
X168248203Y-125851615D01*
X168164688Y-125900711D01*
X168074399Y-125935977D01*
X167976133Y-125957576D01*
X167868421Y-125965000D01*
X167049139Y-125965000D01*
X167049139Y-125941552D01*
X167213270Y-125935324D01*
X167304678Y-125919754D01*
X167332796Y-125902992D01*
X167338102Y-125882834D01*
X167340856Y-125826147D01*
X167340856Y-124743907D01*
X167604822Y-124743907D01*
X167604822Y-125826147D01*
X167607090Y-125881626D01*
X167611782Y-125905099D01*
X167621914Y-125920548D01*
X167638985Y-125931386D01*
X167665178Y-125937010D01*
X167728103Y-125940545D01*
X167868421Y-125941552D01*
X167963253Y-125930800D01*
X168040607Y-125900417D01*
X168104414Y-125850941D01*
X168156749Y-125779894D01*
X168192706Y-125699612D01*
X168221239Y-125595412D01*
X168240364Y-125462014D01*
X168247424Y-125293454D01*
X168240548Y-125135200D01*
X168221593Y-125005117D01*
X168192704Y-124898965D01*
X168155467Y-124812967D01*
X168110530Y-124743849D01*
X168060146Y-124692921D01*
X168003937Y-124657421D01*
X167940677Y-124635929D01*
X167868421Y-124628503D01*
X167714548Y-124631708D01*
X167639993Y-124642974D01*
X167621730Y-124653332D01*
X167611782Y-124666147D01*
X167607184Y-124686998D01*
X167604822Y-124743907D01*
X167340856Y-124743907D01*
X167338171Y-124690712D01*
X167332704Y-124669169D01*
X167307059Y-124653690D01*
X167224871Y-124636472D01*
X167049139Y-124628503D01*
X167049139Y-124605055D01*
X167870527Y-124605055D01*
X167985849Y-124615817D01*
G37*
G36*
X169111495Y-125261580D02*
G01*
X169111495Y-125822484D01*
X169117356Y-125894841D01*
X169127909Y-125906680D01*
X169156099Y-125920120D01*
X169190480Y-125928959D01*
X169232670Y-125933584D01*
X169389748Y-125935690D01*
X169507653Y-125925777D01*
X169604404Y-125898073D01*
X169684073Y-125854331D01*
X169749610Y-125794457D01*
X169799982Y-125722003D01*
X169843489Y-125625590D01*
X169878705Y-125499683D01*
X169903299Y-125337784D01*
X169934074Y-125337784D01*
X169934074Y-125965000D01*
X168564146Y-125965000D01*
X168564146Y-125941552D01*
X168737324Y-125934121D01*
X168813640Y-125918471D01*
X168831006Y-125908733D01*
X168840477Y-125897588D01*
X168845048Y-125879026D01*
X168847438Y-125826147D01*
X168847438Y-124743907D01*
X168844698Y-124689099D01*
X168839378Y-124669261D01*
X168813274Y-124653599D01*
X168719851Y-124636929D01*
X168564146Y-124628503D01*
X168564146Y-124605055D01*
X169864831Y-124605055D01*
X169864831Y-125138482D01*
X169833782Y-125138482D01*
X169824741Y-125030024D01*
X169797751Y-124925861D01*
X169752266Y-124824599D01*
X169702797Y-124750812D01*
X169648264Y-124696591D01*
X169588286Y-124658957D01*
X169521651Y-124636293D01*
X169446443Y-124628503D01*
X169286067Y-124629602D01*
X169208159Y-124635395D01*
X169143185Y-124649660D01*
X169118364Y-124670818D01*
X169113872Y-124689665D01*
X169111495Y-124744823D01*
X169111495Y-125238133D01*
X169257544Y-125231122D01*
X169338186Y-125214864D01*
X169377383Y-125194810D01*
X169406960Y-125159270D01*
X169436360Y-125095821D01*
X169464171Y-124992254D01*
X169487842Y-124833667D01*
X169516510Y-124833667D01*
X169516510Y-125660184D01*
X169487842Y-125660184D01*
X169464414Y-125505686D01*
X169437117Y-125404368D01*
X169408359Y-125341961D01*
X169379490Y-125306734D01*
X169338898Y-125285690D01*
X169257254Y-125268811D01*
X169111495Y-125261580D01*
G37*
D10*
G36*
X131701819Y-86249081D02*
G01*
X131807384Y-86271967D01*
X131896143Y-86307842D01*
X131970767Y-86355956D01*
X132031014Y-86415260D01*
X132072985Y-86481365D01*
X132098377Y-86555696D01*
X132107146Y-86640529D01*
X132096089Y-86715739D01*
X132062297Y-86787508D01*
X132002183Y-86858149D01*
X131933997Y-86909674D01*
X131854122Y-86947379D01*
X131760309Y-86971108D01*
X131649649Y-86979508D01*
X131330637Y-86979508D01*
X131330637Y-87458254D01*
X131333419Y-87514438D01*
X131339064Y-87537022D01*
X131368373Y-87555157D01*
X131467016Y-87571094D01*
X131668517Y-87577414D01*
X131668517Y-87595000D01*
X130761948Y-87595000D01*
X130761948Y-87577414D01*
X130939269Y-87571094D01*
X131034798Y-87555249D01*
X131064107Y-87537297D01*
X131069753Y-87514847D01*
X131072534Y-87459078D01*
X131072534Y-86372625D01*
X131072515Y-86372259D01*
X131330637Y-86372259D01*
X131330637Y-86961922D01*
X131542579Y-86961922D01*
X131630430Y-86955076D01*
X131697484Y-86936586D01*
X131748239Y-86908502D01*
X131786028Y-86871338D01*
X131816151Y-86815891D01*
X131836874Y-86735780D01*
X131844829Y-86622852D01*
X131834880Y-86505750D01*
X131808058Y-86417375D01*
X131767160Y-86351193D01*
X131725297Y-86312221D01*
X131673114Y-86283503D01*
X131608355Y-86265134D01*
X131527924Y-86258503D01*
X131427174Y-86258503D01*
X131362144Y-86264822D01*
X131344989Y-86274675D01*
X131335858Y-86291201D01*
X131330637Y-86372259D01*
X131072515Y-86372259D01*
X131069791Y-86320579D01*
X131064107Y-86298620D01*
X131038920Y-86281767D01*
X130955757Y-86266054D01*
X130761948Y-86258503D01*
X130761948Y-86240917D01*
X131576193Y-86240917D01*
X131701819Y-86249081D01*
G37*
G36*
X132665211Y-86240917D02*
G01*
X133019851Y-87219201D01*
X133313675Y-86240917D01*
X133895004Y-86240917D01*
X133895004Y-86258503D01*
X133720217Y-86266668D01*
X133643220Y-86283873D01*
X133618032Y-86300818D01*
X133610839Y-86324656D01*
X133607500Y-86376838D01*
X133607500Y-87459078D01*
X133610361Y-87516466D01*
X133615926Y-87537297D01*
X133623473Y-87544696D01*
X133646243Y-87555249D01*
X133737559Y-87571094D01*
X133895004Y-87577414D01*
X133895004Y-87595000D01*
X133087079Y-87595000D01*
X133087079Y-87577414D01*
X133226572Y-87571094D01*
X133314683Y-87555341D01*
X133342984Y-87537297D01*
X133348629Y-87514938D01*
X133351411Y-87459262D01*
X133349304Y-86311900D01*
X133346172Y-86281544D01*
X133340878Y-86276088D01*
X133333818Y-86281184D01*
X133322010Y-86307595D01*
X132938060Y-87595000D01*
X132891898Y-87595000D01*
X132438614Y-86301825D01*
X132421853Y-86270226D01*
X132418018Y-86275232D01*
X132415533Y-86306222D01*
X132415533Y-87192457D01*
X132424818Y-87350327D01*
X132447417Y-87447159D01*
X132477449Y-87502309D01*
X132510766Y-87532225D01*
X132557946Y-87555600D01*
X132623071Y-87571435D01*
X132711372Y-87577414D01*
X132711372Y-87595000D01*
X132117496Y-87595000D01*
X132117496Y-87577414D01*
X132212253Y-87567517D01*
X132279013Y-87541316D01*
X132325225Y-87501302D01*
X132356093Y-87446621D01*
X132377706Y-87364046D01*
X132386133Y-87243473D01*
X132386133Y-86590337D01*
X132378094Y-86466286D01*
X132357793Y-86383842D01*
X132329438Y-86331409D01*
X132285808Y-86293767D01*
X132218359Y-86268354D01*
X132117496Y-86258503D01*
X132117496Y-86238811D01*
X132665211Y-86240917D01*
G37*
G36*
X134678374Y-86234203D02*
G01*
X134787131Y-86266317D01*
X134889647Y-86320108D01*
X134987411Y-86397538D01*
X135061511Y-86480464D01*
X135118905Y-86572266D01*
X135160480Y-86674192D01*
X135186206Y-86787998D01*
X135195139Y-86915852D01*
X135186414Y-87037892D01*
X135161079Y-87148477D01*
X135119765Y-87249434D01*
X135062237Y-87342240D01*
X134987411Y-87427937D01*
X134886931Y-87510794D01*
X134783502Y-87567695D01*
X134675652Y-87601302D01*
X134561329Y-87612585D01*
X134444440Y-87601605D01*
X134335763Y-87569149D01*
X134233228Y-87514726D01*
X134135339Y-87436272D01*
X134061180Y-87352516D01*
X134003767Y-87260059D01*
X133962211Y-87157676D01*
X133936522Y-87043647D01*
X133927687Y-86916951D01*
X134206780Y-86916951D01*
X134213583Y-87086276D01*
X134232182Y-87223221D01*
X134260223Y-87332851D01*
X134295898Y-87419694D01*
X134337188Y-87485567D01*
X134383670Y-87533957D01*
X134435650Y-87567611D01*
X134494278Y-87587965D01*
X134561420Y-87595000D01*
X134642853Y-87584181D01*
X134712540Y-87552701D01*
X134773482Y-87499373D01*
X134826851Y-87419694D01*
X134863450Y-87332723D01*
X134892173Y-87223049D01*
X134911208Y-87086148D01*
X134918168Y-86916951D01*
X134911287Y-86745002D01*
X134892561Y-86607304D01*
X134864481Y-86498320D01*
X134828958Y-86413108D01*
X134776753Y-86335406D01*
X134715961Y-86282973D01*
X134645254Y-86251736D01*
X134561420Y-86240917D01*
X134478699Y-86251682D01*
X134408651Y-86282829D01*
X134348142Y-86335247D01*
X134295898Y-86413108D01*
X134260413Y-86498314D01*
X134232362Y-86607297D01*
X134213654Y-86744997D01*
X134206780Y-86916951D01*
X133927687Y-86916951D01*
X133927610Y-86915852D01*
X133936357Y-86793758D01*
X133961727Y-86683393D01*
X134003059Y-86582886D01*
X134060570Y-86490733D01*
X134135339Y-86405873D01*
X134235694Y-86324041D01*
X134339076Y-86267772D01*
X134446947Y-86234505D01*
X134561329Y-86223332D01*
X134678374Y-86234203D01*
G37*
G36*
X135978060Y-86342858D02*
G01*
X136116545Y-86223332D01*
X136116545Y-86680554D01*
X136097677Y-86674692D01*
X136076613Y-86584769D01*
X136044085Y-86504075D01*
X136000190Y-86431350D01*
X135944446Y-86365664D01*
X135878418Y-86309645D01*
X135810280Y-86271224D01*
X135739032Y-86248538D01*
X135663261Y-86240917D01*
X135591998Y-86246823D01*
X135529572Y-86263785D01*
X135474400Y-86291292D01*
X135430722Y-86325815D01*
X135400509Y-86366187D01*
X135382166Y-86413482D01*
X135375757Y-86469712D01*
X135382319Y-86523279D01*
X135401615Y-86571006D01*
X135434345Y-86614462D01*
X135482827Y-86654451D01*
X135545997Y-86689311D01*
X135639578Y-86725271D01*
X135772346Y-86761521D01*
X135946615Y-86809720D01*
X136052298Y-86849298D01*
X136110225Y-86881230D01*
X136164775Y-86933216D01*
X136205008Y-87000348D01*
X136230927Y-87086134D01*
X136240376Y-87195571D01*
X136231214Y-87297522D01*
X136205314Y-87382981D01*
X136163807Y-87455144D01*
X136106104Y-87516231D01*
X136046893Y-87558100D01*
X135982108Y-87587989D01*
X135910663Y-87606278D01*
X135831147Y-87612585D01*
X135711652Y-87602198D01*
X135609680Y-87572651D01*
X135548419Y-87540741D01*
X135492306Y-87497014D01*
X135440786Y-87440211D01*
X135308620Y-87612585D01*
X135308620Y-87032264D01*
X135327488Y-87030249D01*
X135372511Y-87201660D01*
X135417705Y-87321051D01*
X135464595Y-87407787D01*
X135516349Y-87474832D01*
X135575541Y-87525599D01*
X135647264Y-87562872D01*
X135734114Y-87586533D01*
X135839574Y-87595000D01*
X135903058Y-87587849D01*
X135962740Y-87566466D01*
X136020008Y-87529878D01*
X136073267Y-87474187D01*
X136104027Y-87412098D01*
X136114439Y-87341017D01*
X136106443Y-87275431D01*
X136083165Y-87218408D01*
X136044033Y-87167834D01*
X135986394Y-87122664D01*
X135880515Y-87072477D01*
X135678923Y-87008267D01*
X135532377Y-86962658D01*
X135434738Y-86921721D01*
X135373650Y-86885443D01*
X135319189Y-86833536D01*
X135280364Y-86771826D01*
X135256244Y-86698356D01*
X135247712Y-86610121D01*
X135255029Y-86531420D01*
X135276377Y-86460466D01*
X135311709Y-86395640D01*
X135362110Y-86335806D01*
X135422817Y-86286044D01*
X135487584Y-86251310D01*
X135557448Y-86230442D01*
X135633860Y-86223332D01*
X135722982Y-86228331D01*
X135795508Y-86242097D01*
X135854228Y-86263174D01*
X135978060Y-86342858D01*
G37*
D11*
G36*
X128091311Y-98799694D02*
G01*
X128091311Y-99886147D01*
X128094012Y-99941216D01*
X128099463Y-99963084D01*
X128123094Y-99978471D01*
X128199590Y-99994102D01*
X128374694Y-100001552D01*
X128374694Y-100025000D01*
X127541948Y-100025000D01*
X127541948Y-100001552D01*
X127700767Y-99995324D01*
X127790068Y-99979754D01*
X127810456Y-99968773D01*
X127820385Y-99957588D01*
X127824957Y-99939026D01*
X127827346Y-99886147D01*
X127827346Y-98799694D01*
X127824628Y-98746742D01*
X127819286Y-98727062D01*
X127793549Y-98711584D01*
X127716982Y-98695950D01*
X127541948Y-98688503D01*
X127541948Y-98665055D01*
X128376709Y-98665055D01*
X128376709Y-98688503D01*
X128217799Y-98694822D01*
X128156946Y-98703018D01*
X128125109Y-98711584D01*
X128104592Y-98719827D01*
X128095932Y-98738846D01*
X128091311Y-98799694D01*
G37*
G36*
X128800226Y-99509342D02*
G01*
X128800226Y-99922234D01*
X128806180Y-99975632D01*
X128824864Y-99987172D01*
X128880643Y-99997431D01*
X128955565Y-100001552D01*
X128955565Y-100025000D01*
X128412430Y-100025000D01*
X128412430Y-100001552D01*
X128506311Y-99997431D01*
X128585995Y-99980761D01*
X128593383Y-99965961D01*
X128597169Y-99922051D01*
X128597169Y-99281555D01*
X128596161Y-99244094D01*
X128587185Y-99215518D01*
X128574821Y-99194818D01*
X128540795Y-99186042D01*
X128414536Y-99180896D01*
X128414536Y-99157724D01*
X128800226Y-99122003D01*
X128797295Y-99393113D01*
X128815547Y-99306996D01*
X128849411Y-99233744D01*
X128894115Y-99174575D01*
X128935337Y-99142372D01*
X128974707Y-99129697D01*
X129059612Y-99122278D01*
X129145250Y-99131894D01*
X129214718Y-99158991D01*
X129271646Y-99202970D01*
X129308451Y-99251500D01*
X129330132Y-99304744D01*
X129337500Y-99364445D01*
X129337500Y-99920586D01*
X129343453Y-99973709D01*
X129363237Y-99986165D01*
X129423137Y-99997156D01*
X129509599Y-100001552D01*
X129509599Y-100025000D01*
X128966464Y-100025000D01*
X128966464Y-100001552D01*
X129046606Y-99997431D01*
X129123268Y-99980853D01*
X129130594Y-99966076D01*
X129134351Y-99922234D01*
X129134351Y-99388991D01*
X129129493Y-99294363D01*
X129117681Y-99236034D01*
X129093364Y-99186959D01*
X129061395Y-99160496D01*
X129019770Y-99151587D01*
X128976750Y-99158268D01*
X128937435Y-99178455D01*
X128900328Y-99214276D01*
X128864981Y-99270106D01*
X128827512Y-99368819D01*
X128800226Y-99509342D01*
G37*
G36*
X129905364Y-99423979D02*
G01*
X129924890Y-99319785D01*
X129961601Y-99234477D01*
X129999342Y-99183119D01*
X130040411Y-99148955D01*
X130085509Y-99129027D01*
X130136265Y-99122278D01*
X130209925Y-99129709D01*
X130275368Y-99151326D01*
X130334385Y-99187158D01*
X130388141Y-99238599D01*
X130433372Y-99304301D01*
X130466950Y-99382505D01*
X130488323Y-99475621D01*
X130495943Y-99586645D01*
X130485276Y-99684936D01*
X130452877Y-99781361D01*
X130396750Y-99877813D01*
X130332154Y-99952346D01*
X130262624Y-100002771D01*
X130186899Y-100032497D01*
X130102651Y-100042585D01*
X130045498Y-100032100D01*
X129996484Y-100000592D01*
X129953175Y-99943667D01*
X129922589Y-99870790D01*
X129905364Y-99784573D01*
X129908295Y-100361963D01*
X129914248Y-100415269D01*
X129931559Y-100426626D01*
X129987096Y-100436466D01*
X130116115Y-100441189D01*
X130116115Y-100464637D01*
X129497418Y-100464637D01*
X129497418Y-100441189D01*
X129610166Y-100436976D01*
X129657277Y-100430407D01*
X129694064Y-100420398D01*
X129701452Y-100405598D01*
X129705238Y-100361688D01*
X129705238Y-99589850D01*
X129918828Y-99589850D01*
X129925280Y-99731368D01*
X129942204Y-99835477D01*
X129966547Y-99910144D01*
X130005564Y-99974686D01*
X130048185Y-100008374D01*
X130096331Y-100019138D01*
X130142782Y-100013091D01*
X130179846Y-99995993D01*
X130209786Y-99967740D01*
X130233443Y-99926081D01*
X130252059Y-99861171D01*
X130266129Y-99753241D01*
X130271820Y-99585637D01*
X130264720Y-99378300D01*
X130248831Y-99272762D01*
X130225797Y-99213225D01*
X130195858Y-99175182D01*
X130159100Y-99153287D01*
X130113184Y-99145725D01*
X130072258Y-99155507D01*
X130031109Y-99187805D01*
X129987704Y-99252246D01*
X129951307Y-99340715D01*
X129927508Y-99451592D01*
X129918828Y-99589850D01*
X129705238Y-99589850D01*
X129705238Y-99268824D01*
X129701606Y-99231182D01*
X129693148Y-99211488D01*
X129669517Y-99191338D01*
X129620547Y-99184345D01*
X129499524Y-99180896D01*
X129499524Y-99157724D01*
X129908295Y-99122003D01*
X129905364Y-99423979D01*
G37*
G36*
X131226657Y-99255360D02*
G01*
X131223202Y-99211844D01*
X131215758Y-99192437D01*
X131201989Y-99180567D01*
X131179304Y-99173294D01*
X131006380Y-99169173D01*
X131006380Y-99145908D01*
X131429806Y-99122095D01*
X131429806Y-99838795D01*
X131430813Y-99893017D01*
X131439881Y-99931943D01*
X131452154Y-99952551D01*
X131486172Y-99961269D01*
X131612438Y-99966381D01*
X131612438Y-99989554D01*
X131226657Y-100025274D01*
X131229588Y-99758286D01*
X131209694Y-99841037D01*
X131169046Y-99917746D01*
X131119878Y-99973172D01*
X131066562Y-100007155D01*
X131007479Y-100022893D01*
X130981926Y-100025000D01*
X130956738Y-100025000D01*
X130876924Y-100015571D01*
X130813098Y-99989072D01*
X130761557Y-99945956D01*
X130728592Y-99898995D01*
X130708826Y-99846244D01*
X130702023Y-99785947D01*
X130702023Y-99235759D01*
X130699285Y-99202018D01*
X130693230Y-99186025D01*
X130682372Y-99176067D01*
X130666211Y-99171188D01*
X130568575Y-99169173D01*
X130517376Y-99169173D01*
X130517376Y-99145908D01*
X130905172Y-99122095D01*
X130905172Y-99820568D01*
X130913117Y-99918065D01*
X130930726Y-99964549D01*
X130961685Y-99992096D01*
X131005098Y-100001552D01*
X131047442Y-99995179D01*
X131086954Y-99975821D01*
X131125018Y-99941451D01*
X131162177Y-99888071D01*
X131197980Y-99810302D01*
X131219414Y-99728553D01*
X131226657Y-99641599D01*
X131226657Y-99255360D01*
G37*
G36*
X132258613Y-99573639D02*
G01*
X132258613Y-99672557D01*
X132260720Y-99764240D01*
X132255730Y-99863216D01*
X132243346Y-99927166D01*
X132226648Y-99966106D01*
X132188835Y-100006414D01*
X132131194Y-100032605D01*
X132045847Y-100042585D01*
X131963287Y-100034632D01*
X131902824Y-100013340D01*
X131859002Y-99980761D01*
X131827128Y-99936038D01*
X131806846Y-99878458D01*
X131799467Y-99804265D01*
X131799467Y-99210205D01*
X131631581Y-99210205D01*
X131631581Y-99187399D01*
X131712308Y-99158652D01*
X131780921Y-99116309D01*
X131839211Y-99059810D01*
X131888036Y-98987364D01*
X131925805Y-98900804D01*
X131948940Y-98805669D01*
X131956912Y-98700226D01*
X132000510Y-98700226D01*
X132000510Y-99145725D01*
X132243959Y-99145725D01*
X132243959Y-99210205D01*
X132000510Y-99210205D01*
X132000510Y-99782100D01*
X132003239Y-99885987D01*
X132008845Y-99929287D01*
X132029177Y-99974164D01*
X132058884Y-99998855D01*
X132100436Y-100007414D01*
X132149681Y-99997477D01*
X132185537Y-99968761D01*
X132210894Y-99916830D01*
X132223748Y-99839987D01*
X132229671Y-99677686D01*
X132229671Y-99573639D01*
X132258613Y-99573639D01*
G37*
D12*
G36*
X162309934Y-80932278D02*
G01*
X162309934Y-81330882D01*
X162290333Y-81330882D01*
X162268669Y-81210689D01*
X162243602Y-81122259D01*
X162216489Y-81059143D01*
X162188240Y-81015748D01*
X162157058Y-80985062D01*
X162119435Y-80962891D01*
X162074048Y-80948963D01*
X162018980Y-80944002D01*
X161988205Y-80946810D01*
X161984614Y-80954673D01*
X161982587Y-80983447D01*
X161982587Y-81744385D01*
X161984441Y-81781564D01*
X161988205Y-81796531D01*
X162007744Y-81808499D01*
X162072102Y-81819063D01*
X162200818Y-81823276D01*
X162200818Y-81835000D01*
X161592226Y-81835000D01*
X161592226Y-81823276D01*
X161719538Y-81819063D01*
X161783957Y-81808499D01*
X161798553Y-81800872D01*
X161805633Y-81792990D01*
X161808854Y-81780112D01*
X161810518Y-81744385D01*
X161810518Y-80984851D01*
X161807504Y-80953057D01*
X161802153Y-80945406D01*
X161772722Y-80944002D01*
X161719037Y-80948830D01*
X161674504Y-80962418D01*
X161637330Y-80984102D01*
X161606270Y-81014160D01*
X161577742Y-81058076D01*
X161550134Y-81121218D01*
X161524255Y-81208841D01*
X161501307Y-81326974D01*
X161481706Y-81326974D01*
X161481706Y-80932278D01*
X162309934Y-80932278D01*
G37*
G36*
X162474126Y-81327951D02*
G01*
X162472267Y-81302337D01*
X162468508Y-81292475D01*
X162458272Y-81280401D01*
X162450312Y-81275439D01*
X162417263Y-81270696D01*
X162335579Y-81268356D01*
X162335579Y-81256632D01*
X162605590Y-81237093D01*
X162605590Y-81414902D01*
X162618080Y-81359572D01*
X162644791Y-81307069D01*
X162670728Y-81275093D01*
X162698336Y-81253738D01*
X162728086Y-81241289D01*
X162760928Y-81237093D01*
X162787487Y-81241143D01*
X162818264Y-81254556D01*
X162844535Y-81274901D01*
X162859541Y-81298581D01*
X162867626Y-81324697D01*
X162870044Y-81346086D01*
X162864586Y-81380412D01*
X162849417Y-81405229D01*
X162823882Y-81422962D01*
X162794512Y-81428579D01*
X162768605Y-81423681D01*
X162746945Y-81409040D01*
X162732701Y-81385894D01*
X162727345Y-81350361D01*
X162731796Y-81325922D01*
X162746213Y-81300047D01*
X162767325Y-81282312D01*
X162790298Y-81280507D01*
X162781387Y-81263344D01*
X162765548Y-81252824D01*
X162739923Y-81248817D01*
X162715453Y-81254213D01*
X162688907Y-81272285D01*
X162658774Y-81308229D01*
X162630184Y-81361634D01*
X162612069Y-81426308D01*
X162605590Y-81504905D01*
X162605590Y-81768077D01*
X162609803Y-81804897D01*
X162622381Y-81813384D01*
X162659537Y-81820086D01*
X162744137Y-81823276D01*
X162744137Y-81835000D01*
X162335579Y-81835000D01*
X162335579Y-81823276D01*
X162409035Y-81820467D01*
X162440660Y-81815989D01*
X162465700Y-81809110D01*
X162471329Y-81798225D01*
X162474126Y-81767955D01*
X162474126Y-81327951D01*
G37*
G36*
X163238686Y-81242217D02*
G01*
X163289617Y-81255902D01*
X163327205Y-81276416D01*
X163354190Y-81302619D01*
X163369591Y-81331711D01*
X163374772Y-81364954D01*
X163374772Y-81675448D01*
X163378985Y-81779434D01*
X163389685Y-81807147D01*
X163406039Y-81822060D01*
X163429299Y-81827184D01*
X163450849Y-81822966D01*
X163466749Y-81810793D01*
X163478269Y-81788960D01*
X163487203Y-81746374D01*
X163490848Y-81678440D01*
X163490115Y-81638750D01*
X163489444Y-81597657D01*
X163489444Y-81584895D01*
X163504831Y-81584895D01*
X163504831Y-81646505D01*
X163506235Y-81702498D01*
X163503320Y-81757224D01*
X163496169Y-81791582D01*
X163486635Y-81811735D01*
X163466810Y-81829622D01*
X163434583Y-81841889D01*
X163384541Y-81846723D01*
X163329032Y-81840878D01*
X163295026Y-81826268D01*
X163275307Y-81807333D01*
X163259790Y-81780328D01*
X163248864Y-81742981D01*
X163225212Y-81783767D01*
X163195997Y-81813206D01*
X163160693Y-81833046D01*
X163122572Y-81842884D01*
X163066965Y-81846723D01*
X163011241Y-81839475D01*
X162964810Y-81818635D01*
X162931531Y-81789199D01*
X162911683Y-81751737D01*
X162904665Y-81703597D01*
X162905857Y-81694865D01*
X163038999Y-81694865D01*
X163044023Y-81770091D01*
X163055058Y-81805996D01*
X163067921Y-81822126D01*
X163084540Y-81831642D01*
X163106165Y-81835000D01*
X163139764Y-81830241D01*
X163171366Y-81815820D01*
X163201970Y-81790425D01*
X163225685Y-81758546D01*
X163239807Y-81722851D01*
X163244651Y-81682103D01*
X163244651Y-81493792D01*
X163224363Y-81511720D01*
X163194948Y-81521392D01*
X163131322Y-81530612D01*
X163095053Y-81546820D01*
X163066965Y-81575919D01*
X163052290Y-81605568D01*
X163042589Y-81644409D01*
X163038999Y-81694865D01*
X162905857Y-81694865D01*
X162911201Y-81655733D01*
X162930440Y-81613737D01*
X162963406Y-81575980D01*
X163004944Y-81547365D01*
X163052110Y-81528197D01*
X163106165Y-81518461D01*
X163183066Y-81507957D01*
X163219494Y-81495990D01*
X163234787Y-81482900D01*
X163244912Y-81461249D01*
X163248864Y-81427236D01*
X163248864Y-81345109D01*
X163243349Y-81293897D01*
X163230668Y-81268661D01*
X163216773Y-81258907D01*
X163192348Y-81251745D01*
X163152327Y-81248817D01*
X163105509Y-81253793D01*
X163066903Y-81267868D01*
X163036299Y-81290829D01*
X163019398Y-81319159D01*
X163033381Y-81317754D01*
X163057470Y-81322976D01*
X163076734Y-81338698D01*
X163089342Y-81361070D01*
X163093526Y-81386142D01*
X163088181Y-81414285D01*
X163072521Y-81436395D01*
X163049738Y-81451077D01*
X163023550Y-81455935D01*
X163006321Y-81453456D01*
X162991371Y-81446165D01*
X162968094Y-81426072D01*
X162955126Y-81404091D01*
X162950827Y-81379242D01*
X162952754Y-81359252D01*
X162959192Y-81334668D01*
X162977361Y-81303343D01*
X163008659Y-81276890D01*
X163057134Y-81255228D01*
X163113649Y-81241599D01*
X163170523Y-81237093D01*
X163238686Y-81242217D01*
G37*
G36*
X163786015Y-81493060D02*
G01*
X163786015Y-81768443D01*
X163790229Y-81805019D01*
X163803479Y-81813445D01*
X163841275Y-81820467D01*
X163889574Y-81823276D01*
X163889574Y-81835000D01*
X163531392Y-81835000D01*
X163531392Y-81823276D01*
X163592270Y-81820467D01*
X163646125Y-81809171D01*
X163651753Y-81798408D01*
X163654552Y-81768321D01*
X163654552Y-81341324D01*
X163653819Y-81315983D01*
X163647530Y-81296200D01*
X163639164Y-81282156D01*
X163615796Y-81275873D01*
X163532797Y-81272264D01*
X163532797Y-81260540D01*
X163786015Y-81237093D01*
X163786015Y-81415696D01*
X163799555Y-81358882D01*
X163822408Y-81310488D01*
X163851843Y-81271526D01*
X163878983Y-81250323D01*
X163904901Y-81241978D01*
X163960893Y-81237093D01*
X164017443Y-81243434D01*
X164063293Y-81261296D01*
X164100844Y-81290277D01*
X164125076Y-81322236D01*
X164139348Y-81357290D01*
X164144198Y-81396584D01*
X164144198Y-81767344D01*
X164148411Y-81803736D01*
X164162394Y-81812773D01*
X164202938Y-81820284D01*
X164258931Y-81823276D01*
X164258931Y-81835000D01*
X163900749Y-81835000D01*
X163900749Y-81823276D01*
X163952528Y-81820467D01*
X164004307Y-81809232D01*
X164009893Y-81798485D01*
X164012673Y-81768443D01*
X164012673Y-81412948D01*
X164009420Y-81349557D01*
X164001499Y-81310366D01*
X163984849Y-81276895D01*
X163962923Y-81258818D01*
X163934332Y-81252725D01*
X163905077Y-81257251D01*
X163878391Y-81270915D01*
X163853256Y-81295132D01*
X163829369Y-81332836D01*
X163804290Y-81398922D01*
X163786015Y-81493060D01*
G37*
G36*
X164621265Y-81280690D02*
G01*
X164678601Y-81237093D01*
X164678601Y-81448119D01*
X164666022Y-81445310D01*
X164648926Y-81390711D01*
X164625531Y-81344959D01*
X164596047Y-81306763D01*
X164556911Y-81273564D01*
X164517239Y-81254914D01*
X164475757Y-81248817D01*
X164428399Y-81254105D01*
X164393203Y-81268478D01*
X164369609Y-81289530D01*
X164355116Y-81318174D01*
X164349850Y-81357016D01*
X164355076Y-81388063D01*
X164370432Y-81413808D01*
X164397416Y-81435662D01*
X164439828Y-81453669D01*
X164531689Y-81479016D01*
X164598733Y-81497994D01*
X164644053Y-81516797D01*
X164673044Y-81534947D01*
X164697138Y-81559322D01*
X164714881Y-81590149D01*
X164726257Y-81628876D01*
X164730380Y-81677524D01*
X164726118Y-81722084D01*
X164714199Y-81758254D01*
X164695228Y-81787779D01*
X164668831Y-81811796D01*
X164634602Y-81830700D01*
X164594044Y-81842532D01*
X164545672Y-81846723D01*
X164488496Y-81844187D01*
X164457561Y-81838358D01*
X164419292Y-81818997D01*
X164372198Y-81778579D01*
X164313458Y-81846723D01*
X164313458Y-81600526D01*
X164323228Y-81600526D01*
X164347029Y-81680132D01*
X164362429Y-81720572D01*
X164385390Y-81762652D01*
X164407186Y-81788960D01*
X164440099Y-81814926D01*
X164468003Y-81827367D01*
X164500287Y-81832755D01*
X164554098Y-81835000D01*
X164594466Y-81829106D01*
X164625417Y-81812529D01*
X164643830Y-81792614D01*
X164655028Y-81767843D01*
X164659000Y-81736692D01*
X164653664Y-81696898D01*
X164638751Y-81666288D01*
X164614243Y-81642597D01*
X164571832Y-81622339D01*
X164490412Y-81600648D01*
X164432402Y-81584928D01*
X164387229Y-81565137D01*
X164352598Y-81541908D01*
X164320048Y-81505847D01*
X164300618Y-81463197D01*
X164293857Y-81411849D01*
X164299473Y-81365417D01*
X164315875Y-81324653D01*
X164343500Y-81288140D01*
X164379258Y-81259653D01*
X164419137Y-81242836D01*
X164464583Y-81237093D01*
X164516845Y-81241894D01*
X164559716Y-81255350D01*
X164621265Y-81280690D01*
G37*
G36*
X165041179Y-81237093D02*
G01*
X165041179Y-81768321D01*
X165045393Y-81804958D01*
X165057971Y-81813384D01*
X165095127Y-81820086D01*
X165179726Y-81823276D01*
X165179726Y-81835000D01*
X164771169Y-81835000D01*
X164771169Y-81823276D01*
X164844625Y-81820467D01*
X164876253Y-81816005D01*
X164901289Y-81809171D01*
X164906919Y-81798351D01*
X164909716Y-81768199D01*
X164909716Y-81330211D01*
X164907878Y-81305949D01*
X164904098Y-81296261D01*
X164893862Y-81284254D01*
X164885902Y-81279347D01*
X164852853Y-81274603D01*
X164771169Y-81272264D01*
X164771169Y-81260540D01*
X165041179Y-81237093D01*
G37*
G36*
X164967052Y-80920554D02*
G01*
X164998045Y-80926229D01*
X165022983Y-80942903D01*
X165039705Y-80967786D01*
X165045393Y-80998712D01*
X165039707Y-81029648D01*
X165022983Y-81054583D01*
X164998050Y-81071208D01*
X164967052Y-81076870D01*
X164936043Y-81071210D01*
X164911059Y-81054583D01*
X164894383Y-81029653D01*
X164888711Y-80998712D01*
X164894385Y-80967781D01*
X164911059Y-80942903D01*
X164936048Y-80926227D01*
X164967052Y-80920554D01*
G37*
G36*
X165557204Y-81280690D02*
G01*
X165614540Y-81237093D01*
X165614540Y-81448119D01*
X165601961Y-81445310D01*
X165584865Y-81390711D01*
X165561470Y-81344959D01*
X165531985Y-81306763D01*
X165492850Y-81273564D01*
X165453178Y-81254914D01*
X165411696Y-81248817D01*
X165364337Y-81254105D01*
X165329142Y-81268478D01*
X165305547Y-81289530D01*
X165291054Y-81318174D01*
X165285789Y-81357016D01*
X165291014Y-81388063D01*
X165306371Y-81413808D01*
X165333355Y-81435662D01*
X165375767Y-81453669D01*
X165467627Y-81479016D01*
X165534672Y-81497994D01*
X165579992Y-81516797D01*
X165608983Y-81534947D01*
X165633076Y-81559322D01*
X165650819Y-81590149D01*
X165662196Y-81628876D01*
X165666319Y-81677524D01*
X165662056Y-81722084D01*
X165650138Y-81758254D01*
X165631166Y-81787779D01*
X165604770Y-81811796D01*
X165570540Y-81830700D01*
X165529982Y-81842532D01*
X165481610Y-81846723D01*
X165424435Y-81844187D01*
X165393500Y-81838358D01*
X165355231Y-81818997D01*
X165308137Y-81778579D01*
X165249396Y-81846723D01*
X165249396Y-81600526D01*
X165259166Y-81600526D01*
X165282967Y-81680132D01*
X165298367Y-81720572D01*
X165321329Y-81762652D01*
X165343125Y-81788960D01*
X165376038Y-81814926D01*
X165403941Y-81827367D01*
X165436225Y-81832755D01*
X165490037Y-81835000D01*
X165530405Y-81829106D01*
X165561356Y-81812529D01*
X165579769Y-81792614D01*
X165590967Y-81767843D01*
X165594939Y-81736692D01*
X165589602Y-81696898D01*
X165574689Y-81666288D01*
X165550182Y-81642597D01*
X165507771Y-81622339D01*
X165426350Y-81600648D01*
X165368340Y-81584928D01*
X165323167Y-81565137D01*
X165288536Y-81541908D01*
X165255987Y-81505847D01*
X165236556Y-81463197D01*
X165229796Y-81411849D01*
X165235411Y-81365417D01*
X165251814Y-81324653D01*
X165279438Y-81288140D01*
X165315196Y-81259653D01*
X165355076Y-81242836D01*
X165400522Y-81237093D01*
X165452783Y-81241894D01*
X165495654Y-81255350D01*
X165557204Y-81280690D01*
G37*
G36*
X166107238Y-81538000D02*
G01*
X166107238Y-81601992D01*
X166108643Y-81663175D01*
X166105354Y-81728769D01*
X166097203Y-81771026D01*
X166086234Y-81796653D01*
X166061456Y-81823018D01*
X166023571Y-81840177D01*
X165967348Y-81846723D01*
X165912846Y-81841492D01*
X165873002Y-81827500D01*
X165844189Y-81806118D01*
X165823244Y-81776698D01*
X165809906Y-81738755D01*
X165805049Y-81689797D01*
X165805049Y-81291803D01*
X165693125Y-81291803D01*
X165693125Y-81280080D01*
X165746545Y-81261007D01*
X165792138Y-81232743D01*
X165831061Y-81194862D01*
X165863850Y-81146113D01*
X165889229Y-81088137D01*
X165904702Y-81025034D01*
X165910012Y-80955725D01*
X165935169Y-80955725D01*
X165935169Y-81252725D01*
X166097469Y-81252725D01*
X166097469Y-81291803D01*
X165935169Y-81291803D01*
X165935169Y-81675020D01*
X165937006Y-81744520D01*
X165940787Y-81773633D01*
X165954723Y-81804375D01*
X165975136Y-81821308D01*
X166003741Y-81827184D01*
X166037444Y-81820397D01*
X166061958Y-81800800D01*
X166079273Y-81765390D01*
X166087886Y-81713909D01*
X166091851Y-81605411D01*
X166091851Y-81538000D01*
X166107238Y-81538000D01*
G37*
G36*
X166483698Y-81241826D02*
G01*
X166532307Y-81255793D01*
X166578061Y-81279133D01*
X166621614Y-81312625D01*
X166662980Y-81359002D01*
X166692381Y-81411534D01*
X166710450Y-81471448D01*
X166716746Y-81540504D01*
X166710663Y-81606610D01*
X166693038Y-81665256D01*
X166664078Y-81717918D01*
X166623018Y-81765635D01*
X166577729Y-81801978D01*
X166531159Y-81826980D01*
X166482661Y-81841761D01*
X166431349Y-81846723D01*
X166378246Y-81841948D01*
X166329418Y-81827917D01*
X166283926Y-81804570D01*
X166241083Y-81771191D01*
X166199742Y-81724152D01*
X166170331Y-81670931D01*
X166152250Y-81610298D01*
X166145951Y-81540504D01*
X166291459Y-81540504D01*
X166295490Y-81644413D01*
X166305798Y-81716689D01*
X166320096Y-81764902D01*
X166337924Y-81795710D01*
X166361575Y-81817040D01*
X166392002Y-81830245D01*
X166431349Y-81835000D01*
X166466864Y-81830403D01*
X166495757Y-81817313D01*
X166519616Y-81795576D01*
X166539060Y-81763497D01*
X166555257Y-81714276D01*
X166566772Y-81642253D01*
X166571239Y-81540504D01*
X166567379Y-81435287D01*
X166557713Y-81365478D01*
X166544677Y-81321723D01*
X166525744Y-81289441D01*
X166501299Y-81267264D01*
X166470498Y-81253669D01*
X166431349Y-81248817D01*
X166395737Y-81253354D01*
X166366820Y-81266249D01*
X166343003Y-81287594D01*
X166323638Y-81318975D01*
X166307485Y-81367275D01*
X166295950Y-81438712D01*
X166291459Y-81540504D01*
X166145951Y-81540504D01*
X166152054Y-81474384D01*
X166169706Y-81415997D01*
X166198663Y-81363816D01*
X166239679Y-81316777D01*
X166284885Y-81281118D01*
X166331435Y-81256536D01*
X166379966Y-81241983D01*
X166431349Y-81237093D01*
X166483698Y-81241826D01*
G37*
G36*
X166904691Y-81327951D02*
G01*
X166902832Y-81302337D01*
X166899074Y-81292475D01*
X166888837Y-81280401D01*
X166880878Y-81275439D01*
X166847828Y-81270696D01*
X166766145Y-81268356D01*
X166766145Y-81256632D01*
X167036155Y-81237093D01*
X167036155Y-81414902D01*
X167048645Y-81359572D01*
X167075356Y-81307069D01*
X167101293Y-81275093D01*
X167128901Y-81253738D01*
X167158652Y-81241289D01*
X167191493Y-81237093D01*
X167218052Y-81241143D01*
X167248829Y-81254556D01*
X167275100Y-81274901D01*
X167290107Y-81298581D01*
X167298192Y-81324697D01*
X167300609Y-81346086D01*
X167295152Y-81380412D01*
X167279982Y-81405229D01*
X167254447Y-81422962D01*
X167225077Y-81428579D01*
X167199170Y-81423681D01*
X167177511Y-81409040D01*
X167163266Y-81385894D01*
X167157910Y-81350361D01*
X167162361Y-81325922D01*
X167176778Y-81300047D01*
X167197891Y-81282312D01*
X167220864Y-81280507D01*
X167211952Y-81263344D01*
X167196113Y-81252824D01*
X167170489Y-81248817D01*
X167146019Y-81254213D01*
X167119472Y-81272285D01*
X167089339Y-81308229D01*
X167060749Y-81361634D01*
X167042635Y-81426308D01*
X167036155Y-81504905D01*
X167036155Y-81768077D01*
X167040368Y-81804897D01*
X167052947Y-81813384D01*
X167090103Y-81820086D01*
X167174702Y-81823276D01*
X167174702Y-81835000D01*
X166766145Y-81835000D01*
X166766145Y-81823276D01*
X166839601Y-81820467D01*
X166871225Y-81815989D01*
X166896265Y-81809110D01*
X166901895Y-81798225D01*
X166904691Y-81767955D01*
X166904691Y-81327951D01*
G37*
D11*
G36*
X154424667Y-97358804D02*
G01*
X152188380Y-97932409D01*
X151935344Y-97042937D01*
X152441048Y-96715778D01*
X152822071Y-96379569D01*
X153098367Y-96033787D01*
X153305384Y-95644708D01*
X153426796Y-95247067D01*
X153467235Y-94834005D01*
X153421448Y-94451766D01*
X153299684Y-94186029D01*
X153175455Y-94047091D01*
X153053060Y-93972802D01*
X152927397Y-93949235D01*
X152708037Y-93999808D01*
X152492279Y-94164230D01*
X152319266Y-94428018D01*
X152134097Y-94939152D01*
X151760955Y-96220572D01*
X151577263Y-96761897D01*
X151378632Y-97182649D01*
X151168755Y-97503209D01*
X150949274Y-97740922D01*
X150588129Y-97991817D01*
X150195692Y-98140196D01*
X149760606Y-98190573D01*
X149344669Y-98147422D01*
X148968307Y-98020805D01*
X148622022Y-97808892D01*
X148299667Y-97501992D01*
X148015045Y-97100265D01*
X147810448Y-96653575D01*
X147684343Y-96153527D01*
X147640578Y-95589265D01*
X147675027Y-95072154D01*
X147773934Y-94613881D01*
X147947946Y-94173018D01*
X148228287Y-93686369D01*
X147749999Y-93476076D01*
X147749999Y-92763558D01*
X150326089Y-92289972D01*
X150540229Y-93184145D01*
X150045899Y-93433988D01*
X149611872Y-93759868D01*
X149231881Y-94166795D01*
X148998835Y-94515029D01*
X148836532Y-94872453D01*
X148739906Y-95243192D01*
X148707430Y-95632435D01*
X148732196Y-95974096D01*
X148798045Y-96227838D01*
X148910244Y-96440470D01*
X149050653Y-96583883D01*
X149218409Y-96674854D01*
X149384044Y-96703562D01*
X149561344Y-96674258D01*
X149722745Y-96585368D01*
X149874728Y-96426163D01*
X150059127Y-96085266D01*
X150279927Y-95441376D01*
X150604770Y-94327079D01*
X150874903Y-93640635D01*
X151089029Y-93240378D01*
X151289077Y-92975989D01*
X151529539Y-92767771D01*
X151841738Y-92591306D01*
X152187991Y-92476603D01*
X152552546Y-92438288D01*
X152898022Y-92471078D01*
X153222314Y-92568415D01*
X153531349Y-92732356D01*
X153802870Y-92953402D01*
X154044378Y-93244331D01*
X154256262Y-93616699D01*
X154408906Y-94018805D01*
X154502143Y-94452950D01*
X154534088Y-94925047D01*
X154483686Y-95488755D01*
X154335662Y-96006623D01*
X154089566Y-96488567D01*
X154424667Y-96674924D01*
X154424667Y-97358804D01*
G37*
G36*
X154643509Y-99266402D02*
G01*
X154643509Y-99897709D01*
X154424667Y-99964815D01*
X154424667Y-103727864D01*
X154643509Y-103809075D01*
X154643509Y-104445083D01*
X152313615Y-105272151D01*
X152003732Y-104382679D01*
X152533742Y-104101039D01*
X152764121Y-103957391D01*
X153079984Y-103680828D01*
X153314217Y-103373956D01*
X153430709Y-103120853D01*
X153467235Y-102881563D01*
X153451519Y-102779262D01*
X153412097Y-102723415D01*
X153338620Y-102694504D01*
X153161199Y-102680673D01*
X149325487Y-102680673D01*
X148899772Y-102704609D01*
X148763423Y-102785819D01*
X148696745Y-102943539D01*
X148680075Y-103479103D01*
X147749999Y-103479103D01*
X147749999Y-100227681D01*
X148680075Y-100227681D01*
X148680075Y-100423869D01*
X148693473Y-100719776D01*
X148720681Y-100839326D01*
X148775620Y-100918443D01*
X148863868Y-100978239D01*
X148994674Y-101010711D01*
X149292148Y-101026111D01*
X153213772Y-101026111D01*
X153364490Y-101013553D01*
X153424065Y-100987643D01*
X153454043Y-100936352D01*
X153467235Y-100825221D01*
X153424891Y-100575351D01*
X153280450Y-100270423D01*
X153060627Y-99986146D01*
X152754718Y-99725457D01*
X152003732Y-99318975D01*
X152313615Y-98444036D01*
X154643509Y-99266402D01*
G37*
G36*
X151675864Y-105670627D02*
G01*
X152219180Y-105793285D01*
X152710209Y-105992293D01*
X153156720Y-106268001D01*
X153564261Y-106624951D01*
X153907742Y-107040270D01*
X154175657Y-107501356D01*
X154370782Y-108014631D01*
X154491948Y-108588699D01*
X154534088Y-109233953D01*
X154492228Y-109868930D01*
X154371821Y-110434098D01*
X154177797Y-110939724D01*
X153911162Y-111394282D01*
X153568962Y-111804059D01*
X153164014Y-112155676D01*
X152720205Y-112427479D01*
X152232011Y-112623788D01*
X151691735Y-112744829D01*
X151089897Y-112786709D01*
X150583178Y-112757157D01*
X150116730Y-112671071D01*
X149685212Y-112530881D01*
X149284027Y-112337058D01*
X148910282Y-112089378D01*
X148585320Y-111801615D01*
X148305283Y-111471778D01*
X148068003Y-111096243D01*
X147887048Y-110696502D01*
X147753435Y-110249509D01*
X147669771Y-109748575D01*
X147641554Y-109204888D01*
X148707430Y-109204888D01*
X148744067Y-109568686D01*
X148849542Y-109883829D01*
X149022663Y-110160469D01*
X149269494Y-110405097D01*
X149615987Y-110628248D01*
X150023047Y-110793723D01*
X150501826Y-110898692D01*
X151065962Y-110935959D01*
X151590392Y-110907899D01*
X152029143Y-110829714D01*
X152395253Y-110708569D01*
X152735935Y-110531976D01*
X153000505Y-110327192D01*
X153200522Y-110094359D01*
X153349761Y-109826279D01*
X153437741Y-109547519D01*
X153467235Y-109252759D01*
X153430169Y-108884492D01*
X153323600Y-108566474D01*
X153148901Y-108288250D01*
X152900042Y-108043147D01*
X152530718Y-107803548D01*
X152107171Y-107627879D01*
X151619758Y-107517693D01*
X151056558Y-107478946D01*
X150489069Y-107516186D01*
X150011330Y-107620688D01*
X149608780Y-107784736D01*
X149269494Y-108005106D01*
X149022243Y-108252003D01*
X148849132Y-108529490D01*
X148743901Y-108843846D01*
X148707430Y-109204888D01*
X147641554Y-109204888D01*
X147640578Y-109186081D01*
X147676073Y-108591664D01*
X147778181Y-108060370D01*
X147942345Y-107583653D01*
X148166810Y-107154245D01*
X148452685Y-106766428D01*
X148869363Y-106357808D01*
X149331669Y-106043436D01*
X149845915Y-105816762D01*
X150421566Y-105676798D01*
X151070663Y-105628196D01*
X151675864Y-105670627D01*
G37*
G36*
X148680075Y-113742859D02*
G01*
X148693782Y-114014399D01*
X148722818Y-114135235D01*
X148778625Y-114217974D01*
X148858739Y-114273721D01*
X148976684Y-114303032D01*
X149242994Y-114316891D01*
X152903034Y-114316891D01*
X153182496Y-114304520D01*
X153306096Y-114278422D01*
X153391721Y-114228189D01*
X153449283Y-114156606D01*
X153480433Y-114053452D01*
X153494590Y-113838602D01*
X153494590Y-113518033D01*
X154424667Y-113518033D01*
X154424667Y-117042152D01*
X154387154Y-117682102D01*
X154288318Y-118153885D01*
X154114776Y-118569506D01*
X153875426Y-118914274D01*
X153572273Y-119196160D01*
X153218474Y-119404530D01*
X152828529Y-119533519D01*
X152414060Y-119576782D01*
X152001287Y-119535111D01*
X151630700Y-119413361D01*
X151292796Y-119210727D01*
X150981331Y-118918975D01*
X150738509Y-118576903D01*
X150558617Y-118169494D01*
X150444233Y-117684029D01*
X150403453Y-117104556D01*
X150403453Y-116535226D01*
X151442950Y-116535226D01*
X151475119Y-117020604D01*
X151551516Y-117300317D01*
X151689310Y-117520255D01*
X151885335Y-117692693D01*
X152126668Y-117802627D01*
X152419616Y-117841010D01*
X152711643Y-117800485D01*
X152952473Y-117683851D01*
X153154787Y-117487102D01*
X153260821Y-117300536D01*
X153331397Y-117047247D01*
X153357814Y-116707479D01*
X153357814Y-115966324D01*
X151442950Y-115966324D01*
X151442950Y-116535226D01*
X150403453Y-116535226D01*
X150403453Y-115966324D01*
X149154090Y-115966324D01*
X148940868Y-115977391D01*
X148857029Y-115999663D01*
X148778113Y-116054320D01*
X148723245Y-116131310D01*
X148693138Y-116235586D01*
X148680075Y-116430080D01*
X148680075Y-116769883D01*
X147749999Y-116769883D01*
X147749999Y-113518033D01*
X148680075Y-113518033D01*
X148680075Y-113742859D01*
G37*
D12*
G36*
X130760083Y-68275812D02*
G01*
X131484385Y-68275812D01*
X131521564Y-68273959D01*
X131536531Y-68270195D01*
X131547766Y-68253403D01*
X131558291Y-68202268D01*
X131563276Y-68086891D01*
X131575000Y-68086891D01*
X131575000Y-68638147D01*
X131563276Y-68638147D01*
X131559063Y-68533916D01*
X131548499Y-68473771D01*
X131540912Y-68459754D01*
X131532990Y-68452766D01*
X131520112Y-68449545D01*
X131484385Y-68447882D01*
X130760083Y-68447882D01*
X130724313Y-68449765D01*
X130710746Y-68453499D01*
X130699511Y-68471695D01*
X130688986Y-68522823D01*
X130684002Y-68638147D01*
X130672278Y-68638147D01*
X130672278Y-68085547D01*
X130684002Y-68085547D01*
X130688215Y-68189778D01*
X130693737Y-68230544D01*
X130699511Y-68252060D01*
X130705129Y-68266043D01*
X130718701Y-68272466D01*
X130760083Y-68275812D01*
G37*
G36*
X131233060Y-67803203D02*
G01*
X131508443Y-67803203D01*
X131545019Y-67798989D01*
X131553445Y-67785739D01*
X131560467Y-67747943D01*
X131563276Y-67699644D01*
X131575000Y-67699644D01*
X131575000Y-68057826D01*
X131563276Y-68057826D01*
X131560467Y-67996948D01*
X131549171Y-67943093D01*
X131538408Y-67937465D01*
X131508321Y-67934666D01*
X131081324Y-67934666D01*
X131055983Y-67935399D01*
X131036200Y-67941688D01*
X131022156Y-67950054D01*
X131015873Y-67973422D01*
X131012264Y-68056421D01*
X131000540Y-68056421D01*
X130977093Y-67803203D01*
X131155696Y-67803203D01*
X131098882Y-67789663D01*
X131050488Y-67766810D01*
X131011526Y-67737375D01*
X130990323Y-67710235D01*
X130981978Y-67684317D01*
X130977093Y-67628325D01*
X130983434Y-67571775D01*
X131001296Y-67525925D01*
X131030277Y-67488373D01*
X131062236Y-67464142D01*
X131097290Y-67449870D01*
X131136584Y-67445020D01*
X131507344Y-67445020D01*
X131543736Y-67440807D01*
X131552773Y-67426824D01*
X131560284Y-67386280D01*
X131563276Y-67330287D01*
X131575000Y-67330287D01*
X131575000Y-67688469D01*
X131563276Y-67688469D01*
X131560467Y-67636690D01*
X131549232Y-67584910D01*
X131538485Y-67579325D01*
X131508443Y-67576545D01*
X131152948Y-67576545D01*
X131089557Y-67579798D01*
X131050366Y-67587719D01*
X131016895Y-67604369D01*
X130998818Y-67626295D01*
X130992725Y-67654886D01*
X130997251Y-67684141D01*
X131010915Y-67710827D01*
X131035132Y-67735962D01*
X131072836Y-67759849D01*
X131138922Y-67784928D01*
X131233060Y-67803203D01*
G37*
G36*
X131349848Y-66679796D02*
G01*
X131413747Y-66701275D01*
X131477669Y-66738487D01*
X131527012Y-66781246D01*
X131560384Y-66827240D01*
X131580051Y-66877301D01*
X131586723Y-66932965D01*
X131579846Y-66970352D01*
X131559162Y-67002470D01*
X131521755Y-67030907D01*
X131473601Y-67051615D01*
X131416669Y-67064490D01*
X131801596Y-67064490D01*
X131838110Y-67060277D01*
X131846536Y-67047698D01*
X131853198Y-67010543D01*
X131856367Y-66925943D01*
X131868091Y-66925943D01*
X131868091Y-67334500D01*
X131856367Y-67334500D01*
X131853558Y-67261044D01*
X131849128Y-67229421D01*
X131842262Y-67204380D01*
X131831500Y-67198752D01*
X131801413Y-67195954D01*
X131072836Y-67195954D01*
X131047112Y-67198473D01*
X131033452Y-67204380D01*
X131019286Y-67221172D01*
X131014569Y-67253892D01*
X131012264Y-67333096D01*
X131000540Y-67333096D01*
X130977093Y-67064490D01*
X131176273Y-67064490D01*
X131107362Y-67050078D01*
X131050915Y-67025289D01*
X131017113Y-67000474D01*
X130994636Y-66973488D01*
X130981530Y-66943872D01*
X130979142Y-66925943D01*
X130988817Y-66925943D01*
X130995461Y-66953932D01*
X131017339Y-66981930D01*
X131060868Y-67011306D01*
X131120141Y-67035706D01*
X131194366Y-67051654D01*
X131286854Y-67057468D01*
X131381458Y-67053127D01*
X131451274Y-67041723D01*
X131501543Y-67025289D01*
X131536356Y-67005818D01*
X131558482Y-66984883D01*
X131570887Y-66962318D01*
X131575000Y-66937178D01*
X131570906Y-66905580D01*
X131559344Y-66880409D01*
X131540264Y-66860117D01*
X131512168Y-66844122D01*
X131468382Y-66831543D01*
X131395992Y-66822061D01*
X131284045Y-66818232D01*
X131145577Y-66822982D01*
X131074973Y-66833619D01*
X131034629Y-66849240D01*
X131008825Y-66869591D01*
X130993956Y-66894625D01*
X130988817Y-66925943D01*
X130979142Y-66925943D01*
X130977093Y-66910556D01*
X130982003Y-66861894D01*
X130996288Y-66818650D01*
X131019969Y-66779643D01*
X131053968Y-66744104D01*
X131097481Y-66714164D01*
X131149309Y-66691930D01*
X131211056Y-66677774D01*
X131284717Y-66672725D01*
X131349848Y-66679796D01*
G37*
G36*
X131063860Y-66181674D02*
G01*
X131034271Y-66184094D01*
X131020751Y-66189368D01*
X131012351Y-66199021D01*
X131007318Y-66214586D01*
X131004448Y-66328525D01*
X130992725Y-66328525D01*
X130977093Y-66050149D01*
X131452817Y-66050149D01*
X131489331Y-66049478D01*
X131515954Y-66043128D01*
X131529998Y-66034762D01*
X131536241Y-66011399D01*
X131539829Y-65928394D01*
X131551552Y-65928394D01*
X131575000Y-66181674D01*
X131399145Y-66181674D01*
X131453671Y-66196277D01*
X131504352Y-66223623D01*
X131540879Y-66256032D01*
X131563253Y-66291133D01*
X131573595Y-66329991D01*
X131575000Y-66346782D01*
X131575000Y-66363574D01*
X131568788Y-66416245D01*
X131551342Y-66458311D01*
X131522976Y-66492229D01*
X131492057Y-66513933D01*
X131457313Y-66526950D01*
X131417585Y-66531430D01*
X131050793Y-66531430D01*
X131027711Y-66533369D01*
X131016416Y-66537719D01*
X131009290Y-66545428D01*
X131005853Y-66556648D01*
X131004448Y-66622349D01*
X131004448Y-66654528D01*
X130992725Y-66654528D01*
X130977093Y-66399905D01*
X131440666Y-66399905D01*
X131506260Y-66394498D01*
X131537936Y-66382442D01*
X131556793Y-66361199D01*
X131563276Y-66331334D01*
X131558969Y-66302542D01*
X131545910Y-66275757D01*
X131522768Y-66250041D01*
X131486889Y-66225027D01*
X131434548Y-66200943D01*
X131379642Y-66186538D01*
X131321353Y-66181674D01*
X131063860Y-66181674D01*
G37*
G36*
X131278000Y-65497611D02*
G01*
X131341992Y-65497611D01*
X131403175Y-65496207D01*
X131468769Y-65499495D01*
X131511026Y-65507647D01*
X131536653Y-65518616D01*
X131563018Y-65543393D01*
X131580177Y-65581278D01*
X131586723Y-65637501D01*
X131581492Y-65692003D01*
X131567500Y-65731847D01*
X131546118Y-65760661D01*
X131516698Y-65781605D01*
X131478755Y-65794944D01*
X131429797Y-65799801D01*
X131031803Y-65799801D01*
X131031803Y-65911725D01*
X131020080Y-65911725D01*
X131001007Y-65858305D01*
X130972743Y-65812711D01*
X130934862Y-65773789D01*
X130886113Y-65740999D01*
X130828137Y-65715620D01*
X130765034Y-65700147D01*
X130695725Y-65694837D01*
X130695725Y-65669680D01*
X130992725Y-65669680D01*
X130992725Y-65507381D01*
X131031803Y-65507381D01*
X131031803Y-65669680D01*
X131415020Y-65669680D01*
X131484520Y-65667843D01*
X131513633Y-65664063D01*
X131544375Y-65650127D01*
X131561308Y-65629713D01*
X131567184Y-65601109D01*
X131560397Y-65567405D01*
X131540800Y-65542891D01*
X131505390Y-65525577D01*
X131453909Y-65516964D01*
X131345411Y-65512998D01*
X131278000Y-65512998D01*
X131278000Y-65497611D01*
G37*
D11*
G36*
X136259565Y-102365690D02*
G01*
X136384368Y-102354953D01*
X136487789Y-102324796D01*
X136573926Y-102276885D01*
X136645713Y-102210901D01*
X136700144Y-102130927D01*
X136741850Y-102029024D01*
X136769235Y-101900219D01*
X136779253Y-101738475D01*
X136810302Y-101738475D01*
X136810302Y-102395000D01*
X135431948Y-102395000D01*
X135431948Y-102371552D01*
X135591775Y-102365324D01*
X135680068Y-102349754D01*
X135700456Y-102338773D01*
X135710385Y-102327588D01*
X135714957Y-102309026D01*
X135717346Y-102256147D01*
X135717346Y-101173907D01*
X135714607Y-101119099D01*
X135709286Y-101099261D01*
X135682175Y-101083599D01*
X135588661Y-101066929D01*
X135431948Y-101058503D01*
X135431948Y-101035055D01*
X136300323Y-101035055D01*
X136300323Y-101058503D01*
X136114118Y-101064822D01*
X136053296Y-101072972D01*
X136021703Y-101081400D01*
X135991478Y-101099169D01*
X135984550Y-101122341D01*
X135981311Y-101173816D01*
X135981311Y-102252484D01*
X135984015Y-102307542D01*
X135989463Y-102329329D01*
X136013002Y-102344808D01*
X136096880Y-102359266D01*
X136259565Y-102365690D01*
G37*
G36*
X137802151Y-101045817D02*
G01*
X137911097Y-101077830D01*
X138015558Y-101131826D01*
X138116940Y-101209994D01*
X138196956Y-101295062D01*
X138258208Y-101387511D01*
X138302078Y-101488412D01*
X138328959Y-101599355D01*
X138338224Y-101722355D01*
X138329755Y-101845116D01*
X138305393Y-101954156D01*
X138266086Y-102051571D01*
X138211922Y-102139066D01*
X138142128Y-102217862D01*
X138064505Y-102281615D01*
X137980989Y-102330711D01*
X137890700Y-102365977D01*
X137792434Y-102387576D01*
X137684722Y-102395000D01*
X136865440Y-102395000D01*
X136865440Y-102371552D01*
X137029571Y-102365324D01*
X137120979Y-102349754D01*
X137149098Y-102332992D01*
X137154403Y-102312834D01*
X137157158Y-102256147D01*
X137157158Y-101173907D01*
X137421123Y-101173907D01*
X137421123Y-102256147D01*
X137423391Y-102311626D01*
X137428084Y-102335099D01*
X137438215Y-102350548D01*
X137455286Y-102361386D01*
X137481480Y-102367010D01*
X137544405Y-102370545D01*
X137684722Y-102371552D01*
X137779555Y-102360800D01*
X137856908Y-102330417D01*
X137920715Y-102280941D01*
X137973051Y-102209894D01*
X138009008Y-102129612D01*
X138037541Y-102025412D01*
X138056665Y-101892014D01*
X138063726Y-101723454D01*
X138056849Y-101565200D01*
X138037894Y-101435117D01*
X138009005Y-101328965D01*
X137971769Y-101242967D01*
X137926832Y-101173849D01*
X137876447Y-101122921D01*
X137820238Y-101087421D01*
X137756979Y-101065929D01*
X137684722Y-101058503D01*
X137530849Y-101061708D01*
X137456294Y-101072974D01*
X137438032Y-101083332D01*
X137428084Y-101096147D01*
X137423486Y-101116998D01*
X137421123Y-101173907D01*
X137157158Y-101173907D01*
X137154473Y-101120712D01*
X137149006Y-101099169D01*
X137123360Y-101083690D01*
X137041173Y-101066472D01*
X136865440Y-101058503D01*
X136865440Y-101035055D01*
X137686829Y-101035055D01*
X137802151Y-101045817D01*
G37*
G36*
X139145255Y-101028394D02*
G01*
X139254535Y-101060663D01*
X139357526Y-101114708D01*
X139455727Y-101192500D01*
X139530158Y-101275776D01*
X139587806Y-101367959D01*
X139629562Y-101470300D01*
X139655400Y-101584562D01*
X139664371Y-101712921D01*
X139655610Y-101835424D01*
X139630168Y-101946445D01*
X139588675Y-102047820D01*
X139530891Y-102141027D01*
X139455727Y-102227113D01*
X139354810Y-102310332D01*
X139250906Y-102367487D01*
X139142533Y-102401249D01*
X139027630Y-102412585D01*
X138910162Y-102401552D01*
X138800963Y-102368941D01*
X138697952Y-102314264D01*
X138599625Y-102235448D01*
X138525135Y-102151342D01*
X138467469Y-102058504D01*
X138425731Y-101955706D01*
X138399931Y-101841221D01*
X138391058Y-101714020D01*
X138676012Y-101714020D01*
X138682783Y-101883029D01*
X138701284Y-102019538D01*
X138729154Y-102128651D01*
X138764581Y-102214931D01*
X138816682Y-102293970D01*
X138876791Y-102346958D01*
X138946107Y-102378324D01*
X139027722Y-102389138D01*
X139108303Y-102378404D01*
X139177349Y-102347150D01*
X139237819Y-102294161D01*
X139290863Y-102214931D01*
X139327174Y-102128529D01*
X139355698Y-102019374D01*
X139374617Y-101882906D01*
X139381538Y-101714020D01*
X139374696Y-101542381D01*
X139356087Y-101405119D01*
X139328207Y-101296654D01*
X139292970Y-101212009D01*
X139241090Y-101134758D01*
X139180769Y-101082664D01*
X139110702Y-101051651D01*
X139027722Y-101040917D01*
X138945854Y-101051598D01*
X138876463Y-101082522D01*
X138816456Y-101134600D01*
X138764581Y-101212009D01*
X138729344Y-101296654D01*
X138701463Y-101405119D01*
X138682854Y-101542381D01*
X138676012Y-101714020D01*
X138391058Y-101714020D01*
X138390981Y-101712921D01*
X138399766Y-101590322D01*
X138425247Y-101479501D01*
X138466761Y-101378579D01*
X138524525Y-101286046D01*
X138599625Y-101200835D01*
X138700418Y-101118641D01*
X138804276Y-101062117D01*
X138912669Y-101028696D01*
X139027630Y-101017470D01*
X139145255Y-101028394D01*
G37*
G36*
X128902041Y-97595000D02*
G01*
X128877311Y-97595000D01*
X128869882Y-97517109D01*
X128851666Y-97470710D01*
X128821992Y-97440030D01*
X128787918Y-97430594D01*
X128722527Y-97441172D01*
X128670224Y-97471718D01*
X128626168Y-97513575D01*
X128547874Y-97567160D01*
X128494002Y-97593626D01*
X128436845Y-97607169D01*
X128349289Y-97612585D01*
X128232335Y-97602787D01*
X128128004Y-97574415D01*
X128033991Y-97528022D01*
X127948578Y-97462834D01*
X127880301Y-97387838D01*
X127826414Y-97300641D01*
X127786560Y-97199413D01*
X127761381Y-97081677D01*
X127752481Y-96944428D01*
X127761571Y-96814056D01*
X127787914Y-96696271D01*
X127830765Y-96589123D01*
X127890247Y-96491025D01*
X127967354Y-96400835D01*
X128065963Y-96316082D01*
X128160700Y-96259890D01*
X128253089Y-96227886D01*
X128345075Y-96217470D01*
X128431923Y-96222313D01*
X128501260Y-96235533D01*
X128556193Y-96255572D01*
X128619105Y-96294053D01*
X128684773Y-96352519D01*
X128753938Y-96435365D01*
X128874747Y-96208677D01*
X128874747Y-96815376D01*
X128848368Y-96815376D01*
X128818233Y-96674416D01*
X128777751Y-96557526D01*
X128728222Y-96461209D01*
X128670315Y-96382517D01*
X128602796Y-96318800D01*
X128532193Y-96275276D01*
X128457369Y-96249580D01*
X128376583Y-96240917D01*
X128302787Y-96251417D01*
X128237513Y-96282520D01*
X128178205Y-96336350D01*
X128123975Y-96418329D01*
X128086632Y-96506423D01*
X128057462Y-96616511D01*
X128038209Y-96752859D01*
X128031193Y-96920248D01*
X128037800Y-97087104D01*
X128055868Y-97222139D01*
X128083106Y-97330303D01*
X128117746Y-97416031D01*
X128168770Y-97496359D01*
X128224626Y-97548806D01*
X128286082Y-97578973D01*
X128355608Y-97589138D01*
X128447080Y-97579929D01*
X128519096Y-97554449D01*
X128575976Y-97514125D01*
X128618268Y-97459173D01*
X128645075Y-97387750D01*
X128654836Y-97294856D01*
X128654836Y-97039774D01*
X128648883Y-96969524D01*
X128640042Y-96957594D01*
X128622688Y-96947451D01*
X128538699Y-96933071D01*
X128426133Y-96926751D01*
X128426133Y-96903304D01*
X129153916Y-96903304D01*
X129153916Y-96926751D01*
X129035855Y-96935177D01*
X128943257Y-96947725D01*
X128922768Y-96953816D01*
X128914222Y-96961098D01*
X128905848Y-96986462D01*
X128902041Y-97039774D01*
X128902041Y-97595000D01*
G37*
G36*
X130356507Y-97174505D02*
G01*
X130356507Y-96589879D01*
X130347393Y-96463602D01*
X130324437Y-96380884D01*
X130292210Y-96329119D01*
X130243966Y-96293079D01*
X130168926Y-96268221D01*
X130056363Y-96258503D01*
X130056363Y-96235055D01*
X130656193Y-96235055D01*
X130656193Y-96258503D01*
X130558364Y-96267953D01*
X130491747Y-96292496D01*
X130447640Y-96329028D01*
X130418808Y-96380153D01*
X130397981Y-96462735D01*
X130389663Y-96589604D01*
X130389663Y-97600861D01*
X130336998Y-97600861D01*
X129498848Y-96493342D01*
X129476683Y-96467239D01*
X129474668Y-96502318D01*
X129474668Y-97190350D01*
X129483947Y-97345599D01*
X129506603Y-97441440D01*
X129536858Y-97496539D01*
X129570289Y-97526365D01*
X129617769Y-97549717D01*
X129683466Y-97565563D01*
X129772705Y-97571552D01*
X129772705Y-97595000D01*
X129156114Y-97595000D01*
X129156114Y-97571552D01*
X129264676Y-97562298D01*
X129336183Y-97538762D01*
X129381428Y-97504874D01*
X129411036Y-97455606D01*
X129432730Y-97372488D01*
X129441512Y-97240542D01*
X129441512Y-96521919D01*
X129433921Y-96446109D01*
X129412849Y-96385913D01*
X129379413Y-96337912D01*
X129324546Y-96295510D01*
X129251951Y-96268432D01*
X129156114Y-96258503D01*
X129156114Y-96235055D01*
X129592821Y-96235055D01*
X130321885Y-97179084D01*
X130353118Y-97213614D01*
X130356507Y-97174505D01*
G37*
G36*
X131561488Y-96245817D02*
G01*
X131670434Y-96277830D01*
X131774895Y-96331826D01*
X131876277Y-96409994D01*
X131956293Y-96495062D01*
X132017545Y-96587511D01*
X132061415Y-96688412D01*
X132088296Y-96799355D01*
X132097561Y-96922355D01*
X132089092Y-97045116D01*
X132064730Y-97154156D01*
X132025423Y-97251571D01*
X131971259Y-97339066D01*
X131901465Y-97417862D01*
X131823842Y-97481615D01*
X131740326Y-97530711D01*
X131650037Y-97565977D01*
X131551771Y-97587576D01*
X131444059Y-97595000D01*
X130624777Y-97595000D01*
X130624777Y-97571552D01*
X130788908Y-97565324D01*
X130880316Y-97549754D01*
X130908435Y-97532992D01*
X130913741Y-97512834D01*
X130916495Y-97456147D01*
X130916495Y-96373907D01*
X131180460Y-96373907D01*
X131180460Y-97456147D01*
X131182728Y-97511626D01*
X131187421Y-97535099D01*
X131197552Y-97550548D01*
X131214624Y-97561386D01*
X131240817Y-97567010D01*
X131303742Y-97570545D01*
X131444059Y-97571552D01*
X131538892Y-97560800D01*
X131616245Y-97530417D01*
X131680052Y-97480941D01*
X131732388Y-97409894D01*
X131768345Y-97329612D01*
X131796878Y-97225412D01*
X131816002Y-97092014D01*
X131823063Y-96923454D01*
X131816186Y-96765200D01*
X131797231Y-96635117D01*
X131768342Y-96528965D01*
X131731106Y-96442967D01*
X131686169Y-96373849D01*
X131635784Y-96322921D01*
X131579575Y-96287421D01*
X131516316Y-96265929D01*
X131444059Y-96258503D01*
X131290186Y-96261708D01*
X131215631Y-96272974D01*
X131197369Y-96283332D01*
X131187421Y-96296147D01*
X131182823Y-96316998D01*
X131180460Y-96373907D01*
X130916495Y-96373907D01*
X130913810Y-96320712D01*
X130908343Y-96299169D01*
X130882698Y-96283690D01*
X130800510Y-96266472D01*
X130624777Y-96258503D01*
X130624777Y-96235055D01*
X131446166Y-96235055D01*
X131561488Y-96245817D01*
G37*
D12*
X190375618Y-115036887D02*
X190375618Y-114036887D01*
X190375618Y-114513077D02*
X190947046Y-114513077D01*
X190947046Y-115036887D02*
X190947046Y-114036887D01*
X191327999Y-114036887D02*
X191947046Y-114036887D01*
X191947046Y-114036887D02*
X191613713Y-114417839D01*
X191613713Y-114417839D02*
X191756570Y-114417839D01*
X191756570Y-114417839D02*
X191851808Y-114465458D01*
X191851808Y-114465458D02*
X191899427Y-114513077D01*
X191899427Y-114513077D02*
X191947046Y-114608315D01*
X191947046Y-114608315D02*
X191947046Y-114846410D01*
X191947046Y-114846410D02*
X191899427Y-114941648D01*
X191899427Y-114941648D02*
X191851808Y-114989268D01*
X191851808Y-114989268D02*
X191756570Y-115036887D01*
X191756570Y-115036887D02*
X191470856Y-115036887D01*
X191470856Y-115036887D02*
X191375618Y-114989268D01*
X191375618Y-114989268D02*
X191327999Y-114941648D01*
X112738095Y-85036887D02*
X112738095Y-84036887D01*
X112738095Y-84513077D02*
X113309523Y-84513077D01*
X113309523Y-85036887D02*
X113309523Y-84036887D01*
X113738095Y-84132125D02*
X113785714Y-84084506D01*
X113785714Y-84084506D02*
X113880952Y-84036887D01*
X113880952Y-84036887D02*
X114119047Y-84036887D01*
X114119047Y-84036887D02*
X114214285Y-84084506D01*
X114214285Y-84084506D02*
X114261904Y-84132125D01*
X114261904Y-84132125D02*
X114309523Y-84227363D01*
X114309523Y-84227363D02*
X114309523Y-84322601D01*
X114309523Y-84322601D02*
X114261904Y-84465458D01*
X114261904Y-84465458D02*
X113690476Y-85036887D01*
X113690476Y-85036887D02*
X114309523Y-85036887D01*
G36*
X116207424Y-92034712D02*
G01*
X116363362Y-92029764D01*
X116438294Y-92018958D01*
X116477733Y-92005250D01*
X116515382Y-91984640D01*
X116551623Y-91956554D01*
X116569758Y-91956554D01*
X116569758Y-92780630D01*
X116571612Y-92817693D01*
X116575376Y-92832592D01*
X116594243Y-92844560D01*
X116651640Y-92855063D01*
X116743293Y-92859276D01*
X116743293Y-92871000D01*
X116207424Y-92871000D01*
X116207424Y-92859276D01*
X116311654Y-92855063D01*
X116371799Y-92844499D01*
X116385817Y-92836912D01*
X116392804Y-92828990D01*
X116396025Y-92816112D01*
X116397689Y-92780385D01*
X116397689Y-92126425D01*
X116395187Y-92091972D01*
X116389995Y-92077821D01*
X116380527Y-92068660D01*
X116365510Y-92060907D01*
X116315135Y-92052481D01*
X116207424Y-92050344D01*
X116207424Y-92034712D01*
G37*
G36*
X117142128Y-91963779D02*
G01*
X117193554Y-91985555D01*
X117243096Y-92023509D01*
X117291557Y-92081057D01*
X117331286Y-92149858D01*
X117360515Y-92228118D01*
X117378852Y-92317415D01*
X117385285Y-92419639D01*
X117379002Y-92522217D01*
X117361204Y-92610692D01*
X117333038Y-92687148D01*
X117295037Y-92753336D01*
X117244578Y-92813520D01*
X117193805Y-92852919D01*
X117141891Y-92875337D01*
X117087309Y-92882723D01*
X117033186Y-92875533D01*
X116982209Y-92853818D01*
X116932881Y-92815877D01*
X116884404Y-92758220D01*
X116844675Y-92689420D01*
X116815445Y-92611159D01*
X116797109Y-92521862D01*
X116790676Y-92419639D01*
X116790718Y-92418967D01*
X116976789Y-92418967D01*
X116981002Y-92690443D01*
X116992399Y-92767431D01*
X117010031Y-92817541D01*
X117031743Y-92848355D01*
X117057040Y-92865327D01*
X117087309Y-92871000D01*
X117110286Y-92865665D01*
X117131574Y-92848579D01*
X117152115Y-92815140D01*
X117171267Y-92757671D01*
X117185382Y-92680670D01*
X117195389Y-92570656D01*
X117199233Y-92418967D01*
X117195020Y-92148834D01*
X117183586Y-92072037D01*
X117165809Y-92021953D01*
X117143841Y-91991067D01*
X117118148Y-91973998D01*
X117087309Y-91968278D01*
X117064982Y-91973528D01*
X117044138Y-91990422D01*
X117023855Y-92023645D01*
X117004755Y-92080935D01*
X116990654Y-92157470D01*
X116980640Y-92267214D01*
X116976789Y-92418967D01*
X116790718Y-92418967D01*
X116797041Y-92317294D01*
X116815150Y-92228223D01*
X116843950Y-92150487D01*
X116883000Y-92082461D01*
X116931544Y-92024186D01*
X116981123Y-91985820D01*
X117032536Y-91963841D01*
X117087309Y-91956554D01*
X117142128Y-91963779D01*
G37*
G36*
X117777159Y-91963779D02*
G01*
X117828585Y-91985555D01*
X117878128Y-92023509D01*
X117926588Y-92081057D01*
X117966317Y-92149858D01*
X117995547Y-92228118D01*
X118013883Y-92317415D01*
X118020316Y-92419639D01*
X118014033Y-92522217D01*
X117996235Y-92610692D01*
X117968070Y-92687148D01*
X117930069Y-92753336D01*
X117879610Y-92813520D01*
X117828837Y-92852919D01*
X117776922Y-92875337D01*
X117722340Y-92882723D01*
X117668218Y-92875533D01*
X117617240Y-92853818D01*
X117567912Y-92815877D01*
X117519435Y-92758220D01*
X117479706Y-92689420D01*
X117450477Y-92611159D01*
X117432141Y-92521862D01*
X117425707Y-92419639D01*
X117425749Y-92418967D01*
X117611820Y-92418967D01*
X117616033Y-92690443D01*
X117627431Y-92767431D01*
X117645063Y-92817541D01*
X117666774Y-92848355D01*
X117692072Y-92865327D01*
X117722340Y-92871000D01*
X117745317Y-92865665D01*
X117766605Y-92848579D01*
X117787147Y-92815140D01*
X117806299Y-92757671D01*
X117820413Y-92680670D01*
X117830420Y-92570656D01*
X117834264Y-92418967D01*
X117830051Y-92148834D01*
X117818618Y-92072037D01*
X117800840Y-92021953D01*
X117778872Y-91991067D01*
X117753179Y-91973998D01*
X117722340Y-91968278D01*
X117700013Y-91973528D01*
X117679169Y-91990422D01*
X117658886Y-92023645D01*
X117639786Y-92080935D01*
X117625685Y-92157470D01*
X117615672Y-92267214D01*
X117611820Y-92418967D01*
X117425749Y-92418967D01*
X117432073Y-92317294D01*
X117450181Y-92228223D01*
X117478981Y-92150487D01*
X117518031Y-92082461D01*
X117566576Y-92024186D01*
X117616154Y-91985820D01*
X117667568Y-91963841D01*
X117722340Y-91956554D01*
X117777159Y-91963779D01*
G37*
G36*
X118315362Y-92529060D02*
G01*
X118315362Y-92804443D01*
X118319575Y-92841019D01*
X118332825Y-92849445D01*
X118370622Y-92856467D01*
X118418921Y-92859276D01*
X118418921Y-92871000D01*
X118060739Y-92871000D01*
X118060739Y-92859276D01*
X118121616Y-92856467D01*
X118175472Y-92845171D01*
X118181099Y-92834408D01*
X118183898Y-92804321D01*
X118183898Y-92377324D01*
X118183165Y-92351983D01*
X118176876Y-92332200D01*
X118168511Y-92318156D01*
X118145142Y-92311873D01*
X118062143Y-92308264D01*
X118062143Y-92296540D01*
X118315362Y-92273093D01*
X118315362Y-92451696D01*
X118328901Y-92394882D01*
X118351754Y-92346488D01*
X118381190Y-92307526D01*
X118408329Y-92286323D01*
X118434247Y-92277978D01*
X118490240Y-92273093D01*
X118546789Y-92279434D01*
X118592639Y-92297296D01*
X118630191Y-92326277D01*
X118654422Y-92358236D01*
X118668694Y-92393290D01*
X118673544Y-92432584D01*
X118673544Y-92803344D01*
X118677757Y-92839736D01*
X118691740Y-92848773D01*
X118732284Y-92856284D01*
X118788277Y-92859276D01*
X118788277Y-92871000D01*
X118430095Y-92871000D01*
X118430095Y-92859276D01*
X118481874Y-92856467D01*
X118533654Y-92845232D01*
X118539240Y-92834485D01*
X118542019Y-92804443D01*
X118542019Y-92448948D01*
X118538766Y-92385557D01*
X118530845Y-92346366D01*
X118514196Y-92312895D01*
X118492269Y-92294818D01*
X118463678Y-92288725D01*
X118434423Y-92293251D01*
X118407737Y-92306915D01*
X118382602Y-92331132D01*
X118358715Y-92368836D01*
X118333636Y-92434922D01*
X118315362Y-92529060D01*
G37*
G36*
X119002295Y-92780385D02*
G01*
X119002295Y-92058892D01*
X119000397Y-92021885D01*
X118996677Y-92008212D01*
X118991794Y-92003308D01*
X118977809Y-91996915D01*
X118914856Y-91985680D01*
X118812030Y-91980002D01*
X118812030Y-91968278D01*
X119676649Y-91968278D01*
X119676649Y-92319988D01*
X119659857Y-92319988D01*
X119653838Y-92248653D01*
X119635799Y-92179551D01*
X119605269Y-92111771D01*
X119572039Y-92062201D01*
X119535388Y-92025769D01*
X119495057Y-92000475D01*
X119450231Y-91985240D01*
X119399617Y-91980002D01*
X119271572Y-91982871D01*
X119234605Y-91987767D01*
X119196773Y-91997038D01*
X119184133Y-92002716D01*
X119177654Y-92017564D01*
X119174364Y-92059503D01*
X119174364Y-92390330D01*
X119276515Y-92385583D01*
X119332994Y-92374572D01*
X119360477Y-92361020D01*
X119382804Y-92335425D01*
X119403737Y-92291936D01*
X119422156Y-92223318D01*
X119436009Y-92120685D01*
X119451396Y-92120685D01*
X119451396Y-92667789D01*
X119436009Y-92667789D01*
X119430314Y-92568482D01*
X119415884Y-92501665D01*
X119395808Y-92458663D01*
X119371651Y-92432645D01*
X119341407Y-92418400D01*
X119281138Y-92406948D01*
X119174364Y-92402053D01*
X119174364Y-92780263D01*
X119176218Y-92817496D01*
X119179981Y-92832470D01*
X119199582Y-92844438D01*
X119264612Y-92855063D01*
X119395465Y-92859276D01*
X119395465Y-92871000D01*
X118812030Y-92871000D01*
X118812030Y-92859276D01*
X118916260Y-92855063D01*
X118976405Y-92844499D01*
X118990423Y-92836912D01*
X118997410Y-92828990D01*
X119000631Y-92816112D01*
X119002295Y-92780385D01*
G37*
X190375618Y-85036887D02*
X190375618Y-84036887D01*
X190375618Y-84513077D02*
X190947046Y-84513077D01*
X190947046Y-85036887D02*
X190947046Y-84036887D01*
X191947046Y-85036887D02*
X191375618Y-85036887D01*
X191661332Y-85036887D02*
X191661332Y-84036887D01*
X191661332Y-84036887D02*
X191566094Y-84179744D01*
X191566094Y-84179744D02*
X191470856Y-84274982D01*
X191470856Y-84274982D02*
X191375618Y-84322601D01*
X158566666Y-56954819D02*
X158566666Y-57669104D01*
X158566666Y-57669104D02*
X158519047Y-57811961D01*
X158519047Y-57811961D02*
X158423809Y-57907200D01*
X158423809Y-57907200D02*
X158280952Y-57954819D01*
X158280952Y-57954819D02*
X158185714Y-57954819D01*
X158995238Y-57050057D02*
X159042857Y-57002438D01*
X159042857Y-57002438D02*
X159138095Y-56954819D01*
X159138095Y-56954819D02*
X159376190Y-56954819D01*
X159376190Y-56954819D02*
X159471428Y-57002438D01*
X159471428Y-57002438D02*
X159519047Y-57050057D01*
X159519047Y-57050057D02*
X159566666Y-57145295D01*
X159566666Y-57145295D02*
X159566666Y-57240533D01*
X159566666Y-57240533D02*
X159519047Y-57383390D01*
X159519047Y-57383390D02*
X158947619Y-57954819D01*
X158947619Y-57954819D02*
X159566666Y-57954819D01*
G36*
X167700083Y-68025812D02*
G01*
X168424385Y-68025812D01*
X168461564Y-68023959D01*
X168476531Y-68020195D01*
X168487766Y-68003403D01*
X168498291Y-67952268D01*
X168503276Y-67836891D01*
X168515000Y-67836891D01*
X168515000Y-68388147D01*
X168503276Y-68388147D01*
X168499063Y-68283916D01*
X168488499Y-68223771D01*
X168480912Y-68209754D01*
X168472990Y-68202766D01*
X168460112Y-68199545D01*
X168424385Y-68197882D01*
X167700083Y-68197882D01*
X167664313Y-68199765D01*
X167650746Y-68203499D01*
X167639511Y-68221695D01*
X167628986Y-68272823D01*
X167624002Y-68388147D01*
X167612278Y-68388147D01*
X167612278Y-67835547D01*
X167624002Y-67835547D01*
X167628215Y-67939778D01*
X167633737Y-67980544D01*
X167639511Y-68002060D01*
X167645129Y-68016043D01*
X167658701Y-68022466D01*
X167700083Y-68025812D01*
G37*
G36*
X168173060Y-67553203D02*
G01*
X168448443Y-67553203D01*
X168485019Y-67548989D01*
X168493445Y-67535739D01*
X168500467Y-67497943D01*
X168503276Y-67449644D01*
X168515000Y-67449644D01*
X168515000Y-67807826D01*
X168503276Y-67807826D01*
X168500467Y-67746948D01*
X168489171Y-67693093D01*
X168478408Y-67687465D01*
X168448321Y-67684666D01*
X168021324Y-67684666D01*
X167995983Y-67685399D01*
X167976200Y-67691688D01*
X167962156Y-67700054D01*
X167955873Y-67723422D01*
X167952264Y-67806421D01*
X167940540Y-67806421D01*
X167917093Y-67553203D01*
X168095696Y-67553203D01*
X168038882Y-67539663D01*
X167990488Y-67516810D01*
X167951526Y-67487375D01*
X167930323Y-67460235D01*
X167921978Y-67434317D01*
X167917093Y-67378325D01*
X167923434Y-67321775D01*
X167941296Y-67275925D01*
X167970277Y-67238373D01*
X168002236Y-67214142D01*
X168037290Y-67199870D01*
X168076584Y-67195020D01*
X168447344Y-67195020D01*
X168483736Y-67190807D01*
X168492773Y-67176824D01*
X168500284Y-67136280D01*
X168503276Y-67080287D01*
X168515000Y-67080287D01*
X168515000Y-67438469D01*
X168503276Y-67438469D01*
X168500467Y-67386690D01*
X168489232Y-67334910D01*
X168478485Y-67329325D01*
X168448443Y-67326545D01*
X168092948Y-67326545D01*
X168029557Y-67329798D01*
X167990366Y-67337719D01*
X167956895Y-67354369D01*
X167938818Y-67376295D01*
X167932725Y-67404886D01*
X167937251Y-67434141D01*
X167950915Y-67460827D01*
X167975132Y-67485962D01*
X168012836Y-67509849D01*
X168078922Y-67534928D01*
X168173060Y-67553203D01*
G37*
G36*
X168289848Y-66429796D02*
G01*
X168353747Y-66451275D01*
X168417669Y-66488487D01*
X168467012Y-66531246D01*
X168500384Y-66577240D01*
X168520051Y-66627301D01*
X168526723Y-66682965D01*
X168519846Y-66720352D01*
X168499162Y-66752470D01*
X168461755Y-66780907D01*
X168413601Y-66801615D01*
X168356669Y-66814490D01*
X168741596Y-66814490D01*
X168778110Y-66810277D01*
X168786536Y-66797698D01*
X168793198Y-66760543D01*
X168796367Y-66675943D01*
X168808091Y-66675943D01*
X168808091Y-67084500D01*
X168796367Y-67084500D01*
X168793558Y-67011044D01*
X168789128Y-66979421D01*
X168782262Y-66954380D01*
X168771500Y-66948752D01*
X168741413Y-66945954D01*
X168012836Y-66945954D01*
X167987112Y-66948473D01*
X167973452Y-66954380D01*
X167959286Y-66971172D01*
X167954569Y-67003892D01*
X167952264Y-67083096D01*
X167940540Y-67083096D01*
X167917093Y-66814490D01*
X168116273Y-66814490D01*
X168047362Y-66800078D01*
X167990915Y-66775289D01*
X167957113Y-66750474D01*
X167934636Y-66723488D01*
X167921530Y-66693872D01*
X167919142Y-66675943D01*
X167928817Y-66675943D01*
X167935461Y-66703932D01*
X167957339Y-66731930D01*
X168000868Y-66761306D01*
X168060141Y-66785706D01*
X168134366Y-66801654D01*
X168226854Y-66807468D01*
X168321458Y-66803127D01*
X168391274Y-66791723D01*
X168441543Y-66775289D01*
X168476356Y-66755818D01*
X168498482Y-66734883D01*
X168510887Y-66712318D01*
X168515000Y-66687178D01*
X168510906Y-66655580D01*
X168499344Y-66630409D01*
X168480264Y-66610117D01*
X168452168Y-66594122D01*
X168408382Y-66581543D01*
X168335992Y-66572061D01*
X168224045Y-66568232D01*
X168085577Y-66572982D01*
X168014973Y-66583619D01*
X167974629Y-66599240D01*
X167948825Y-66619591D01*
X167933956Y-66644625D01*
X167928817Y-66675943D01*
X167919142Y-66675943D01*
X167917093Y-66660556D01*
X167922003Y-66611894D01*
X167936288Y-66568650D01*
X167959969Y-66529643D01*
X167993968Y-66494104D01*
X168037481Y-66464164D01*
X168089309Y-66441930D01*
X168151056Y-66427774D01*
X168224717Y-66422725D01*
X168289848Y-66429796D01*
G37*
G36*
X168003860Y-65931674D02*
G01*
X167974271Y-65934094D01*
X167960751Y-65939368D01*
X167952351Y-65949021D01*
X167947318Y-65964586D01*
X167944448Y-66078525D01*
X167932725Y-66078525D01*
X167917093Y-65800149D01*
X168392817Y-65800149D01*
X168429331Y-65799478D01*
X168455954Y-65793128D01*
X168469998Y-65784762D01*
X168476241Y-65761399D01*
X168479829Y-65678394D01*
X168491552Y-65678394D01*
X168515000Y-65931674D01*
X168339145Y-65931674D01*
X168393671Y-65946277D01*
X168444352Y-65973623D01*
X168480879Y-66006032D01*
X168503253Y-66041133D01*
X168513595Y-66079991D01*
X168515000Y-66096782D01*
X168515000Y-66113574D01*
X168508788Y-66166245D01*
X168491342Y-66208311D01*
X168462976Y-66242229D01*
X168432057Y-66263933D01*
X168397313Y-66276950D01*
X168357585Y-66281430D01*
X167990793Y-66281430D01*
X167967711Y-66283369D01*
X167956416Y-66287719D01*
X167949290Y-66295428D01*
X167945853Y-66306648D01*
X167944448Y-66372349D01*
X167944448Y-66404528D01*
X167932725Y-66404528D01*
X167917093Y-66149905D01*
X168380666Y-66149905D01*
X168446260Y-66144498D01*
X168477936Y-66132442D01*
X168496793Y-66111199D01*
X168503276Y-66081334D01*
X168498969Y-66052542D01*
X168485910Y-66025757D01*
X168462768Y-66000041D01*
X168426889Y-65975027D01*
X168374548Y-65950943D01*
X168319642Y-65936538D01*
X168261353Y-65931674D01*
X168003860Y-65931674D01*
G37*
G36*
X168218000Y-65247611D02*
G01*
X168281992Y-65247611D01*
X168343175Y-65246207D01*
X168408769Y-65249495D01*
X168451026Y-65257647D01*
X168476653Y-65268616D01*
X168503018Y-65293393D01*
X168520177Y-65331278D01*
X168526723Y-65387501D01*
X168521492Y-65442003D01*
X168507500Y-65481847D01*
X168486118Y-65510661D01*
X168456698Y-65531605D01*
X168418755Y-65544944D01*
X168369797Y-65549801D01*
X167971803Y-65549801D01*
X167971803Y-65661725D01*
X167960080Y-65661725D01*
X167941007Y-65608305D01*
X167912743Y-65562711D01*
X167874862Y-65523789D01*
X167826113Y-65490999D01*
X167768137Y-65465620D01*
X167705034Y-65450147D01*
X167635725Y-65444837D01*
X167635725Y-65419680D01*
X167932725Y-65419680D01*
X167932725Y-65257381D01*
X167971803Y-65257381D01*
X167971803Y-65419680D01*
X168355020Y-65419680D01*
X168424520Y-65417843D01*
X168453633Y-65414063D01*
X168484375Y-65400127D01*
X168501308Y-65379713D01*
X168507184Y-65351109D01*
X168500397Y-65317405D01*
X168480800Y-65292891D01*
X168445390Y-65275577D01*
X168393909Y-65266964D01*
X168285411Y-65262998D01*
X168218000Y-65262998D01*
X168218000Y-65247611D01*
G37*
X152428571Y-76614700D02*
X153571429Y-76614700D01*
X153000000Y-77186128D02*
X153000000Y-76043271D01*
X164919048Y-76573866D02*
X165680953Y-76573866D01*
G36*
X143298385Y-78818712D02*
G01*
X143454323Y-78813764D01*
X143529255Y-78802958D01*
X143568694Y-78789250D01*
X143606343Y-78768640D01*
X143642584Y-78740554D01*
X143660719Y-78740554D01*
X143660719Y-79564630D01*
X143662573Y-79601693D01*
X143666337Y-79616592D01*
X143685204Y-79628560D01*
X143742601Y-79639063D01*
X143834254Y-79643276D01*
X143834254Y-79655000D01*
X143298385Y-79655000D01*
X143298385Y-79643276D01*
X143402615Y-79639063D01*
X143462760Y-79628499D01*
X143476778Y-79620912D01*
X143483765Y-79612990D01*
X143486986Y-79600112D01*
X143488650Y-79564385D01*
X143488650Y-78910425D01*
X143486148Y-78875972D01*
X143480956Y-78861821D01*
X143471488Y-78852660D01*
X143456471Y-78844907D01*
X143406096Y-78836481D01*
X143298385Y-78834344D01*
X143298385Y-78818712D01*
G37*
G36*
X144233089Y-78747779D02*
G01*
X144284515Y-78769555D01*
X144334057Y-78807509D01*
X144382518Y-78865057D01*
X144422247Y-78933858D01*
X144451476Y-79012118D01*
X144469813Y-79101415D01*
X144476246Y-79203639D01*
X144469963Y-79306217D01*
X144452165Y-79394692D01*
X144423999Y-79471148D01*
X144385998Y-79537336D01*
X144335539Y-79597520D01*
X144284766Y-79636919D01*
X144232852Y-79659337D01*
X144178270Y-79666723D01*
X144124147Y-79659533D01*
X144073170Y-79637818D01*
X144023842Y-79599877D01*
X143975365Y-79542220D01*
X143935636Y-79473420D01*
X143906406Y-79395159D01*
X143888070Y-79305862D01*
X143881637Y-79203639D01*
X143881679Y-79202967D01*
X144067750Y-79202967D01*
X144071963Y-79474443D01*
X144083360Y-79551431D01*
X144100992Y-79601541D01*
X144122704Y-79632355D01*
X144148001Y-79649327D01*
X144178270Y-79655000D01*
X144201247Y-79649665D01*
X144222535Y-79632579D01*
X144243076Y-79599140D01*
X144262228Y-79541671D01*
X144276343Y-79464670D01*
X144286350Y-79354656D01*
X144290194Y-79202967D01*
X144285981Y-78932834D01*
X144274547Y-78856037D01*
X144256770Y-78805953D01*
X144234802Y-78775067D01*
X144209109Y-78757998D01*
X144178270Y-78752278D01*
X144155943Y-78757528D01*
X144135099Y-78774422D01*
X144114816Y-78807645D01*
X144095716Y-78864935D01*
X144081615Y-78941470D01*
X144071601Y-79051214D01*
X144067750Y-79202967D01*
X143881679Y-79202967D01*
X143888002Y-79101294D01*
X143906111Y-79012223D01*
X143934911Y-78934487D01*
X143973961Y-78866461D01*
X144022505Y-78808186D01*
X144072084Y-78769820D01*
X144123497Y-78747841D01*
X144178270Y-78740554D01*
X144233089Y-78747779D01*
G37*
G36*
X144879002Y-79264211D02*
G01*
X145197984Y-78944375D01*
X145238555Y-78897161D01*
X145258233Y-78861642D01*
X145263746Y-78834466D01*
X145259598Y-78813412D01*
X145247192Y-78796128D01*
X145224545Y-78781648D01*
X145180562Y-78769101D01*
X145109873Y-78764002D01*
X145109873Y-78752278D01*
X145504386Y-78752278D01*
X145504386Y-78764002D01*
X145460677Y-78768172D01*
X145418470Y-78780699D01*
X145377075Y-78802042D01*
X145329377Y-78841549D01*
X145205006Y-78965502D01*
X145112682Y-79059902D01*
X145379883Y-79564569D01*
X145410991Y-79612243D01*
X145433739Y-79631369D01*
X145467737Y-79639238D01*
X145560379Y-79643276D01*
X145560379Y-79655000D01*
X145074885Y-79655000D01*
X145074885Y-79643276D01*
X145188885Y-79639063D01*
X145210360Y-79630865D01*
X145216180Y-79617997D01*
X145214775Y-79608166D01*
X145202197Y-79582887D01*
X144995140Y-79179642D01*
X144879002Y-79291566D01*
X144879002Y-79563836D01*
X144880857Y-79601292D01*
X144884620Y-79616348D01*
X144903427Y-79628438D01*
X144961495Y-79639063D01*
X145055285Y-79643276D01*
X145055285Y-79655000D01*
X144516668Y-79655000D01*
X144516668Y-79643276D01*
X144618762Y-79637658D01*
X144676830Y-79627095D01*
X144697164Y-79619340D01*
X144703587Y-79605768D01*
X144706933Y-79564385D01*
X144706933Y-78840083D01*
X144705050Y-78804313D01*
X144701316Y-78790746D01*
X144683120Y-78779511D01*
X144631991Y-78768986D01*
X144516668Y-78764002D01*
X144516668Y-78752278D01*
X145067924Y-78752278D01*
X145067924Y-78764002D01*
X144953784Y-78768976D01*
X144902816Y-78779511D01*
X144888772Y-78785129D01*
X144882349Y-78798701D01*
X144879002Y-78840083D01*
X144879002Y-79264211D01*
G37*
X140416666Y-56954819D02*
X140416666Y-57669104D01*
X140416666Y-57669104D02*
X140369047Y-57811961D01*
X140369047Y-57811961D02*
X140273809Y-57907200D01*
X140273809Y-57907200D02*
X140130952Y-57954819D01*
X140130952Y-57954819D02*
X140035714Y-57954819D01*
X141416666Y-57954819D02*
X140845238Y-57954819D01*
X141130952Y-57954819D02*
X141130952Y-56954819D01*
X141130952Y-56954819D02*
X141035714Y-57097676D01*
X141035714Y-57097676D02*
X140940476Y-57192914D01*
X140940476Y-57192914D02*
X140845238Y-57240533D01*
X134278571Y-76614700D02*
X135421429Y-76614700D01*
X134850000Y-77186128D02*
X134850000Y-76043271D01*
X146769048Y-76573866D02*
X147530953Y-76573866D01*
G36*
X115978712Y-96123115D02*
G01*
X115973764Y-95967177D01*
X115962958Y-95892245D01*
X115949250Y-95852806D01*
X115928640Y-95815157D01*
X115900554Y-95778916D01*
X115900554Y-95760781D01*
X116724630Y-95760781D01*
X116761693Y-95758927D01*
X116776592Y-95755163D01*
X116788560Y-95736296D01*
X116799063Y-95678899D01*
X116803276Y-95587246D01*
X116815000Y-95587246D01*
X116815000Y-96123115D01*
X116803276Y-96123115D01*
X116799063Y-96018885D01*
X116788499Y-95958740D01*
X116780912Y-95944722D01*
X116772990Y-95937735D01*
X116760112Y-95934514D01*
X116724385Y-95932850D01*
X116070425Y-95932850D01*
X116035972Y-95935352D01*
X116021821Y-95940544D01*
X116012660Y-95950012D01*
X116004907Y-95965029D01*
X115996481Y-96015404D01*
X115994344Y-96123115D01*
X115978712Y-96123115D01*
G37*
G36*
X116466217Y-94951537D02*
G01*
X116554692Y-94969335D01*
X116631148Y-94997501D01*
X116697336Y-95035502D01*
X116757520Y-95085961D01*
X116796919Y-95136734D01*
X116819337Y-95188648D01*
X116826723Y-95243230D01*
X116819533Y-95297353D01*
X116797818Y-95348330D01*
X116759877Y-95397658D01*
X116702220Y-95446135D01*
X116633420Y-95485864D01*
X116555159Y-95515094D01*
X116465862Y-95533430D01*
X116363639Y-95539863D01*
X116261294Y-95533498D01*
X116172223Y-95515389D01*
X116094487Y-95486589D01*
X116026461Y-95447539D01*
X115968186Y-95398995D01*
X115929820Y-95349416D01*
X115907841Y-95298003D01*
X115900554Y-95243230D01*
X115912278Y-95243230D01*
X115917528Y-95265557D01*
X115934422Y-95286401D01*
X115967645Y-95306684D01*
X116024935Y-95325784D01*
X116101470Y-95339885D01*
X116211214Y-95349899D01*
X116362967Y-95353750D01*
X116634443Y-95349537D01*
X116711431Y-95338140D01*
X116761541Y-95320508D01*
X116792355Y-95298796D01*
X116809327Y-95273499D01*
X116815000Y-95243230D01*
X116809665Y-95220253D01*
X116792579Y-95198965D01*
X116759140Y-95178424D01*
X116701671Y-95159272D01*
X116624670Y-95145157D01*
X116514656Y-95135150D01*
X116362967Y-95131306D01*
X116092834Y-95135519D01*
X116016037Y-95146953D01*
X115965953Y-95164730D01*
X115935067Y-95186698D01*
X115917998Y-95212391D01*
X115912278Y-95243230D01*
X115900554Y-95243230D01*
X115907779Y-95188411D01*
X115929555Y-95136985D01*
X115967509Y-95087443D01*
X116025057Y-95038982D01*
X116093858Y-94999253D01*
X116172118Y-94970024D01*
X116261415Y-94951687D01*
X116363639Y-94945254D01*
X116466217Y-94951537D01*
G37*
G36*
X116564895Y-94641843D02*
G01*
X116748565Y-94641843D01*
X116785019Y-94637630D01*
X116793445Y-94624380D01*
X116800467Y-94587316D01*
X116803276Y-94543902D01*
X116815000Y-94543902D01*
X116815000Y-94904832D01*
X116803276Y-94904832D01*
X116800165Y-94827650D01*
X116793445Y-94791503D01*
X116789171Y-94781672D01*
X116778417Y-94776088D01*
X116748321Y-94773307D01*
X115996297Y-94773307D01*
X115970412Y-94775801D01*
X115956120Y-94781733D01*
X115942747Y-94797121D01*
X115938068Y-94826994D01*
X115935725Y-94903427D01*
X115924002Y-94903427D01*
X115900554Y-94641843D01*
X116541448Y-94641843D01*
X116361379Y-94465561D01*
X116331598Y-94440208D01*
X116307132Y-94427343D01*
X116286458Y-94423551D01*
X116262685Y-94430528D01*
X116243960Y-94452983D01*
X116233231Y-94486524D01*
X116228817Y-94542498D01*
X116217093Y-94542498D01*
X116217093Y-94222112D01*
X116228817Y-94222112D01*
X116233187Y-94271989D01*
X116244387Y-94305399D01*
X116265177Y-94337083D01*
X116308073Y-94387220D01*
X116394352Y-94473926D01*
X116753756Y-94294896D01*
X116780293Y-94276736D01*
X116794117Y-94256428D01*
X116800509Y-94229533D01*
X116803276Y-94180163D01*
X116815000Y-94180163D01*
X116815000Y-94521493D01*
X116803276Y-94521493D01*
X116801200Y-94450174D01*
X116794504Y-94430617D01*
X116780867Y-94424956D01*
X116749970Y-94436130D01*
X116489363Y-94567655D01*
X116564895Y-94641843D01*
G37*
X169054976Y-103638345D02*
X168054637Y-103638345D01*
X169054976Y-103066722D02*
X168483353Y-103495439D01*
X168054637Y-103066722D02*
X168626259Y-103638345D01*
X169054976Y-102114018D02*
X169054976Y-102685641D01*
X169054976Y-102399830D02*
X168054637Y-102399830D01*
X168054637Y-102399830D02*
X168197542Y-102495100D01*
X168197542Y-102495100D02*
X168292813Y-102590370D01*
X168292813Y-102590370D02*
X168340448Y-102685641D01*
G36*
X165084436Y-78218000D02*
G01*
X165227135Y-78218000D01*
X165227135Y-78268803D01*
X165084436Y-78268803D01*
X165084436Y-78423714D01*
X165086291Y-78461224D01*
X165090054Y-78476287D01*
X165108860Y-78488377D01*
X165161373Y-78499002D01*
X165227135Y-78503276D01*
X165227135Y-78515000D01*
X164751472Y-78515000D01*
X164751472Y-78503276D01*
X164845872Y-78499002D01*
X164904612Y-78488377D01*
X164918625Y-78480729D01*
X164925617Y-78472745D01*
X164928840Y-78459724D01*
X164930502Y-78423714D01*
X164930502Y-78268803D01*
X164645104Y-78268803D01*
X164677149Y-78218000D01*
X164694075Y-78218000D01*
X164930502Y-78218000D01*
X164930502Y-77842538D01*
X164694075Y-78218000D01*
X164677149Y-78218000D01*
X165059218Y-77612278D01*
X165084436Y-77612278D01*
X165084436Y-78218000D01*
G37*
G36*
X165364094Y-77683047D02*
G01*
X165390387Y-77634859D01*
X165411660Y-77614293D01*
X165439159Y-77604567D01*
X165485849Y-77600554D01*
X165521761Y-77608246D01*
X165564337Y-77634788D01*
X165616641Y-77688482D01*
X165669030Y-77745168D01*
X165703084Y-77770128D01*
X165725085Y-77776409D01*
X165754922Y-77771206D01*
X165778913Y-77756015D01*
X165798541Y-77729270D01*
X165811334Y-77696854D01*
X165819866Y-77654723D01*
X165823026Y-77600554D01*
X165838414Y-77600554D01*
X165839757Y-77629924D01*
X165834209Y-77687544D01*
X165816676Y-77750275D01*
X165791523Y-77810156D01*
X165765629Y-77856582D01*
X165708005Y-77947299D01*
X165684480Y-77989511D01*
X165663936Y-78050929D01*
X165648658Y-78150195D01*
X165642531Y-78301470D01*
X165639277Y-78385596D01*
X165631127Y-78441380D01*
X165620122Y-78476348D01*
X165601576Y-78505242D01*
X165578739Y-78521286D01*
X165550207Y-78526723D01*
X165516181Y-78519888D01*
X165491406Y-78500162D01*
X165478597Y-78477139D01*
X165469697Y-78443015D01*
X165466249Y-78393916D01*
X165473198Y-78336348D01*
X165497023Y-78262513D01*
X165544479Y-78166628D01*
X165629891Y-78027613D01*
X165729909Y-77879480D01*
X165773830Y-77809794D01*
X165792191Y-77773173D01*
X165748105Y-77787644D01*
X165708232Y-77792041D01*
X165653705Y-77786301D01*
X165576769Y-77764808D01*
X165522672Y-77752554D01*
X165483040Y-77749054D01*
X165453408Y-77751668D01*
X165428452Y-77759068D01*
X165402619Y-77776840D01*
X165381028Y-77807620D01*
X165364094Y-77856154D01*
X165355815Y-77903128D01*
X165352920Y-77956172D01*
X165337533Y-77956172D01*
X165340342Y-77838080D01*
X165343150Y-77728476D01*
X165343150Y-77713028D01*
X165341075Y-77657911D01*
X165334724Y-77600554D01*
X165350111Y-77600554D01*
X165364094Y-77683047D01*
G37*
G36*
X166178156Y-78264895D02*
G01*
X166178156Y-78448565D01*
X166182369Y-78485019D01*
X166195619Y-78493445D01*
X166232683Y-78500467D01*
X166276097Y-78503276D01*
X166276097Y-78515000D01*
X165915167Y-78515000D01*
X165915167Y-78503276D01*
X165992349Y-78500165D01*
X166028496Y-78493445D01*
X166038327Y-78489171D01*
X166043911Y-78478417D01*
X166046692Y-78448321D01*
X166046692Y-77696297D01*
X166044198Y-77670412D01*
X166038266Y-77656120D01*
X166022878Y-77642747D01*
X165993005Y-77638068D01*
X165916572Y-77635725D01*
X165916572Y-77624002D01*
X166178156Y-77600554D01*
X166178156Y-78241448D01*
X166354438Y-78061379D01*
X166379791Y-78031598D01*
X166392656Y-78007132D01*
X166396448Y-77986458D01*
X166389471Y-77962685D01*
X166367016Y-77943960D01*
X166333475Y-77933231D01*
X166277501Y-77928817D01*
X166277501Y-77917093D01*
X166597887Y-77917093D01*
X166597887Y-77928817D01*
X166548010Y-77933187D01*
X166514600Y-77944387D01*
X166482916Y-77965177D01*
X166432779Y-78008073D01*
X166346073Y-78094352D01*
X166525103Y-78453756D01*
X166543263Y-78480293D01*
X166563571Y-78494117D01*
X166590466Y-78500509D01*
X166639836Y-78503276D01*
X166639836Y-78515000D01*
X166298506Y-78515000D01*
X166298506Y-78503276D01*
X166369825Y-78501200D01*
X166389382Y-78494504D01*
X166395043Y-78480867D01*
X166383869Y-78449970D01*
X166252344Y-78189363D01*
X166178156Y-78264895D01*
G37*
X112738095Y-115036887D02*
X112738095Y-114036887D01*
X112738095Y-114513077D02*
X113309523Y-114513077D01*
X113309523Y-115036887D02*
X113309523Y-114036887D01*
X114214285Y-114370220D02*
X114214285Y-115036887D01*
X113976190Y-113989268D02*
X113738095Y-114703553D01*
X113738095Y-114703553D02*
X114357142Y-114703553D01*
G36*
X127757586Y-113108747D02*
G01*
X127806046Y-113132003D01*
X127855193Y-113173963D01*
X127889901Y-113218237D01*
X127914618Y-113267285D01*
X127929759Y-113322054D01*
X127935000Y-113383828D01*
X127935000Y-114035774D01*
X127923276Y-114035774D01*
X127919310Y-113902926D01*
X127911980Y-113859430D01*
X127904881Y-113847262D01*
X127895799Y-113839891D01*
X127881478Y-113836148D01*
X127844385Y-113834273D01*
X127121488Y-113834273D01*
X127085550Y-113836114D01*
X127070746Y-113839891D01*
X127059511Y-113858087D01*
X127049070Y-113910545D01*
X127044002Y-114035774D01*
X127032278Y-114035774D01*
X127032278Y-113530741D01*
X127044002Y-113530741D01*
X127044002Y-113597846D01*
X127048276Y-113641199D01*
X127055035Y-113652569D01*
X127066777Y-113658724D01*
X127122159Y-113662204D01*
X127450422Y-113662204D01*
X127450422Y-113532084D01*
X127447779Y-113497096D01*
X127462145Y-113497096D01*
X127462145Y-113662204D01*
X127843408Y-113662204D01*
X127881634Y-113660579D01*
X127896653Y-113657319D01*
X127906253Y-113650109D01*
X127914178Y-113636376D01*
X127921871Y-113594366D01*
X127923276Y-113473343D01*
X127919030Y-113424156D01*
X127907202Y-113384167D01*
X127888555Y-113351554D01*
X127863009Y-113325027D01*
X127824154Y-113301221D01*
X127774241Y-113285875D01*
X127710235Y-113280270D01*
X127634265Y-113286813D01*
X127575742Y-113304618D01*
X127530839Y-113332049D01*
X127501524Y-113362354D01*
X127480285Y-113398998D01*
X127466914Y-113443288D01*
X127462145Y-113497096D01*
X127447779Y-113497096D01*
X127445339Y-113464786D01*
X127431928Y-113415902D01*
X127412076Y-113381020D01*
X127387288Y-113356632D01*
X127354986Y-113338435D01*
X127313371Y-113326611D01*
X127259973Y-113322279D01*
X127181560Y-113328762D01*
X127127941Y-113345487D01*
X127092362Y-113369846D01*
X127067376Y-113404947D01*
X127050482Y-113456584D01*
X127044002Y-113530741D01*
X127032278Y-113530741D01*
X127032278Y-113463574D01*
X127037890Y-113388350D01*
X127053759Y-113324374D01*
X127078983Y-113269733D01*
X127113428Y-113222933D01*
X127159723Y-113181200D01*
X127203485Y-113158666D01*
X127246357Y-113151554D01*
X127300647Y-113157011D01*
X127341557Y-113171836D01*
X127372264Y-113194907D01*
X127395596Y-113224668D01*
X127417403Y-113268036D01*
X127437042Y-113328886D01*
X127453414Y-113411794D01*
X127468986Y-113326676D01*
X127490929Y-113259215D01*
X127518129Y-113206366D01*
X127550012Y-113165597D01*
X127582815Y-113137570D01*
X127619540Y-113117669D01*
X127660971Y-113105473D01*
X127708220Y-113101240D01*
X127757586Y-113108747D01*
G37*
G36*
X127423860Y-112594375D02*
G01*
X127394271Y-112596794D01*
X127380751Y-112602068D01*
X127372351Y-112611721D01*
X127367318Y-112627286D01*
X127364448Y-112741226D01*
X127352725Y-112741226D01*
X127337093Y-112462850D01*
X127812817Y-112462850D01*
X127849331Y-112462178D01*
X127875954Y-112455828D01*
X127889998Y-112447462D01*
X127896241Y-112424099D01*
X127899829Y-112341095D01*
X127911552Y-112341095D01*
X127935000Y-112594375D01*
X127759145Y-112594375D01*
X127813671Y-112608977D01*
X127864352Y-112636323D01*
X127900879Y-112668732D01*
X127923253Y-112703833D01*
X127933595Y-112742691D01*
X127935000Y-112759483D01*
X127935000Y-112776274D01*
X127928788Y-112828945D01*
X127911342Y-112871011D01*
X127882976Y-112904929D01*
X127852057Y-112926633D01*
X127817313Y-112939650D01*
X127777585Y-112944130D01*
X127410793Y-112944130D01*
X127387711Y-112946069D01*
X127376416Y-112950420D01*
X127369290Y-112958129D01*
X127365853Y-112969348D01*
X127364448Y-113035050D01*
X127364448Y-113067229D01*
X127352725Y-113067229D01*
X127337093Y-112812606D01*
X127800666Y-112812606D01*
X127866260Y-112807198D01*
X127897936Y-112795142D01*
X127916793Y-112773899D01*
X127923276Y-112744034D01*
X127918969Y-112715242D01*
X127905910Y-112688457D01*
X127882768Y-112662741D01*
X127846889Y-112637728D01*
X127794548Y-112613643D01*
X127739642Y-112599238D01*
X127681353Y-112594375D01*
X127423860Y-112594375D01*
G37*
G36*
X127638000Y-111910311D02*
G01*
X127701992Y-111910311D01*
X127763175Y-111908907D01*
X127828769Y-111912196D01*
X127871026Y-111920347D01*
X127896653Y-111931316D01*
X127923018Y-111956094D01*
X127940177Y-111993979D01*
X127946723Y-112050201D01*
X127941492Y-112104704D01*
X127927500Y-112144547D01*
X127906118Y-112173361D01*
X127876698Y-112194305D01*
X127838755Y-112207644D01*
X127789797Y-112212501D01*
X127391803Y-112212501D01*
X127391803Y-112324425D01*
X127380080Y-112324425D01*
X127361007Y-112271005D01*
X127332743Y-112225412D01*
X127294862Y-112186489D01*
X127246113Y-112153699D01*
X127188137Y-112128321D01*
X127125034Y-112112848D01*
X127055725Y-112107537D01*
X127055725Y-112082380D01*
X127352725Y-112082380D01*
X127352725Y-111920081D01*
X127391803Y-111920081D01*
X127391803Y-112082380D01*
X127775020Y-112082380D01*
X127844520Y-112080544D01*
X127873633Y-112076763D01*
X127904375Y-112062827D01*
X127921308Y-112042414D01*
X127927184Y-112013809D01*
X127920397Y-111980106D01*
X127900800Y-111955591D01*
X127865390Y-111938277D01*
X127813909Y-111929664D01*
X127705411Y-111925699D01*
X127638000Y-111925699D01*
X127638000Y-111910311D01*
G37*
G36*
X127638000Y-111478490D02*
G01*
X127701992Y-111478490D01*
X127763175Y-111477086D01*
X127828769Y-111480374D01*
X127871026Y-111488526D01*
X127896653Y-111499495D01*
X127923018Y-111524272D01*
X127940177Y-111562157D01*
X127946723Y-111618380D01*
X127941492Y-111672882D01*
X127927500Y-111712726D01*
X127906118Y-111741540D01*
X127876698Y-111762484D01*
X127838755Y-111775823D01*
X127789797Y-111780679D01*
X127391803Y-111780679D01*
X127391803Y-111892604D01*
X127380080Y-111892604D01*
X127361007Y-111839183D01*
X127332743Y-111793590D01*
X127294862Y-111754668D01*
X127246113Y-111721878D01*
X127188137Y-111696499D01*
X127125034Y-111681026D01*
X127055725Y-111675716D01*
X127055725Y-111650559D01*
X127352725Y-111650559D01*
X127352725Y-111488260D01*
X127391803Y-111488260D01*
X127391803Y-111650559D01*
X127775020Y-111650559D01*
X127844520Y-111648722D01*
X127873633Y-111644942D01*
X127904375Y-111631005D01*
X127921308Y-111610592D01*
X127927184Y-111581988D01*
X127920397Y-111548284D01*
X127900800Y-111523770D01*
X127865390Y-111506456D01*
X127813909Y-111497843D01*
X127705411Y-111493877D01*
X127638000Y-111493877D01*
X127638000Y-111478490D01*
G37*
G36*
X127706610Y-110875065D02*
G01*
X127765256Y-110892690D01*
X127817918Y-110921650D01*
X127865635Y-110962710D01*
X127901978Y-111008000D01*
X127926980Y-111054570D01*
X127941761Y-111103067D01*
X127946723Y-111154380D01*
X127941948Y-111207482D01*
X127927917Y-111256310D01*
X127904570Y-111301802D01*
X127871191Y-111344645D01*
X127824152Y-111385986D01*
X127770931Y-111415398D01*
X127710298Y-111433478D01*
X127640504Y-111439778D01*
X127574384Y-111433674D01*
X127515997Y-111416023D01*
X127463816Y-111387066D01*
X127416777Y-111346049D01*
X127381118Y-111300843D01*
X127356536Y-111254294D01*
X127341983Y-111205762D01*
X127337093Y-111154380D01*
X127348817Y-111154380D01*
X127353354Y-111189992D01*
X127366249Y-111218909D01*
X127387594Y-111242725D01*
X127418975Y-111262091D01*
X127467275Y-111278243D01*
X127538712Y-111289779D01*
X127640504Y-111294270D01*
X127744413Y-111290238D01*
X127816689Y-111279930D01*
X127864902Y-111265632D01*
X127895710Y-111247804D01*
X127917040Y-111224154D01*
X127930245Y-111193727D01*
X127935000Y-111154380D01*
X127930403Y-111118864D01*
X127917313Y-111089971D01*
X127895576Y-111066112D01*
X127863497Y-111046669D01*
X127814276Y-111030472D01*
X127742253Y-111018956D01*
X127640504Y-111014490D01*
X127535287Y-111018349D01*
X127465478Y-111028015D01*
X127421723Y-111041051D01*
X127389441Y-111059985D01*
X127367264Y-111084429D01*
X127353669Y-111115230D01*
X127348817Y-111154380D01*
X127337093Y-111154380D01*
X127341826Y-111102031D01*
X127355793Y-111053421D01*
X127379133Y-111007667D01*
X127412625Y-110964115D01*
X127459002Y-110922749D01*
X127511534Y-110893347D01*
X127571448Y-110875278D01*
X127640504Y-110868982D01*
X127706610Y-110875065D01*
G37*
G36*
X127593060Y-110564961D02*
G01*
X127868443Y-110564961D01*
X127905019Y-110560748D01*
X127913445Y-110547497D01*
X127920467Y-110509701D01*
X127923276Y-110461402D01*
X127935000Y-110461402D01*
X127935000Y-110819584D01*
X127923276Y-110819584D01*
X127920467Y-110758706D01*
X127909171Y-110704851D01*
X127898408Y-110699223D01*
X127868321Y-110696424D01*
X127441324Y-110696424D01*
X127415983Y-110697157D01*
X127396200Y-110703446D01*
X127382156Y-110711812D01*
X127375873Y-110735180D01*
X127372264Y-110818179D01*
X127360540Y-110818179D01*
X127337093Y-110564961D01*
X127515696Y-110564961D01*
X127458882Y-110551421D01*
X127410488Y-110528569D01*
X127371526Y-110499133D01*
X127350323Y-110471993D01*
X127341978Y-110446076D01*
X127337093Y-110390083D01*
X127343434Y-110333533D01*
X127361296Y-110287683D01*
X127390277Y-110250132D01*
X127422236Y-110225900D01*
X127457290Y-110211628D01*
X127496584Y-110206779D01*
X127867344Y-110206779D01*
X127903736Y-110202565D01*
X127912773Y-110188582D01*
X127920284Y-110148038D01*
X127923276Y-110092046D01*
X127935000Y-110092046D01*
X127935000Y-110450228D01*
X127923276Y-110450228D01*
X127920467Y-110398448D01*
X127909232Y-110346669D01*
X127898485Y-110341083D01*
X127868443Y-110338303D01*
X127512948Y-110338303D01*
X127449557Y-110341557D01*
X127410366Y-110349477D01*
X127376895Y-110366127D01*
X127358818Y-110388053D01*
X127352725Y-110416644D01*
X127357251Y-110445900D01*
X127370915Y-110472585D01*
X127395132Y-110497720D01*
X127432836Y-110521608D01*
X127498922Y-110546687D01*
X127593060Y-110564961D01*
G37*
G36*
X156416972Y-123748199D02*
G01*
X156179140Y-123351610D01*
X156156313Y-123319740D01*
X156134507Y-123299206D01*
X156113378Y-123287435D01*
X156069870Y-123278278D01*
X155974892Y-123274002D01*
X155974892Y-123262278D01*
X156524744Y-123262278D01*
X156524744Y-123274002D01*
X156431261Y-123278892D01*
X156383275Y-123289928D01*
X156362503Y-123303163D01*
X156356827Y-123317782D01*
X156359441Y-123331113D01*
X156369406Y-123351610D01*
X156526149Y-123611301D01*
X156653399Y-123437705D01*
X156679389Y-123390781D01*
X156686982Y-123351610D01*
X156680323Y-123319386D01*
X156661063Y-123296282D01*
X156625873Y-123280405D01*
X156566693Y-123274002D01*
X156566693Y-123262278D01*
X156941606Y-123262278D01*
X156941606Y-123274002D01*
X156885895Y-123278647D01*
X156837376Y-123291961D01*
X156794755Y-123313508D01*
X156750184Y-123354741D01*
X156640821Y-123487103D01*
X156535918Y-123631085D01*
X156804524Y-124074263D01*
X156827383Y-124107232D01*
X156848707Y-124128141D01*
X156868882Y-124139904D01*
X156911484Y-124148963D01*
X157008772Y-124153276D01*
X157008772Y-124165000D01*
X156458982Y-124165000D01*
X156458982Y-124153276D01*
X156552427Y-124148386D01*
X156600396Y-124137351D01*
X156621162Y-124124115D01*
X156626838Y-124109495D01*
X156624142Y-124094931D01*
X156614259Y-124074263D01*
X156429612Y-123769387D01*
X156289660Y-123962766D01*
X156266187Y-124003664D01*
X156258886Y-124043183D01*
X156263427Y-124073162D01*
X156276844Y-124099137D01*
X156300163Y-124122257D01*
X156329407Y-124138383D01*
X156369588Y-124149203D01*
X156423994Y-124153276D01*
X156423994Y-124165000D01*
X155974892Y-124165000D01*
X155974892Y-124153276D01*
X156021714Y-124147553D01*
X156070505Y-124129639D01*
X156122476Y-124097527D01*
X156169815Y-124057720D01*
X156221196Y-124004623D01*
X156277082Y-123935900D01*
X156416972Y-123748199D01*
G37*
G36*
X157519295Y-123257802D02*
G01*
X157591800Y-123279211D01*
X157660144Y-123315072D01*
X157725320Y-123366692D01*
X157774720Y-123421976D01*
X157812983Y-123483177D01*
X157840699Y-123551128D01*
X157857850Y-123626999D01*
X157863806Y-123712234D01*
X157857988Y-123793595D01*
X157841099Y-123867318D01*
X157813556Y-123934623D01*
X157775204Y-123996493D01*
X157725320Y-124053625D01*
X157658333Y-124108863D01*
X157589381Y-124146796D01*
X157517481Y-124169201D01*
X157441265Y-124176723D01*
X157363340Y-124169403D01*
X157290888Y-124147766D01*
X157222532Y-124111484D01*
X157157272Y-124059181D01*
X157107833Y-124003344D01*
X157069558Y-123941706D01*
X157041854Y-123873450D01*
X157024727Y-123797431D01*
X157018837Y-123712967D01*
X157204899Y-123712967D01*
X157209435Y-123825850D01*
X157221834Y-123917147D01*
X157240528Y-123990234D01*
X157264311Y-124048129D01*
X157291838Y-124092044D01*
X157322826Y-124124305D01*
X157357479Y-124146741D01*
X157396565Y-124160310D01*
X157441326Y-124165000D01*
X157495614Y-124157787D01*
X157542073Y-124136801D01*
X157582701Y-124101248D01*
X157618280Y-124048129D01*
X157642679Y-123990149D01*
X157661828Y-123917033D01*
X157674518Y-123825765D01*
X157679158Y-123712967D01*
X157674571Y-123598335D01*
X157662087Y-123506536D01*
X157643367Y-123433880D01*
X157619685Y-123377072D01*
X157584881Y-123325270D01*
X157544353Y-123290315D01*
X157497215Y-123269490D01*
X157441326Y-123262278D01*
X157386179Y-123269454D01*
X157339480Y-123290219D01*
X157299141Y-123325165D01*
X157264311Y-123377072D01*
X157240655Y-123433876D01*
X157221954Y-123506531D01*
X157209482Y-123598331D01*
X157204899Y-123712967D01*
X157018837Y-123712967D01*
X157018786Y-123712234D01*
X157024617Y-123630839D01*
X157041531Y-123557262D01*
X157069086Y-123490257D01*
X157107426Y-123428822D01*
X157157272Y-123372248D01*
X157224176Y-123317694D01*
X157293097Y-123280181D01*
X157365011Y-123258003D01*
X157441265Y-123250554D01*
X157519295Y-123257802D01*
G37*
G36*
X158546271Y-123267897D02*
G01*
X158610244Y-123283788D01*
X158664888Y-123309049D01*
X158711695Y-123343550D01*
X158753425Y-123389884D01*
X158775961Y-123433687D01*
X158783075Y-123476601D01*
X158776641Y-123528336D01*
X158758098Y-123572050D01*
X158727143Y-123609652D01*
X158692309Y-123636091D01*
X158646855Y-123658658D01*
X158588488Y-123676804D01*
X158514468Y-123689520D01*
X158571399Y-123706164D01*
X158618097Y-123730817D01*
X158656251Y-123763305D01*
X158686889Y-123804273D01*
X158710290Y-123855116D01*
X158722306Y-123901613D01*
X158730822Y-123968384D01*
X158734104Y-124061074D01*
X158736192Y-124098619D01*
X158741065Y-124119570D01*
X158752217Y-124132705D01*
X158774648Y-124137644D01*
X158790956Y-124133248D01*
X158804356Y-124119230D01*
X158815192Y-124090933D01*
X158823214Y-124039719D01*
X158826428Y-123961789D01*
X158839006Y-123961789D01*
X158839006Y-124008135D01*
X158834267Y-124084581D01*
X158823619Y-124123356D01*
X158802230Y-124152283D01*
X158770413Y-124170115D01*
X158724273Y-124176723D01*
X158677505Y-124171566D01*
X158642355Y-124157495D01*
X158616001Y-124135318D01*
X158596961Y-124104061D01*
X158584857Y-124062929D01*
X158575589Y-123992432D01*
X158571804Y-123880518D01*
X158571804Y-123851147D01*
X158573209Y-123821838D01*
X158568455Y-123773789D01*
X158556251Y-123742089D01*
X158538221Y-123721943D01*
X158513523Y-123708358D01*
X158480718Y-123699385D01*
X158437532Y-123696053D01*
X158272424Y-123696053D01*
X158272424Y-124073103D01*
X158274049Y-124111497D01*
X158277309Y-124126592D01*
X158284517Y-124136204D01*
X158298252Y-124144178D01*
X158318558Y-124148717D01*
X158364015Y-124151871D01*
X158468246Y-124153276D01*
X158468246Y-124165000D01*
X157898854Y-124165000D01*
X157898854Y-124153276D01*
X158031702Y-124149310D01*
X158075198Y-124141980D01*
X158087366Y-124134881D01*
X158094737Y-124125799D01*
X158098480Y-124111478D01*
X158100355Y-124074385D01*
X158100355Y-123350205D01*
X158272424Y-123350205D01*
X158272424Y-123680422D01*
X158402544Y-123680422D01*
X158469864Y-123675368D01*
X158518746Y-123662037D01*
X158553608Y-123642320D01*
X158577960Y-123617673D01*
X158596157Y-123585401D01*
X158608002Y-123543657D01*
X158612349Y-123489912D01*
X158605805Y-123412129D01*
X158588860Y-123358581D01*
X158564050Y-123322728D01*
X158528538Y-123297457D01*
X158477033Y-123280478D01*
X158403888Y-123274002D01*
X158336782Y-123274002D01*
X158293429Y-123278276D01*
X158281996Y-123284854D01*
X158275904Y-123295922D01*
X158272424Y-123350205D01*
X158100355Y-123350205D01*
X158100355Y-123350083D01*
X158098471Y-123314313D01*
X158094737Y-123300746D01*
X158076541Y-123289511D01*
X158024083Y-123279070D01*
X157898854Y-123274002D01*
X157898854Y-123262278D01*
X158471054Y-123262278D01*
X158546271Y-123267897D01*
G37*
G36*
X140409934Y-85832278D02*
G01*
X140409934Y-86230882D01*
X140390333Y-86230882D01*
X140368669Y-86110689D01*
X140343602Y-86022259D01*
X140316489Y-85959143D01*
X140288240Y-85915748D01*
X140257058Y-85885062D01*
X140219435Y-85862891D01*
X140174048Y-85848963D01*
X140118980Y-85844002D01*
X140088205Y-85846810D01*
X140084614Y-85854673D01*
X140082587Y-85883447D01*
X140082587Y-86644385D01*
X140084441Y-86681564D01*
X140088205Y-86696531D01*
X140107744Y-86708499D01*
X140172102Y-86719063D01*
X140300818Y-86723276D01*
X140300818Y-86735000D01*
X139692226Y-86735000D01*
X139692226Y-86723276D01*
X139819538Y-86719063D01*
X139883957Y-86708499D01*
X139898553Y-86700872D01*
X139905633Y-86692990D01*
X139908854Y-86680112D01*
X139910518Y-86644385D01*
X139910518Y-85884851D01*
X139907504Y-85853057D01*
X139902153Y-85845406D01*
X139872722Y-85844002D01*
X139819037Y-85848830D01*
X139774504Y-85862418D01*
X139737330Y-85884102D01*
X139706270Y-85914160D01*
X139677742Y-85958076D01*
X139650134Y-86021218D01*
X139624255Y-86108841D01*
X139601307Y-86226974D01*
X139581706Y-86226974D01*
X139581706Y-85832278D01*
X140409934Y-85832278D01*
G37*
G36*
X140574126Y-86227951D02*
G01*
X140572267Y-86202337D01*
X140568508Y-86192475D01*
X140558272Y-86180401D01*
X140550312Y-86175439D01*
X140517263Y-86170696D01*
X140435579Y-86168356D01*
X140435579Y-86156632D01*
X140705590Y-86137093D01*
X140705590Y-86314902D01*
X140718080Y-86259572D01*
X140744791Y-86207069D01*
X140770728Y-86175093D01*
X140798336Y-86153738D01*
X140828086Y-86141289D01*
X140860928Y-86137093D01*
X140887487Y-86141143D01*
X140918264Y-86154556D01*
X140944535Y-86174901D01*
X140959541Y-86198581D01*
X140967626Y-86224697D01*
X140970044Y-86246086D01*
X140964586Y-86280412D01*
X140949417Y-86305229D01*
X140923882Y-86322962D01*
X140894512Y-86328579D01*
X140868605Y-86323681D01*
X140846945Y-86309040D01*
X140832701Y-86285894D01*
X140827345Y-86250361D01*
X140831796Y-86225922D01*
X140846213Y-86200047D01*
X140867325Y-86182312D01*
X140890298Y-86180507D01*
X140881387Y-86163344D01*
X140865548Y-86152824D01*
X140839923Y-86148817D01*
X140815453Y-86154213D01*
X140788907Y-86172285D01*
X140758774Y-86208229D01*
X140730184Y-86261634D01*
X140712069Y-86326308D01*
X140705590Y-86404905D01*
X140705590Y-86668077D01*
X140709803Y-86704897D01*
X140722381Y-86713384D01*
X140759537Y-86720086D01*
X140844137Y-86723276D01*
X140844137Y-86735000D01*
X140435579Y-86735000D01*
X140435579Y-86723276D01*
X140509035Y-86720467D01*
X140540660Y-86715989D01*
X140565700Y-86709110D01*
X140571329Y-86698225D01*
X140574126Y-86667955D01*
X140574126Y-86227951D01*
G37*
G36*
X141338686Y-86142217D02*
G01*
X141389617Y-86155902D01*
X141427205Y-86176416D01*
X141454190Y-86202619D01*
X141469591Y-86231711D01*
X141474772Y-86264954D01*
X141474772Y-86575448D01*
X141478985Y-86679434D01*
X141489685Y-86707147D01*
X141506039Y-86722060D01*
X141529299Y-86727184D01*
X141550849Y-86722966D01*
X141566749Y-86710793D01*
X141578269Y-86688960D01*
X141587203Y-86646374D01*
X141590848Y-86578440D01*
X141590115Y-86538750D01*
X141589444Y-86497657D01*
X141589444Y-86484895D01*
X141604831Y-86484895D01*
X141604831Y-86546505D01*
X141606235Y-86602498D01*
X141603320Y-86657224D01*
X141596169Y-86691582D01*
X141586635Y-86711735D01*
X141566810Y-86729622D01*
X141534583Y-86741889D01*
X141484541Y-86746723D01*
X141429032Y-86740878D01*
X141395026Y-86726268D01*
X141375307Y-86707333D01*
X141359790Y-86680328D01*
X141348864Y-86642981D01*
X141325212Y-86683767D01*
X141295997Y-86713206D01*
X141260693Y-86733046D01*
X141222572Y-86742884D01*
X141166965Y-86746723D01*
X141111241Y-86739475D01*
X141064810Y-86718635D01*
X141031531Y-86689199D01*
X141011683Y-86651737D01*
X141004665Y-86603597D01*
X141005857Y-86594865D01*
X141138999Y-86594865D01*
X141144023Y-86670091D01*
X141155058Y-86705996D01*
X141167921Y-86722126D01*
X141184540Y-86731642D01*
X141206165Y-86735000D01*
X141239764Y-86730241D01*
X141271366Y-86715820D01*
X141301970Y-86690425D01*
X141325685Y-86658546D01*
X141339807Y-86622851D01*
X141344651Y-86582103D01*
X141344651Y-86393792D01*
X141324363Y-86411720D01*
X141294948Y-86421392D01*
X141231322Y-86430612D01*
X141195053Y-86446820D01*
X141166965Y-86475919D01*
X141152290Y-86505568D01*
X141142589Y-86544409D01*
X141138999Y-86594865D01*
X141005857Y-86594865D01*
X141011201Y-86555733D01*
X141030440Y-86513737D01*
X141063406Y-86475980D01*
X141104944Y-86447365D01*
X141152110Y-86428197D01*
X141206165Y-86418461D01*
X141283066Y-86407957D01*
X141319494Y-86395990D01*
X141334787Y-86382900D01*
X141344912Y-86361249D01*
X141348864Y-86327236D01*
X141348864Y-86245109D01*
X141343349Y-86193897D01*
X141330668Y-86168661D01*
X141316773Y-86158907D01*
X141292348Y-86151745D01*
X141252327Y-86148817D01*
X141205509Y-86153793D01*
X141166903Y-86167868D01*
X141136299Y-86190829D01*
X141119398Y-86219159D01*
X141133381Y-86217754D01*
X141157470Y-86222976D01*
X141176734Y-86238698D01*
X141189342Y-86261070D01*
X141193526Y-86286142D01*
X141188181Y-86314285D01*
X141172521Y-86336395D01*
X141149738Y-86351077D01*
X141123550Y-86355935D01*
X141106321Y-86353456D01*
X141091371Y-86346165D01*
X141068094Y-86326072D01*
X141055126Y-86304091D01*
X141050827Y-86279242D01*
X141052754Y-86259252D01*
X141059192Y-86234668D01*
X141077361Y-86203343D01*
X141108659Y-86176890D01*
X141157134Y-86155228D01*
X141213649Y-86141599D01*
X141270523Y-86137093D01*
X141338686Y-86142217D01*
G37*
G36*
X141886015Y-86393060D02*
G01*
X141886015Y-86668443D01*
X141890229Y-86705019D01*
X141903479Y-86713445D01*
X141941275Y-86720467D01*
X141989574Y-86723276D01*
X141989574Y-86735000D01*
X141631392Y-86735000D01*
X141631392Y-86723276D01*
X141692270Y-86720467D01*
X141746125Y-86709171D01*
X141751753Y-86698408D01*
X141754552Y-86668321D01*
X141754552Y-86241324D01*
X141753819Y-86215983D01*
X141747530Y-86196200D01*
X141739164Y-86182156D01*
X141715796Y-86175873D01*
X141632797Y-86172264D01*
X141632797Y-86160540D01*
X141886015Y-86137093D01*
X141886015Y-86315696D01*
X141899555Y-86258882D01*
X141922408Y-86210488D01*
X141951843Y-86171526D01*
X141978983Y-86150323D01*
X142004901Y-86141978D01*
X142060893Y-86137093D01*
X142117443Y-86143434D01*
X142163293Y-86161296D01*
X142200844Y-86190277D01*
X142225076Y-86222236D01*
X142239348Y-86257290D01*
X142244198Y-86296584D01*
X142244198Y-86667344D01*
X142248411Y-86703736D01*
X142262394Y-86712773D01*
X142302938Y-86720284D01*
X142358931Y-86723276D01*
X142358931Y-86735000D01*
X142000749Y-86735000D01*
X142000749Y-86723276D01*
X142052528Y-86720467D01*
X142104307Y-86709232D01*
X142109893Y-86698485D01*
X142112673Y-86668443D01*
X142112673Y-86312948D01*
X142109420Y-86249557D01*
X142101499Y-86210366D01*
X142084849Y-86176895D01*
X142062923Y-86158818D01*
X142034332Y-86152725D01*
X142005077Y-86157251D01*
X141978391Y-86170915D01*
X141953256Y-86195132D01*
X141929369Y-86232836D01*
X141904290Y-86298922D01*
X141886015Y-86393060D01*
G37*
G36*
X142721265Y-86180690D02*
G01*
X142778601Y-86137093D01*
X142778601Y-86348119D01*
X142766022Y-86345310D01*
X142748926Y-86290711D01*
X142725531Y-86244959D01*
X142696047Y-86206763D01*
X142656911Y-86173564D01*
X142617239Y-86154914D01*
X142575757Y-86148817D01*
X142528399Y-86154105D01*
X142493203Y-86168478D01*
X142469609Y-86189530D01*
X142455116Y-86218174D01*
X142449850Y-86257016D01*
X142455076Y-86288063D01*
X142470432Y-86313808D01*
X142497416Y-86335662D01*
X142539828Y-86353669D01*
X142631689Y-86379016D01*
X142698733Y-86397994D01*
X142744053Y-86416797D01*
X142773044Y-86434947D01*
X142797138Y-86459322D01*
X142814881Y-86490149D01*
X142826257Y-86528876D01*
X142830380Y-86577524D01*
X142826118Y-86622084D01*
X142814199Y-86658254D01*
X142795228Y-86687779D01*
X142768831Y-86711796D01*
X142734602Y-86730700D01*
X142694044Y-86742532D01*
X142645672Y-86746723D01*
X142588496Y-86744187D01*
X142557561Y-86738358D01*
X142519292Y-86718997D01*
X142472198Y-86678579D01*
X142413458Y-86746723D01*
X142413458Y-86500526D01*
X142423228Y-86500526D01*
X142447029Y-86580132D01*
X142462429Y-86620572D01*
X142485390Y-86662652D01*
X142507186Y-86688960D01*
X142540099Y-86714926D01*
X142568003Y-86727367D01*
X142600287Y-86732755D01*
X142654098Y-86735000D01*
X142694466Y-86729106D01*
X142725417Y-86712529D01*
X142743830Y-86692614D01*
X142755028Y-86667843D01*
X142759000Y-86636692D01*
X142753664Y-86596898D01*
X142738751Y-86566288D01*
X142714243Y-86542597D01*
X142671832Y-86522339D01*
X142590412Y-86500648D01*
X142532402Y-86484928D01*
X142487229Y-86465137D01*
X142452598Y-86441908D01*
X142420048Y-86405847D01*
X142400618Y-86363197D01*
X142393857Y-86311849D01*
X142399473Y-86265417D01*
X142415875Y-86224653D01*
X142443500Y-86188140D01*
X142479258Y-86159653D01*
X142519137Y-86142836D01*
X142564583Y-86137093D01*
X142616845Y-86141894D01*
X142659716Y-86155350D01*
X142721265Y-86180690D01*
G37*
G36*
X143141179Y-86137093D02*
G01*
X143141179Y-86668321D01*
X143145393Y-86704958D01*
X143157971Y-86713384D01*
X143195127Y-86720086D01*
X143279726Y-86723276D01*
X143279726Y-86735000D01*
X142871169Y-86735000D01*
X142871169Y-86723276D01*
X142944625Y-86720467D01*
X142976253Y-86716005D01*
X143001289Y-86709171D01*
X143006919Y-86698351D01*
X143009716Y-86668199D01*
X143009716Y-86230211D01*
X143007878Y-86205949D01*
X143004098Y-86196261D01*
X142993862Y-86184254D01*
X142985902Y-86179347D01*
X142952853Y-86174603D01*
X142871169Y-86172264D01*
X142871169Y-86160540D01*
X143141179Y-86137093D01*
G37*
G36*
X143067052Y-85820554D02*
G01*
X143098045Y-85826229D01*
X143122983Y-85842903D01*
X143139705Y-85867786D01*
X143145393Y-85898712D01*
X143139707Y-85929648D01*
X143122983Y-85954583D01*
X143098050Y-85971208D01*
X143067052Y-85976870D01*
X143036043Y-85971210D01*
X143011059Y-85954583D01*
X142994383Y-85929653D01*
X142988711Y-85898712D01*
X142994385Y-85867781D01*
X143011059Y-85842903D01*
X143036048Y-85826227D01*
X143067052Y-85820554D01*
G37*
G36*
X143657204Y-86180690D02*
G01*
X143714540Y-86137093D01*
X143714540Y-86348119D01*
X143701961Y-86345310D01*
X143684865Y-86290711D01*
X143661470Y-86244959D01*
X143631985Y-86206763D01*
X143592850Y-86173564D01*
X143553178Y-86154914D01*
X143511696Y-86148817D01*
X143464337Y-86154105D01*
X143429142Y-86168478D01*
X143405547Y-86189530D01*
X143391054Y-86218174D01*
X143385789Y-86257016D01*
X143391014Y-86288063D01*
X143406371Y-86313808D01*
X143433355Y-86335662D01*
X143475767Y-86353669D01*
X143567627Y-86379016D01*
X143634672Y-86397994D01*
X143679992Y-86416797D01*
X143708983Y-86434947D01*
X143733076Y-86459322D01*
X143750819Y-86490149D01*
X143762196Y-86528876D01*
X143766319Y-86577524D01*
X143762056Y-86622084D01*
X143750138Y-86658254D01*
X143731166Y-86687779D01*
X143704770Y-86711796D01*
X143670540Y-86730700D01*
X143629982Y-86742532D01*
X143581610Y-86746723D01*
X143524435Y-86744187D01*
X143493500Y-86738358D01*
X143455231Y-86718997D01*
X143408137Y-86678579D01*
X143349396Y-86746723D01*
X143349396Y-86500526D01*
X143359166Y-86500526D01*
X143382967Y-86580132D01*
X143398367Y-86620572D01*
X143421329Y-86662652D01*
X143443125Y-86688960D01*
X143476038Y-86714926D01*
X143503941Y-86727367D01*
X143536225Y-86732755D01*
X143590037Y-86735000D01*
X143630405Y-86729106D01*
X143661356Y-86712529D01*
X143679769Y-86692614D01*
X143690967Y-86667843D01*
X143694939Y-86636692D01*
X143689602Y-86596898D01*
X143674689Y-86566288D01*
X143650182Y-86542597D01*
X143607771Y-86522339D01*
X143526350Y-86500648D01*
X143468340Y-86484928D01*
X143423167Y-86465137D01*
X143388536Y-86441908D01*
X143355987Y-86405847D01*
X143336556Y-86363197D01*
X143329796Y-86311849D01*
X143335411Y-86265417D01*
X143351814Y-86224653D01*
X143379438Y-86188140D01*
X143415196Y-86159653D01*
X143455076Y-86142836D01*
X143500522Y-86137093D01*
X143552783Y-86141894D01*
X143595654Y-86155350D01*
X143657204Y-86180690D01*
G37*
G36*
X144207238Y-86438000D02*
G01*
X144207238Y-86501992D01*
X144208643Y-86563175D01*
X144205354Y-86628769D01*
X144197203Y-86671026D01*
X144186234Y-86696653D01*
X144161456Y-86723018D01*
X144123571Y-86740177D01*
X144067348Y-86746723D01*
X144012846Y-86741492D01*
X143973002Y-86727500D01*
X143944189Y-86706118D01*
X143923244Y-86676698D01*
X143909906Y-86638755D01*
X143905049Y-86589797D01*
X143905049Y-86191803D01*
X143793125Y-86191803D01*
X143793125Y-86180080D01*
X143846545Y-86161007D01*
X143892138Y-86132743D01*
X143931061Y-86094862D01*
X143963850Y-86046113D01*
X143989229Y-85988137D01*
X144004702Y-85925034D01*
X144010012Y-85855725D01*
X144035169Y-85855725D01*
X144035169Y-86152725D01*
X144197469Y-86152725D01*
X144197469Y-86191803D01*
X144035169Y-86191803D01*
X144035169Y-86575020D01*
X144037006Y-86644520D01*
X144040787Y-86673633D01*
X144054723Y-86704375D01*
X144075136Y-86721308D01*
X144103741Y-86727184D01*
X144137444Y-86720397D01*
X144161958Y-86700800D01*
X144179273Y-86665390D01*
X144187886Y-86613909D01*
X144191851Y-86505411D01*
X144191851Y-86438000D01*
X144207238Y-86438000D01*
G37*
G36*
X144583698Y-86141826D02*
G01*
X144632307Y-86155793D01*
X144678061Y-86179133D01*
X144721614Y-86212625D01*
X144762980Y-86259002D01*
X144792381Y-86311534D01*
X144810450Y-86371448D01*
X144816746Y-86440504D01*
X144810663Y-86506610D01*
X144793038Y-86565256D01*
X144764078Y-86617918D01*
X144723018Y-86665635D01*
X144677729Y-86701978D01*
X144631159Y-86726980D01*
X144582661Y-86741761D01*
X144531349Y-86746723D01*
X144478246Y-86741948D01*
X144429418Y-86727917D01*
X144383926Y-86704570D01*
X144341083Y-86671191D01*
X144299742Y-86624152D01*
X144270331Y-86570931D01*
X144252250Y-86510298D01*
X144245951Y-86440504D01*
X144391459Y-86440504D01*
X144395490Y-86544413D01*
X144405798Y-86616689D01*
X144420096Y-86664902D01*
X144437924Y-86695710D01*
X144461575Y-86717040D01*
X144492002Y-86730245D01*
X144531349Y-86735000D01*
X144566864Y-86730403D01*
X144595757Y-86717313D01*
X144619616Y-86695576D01*
X144639060Y-86663497D01*
X144655257Y-86614276D01*
X144666772Y-86542253D01*
X144671239Y-86440504D01*
X144667379Y-86335287D01*
X144657713Y-86265478D01*
X144644677Y-86221723D01*
X144625744Y-86189441D01*
X144601299Y-86167264D01*
X144570498Y-86153669D01*
X144531349Y-86148817D01*
X144495737Y-86153354D01*
X144466820Y-86166249D01*
X144443003Y-86187594D01*
X144423638Y-86218975D01*
X144407485Y-86267275D01*
X144395950Y-86338712D01*
X144391459Y-86440504D01*
X144245951Y-86440504D01*
X144252054Y-86374384D01*
X144269706Y-86315997D01*
X144298663Y-86263816D01*
X144339679Y-86216777D01*
X144384885Y-86181118D01*
X144431435Y-86156536D01*
X144479966Y-86141983D01*
X144531349Y-86137093D01*
X144583698Y-86141826D01*
G37*
G36*
X145004691Y-86227951D02*
G01*
X145002832Y-86202337D01*
X144999074Y-86192475D01*
X144988837Y-86180401D01*
X144980878Y-86175439D01*
X144947828Y-86170696D01*
X144866145Y-86168356D01*
X144866145Y-86156632D01*
X145136155Y-86137093D01*
X145136155Y-86314902D01*
X145148645Y-86259572D01*
X145175356Y-86207069D01*
X145201293Y-86175093D01*
X145228901Y-86153738D01*
X145258652Y-86141289D01*
X145291493Y-86137093D01*
X145318052Y-86141143D01*
X145348829Y-86154556D01*
X145375100Y-86174901D01*
X145390107Y-86198581D01*
X145398192Y-86224697D01*
X145400609Y-86246086D01*
X145395152Y-86280412D01*
X145379982Y-86305229D01*
X145354447Y-86322962D01*
X145325077Y-86328579D01*
X145299170Y-86323681D01*
X145277511Y-86309040D01*
X145263266Y-86285894D01*
X145257910Y-86250361D01*
X145262361Y-86225922D01*
X145276778Y-86200047D01*
X145297891Y-86182312D01*
X145320864Y-86180507D01*
X145311952Y-86163344D01*
X145296113Y-86152824D01*
X145270489Y-86148817D01*
X145246019Y-86154213D01*
X145219472Y-86172285D01*
X145189339Y-86208229D01*
X145160749Y-86261634D01*
X145142635Y-86326308D01*
X145136155Y-86404905D01*
X145136155Y-86668077D01*
X145140368Y-86704897D01*
X145152947Y-86713384D01*
X145190103Y-86720086D01*
X145274702Y-86723276D01*
X145274702Y-86735000D01*
X144866145Y-86735000D01*
X144866145Y-86723276D01*
X144939601Y-86720467D01*
X144971225Y-86715989D01*
X144996265Y-86709110D01*
X145001895Y-86698225D01*
X145004691Y-86667955D01*
X145004691Y-86227951D01*
G37*
X185104819Y-105083333D02*
X185819104Y-105083333D01*
X185819104Y-105083333D02*
X185961961Y-105130952D01*
X185961961Y-105130952D02*
X186057200Y-105226190D01*
X186057200Y-105226190D02*
X186104819Y-105369047D01*
X186104819Y-105369047D02*
X186104819Y-105464285D01*
X185104819Y-104130952D02*
X185104819Y-104607142D01*
X185104819Y-104607142D02*
X185581009Y-104654761D01*
X185581009Y-104654761D02*
X185533390Y-104607142D01*
X185533390Y-104607142D02*
X185485771Y-104511904D01*
X185485771Y-104511904D02*
X185485771Y-104273809D01*
X185485771Y-104273809D02*
X185533390Y-104178571D01*
X185533390Y-104178571D02*
X185581009Y-104130952D01*
X185581009Y-104130952D02*
X185676247Y-104083333D01*
X185676247Y-104083333D02*
X185914342Y-104083333D01*
X185914342Y-104083333D02*
X186009580Y-104130952D01*
X186009580Y-104130952D02*
X186057200Y-104178571D01*
X186057200Y-104178571D02*
X186104819Y-104273809D01*
X186104819Y-104273809D02*
X186104819Y-104511904D01*
X186104819Y-104511904D02*
X186057200Y-104607142D01*
X186057200Y-104607142D02*
X186009580Y-104654761D01*
G36*
X177501453Y-107707325D02*
G01*
X177579870Y-107724279D01*
X177650409Y-107751681D01*
X177714203Y-107789460D01*
X177772084Y-107838099D01*
X177821751Y-107895456D01*
X177860089Y-107958072D01*
X177887734Y-108026702D01*
X177904752Y-108102396D01*
X177910631Y-108186451D01*
X177903506Y-108280026D01*
X177883021Y-108362638D01*
X177849877Y-108436108D01*
X177803913Y-108501857D01*
X177744118Y-108560814D01*
X177673305Y-108609893D01*
X177596423Y-108644859D01*
X177512266Y-108666196D01*
X177419275Y-108673532D01*
X177327233Y-108666227D01*
X177243679Y-108644952D01*
X177167095Y-108610029D01*
X177098159Y-108561945D01*
X177039607Y-108502222D01*
X176990690Y-108429655D01*
X176954796Y-108349658D01*
X176933182Y-108264705D01*
X176925844Y-108173506D01*
X177000094Y-108173506D01*
X177005857Y-108243115D01*
X177022351Y-108303590D01*
X177049003Y-108356566D01*
X177085740Y-108403198D01*
X177133165Y-108444008D01*
X177192862Y-108479176D01*
X177257772Y-108503840D01*
X177335125Y-108519632D01*
X177427274Y-108525276D01*
X177515256Y-108519757D01*
X177589865Y-108504237D01*
X177653199Y-108479847D01*
X177711316Y-108445231D01*
X177758121Y-108404663D01*
X177794982Y-108357909D01*
X177822208Y-108305071D01*
X177838605Y-108248069D01*
X177844197Y-108185779D01*
X177838665Y-108123939D01*
X177822562Y-108068339D01*
X177796020Y-108017740D01*
X177759611Y-107973645D01*
X177709886Y-107933333D01*
X177644284Y-107896840D01*
X177573827Y-107870602D01*
X177497502Y-107854541D01*
X177414269Y-107849029D01*
X177329666Y-107854525D01*
X177251634Y-107870574D01*
X177179185Y-107896840D01*
X177121418Y-107928464D01*
X177076992Y-107964664D01*
X177043874Y-108005467D01*
X177020224Y-108052389D01*
X177005361Y-108107780D01*
X177000094Y-108173506D01*
X176925844Y-108173506D01*
X176933001Y-108088265D01*
X176953959Y-108010171D01*
X176988614Y-107937811D01*
X177038879Y-107866784D01*
X177097167Y-107808806D01*
X177164042Y-107762628D01*
X177238133Y-107729183D01*
X177320801Y-107708586D01*
X177413780Y-107701445D01*
X177501453Y-107707325D01*
G37*
G36*
X177238475Y-107613335D02*
G01*
X177226751Y-107354437D01*
X177665167Y-107354437D01*
X177719692Y-107349953D01*
X177757124Y-107338378D01*
X177787282Y-107318095D01*
X177809881Y-107289224D01*
X177823713Y-107254005D01*
X177828565Y-107211677D01*
X177821850Y-107155939D01*
X177799317Y-107087724D01*
X177763850Y-107020020D01*
X177712123Y-106949361D01*
X177398698Y-106949361D01*
X177352279Y-106951786D01*
X177332142Y-106956871D01*
X177318214Y-106966953D01*
X177306741Y-106983555D01*
X177299939Y-107005579D01*
X177297093Y-107043638D01*
X177297093Y-107093525D01*
X177238475Y-107093525D01*
X177226751Y-106834566D01*
X177738684Y-106834566D01*
X177783656Y-106832031D01*
X177806095Y-106826384D01*
X177822236Y-106816031D01*
X177832534Y-106802143D01*
X177837819Y-106782000D01*
X177840289Y-106737602D01*
X177840289Y-106716414D01*
X177898907Y-106716414D01*
X177910631Y-106943193D01*
X177779534Y-106943193D01*
X177845548Y-107035798D01*
X177882299Y-107106470D01*
X177903629Y-107177064D01*
X177910631Y-107247886D01*
X177906834Y-107299082D01*
X177896343Y-107340454D01*
X177878521Y-107377396D01*
X177853661Y-107409453D01*
X177822458Y-107435527D01*
X177785151Y-107454882D01*
X177744027Y-107466598D01*
X177699605Y-107470575D01*
X177390882Y-107470575D01*
X177352867Y-107472875D01*
X177333180Y-107478085D01*
X177318487Y-107487933D01*
X177306863Y-107503059D01*
X177299805Y-107522354D01*
X177297093Y-107550503D01*
X177297093Y-107613335D01*
X177238475Y-107613335D01*
G37*
G36*
X177007909Y-106445243D02*
G01*
X177007909Y-106396700D01*
X177234567Y-106396700D01*
X177234567Y-106193856D01*
X177301001Y-106193856D01*
X177301001Y-106396700D01*
X177710718Y-106396700D01*
X177759201Y-106393911D01*
X177785457Y-106387480D01*
X177805641Y-106375189D01*
X177822154Y-106356095D01*
X177832793Y-106332697D01*
X177836381Y-106306513D01*
X177831060Y-106264730D01*
X177813778Y-106217476D01*
X177781671Y-106163082D01*
X177848899Y-106163082D01*
X177884076Y-106224930D01*
X177904119Y-106284881D01*
X177910631Y-106344127D01*
X177904690Y-106394011D01*
X177887306Y-106438099D01*
X177860812Y-106474615D01*
X177832473Y-106495496D01*
X177794903Y-106506142D01*
X177722747Y-106510822D01*
X177301001Y-106510822D01*
X177301001Y-106630379D01*
X177245191Y-106630379D01*
X177228310Y-106576838D01*
X177205868Y-106537811D01*
X177175547Y-106506254D01*
X177136564Y-106480781D01*
X177088024Y-106462369D01*
X177007909Y-106445243D01*
G37*
G36*
X177629087Y-105338037D02*
G01*
X177699151Y-105356061D01*
X177760676Y-105385115D01*
X177815010Y-105425346D01*
X177856907Y-105471189D01*
X177886421Y-105522313D01*
X177904405Y-105579811D01*
X177910631Y-105645287D01*
X177904167Y-105710497D01*
X177885047Y-105770950D01*
X177861840Y-105813667D01*
X177820689Y-105868647D01*
X178047407Y-105868647D01*
X178106086Y-105865899D01*
X178127702Y-105852283D01*
X178134846Y-105840924D01*
X178139181Y-105826271D01*
X178141196Y-105748418D01*
X178199815Y-105748418D01*
X178199815Y-106100250D01*
X178141196Y-106100250D01*
X178141196Y-106069537D01*
X178138911Y-106026545D01*
X178134174Y-106008415D01*
X178125343Y-105996209D01*
X178112620Y-105987532D01*
X178095771Y-105984884D01*
X178043499Y-105983441D01*
X177336172Y-105983441D01*
X177336172Y-106100250D01*
X177277554Y-106100250D01*
X177274114Y-106050733D01*
X177264487Y-106009392D01*
X177247474Y-105969688D01*
X177218935Y-105922625D01*
X177218935Y-105868647D01*
X177331714Y-105868647D01*
X177272532Y-105785188D01*
X177241894Y-105726620D01*
X177224569Y-105669370D01*
X177222087Y-105644615D01*
X177301001Y-105644615D01*
X177306922Y-105692809D01*
X177326280Y-105748418D01*
X177356410Y-105804203D01*
X177402056Y-105868647D01*
X177636957Y-105868647D01*
X177680435Y-105867038D01*
X177705956Y-105863213D01*
X177738975Y-105851184D01*
X177768787Y-105831400D01*
X177794081Y-105804428D01*
X177816598Y-105767225D01*
X177831458Y-105725531D01*
X177836381Y-105682168D01*
X177828988Y-105625752D01*
X177807075Y-105574986D01*
X177769459Y-105528172D01*
X177734366Y-105501201D01*
X177690279Y-105480878D01*
X177635203Y-105467690D01*
X177566615Y-105462899D01*
X177483456Y-105469747D01*
X177419399Y-105488350D01*
X177370305Y-105516876D01*
X177330617Y-105556632D01*
X177308351Y-105598672D01*
X177301001Y-105644615D01*
X177222087Y-105644615D01*
X177218935Y-105613169D01*
X177224667Y-105556870D01*
X177241506Y-105505667D01*
X177269692Y-105458331D01*
X177310465Y-105414050D01*
X177358323Y-105378826D01*
X177413064Y-105353264D01*
X177475975Y-105337330D01*
X177548724Y-105331740D01*
X177629087Y-105338037D01*
G37*
G36*
X177238475Y-105262742D02*
G01*
X177226751Y-105003844D01*
X177665167Y-105003844D01*
X177719692Y-104999360D01*
X177757124Y-104987785D01*
X177787282Y-104967502D01*
X177809881Y-104938631D01*
X177823713Y-104903411D01*
X177828565Y-104861084D01*
X177821850Y-104805346D01*
X177799317Y-104737131D01*
X177763850Y-104669427D01*
X177712123Y-104598767D01*
X177398698Y-104598767D01*
X177352279Y-104601192D01*
X177332142Y-104606278D01*
X177318214Y-104616360D01*
X177306741Y-104632961D01*
X177299939Y-104654985D01*
X177297093Y-104693045D01*
X177297093Y-104742932D01*
X177238475Y-104742932D01*
X177226751Y-104483973D01*
X177738684Y-104483973D01*
X177783656Y-104481437D01*
X177806095Y-104475791D01*
X177822236Y-104465438D01*
X177832534Y-104451550D01*
X177837819Y-104431407D01*
X177840289Y-104387009D01*
X177840289Y-104365821D01*
X177898907Y-104365821D01*
X177910631Y-104592600D01*
X177779534Y-104592600D01*
X177845548Y-104685204D01*
X177882299Y-104755877D01*
X177903629Y-104826471D01*
X177910631Y-104897293D01*
X177906834Y-104948489D01*
X177896343Y-104989861D01*
X177878521Y-105026803D01*
X177853661Y-105058860D01*
X177822458Y-105084934D01*
X177785151Y-105104289D01*
X177744027Y-105116005D01*
X177699605Y-105119982D01*
X177390882Y-105119982D01*
X177352867Y-105122282D01*
X177333180Y-105127492D01*
X177318487Y-105137340D01*
X177306863Y-105152466D01*
X177299805Y-105171761D01*
X177297093Y-105199910D01*
X177297093Y-105262742D01*
X177238475Y-105262742D01*
G37*
G36*
X177007909Y-104094650D02*
G01*
X177007909Y-104046107D01*
X177234567Y-104046107D01*
X177234567Y-103843263D01*
X177301001Y-103843263D01*
X177301001Y-104046107D01*
X177710718Y-104046107D01*
X177759201Y-104043317D01*
X177785457Y-104036887D01*
X177805641Y-104024596D01*
X177822154Y-104005501D01*
X177832793Y-103982104D01*
X177836381Y-103955920D01*
X177831060Y-103914137D01*
X177813778Y-103866883D01*
X177781671Y-103812489D01*
X177848899Y-103812489D01*
X177884076Y-103874337D01*
X177904119Y-103934288D01*
X177910631Y-103993534D01*
X177904690Y-104043418D01*
X177887306Y-104087506D01*
X177860812Y-104124022D01*
X177832473Y-104144903D01*
X177794903Y-104155549D01*
X177722747Y-104160229D01*
X177301001Y-104160229D01*
X177301001Y-104279786D01*
X177245191Y-104279786D01*
X177228310Y-104226245D01*
X177205868Y-104187218D01*
X177175547Y-104155661D01*
X177136564Y-104130187D01*
X177088024Y-104111775D01*
X177007909Y-104094650D01*
G37*
X179614700Y-99421428D02*
X179614700Y-98278571D01*
X180186128Y-98849999D02*
X179043271Y-98849999D01*
G36*
X146644436Y-79368000D02*
G01*
X146787135Y-79368000D01*
X146787135Y-79418803D01*
X146644436Y-79418803D01*
X146644436Y-79573714D01*
X146646291Y-79611224D01*
X146650054Y-79626287D01*
X146668860Y-79638377D01*
X146721373Y-79649002D01*
X146787135Y-79653276D01*
X146787135Y-79665000D01*
X146311472Y-79665000D01*
X146311472Y-79653276D01*
X146405872Y-79649002D01*
X146464612Y-79638377D01*
X146478625Y-79630729D01*
X146485617Y-79622745D01*
X146488840Y-79609724D01*
X146490502Y-79573714D01*
X146490502Y-79418803D01*
X146205104Y-79418803D01*
X146237149Y-79368000D01*
X146254075Y-79368000D01*
X146490502Y-79368000D01*
X146490502Y-78992538D01*
X146254075Y-79368000D01*
X146237149Y-79368000D01*
X146619218Y-78762278D01*
X146644436Y-78762278D01*
X146644436Y-79368000D01*
G37*
G36*
X146924094Y-78833047D02*
G01*
X146950387Y-78784859D01*
X146971660Y-78764293D01*
X146999159Y-78754567D01*
X147045849Y-78750554D01*
X147081761Y-78758246D01*
X147124337Y-78784788D01*
X147176641Y-78838482D01*
X147229030Y-78895168D01*
X147263084Y-78920128D01*
X147285085Y-78926409D01*
X147314922Y-78921206D01*
X147338913Y-78906015D01*
X147358541Y-78879270D01*
X147371334Y-78846854D01*
X147379866Y-78804723D01*
X147383026Y-78750554D01*
X147398414Y-78750554D01*
X147399757Y-78779924D01*
X147394209Y-78837544D01*
X147376676Y-78900275D01*
X147351523Y-78960156D01*
X147325629Y-79006582D01*
X147268005Y-79097299D01*
X147244480Y-79139511D01*
X147223936Y-79200929D01*
X147208658Y-79300195D01*
X147202531Y-79451470D01*
X147199277Y-79535596D01*
X147191127Y-79591380D01*
X147180122Y-79626348D01*
X147161576Y-79655242D01*
X147138739Y-79671286D01*
X147110207Y-79676723D01*
X147076181Y-79669888D01*
X147051406Y-79650162D01*
X147038597Y-79627139D01*
X147029697Y-79593015D01*
X147026249Y-79543916D01*
X147033198Y-79486348D01*
X147057023Y-79412513D01*
X147104479Y-79316628D01*
X147189891Y-79177613D01*
X147289909Y-79029480D01*
X147333830Y-78959794D01*
X147352191Y-78923173D01*
X147308105Y-78937644D01*
X147268232Y-78942041D01*
X147213705Y-78936301D01*
X147136769Y-78914808D01*
X147082672Y-78902554D01*
X147043040Y-78899054D01*
X147013408Y-78901668D01*
X146988452Y-78909068D01*
X146962619Y-78926840D01*
X146941028Y-78957620D01*
X146924094Y-79006154D01*
X146915815Y-79053128D01*
X146912920Y-79106172D01*
X146897533Y-79106172D01*
X146900342Y-78988080D01*
X146903150Y-78878476D01*
X146903150Y-78863028D01*
X146901075Y-78807911D01*
X146894724Y-78750554D01*
X146910111Y-78750554D01*
X146924094Y-78833047D01*
G37*
G36*
X147738156Y-79414895D02*
G01*
X147738156Y-79598565D01*
X147742369Y-79635019D01*
X147755619Y-79643445D01*
X147792683Y-79650467D01*
X147836097Y-79653276D01*
X147836097Y-79665000D01*
X147475167Y-79665000D01*
X147475167Y-79653276D01*
X147552349Y-79650165D01*
X147588496Y-79643445D01*
X147598327Y-79639171D01*
X147603911Y-79628417D01*
X147606692Y-79598321D01*
X147606692Y-78846297D01*
X147604198Y-78820412D01*
X147598266Y-78806120D01*
X147582878Y-78792747D01*
X147553005Y-78788068D01*
X147476572Y-78785725D01*
X147476572Y-78774002D01*
X147738156Y-78750554D01*
X147738156Y-79391448D01*
X147914438Y-79211379D01*
X147939791Y-79181598D01*
X147952656Y-79157132D01*
X147956448Y-79136458D01*
X147949471Y-79112685D01*
X147927016Y-79093960D01*
X147893475Y-79083231D01*
X147837501Y-79078817D01*
X147837501Y-79067093D01*
X148157887Y-79067093D01*
X148157887Y-79078817D01*
X148108010Y-79083187D01*
X148074600Y-79094387D01*
X148042916Y-79115177D01*
X147992779Y-79158073D01*
X147906073Y-79244352D01*
X148085103Y-79603756D01*
X148103263Y-79630293D01*
X148123571Y-79644117D01*
X148150466Y-79650509D01*
X148199836Y-79653276D01*
X148199836Y-79665000D01*
X147858506Y-79665000D01*
X147858506Y-79653276D01*
X147929825Y-79651200D01*
X147949382Y-79644504D01*
X147955043Y-79630867D01*
X147943869Y-79599970D01*
X147812344Y-79339363D01*
X147738156Y-79414895D01*
G37*
G36*
X160778385Y-77678712D02*
G01*
X160934323Y-77673764D01*
X161009255Y-77662958D01*
X161048694Y-77649250D01*
X161086343Y-77628640D01*
X161122584Y-77600554D01*
X161140719Y-77600554D01*
X161140719Y-78424630D01*
X161142573Y-78461693D01*
X161146337Y-78476592D01*
X161165204Y-78488560D01*
X161222601Y-78499063D01*
X161314254Y-78503276D01*
X161314254Y-78515000D01*
X160778385Y-78515000D01*
X160778385Y-78503276D01*
X160882615Y-78499063D01*
X160942760Y-78488499D01*
X160956778Y-78480912D01*
X160963765Y-78472990D01*
X160966986Y-78460112D01*
X160968650Y-78424385D01*
X160968650Y-77770425D01*
X160966148Y-77735972D01*
X160960956Y-77721821D01*
X160951488Y-77712660D01*
X160936471Y-77704907D01*
X160886096Y-77696481D01*
X160778385Y-77694344D01*
X160778385Y-77678712D01*
G37*
G36*
X161713089Y-77607779D02*
G01*
X161764515Y-77629555D01*
X161814057Y-77667509D01*
X161862518Y-77725057D01*
X161902247Y-77793858D01*
X161931476Y-77872118D01*
X161949813Y-77961415D01*
X161956246Y-78063639D01*
X161949963Y-78166217D01*
X161932165Y-78254692D01*
X161903999Y-78331148D01*
X161865998Y-78397336D01*
X161815539Y-78457520D01*
X161764766Y-78496919D01*
X161712852Y-78519337D01*
X161658270Y-78526723D01*
X161604147Y-78519533D01*
X161553170Y-78497818D01*
X161503842Y-78459877D01*
X161455365Y-78402220D01*
X161415636Y-78333420D01*
X161386406Y-78255159D01*
X161368070Y-78165862D01*
X161361637Y-78063639D01*
X161361679Y-78062967D01*
X161547750Y-78062967D01*
X161551963Y-78334443D01*
X161563360Y-78411431D01*
X161580992Y-78461541D01*
X161602704Y-78492355D01*
X161628001Y-78509327D01*
X161658270Y-78515000D01*
X161681247Y-78509665D01*
X161702535Y-78492579D01*
X161723076Y-78459140D01*
X161742228Y-78401671D01*
X161756343Y-78324670D01*
X161766350Y-78214656D01*
X161770194Y-78062967D01*
X161765981Y-77792834D01*
X161754547Y-77716037D01*
X161736770Y-77665953D01*
X161714802Y-77635067D01*
X161689109Y-77617998D01*
X161658270Y-77612278D01*
X161635943Y-77617528D01*
X161615099Y-77634422D01*
X161594816Y-77667645D01*
X161575716Y-77724935D01*
X161561615Y-77801470D01*
X161551601Y-77911214D01*
X161547750Y-78062967D01*
X161361679Y-78062967D01*
X161368002Y-77961294D01*
X161386111Y-77872223D01*
X161414911Y-77794487D01*
X161453961Y-77726461D01*
X161502505Y-77668186D01*
X161552084Y-77629820D01*
X161603497Y-77607841D01*
X161658270Y-77600554D01*
X161713089Y-77607779D01*
G37*
G36*
X162359002Y-78124211D02*
G01*
X162677984Y-77804375D01*
X162718555Y-77757161D01*
X162738233Y-77721642D01*
X162743746Y-77694466D01*
X162739598Y-77673412D01*
X162727192Y-77656128D01*
X162704545Y-77641648D01*
X162660562Y-77629101D01*
X162589873Y-77624002D01*
X162589873Y-77612278D01*
X162984386Y-77612278D01*
X162984386Y-77624002D01*
X162940677Y-77628172D01*
X162898470Y-77640699D01*
X162857075Y-77662042D01*
X162809377Y-77701549D01*
X162685006Y-77825502D01*
X162592682Y-77919902D01*
X162859883Y-78424569D01*
X162890991Y-78472243D01*
X162913739Y-78491369D01*
X162947737Y-78499238D01*
X163040379Y-78503276D01*
X163040379Y-78515000D01*
X162554885Y-78515000D01*
X162554885Y-78503276D01*
X162668885Y-78499063D01*
X162690360Y-78490865D01*
X162696180Y-78477997D01*
X162694775Y-78468166D01*
X162682197Y-78442887D01*
X162475140Y-78039642D01*
X162359002Y-78151566D01*
X162359002Y-78423836D01*
X162360857Y-78461292D01*
X162364620Y-78476348D01*
X162383427Y-78488438D01*
X162441495Y-78499063D01*
X162535285Y-78503276D01*
X162535285Y-78515000D01*
X161996668Y-78515000D01*
X161996668Y-78503276D01*
X162098762Y-78497658D01*
X162156830Y-78487095D01*
X162177164Y-78479340D01*
X162183587Y-78465768D01*
X162186933Y-78424385D01*
X162186933Y-77700083D01*
X162185050Y-77664313D01*
X162181316Y-77650746D01*
X162163120Y-77639511D01*
X162111991Y-77628986D01*
X161996668Y-77624002D01*
X161996668Y-77612278D01*
X162547924Y-77612278D01*
X162547924Y-77624002D01*
X162433784Y-77628976D01*
X162382816Y-77639511D01*
X162368772Y-77645129D01*
X162362349Y-77658701D01*
X162359002Y-77700083D01*
X162359002Y-78124211D01*
G37*
D13*
%TO.C,U1*%
X135800000Y-93590000D02*
X139560000Y-93590000D01*
X135800000Y-100410000D02*
X139560000Y-100410000D01*
X139560000Y-93590000D02*
X139560000Y-94850000D01*
X139560000Y-100410000D02*
X139560000Y-99150000D01*
X134520000Y-93690000D02*
X134280000Y-93360000D01*
X134760000Y-93360000D01*
X134520000Y-93690000D01*
G36*
X134520000Y-93690000D02*
G01*
X134280000Y-93360000D01*
X134760000Y-93360000D01*
X134520000Y-93690000D01*
G37*
%TO.C,J2*%
X151040000Y-66240000D02*
X151040000Y-71850000D01*
X151040000Y-66240000D02*
X151890000Y-66240000D01*
X151890000Y-58540000D02*
X151890000Y-66240000D01*
X151890000Y-58540000D02*
X165910000Y-58540000D01*
X156450000Y-75960000D02*
X160190000Y-75960000D01*
X165910000Y-58540000D02*
X165910000Y-66240000D01*
X165910000Y-66240000D02*
X166760000Y-66240000D01*
X166760000Y-66240000D02*
X166760000Y-71850000D01*
X153910100Y-75808718D02*
G75*
G02*
X151040000Y-71850000I1239898J3918716D01*
G01*
X166760000Y-71850000D02*
G75*
G02*
X164766806Y-75372958I-4110000J0D01*
G01*
D14*
%TO.C,U2*%
X116390855Y-98873500D02*
X117898745Y-98873500D01*
X117898745Y-96511300D02*
X116390855Y-96511300D01*
D13*
%TO.C,J1*%
X132890000Y-66240000D02*
X132890000Y-71850000D01*
X132890000Y-66240000D02*
X133740000Y-66240000D01*
X133740000Y-58540000D02*
X133740000Y-66240000D01*
X133740000Y-58540000D02*
X147760000Y-58540000D01*
X138300000Y-75960000D02*
X142040000Y-75960000D01*
X147760000Y-58540000D02*
X147760000Y-66240000D01*
X147760000Y-66240000D02*
X148610000Y-66240000D01*
X148610000Y-66240000D02*
X148610000Y-71850000D01*
X135760100Y-75808718D02*
G75*
G02*
X132890000Y-71850000I1239898J3918716D01*
G01*
X148610000Y-71850000D02*
G75*
G02*
X146616806Y-75372958I-4110000J0D01*
G01*
%TO.C,Q1*%
X162962500Y-84130000D02*
X162962500Y-83330000D01*
X162962500Y-84130000D02*
X162962500Y-84930000D01*
X166082500Y-84130000D02*
X166082500Y-83330000D01*
X166082500Y-84130000D02*
X166082500Y-84930000D01*
X166362500Y-83070000D02*
X166032500Y-82830000D01*
X166362500Y-82590000D01*
X166362500Y-83070000D01*
G36*
X166362500Y-83070000D02*
G01*
X166032500Y-82830000D01*
X166362500Y-82590000D01*
X166362500Y-83070000D01*
G37*
%TO.C,Q4*%
X132070000Y-83312500D02*
X132070000Y-82662500D01*
X132070000Y-83312500D02*
X132070000Y-83962500D01*
X135190000Y-83312500D02*
X135190000Y-82662500D01*
X135190000Y-83312500D02*
X135190000Y-83962500D01*
X132120000Y-84475000D02*
X131790000Y-84715000D01*
X131790000Y-84235000D01*
X132120000Y-84475000D01*
G36*
X132120000Y-84475000D02*
G01*
X131790000Y-84715000D01*
X131790000Y-84235000D01*
X132120000Y-84475000D01*
G37*
D15*
%TO.C,K1*%
X162250000Y-88400000D02*
X174950000Y-88400000D01*
X162250000Y-117400000D02*
X162250000Y-88400000D01*
X174950000Y-117400000D02*
X162250000Y-117400000D01*
X174950000Y-117400000D02*
X174950000Y-88400000D01*
D13*
%TO.C,Q3*%
X153390000Y-84062500D02*
X153390000Y-83412500D01*
X153390000Y-84062500D02*
X153390000Y-84712500D01*
X156510000Y-84062500D02*
X156510000Y-83412500D01*
X156510000Y-84062500D02*
X156510000Y-84712500D01*
X153440000Y-85225000D02*
X153110000Y-85465000D01*
X153110000Y-84985000D01*
X153440000Y-85225000D01*
G36*
X153440000Y-85225000D02*
G01*
X153110000Y-85465000D01*
X153110000Y-84985000D01*
X153440000Y-85225000D01*
G37*
%TO.C,J3*%
X124170000Y-95630000D02*
X125500000Y-95630000D01*
X124170000Y-96960000D02*
X124170000Y-95630000D01*
X124170000Y-98230000D02*
X124170000Y-103370000D01*
X124170000Y-98230000D02*
X126830000Y-98230000D01*
X124170000Y-103370000D02*
X126830000Y-103370000D01*
X126830000Y-98230000D02*
X126830000Y-103370000D01*
%TO.C,Button*%
X119614400Y-107752400D02*
X126054400Y-107752400D01*
X119614400Y-108342400D02*
X119614400Y-107752400D01*
X119614400Y-110882400D02*
X119614400Y-110402400D01*
X119614400Y-113422400D02*
X119614400Y-112942400D01*
X119614400Y-116072400D02*
X119614400Y-115482400D01*
X120234400Y-107752400D02*
X120234400Y-108342400D01*
X120234400Y-110402400D02*
X120234400Y-110882400D01*
X120234400Y-112942400D02*
X120234400Y-113422400D01*
X120234400Y-115482400D02*
X120234400Y-116072400D01*
X125534400Y-107752400D02*
X125534400Y-116072400D01*
X126054400Y-107752400D02*
X126054400Y-116072400D01*
X126054400Y-116072400D02*
X119614400Y-116072400D01*
X119264400Y-109372400D02*
X118654400Y-109812400D01*
X118654400Y-108932400D01*
X119264400Y-109372400D01*
G36*
X119264400Y-109372400D02*
G01*
X118654400Y-109812400D01*
X118654400Y-108932400D01*
X119264400Y-109372400D01*
G37*
%TO.C,D1*%
X162760000Y-119570000D02*
X162760000Y-122870000D01*
X162760000Y-119570000D02*
X168270000Y-119570000D01*
X162760000Y-122870000D02*
X168270000Y-122870000D01*
%TO.C,XOR*%
X157399500Y-119335000D02*
X155899500Y-119335000D01*
X157399500Y-119335000D02*
X158899500Y-119335000D01*
X157399500Y-122555000D02*
X155899500Y-122555000D01*
X157399500Y-122555000D02*
X158899500Y-122555000D01*
X155187000Y-119460000D02*
X154947000Y-119130000D01*
X155427000Y-119130000D01*
X155187000Y-119460000D01*
G36*
X155187000Y-119460000D02*
G01*
X154947000Y-119130000D01*
X155427000Y-119130000D01*
X155187000Y-119460000D01*
G37*
%TO.C,Transistor*%
X141242500Y-82600000D02*
X141242500Y-81800000D01*
X141242500Y-82600000D02*
X141242500Y-83400000D01*
X144362500Y-82600000D02*
X144362500Y-81800000D01*
X144362500Y-82600000D02*
X144362500Y-83400000D01*
X144642500Y-81540000D02*
X144312500Y-81300000D01*
X144642500Y-81060000D01*
X144642500Y-81540000D01*
G36*
X144642500Y-81540000D02*
G01*
X144312500Y-81300000D01*
X144642500Y-81060000D01*
X144642500Y-81540000D01*
G37*
%TO.C,J5*%
X180040000Y-102300000D02*
X180040000Y-106040000D01*
X189760000Y-96890000D02*
X184150000Y-96890000D01*
X189760000Y-96890000D02*
X189760000Y-97740000D01*
X189760000Y-111760000D02*
X189760000Y-112610000D01*
X189760000Y-112610000D02*
X184150000Y-112610000D01*
X197460000Y-97740000D02*
X189760000Y-97740000D01*
X197460000Y-97740000D02*
X197460000Y-111760000D01*
X197460000Y-111760000D02*
X189760000Y-111760000D01*
X180191282Y-99760100D02*
G75*
G02*
X184150000Y-96890000I3918716J-1239898D01*
G01*
X184150000Y-112610000D02*
G75*
G02*
X180627042Y-110616806I0J4110000D01*
G01*
%TD*%
M02*
