<?xml version="1.0" standalone="no"?>
 <!DOCTYPE svg PUBLIC "-//W3C//DTD SVG 1.1//EN" 
 "http://www.w3.org/Graphics/SVG/1.1/DTD/svg11.dtd"> 
<svg
  xmlns:svg="http://www.w3.org/2000/svg"
  xmlns="http://www.w3.org/2000/svg"
  xmlns:xlink="http://www.w3.org/1999/xlink"
  version="1.1"
  width="297.0022mm" height="210.0072mm" viewBox="0.0000 0.0000 297.0022 210.0072">
<title>SVG Image created as E-Stop-B_Cu.svg date 2025/10/16 20:11:00 </title>
  <desc>Image generated by PCBNEW </desc>
<g style="fill:#000000; fill-opacity:1.0000;stroke:#000000; stroke-opacity:1.0000;
stroke-linecap:round; stroke-linejoin:round;"
 transform="translate(0 0) scale(1 1)">
</g>
<g style="fill:#000000; fill-opacity:1.0000; 
stroke:#000000; stroke-width:0.0212; stroke-opacity:1; 
stroke-linecap:round; stroke-linejoin:round;">
<rect x="82.915477" y="51.651750" width="139.769048" height="99.948250" rx="0.000000" />
<path style="fill:#B2803A; fill-opacity:1.0000; stroke:none;fill-rule:evenodd;"
d="M 151.7000,69.0000
151.7000,67.0000
152.6000,67.0000
152.6000,69.0000
Z" /> 
<path style="fill:#B2803A; fill-opacity:1.0000; stroke:none;fill-rule:evenodd;"
d="M 165.2000,69.0000
165.2000,67.0000
166.1000,67.0000
166.1000,69.0000
Z" /> 
<path style="fill:#B2803A; fill-opacity:1.0000; stroke:none;fill-rule:evenodd;"
d="M 160.4500,72.9750
160.4697,72.7750
160.5280,72.5827
160.6227,72.4055
160.7502,72.2502
160.9055,72.1227
161.0827,72.0280
161.2750,71.9697
161.4750,71.9500
163.5250,71.9500
163.7250,71.9697
163.9173,72.0280
164.0945,72.1227
164.2498,72.2502
164.3773,72.4055
164.4720,72.5827
164.5303,72.7750
164.5500,72.9750
164.5500,75.0250
164.5303,75.2250
164.4720,75.4173
164.3773,75.5945
164.2498,75.7498
164.0945,75.8773
163.9173,75.9720
163.7250,76.0303
163.5250,76.0500
161.4750,76.0500
161.2750,76.0303
161.0827,75.9720
160.9055,75.8773
160.7502,75.7498
160.6227,75.5945
160.5280,75.4173
160.4697,75.2250
160.4500,75.0250
Z" /> 
</g>
<g style="fill:#B2803A; fill-opacity:1.0000; stroke:none;">
<circle cx="155.3000" cy="74.0000" r="2.0500" /> 
<path style="fill:#B2803A; fill-opacity:1.0000; stroke:none;fill-rule:evenodd;"
d="M 133.5500,69.0000
133.5500,67.0000
134.4500,67.0000
134.4500,69.0000
Z" /> 
<path style="fill:#B2803A; fill-opacity:1.0000; stroke:none;fill-rule:evenodd;"
d="M 147.0500,69.0000
147.0500,67.0000
147.9500,67.0000
147.9500,69.0000
Z" /> 
<path style="fill:#B2803A; fill-opacity:1.0000; stroke:none;fill-rule:evenodd;"
d="M 142.3000,72.9750
142.3197,72.7750
142.3780,72.5827
142.4727,72.4055
142.6002,72.2502
142.7555,72.1227
142.9327,72.0280
143.1250,71.9697
143.3250,71.9500
145.3750,71.9500
145.5750,71.9697
145.7673,72.0280
145.9445,72.1227
146.0998,72.2502
146.2273,72.4055
146.3220,72.5827
146.3803,72.7750
146.4000,72.9750
146.4000,75.0250
146.3803,75.2250
146.3220,75.4173
146.2273,75.5945
146.0998,75.7498
145.9445,75.8773
145.7673,75.9720
145.5750,76.0303
145.3750,76.0500
143.3250,76.0500
143.1250,76.0303
142.9327,75.9720
142.7555,75.8773
142.6002,75.7498
142.4727,75.5945
142.3780,75.4173
142.3197,75.2250
142.3000,75.0250
Z" /> 
</g>
<g style="fill:#B2803A; fill-opacity:1.0000; stroke:none;">
<circle cx="137.1500" cy="74.0000" r="2.0500" /> 
</g>
<g style="fill:#B2803A; fill-opacity:1.0000; stroke:none;">
<circle cx="164.7700" cy="95.2700" r="0.9750" /> 
</g>
<g style="fill:#B2803A; fill-opacity:1.0000; stroke:none;">
<circle cx="164.7700" cy="100.3100" r="0.9750" /> 
</g>
<g style="fill:#B2803A; fill-opacity:1.0000; stroke:none;">
<circle cx="164.7700" cy="90.2300" r="0.9750" /> 
</g>
<g style="fill:#B2803A; fill-opacity:1.0000; stroke:none;">
<circle cx="172.2700" cy="95.2700" r="0.9750" /> 
</g>
<g style="fill:#B2803A; fill-opacity:1.0000; stroke:none;">
<circle cx="172.2700" cy="100.3100" r="0.9750" /> 
</g>
<g style="fill:#B2803A; fill-opacity:1.0000; stroke:none;">
<circle cx="172.2700" cy="90.2300" r="0.9750" /> 
</g>
<g style="fill:#B2803A; fill-opacity:1.0000; stroke:none;">
<circle cx="164.7700" cy="115.5700" r="0.9750" /> 
</g>
<g style="fill:#B2803A; fill-opacity:1.0000; stroke:none;">
<circle cx="172.2700" cy="115.5700" r="0.9750" /> 
<path style="fill:#B2803A; fill-opacity:1.0000; stroke:none;fill-rule:evenodd;"
d="M 124.6500,97.8100
124.6500,96.1100
126.3500,96.1100
126.3500,97.8100
Z" /> 
</g>
<g style="fill:#B2803A; fill-opacity:1.0000; stroke:none;">
<circle cx="125.5000" cy="99.5000" r="0.8500" /> 
<circle cx="125.5000" cy="102.0400" r="0.8500" /> 
<path style="fill:#B2803A; fill-opacity:1.0000; stroke:none;fill-rule:evenodd;"
d="M 123.6844,108.2724
123.7801,108.2914
123.8612,108.3456
123.9154,108.4267
123.9344,108.5224
123.9344,110.2224
123.9154,110.3181
123.8612,110.3992
123.7801,110.4534
123.6844,110.4724
121.9844,110.4724
121.8887,110.4534
121.8076,110.3992
121.7534,110.3181
121.7344,110.2224
121.7344,108.5224
121.7534,108.4267
121.8076,108.3456
121.8887,108.2914
121.9844,108.2724
Z" /> 
<circle cx="122.8344" cy="111.9124" r="1.1000" /> 
</g>
<g style="fill:#B2803A; fill-opacity:1.0000; stroke:none;">
<circle cx="122.8344" cy="114.4524" r="1.1000" /> 
<path style="fill:#B2803A; fill-opacity:1.0000; stroke:none;fill-rule:evenodd;"
d="M 187.0000,97.5500
189.0000,97.5500
189.0000,98.4500
187.0000,98.4500
Z" /> 
<path style="fill:#B2803A; fill-opacity:1.0000; stroke:none;fill-rule:evenodd;"
d="M 187.0000,111.0500
189.0000,111.0500
189.0000,111.9500
187.0000,111.9500
Z" /> 
<path style="fill:#B2803A; fill-opacity:1.0000; stroke:none;fill-rule:evenodd;"
d="M 183.0250,106.3000
183.2250,106.3197
183.4173,106.3780
183.5945,106.4727
183.7498,106.6002
183.8773,106.7555
183.9720,106.9327
184.0303,107.1250
184.0500,107.3250
184.0500,109.3750
184.0303,109.5750
183.9720,109.7673
183.8773,109.9445
183.7498,110.0998
183.5945,110.2273
183.4173,110.3220
183.2250,110.3803
183.0250,110.4000
180.9750,110.4000
180.7750,110.3803
180.5827,110.3220
180.4055,110.2273
180.2502,110.0998
180.1227,109.9445
180.0280,109.7673
179.9697,109.5750
179.9500,109.3750
179.9500,107.3250
179.9697,107.1250
180.0280,106.9327
180.1227,106.7555
180.2502,106.6002
180.4055,106.4727
180.5827,106.3780
180.7750,106.3197
180.9750,106.3000
Z" /> 
</g>
<g style="fill:#B2803A; fill-opacity:1.0000; stroke:none;">
<circle cx="182.0000" cy="101.1500" r="2.0500" /> 
</g>
<g style="fill:#B2803A; fill-opacity:1.0000; stroke:none;">
<circle cx="126.6500" cy="82.4500" r="0.3000" /> 
</g>
<g style="fill:#B2803A; fill-opacity:1.0000; stroke:none;">
<circle cx="128.0000" cy="81.6500" r="0.3000" /> 
</g>
<g style="fill:#B2803A; fill-opacity:1.0000; stroke:none;">
<circle cx="145.0500" cy="84.6000" r="0.3000" /> 
</g>
<g style="fill:#B2803A; fill-opacity:1.0000; stroke:none;">
<circle cx="145.0500" cy="83.4500" r="0.3000" /> 
</g>
<g style="fill:#B2803A; fill-opacity:1.0000; stroke:none;">
<circle cx="146.1500" cy="83.4500" r="0.3000" /> 
</g>
<g style="fill:#B2803A; fill-opacity:1.0000; stroke:none;">
<circle cx="126.6500" cy="80.8000" r="0.3000" /> 
</g>
<g style="fill:#B2803A; fill-opacity:1.0000; stroke:none;">
<circle cx="128.0000" cy="80.8000" r="0.3000" /> 
</g>
<g style="fill:#B2803A; fill-opacity:1.0000; stroke:none;">
<circle cx="145.0500" cy="85.7000" r="0.3000" /> 
</g>
<g style="fill:#B2803A; fill-opacity:1.0000; stroke:none;">
<circle cx="126.6500" cy="81.6500" r="0.3000" /> 
</g>
<g style="fill:#B2803A; fill-opacity:1.0000; stroke:none;">
<circle cx="146.1500" cy="84.6000" r="0.3000" /> 
</g>
<g style="fill:#B2803A; fill-opacity:1.0000; stroke:none;">
<circle cx="146.2000" cy="85.7000" r="0.3000" /> 
</g>
<g style="fill:#B2803A; fill-opacity:1.0000; stroke:none;">
<circle cx="128.0000" cy="82.4500" r="0.3000" /> 
</g>
<g style="fill:#B2803A; fill-opacity:1.0000; stroke:none;">
<circle cx="144.1300" cy="69.0700" r="0.3000" /> 
</g>
<g style="fill:#B2803A; fill-opacity:1.0000; stroke:none;">
<circle cx="163.5900" cy="67.5900" r="0.3000" /> 
</g>
<g style="fill:#B2803A; fill-opacity:1.0000; stroke:none;">
<circle cx="162.3600" cy="68.9500" r="0.3000" /> 
</g>
<g style="fill:#B2803A; fill-opacity:1.0000; stroke:none;">
<circle cx="143.6600" cy="95.4100" r="0.3000" /> 
</g>
<g style="fill:#B2803A; fill-opacity:1.0000; stroke:none;">
<circle cx="144.6200" cy="95.4300" r="0.3000" /> 
</g>
<g style="fill:#B2803A; fill-opacity:1.0000; stroke:none;">
<circle cx="145.3800" cy="69.1000" r="0.3000" /> 
</g>
<g style="fill:#B2803A; fill-opacity:1.0000; stroke:none;">
<circle cx="172.9600" cy="108.0800" r="0.3000" /> 
</g>
<g style="fill:#B2803A; fill-opacity:1.0000; stroke:none;">
<circle cx="144.1400" cy="67.6800" r="0.3000" /> 
</g>
<g style="fill:#B2803A; fill-opacity:1.0000; stroke:none;">
<circle cx="162.3700" cy="67.5600" r="0.3000" /> 
</g>
<g style="fill:#B2803A; fill-opacity:1.0000; stroke:none;">
<circle cx="143.6600" cy="95.4100" r="0.3000" /> 
</g>
<g style="fill:#B2803A; fill-opacity:1.0000; stroke:none;">
<circle cx="163.6100" cy="68.9800" r="0.3000" /> 
</g>
<g style="fill:#B2803A; fill-opacity:1.0000; stroke:none;">
<circle cx="173.2700" cy="123.2200" r="0.3000" /> 
</g>
<g style="fill:#B2803A; fill-opacity:1.0000; stroke:none;">
<circle cx="145.3600" cy="67.7100" r="0.3000" /> 
</g>
<g style="fill:#B2803A; fill-opacity:1.0000; stroke:none;">
<circle cx="145.3600" cy="67.7100" r="0.3000" /> 
</g>
<g style="fill:#B2803A; fill-opacity:1.0000; stroke:none;">
<circle cx="172.9800" cy="109.4700" r="0.3000" /> 
</g>
<g style="fill:#B2803A; fill-opacity:1.0000; stroke:none;">
<circle cx="171.7400" cy="108.0500" r="0.3000" /> 
</g>
<g style="fill:#B2803A; fill-opacity:1.0000; stroke:none;">
<circle cx="144.5300" cy="94.0800" r="0.3000" /> 
</g>
<g style="fill:#B2803A; fill-opacity:1.0000; stroke:none;">
<circle cx="144.1300" cy="69.0700" r="0.3000" /> 
</g>
<g style="fill:#B2803A; fill-opacity:1.0000; stroke:none;">
<circle cx="173.2700" cy="121.7200" r="0.3000" /> 
</g>
<g style="fill:#B2803A; fill-opacity:1.0000; stroke:none;">
<circle cx="144.6200" cy="95.4300" r="0.3000" /> 
</g>
<g style="fill:#B2803A; fill-opacity:1.0000; stroke:none;">
<circle cx="162.3600" cy="68.9500" r="0.3000" /> 
</g>
<g style="fill:#B2803A; fill-opacity:1.0000; stroke:none;">
<circle cx="162.3700" cy="67.5600" r="0.3000" /> 
</g>
<g style="fill:#B2803A; fill-opacity:1.0000; stroke:none;">
<circle cx="172.9800" cy="109.4700" r="0.3000" /> 
</g>
<g style="fill:#B2803A; fill-opacity:1.0000; stroke:none;">
<circle cx="171.7300" cy="109.4400" r="0.3000" /> 
</g>
<g style="fill:#B2803A; fill-opacity:1.0000; stroke:none;">
<circle cx="163.6100" cy="68.9800" r="0.3000" /> 
</g>
<g style="fill:#B2803A; fill-opacity:1.0000; stroke:none;">
<circle cx="163.5900" cy="67.5900" r="0.3000" /> 
</g>
<g style="fill:#B2803A; fill-opacity:1.0000; stroke:none;">
<circle cx="145.3800" cy="69.1000" r="0.3000" /> 
</g>
<g style="fill:#B2803A; fill-opacity:1.0000; stroke:none;">
<circle cx="172.9600" cy="108.0800" r="0.3000" /> 
</g>
<g style="fill:#B2803A; fill-opacity:1.0000; stroke:none;">
<circle cx="171.7400" cy="108.0500" r="0.3000" /> 
</g>
<g style="fill:#B2803A; fill-opacity:1.0000; stroke:none;">
<circle cx="173.2700" cy="120.2200" r="0.3000" /> 
</g>
<g style="fill:#B2803A; fill-opacity:1.0000; stroke:none;">
<circle cx="171.7300" cy="109.4400" r="0.3000" /> 
</g>
<g style="fill:#B2803A; fill-opacity:1.0000; stroke:none;">
<circle cx="143.6600" cy="94.1000" r="0.3000" /> 
</g>
<g style="fill:#B2803A; fill-opacity:1.0000; stroke:none;">
<circle cx="143.6600" cy="94.1000" r="0.3000" /> 
</g>
<g style="fill:#B2803A; fill-opacity:1.0000; stroke:none;">
<circle cx="144.1400" cy="67.6800" r="0.3000" /> 
</g>
<g style="fill:#B2803A; fill-opacity:1.0000; stroke:none;">
<circle cx="144.5300" cy="94.0800" r="0.3000" /> 
</g>
<g style="fill:#B2803A; fill-opacity:1.0000; stroke:none;">
<circle cx="162.3500" cy="86.8000" r="0.3000" /> 
</g>
<g style="fill:#B2803A; fill-opacity:1.0000; stroke:none;">
<circle cx="166.6100" cy="78.8200" r="0.3000" /> 
</g>
<g style="fill:#B2803A; fill-opacity:1.0000; stroke:none;">
<circle cx="162.3500" cy="84.6500" r="0.3000" /> 
</g>
<g style="fill:#B2803A; fill-opacity:1.0000; stroke:none;">
<circle cx="154.0500" cy="86.6500" r="0.3000" /> 
</g>
<g style="fill:#B2803A; fill-opacity:1.0000; stroke:none;">
<circle cx="152.9500" cy="86.6500" r="0.3000" /> 
</g>
<g style="fill:#B2803A; fill-opacity:1.0000; stroke:none;">
<circle cx="152.9500" cy="85.5000" r="0.3000" /> 
</g>
<g style="fill:#B2803A; fill-opacity:1.0000; stroke:none;">
<circle cx="152.9500" cy="84.4000" r="0.3000" /> 
</g>
<g style="fill:#B2803A; fill-opacity:1.0000; stroke:none;">
<circle cx="162.3500" cy="85.8500" r="0.3000" /> 
</g>
<g style="fill:#B2803A; fill-opacity:1.0000; stroke:none;">
<circle cx="165.8800" cy="78.8100" r="0.3000" /> 
</g>
<g style="fill:#B2803A; fill-opacity:1.0000; stroke:none;">
<circle cx="163.3500" cy="86.8000" r="0.3000" /> 
</g>
<g style="fill:#B2803A; fill-opacity:1.0000; stroke:none;">
<circle cx="130.3000" cy="84.9500" r="0.3000" /> 
</g>
<g style="fill:#B2803A; fill-opacity:1.0000; stroke:none;">
<circle cx="130.3000" cy="83.8500" r="0.3000" /> 
</g>
<g style="fill:#B2803A; fill-opacity:1.0000; stroke:none;">
<circle cx="131.2000" cy="83.8500" r="0.3000" /> 
</g>
<g style="fill:#B2803A; fill-opacity:1.0000; stroke:none;">
<circle cx="139.1000" cy="84.0000" r="0.3000" /> 
</g>
<g style="fill:#B2803A; fill-opacity:1.0000; stroke:none;">
<circle cx="148.5000" cy="78.3000" r="0.3000" /> 
</g>
<g style="fill:#B2803A; fill-opacity:1.0000; stroke:none;">
<circle cx="139.9000" cy="84.0500" r="0.3000" /> 
</g>
<g style="fill:#B2803A; fill-opacity:1.0000; stroke:none;">
<circle cx="148.5000" cy="77.6000" r="0.3000" /> 
</g>
<g style="fill:#B2803A; fill-opacity:1.0000; stroke:none;">
<circle cx="139.9000" cy="83.1500" r="0.3000" /> 
</g>
<g style="fill:#B2803A; fill-opacity:1.0000; stroke:none;">
<circle cx="131.2500" cy="84.9500" r="0.3000" /> 
</g>
<g style="fill:#B2803A; fill-opacity:1.0000; stroke:none;">
<circle cx="147.7000" cy="78.3000" r="0.3000" /> 
</g>
<g style="fill:#B2803A; fill-opacity:1.0000; stroke:none;">
<circle cx="139.1000" cy="83.1500" r="0.3000" /> 
</g>
<g style="fill:#B2803A; fill-opacity:1.0000; stroke:none;">
<circle cx="168.2100" cy="85.7100" r="0.3000" /> 
</g>
<g style="fill:#B2803A; fill-opacity:1.0000; stroke:none;">
<circle cx="152.5200" cy="82.5900" r="0.3000" /> 
</g>
<g style="fill:#B2803A; fill-opacity:1.0000; stroke:none;">
<circle cx="151.6500" cy="82.5600" r="0.3000" /> 
</g>
<g style="fill:#B2803A; fill-opacity:1.0000; stroke:none;">
<circle cx="166.5800" cy="84.6100" r="0.3000" /> 
</g>
<g style="fill:#B2803A; fill-opacity:1.0000; stroke:none;">
<circle cx="153.3500" cy="81.4600" r="0.3000" /> 
</g>
<g style="fill:#B2803A; fill-opacity:1.0000; stroke:none;">
<circle cx="153.3400" cy="82.5600" r="0.3000" /> 
</g>
<g style="fill:#B2803A; fill-opacity:1.0000; stroke:none;">
<circle cx="151.7100" cy="81.4600" r="0.3000" /> 
</g>
<g style="fill:#B2803A; fill-opacity:1.0000; stroke:none;">
<circle cx="167.4100" cy="84.6000" r="0.3000" /> 
</g>
<g style="fill:#B2803A; fill-opacity:1.0000; stroke:none;">
<circle cx="167.3900" cy="85.7400" r="0.3000" /> 
</g>
<g style="fill:#B2803A; fill-opacity:1.0000; stroke:none;">
<circle cx="168.2200" cy="84.6100" r="0.3000" /> 
</g>
<g style="fill:#B2803A; fill-opacity:1.0000; stroke:none;">
<circle cx="166.5200" cy="85.7100" r="0.3000" /> 
</g>
<g style="fill:#B2803A; fill-opacity:1.0000; stroke:none;">
<circle cx="152.5400" cy="81.4500" r="0.3000" /> 
</g>
<g style="fill:#B2803A; fill-opacity:1.0000; stroke:none;">
<circle cx="114.2000" cy="95.5095" r="0.3000" /> 
</g>
<g style="fill:#B2803A; fill-opacity:1.0000; stroke:none;">
<circle cx="114.2000" cy="97.0000" r="0.3000" /> 
</g>
<g style="fill:none; 
stroke:#B2803A; stroke-width:0.2540; stroke-opacity:1; 
stroke-linecap:round; stroke-linejoin:round;">
<path d="M114.2000 97.0000
L114.2000 95.5095
" />
<path style="fill:#B2803A; fill-opacity:1.0000; stroke:none;fill-rule:evenodd;"
d="M 156.3030,79.5597
156.3488,79.6125
156.3600,79.6640
156.3600,83.4272
156.3403,83.4942
156.2875,83.5400
156.2365,83.5512
151.9000,83.5700
151.8979,83.9700
151.8929,84.0043
151.8733,84.0711
151.8733,84.0711
151.8677,84.1101
151.8650,84.1290
151.8650,87.3760
151.8697,87.4197
151.8697,87.4197
151.8772,87.4542
151.8800,87.4806
151.8800,87.7700
164.0800,87.7700
164.0700,85.9504
164.0700,85.9497
164.0700,84.1290
164.0897,84.0620
164.1425,84.0162
164.1940,84.0050
165.3460,84.0050
165.3500,84.0028
165.3764,84.0000
169.0460,84.0000
169.1130,84.0197
169.1588,84.0725
169.1700,84.1240
169.1700,91.3850
169.1503,91.4521
169.0975,91.4978
169.0458,91.5090
165.3757,91.5037
165.3087,91.4840
165.2630,91.4311
165.2532,91.3619
165.2823,91.2984
165.3196,91.2693
165.3861,91.2354
165.5358,91.1266
165.6666,90.9958
165.7754,90.8461
165.8594,90.6812
165.9166,90.5053
165.9455,90.3225
165.9455,90.1375
165.9166,89.9547
165.8594,89.7788
165.8594,89.7788
165.7754,89.6139
165.7639,89.5981
165.6666,89.4642
165.5358,89.3334
165.3861,89.2246
165.2212,89.1406
165.2212,89.1406
165.0453,89.0834
164.9539,89.0690
164.8625,89.0545
164.6775,89.0545
164.6166,89.0641
164.4947,89.0834
164.3188,89.1406
164.3188,89.1406
164.1539,89.2246
164.1052,89.2600
164.0042,89.3334
164.0042,89.3334
164.0042,89.3334
163.8734,89.4642
163.8734,89.4642
163.8734,89.4642
163.8546,89.4901
163.7646,89.6139
163.6806,89.7788
163.6806,89.7788
163.6234,89.9547
163.5945,90.1375
163.5945,90.3225
163.6234,90.5053
163.6806,90.6812
163.6806,90.6812
163.7646,90.8461
163.8734,90.9958
164.0042,91.1266
164.1539,91.2354
164.2170,91.2675
164.2678,91.3155
164.2845,91.3833
164.2620,91.4494
164.2073,91.4929
164.1605,91.5020
148.5047,91.4794
148.4377,91.4596
148.3920,91.4067
148.3809,91.3558
148.3404,79.6644
148.3599,79.5973
148.4125,79.5514
148.4644,79.5400
156.2360,79.5400
Z" /> 
<path style="fill:#B2803A; fill-opacity:1.0000; stroke:none;fill-rule:evenodd;"
d="M 167.0014,77.9697
167.0472,78.0225
167.0584,78.0737
167.0697,83.0953
167.0502,83.1624
166.9975,83.2083
166.9453,83.2196
163.8200,83.2100
163.8200,83.2100
163.8204,84.0556
163.8205,84.0565
163.8205,87.3808
163.8008,87.4479
163.7480,87.4936
163.6964,87.5048
152.1944,87.5001
152.1274,87.4803
152.0817,87.4275
152.0705,87.3761
152.0705,84.1290
152.0902,84.0620
152.1430,84.0162
152.1945,84.0050
160.9300,84.0050
160.9300,80.3837
160.9497,80.3167
161.0025,80.2709
161.0537,80.2597
165.4700,80.2500
165.4850,78.0731
165.5052,78.0062
165.5583,77.9609
165.6090,77.9500
166.9344,77.9500
Z" /> 
<path style="fill:#B2803A; fill-opacity:1.0000; stroke:none;fill-rule:evenodd;"
d="M 129.1430,80.1197
129.1888,80.1725
129.2000,80.2240
129.2000,85.9500
143.5000,85.9500
143.5000,82.6240
143.5197,82.5570
143.5725,82.5112
143.6240,82.5000
147.3760,82.5000
147.4430,82.5197
147.4888,82.5725
147.5000,82.6240
147.5000,90.2260
147.4803,90.2930
147.4275,90.3388
147.3760,90.3500
123.6740,90.3500
123.6070,90.3303
123.5612,90.2775
123.5500,90.2260
123.5500,80.2240
123.5697,80.1570
123.6225,80.1112
123.6740,80.1000
129.0760,80.1000
Z" /> 
<path style="fill:#B2803A; fill-opacity:1.0000; stroke:none;fill-rule:evenodd;"
d="M 169.3219,58.5202
169.3392,58.5336
196.5004,83.7427
196.5974,83.8327
196.6331,83.8928
196.6370,83.9236
196.6370,120.4013
196.6173,120.4683
196.6028,120.4868
192.4595,124.8338
192.3990,124.8687
192.3698,124.8722
123.8380,124.9376
123.7710,124.9179
123.7252,124.8652
123.7139,124.8142
123.6767,117.6258
189.7870,117.6258
189.7870,117.8384
189.8203,118.0483
189.8860,118.2505
189.9825,118.4399
190.1074,118.6119
190.2577,118.7622
190.4297,118.8871
190.4297,118.8871
190.4297,118.8871
190.6191,118.9836
190.8213,119.0493
191.0312,119.0826
191.0312,119.0826
191.2438,119.0826
191.2438,119.0826
191.4538,119.0493
191.6559,118.9836
191.8453,118.8871
191.8673,118.8712
192.0173,118.7622
192.0173,118.7622
192.0173,118.7622
192.1676,118.6119
192.1676,118.6119
192.1676,118.6119
192.2926,118.4399
192.2926,118.4399
192.2926,118.4399
192.3891,118.2505
192.4548,118.0483
192.4880,117.8384
192.4880,117.6258
192.4548,117.4158
192.3891,117.2137
192.2926,117.0243
192.2926,117.0242
192.2926,117.0242
192.1676,116.8523
192.0173,116.7020
191.8453,116.5770
191.6559,116.4805
191.6559,116.4805
191.6559,116.4805
191.4538,116.4148
191.4538,116.4148
191.4538,116.4148
191.2925,116.3893
191.2438,116.3816
191.0312,116.3816
190.9826,116.3893
190.8213,116.4148
190.6191,116.4805
190.4297,116.5770
190.2577,116.7020
190.1074,116.8523
189.9825,117.0242
189.8860,117.2137
189.8203,117.4158
189.7870,117.6258
123.6767,117.6258
123.6657,115.5123
123.6743,115.4825
123.6754,115.4775
163.5945,115.4775
163.5945,115.6625
163.6234,115.8453
163.6806,116.0212
163.6806,116.0212
163.7646,116.1861
163.8734,116.3358
164.0042,116.4666
164.1539,116.5754
164.2348,116.6166
164.3188,116.6594
164.3188,116.6594
164.4067,116.6880
164.4947,116.7166
164.6775,116.7455
164.6775,116.7455
164.8625,116.7455
164.8625,116.7455
165.0453,116.7166
165.2212,116.6594
165.3861,116.5754
165.5358,116.4666
165.6666,116.3358
165.7754,116.1861
165.8594,116.0212
165.9166,115.8453
165.9455,115.6625
165.9455,115.4775
165.9166,115.2947
165.8880,115.2067
165.8594,115.1188
165.8594,115.1188
165.7754,114.9539
165.6666,114.8042
165.5358,114.6734
165.3861,114.5646
165.3667,114.5548
165.2212,114.4806
165.2212,114.4806
165.0453,114.4234
164.9539,114.4090
164.8625,114.3945
164.6775,114.3945
164.6166,114.4041
164.4947,114.4234
164.3188,114.4806
164.3188,114.4806
164.1539,114.5646
164.0685,114.6267
164.0042,114.6734
164.0042,114.6734
164.0042,114.6734
163.8734,114.8042
163.8734,114.8042
163.8734,114.8042
163.8267,114.8685
163.7646,114.9539
163.6806,115.1188
163.6806,115.1188
163.6234,115.2947
163.5945,115.4775
123.6754,115.4775
123.6809,115.4522
123.6844,115.4476
123.6851,115.4451
123.7020,115.4239
123.7411,115.3849
123.8264,115.2996
123.8264,115.2996
123.8264,115.2996
123.8791,115.2270
123.9467,115.1340
124.0396,114.9516
124.1029,114.7569
124.1349,114.5548
124.1349,114.3500
124.1029,114.1479
124.0396,113.9532
124.0396,113.9532
124.0396,113.9532
124.0059,113.8870
123.9467,113.7708
123.9390,113.7601
123.8264,113.6052
123.6910,113.4698
123.6575,113.4085
123.6547,113.3828
123.6526,112.9854
123.6720,112.9182
123.6889,112.8970
123.8264,112.7596
123.8264,112.7596
123.8264,112.7596
123.8791,112.6870
123.9467,112.5940
124.0396,112.4116
124.1029,112.2169
124.1349,112.0148
124.1349,111.8100
124.1029,111.6079
124.0396,111.4132
124.0396,111.4132
124.0396,111.4132
124.0059,111.3470
123.9467,111.2308
123.9342,111.2136
123.8495,111.0970
123.8495,111.0970
123.8264,111.0652
123.7914,111.0302
186.7995,111.0302
186.7995,111.9698
186.8111,112.0282
186.8111,112.0282
186.8554,112.0946
186.9218,112.1389
186.9218,112.1389
186.9802,112.1505
186.9802,112.1505
186.9803,112.1505
189.0197,112.1505
189.0198,112.1505
189.0346,112.1476
189.0782,112.1389
189.0782,112.1389
189.0782,112.1389
189.1446,112.0946
189.1889,112.0282
189.1889,112.0282
189.1889,112.0282
189.2005,111.9698
189.2005,111.9697
189.2005,111.0302
189.2005,111.0302
189.1889,110.9718
189.1889,110.9718
189.1446,110.9054
189.0782,110.8611
189.0782,110.8611
189.0198,110.8495
189.0197,110.8495
186.9803,110.8495
186.9802,110.8495
186.9218,110.8611
186.9218,110.8611
186.8554,110.9054
186.8111,110.9718
186.8111,110.9718
186.7995,111.0302
123.7914,111.0302
123.6782,110.9170
123.6797,110.9154
123.6658,110.8939
123.6467,110.8647
123.6467,110.8646
123.6467,110.8645
123.6415,110.8296
123.6413,110.7956
123.6606,110.7284
123.7132,110.6824
123.7537,110.6715
123.7691,110.6700
123.8973,110.6252
124.0065,110.5446
124.0872,110.4353
124.1096,110.3712
124.1320,110.3071
124.1320,110.3071
124.1349,110.2767
124.1349,108.4681
124.1320,108.4377
124.0872,108.3095
124.0065,108.2002
123.9325,108.1456
123.8973,108.1196
123.8973,108.1196
123.7691,108.0748
123.7390,108.0719
123.6741,108.0461
123.6334,107.9892
123.6265,107.9491
123.5954,101.9365
124.4495,101.9365
124.4495,102.1435
124.4899,102.3464
124.4899,102.3464
124.5691,102.5376
124.6840,102.7097
124.8303,102.8560
124.8303,102.8560
125.0024,102.9709
125.1936,103.0501
125.3965,103.0905
125.3965,103.0905
125.3965,103.0905
125.6035,103.0905
125.6035,103.0905
125.8064,103.0501
125.9976,102.9709
126.1697,102.8560
126.3160,102.7097
126.4309,102.5376
126.5101,102.3464
126.5505,102.1435
126.5505,101.9365
126.5101,101.7336
126.4309,101.5424
126.3160,101.3703
126.3160,101.3703
126.1697,101.2240
126.0836,101.1665
125.9976,101.1091
125.8064,101.0299
125.8064,101.0299
125.6035,100.9895
125.6035,100.9895
125.3965,100.9895
125.3965,100.9895
125.1936,101.0299
125.1936,101.0299
125.0024,101.1091
124.8303,101.2240
124.6840,101.3703
124.5691,101.5424
124.4899,101.7336
124.4899,101.7336
124.4495,101.9365
123.5954,101.9365
123.5822,99.3965
124.4495,99.3965
124.4495,99.6035
124.4899,99.8064
124.4899,99.8064
124.5691,99.9976
124.6840,100.1697
124.8303,100.3160
124.8303,100.3160
125.0024,100.4309
125.1936,100.5101
125.3965,100.5505
125.3965,100.5505
125.3965,100.5505
125.6035,100.5505
125.6035,100.5505
125.8064,100.5101
125.9976,100.4309
126.1697,100.3160
126.2681,100.2175
163.5945,100.2175
163.5945,100.4025
163.6090,100.4939
163.6234,100.5853
163.6806,100.7612
163.6806,100.7612
163.7646,100.9261
163.7646,100.9261
163.8734,101.0758
164.0042,101.2066
164.1539,101.3154
164.2348,101.3566
164.3188,101.3994
164.3188,101.3994
164.4067,101.4280
164.4947,101.4566
164.6775,101.4855
164.6775,101.4855
164.8625,101.4855
164.8625,101.4855
165.0453,101.4566
165.2212,101.3994
165.3861,101.3154
165.5358,101.2066
165.6666,101.0758
165.7754,100.9261
165.8594,100.7612
165.9166,100.5853
165.9455,100.4025
165.9455,100.2175
171.0945,100.2175
171.0945,100.4025
171.1090,100.4939
171.1234,100.5853
171.1806,100.7612
171.1806,100.7612
171.2646,100.9261
171.2646,100.9261
171.3734,101.0758
171.5042,101.2066
171.6539,101.3154
171.7348,101.3566
171.8188,101.3994
171.8188,101.3994
171.9067,101.4280
171.9947,101.4566
172.1775,101.4855
172.1775,101.4855
172.3625,101.4855
172.3625,101.4855
172.5453,101.4566
172.7212,101.3994
172.8861,101.3154
173.0358,101.2066
173.1666,101.0758
173.2199,101.0025
179.7495,101.0025
179.7495,101.2975
179.7629,101.3994
179.7880,101.5900
179.8265,101.7336
179.8644,101.8750
179.8644,101.8750
179.9773,102.1475
179.9773,102.1475
180.1248,102.4030
180.3044,102.6370
180.3044,102.6370
180.5130,102.8456
180.5130,102.8456
180.7470,103.0252
181.0025,103.1727
181.0025,103.1727
181.0025,103.1727
181.2750,103.2856
181.5600,103.3620
181.8525,103.4005
181.8525,103.4005
182.1475,103.4005
182.1475,103.4005
182.4400,103.3620
182.7250,103.2856
182.9975,103.1727
183.2530,103.0252
183.4870,102.8456
183.6956,102.6370
183.8752,102.4030
184.0227,102.1475
184.1356,101.8750
184.2120,101.5900
184.2505,101.2975
184.2505,101.0025
184.2120,100.7100
184.1356,100.4250
184.0227,100.1525
184.0177,100.1437
183.8752,99.8970
183.6956,99.6630
183.6956,99.6630
183.4870,99.4544
183.4870,99.4544
183.2530,99.2748
182.9975,99.1273
182.9975,99.1273
182.7250,99.0144
182.7250,99.0144
182.7250,99.0144
182.4400,98.9380
182.3911,98.9316
182.1475,98.8995
182.1475,98.8995
181.8525,98.8995
181.8525,98.8995
181.5741,98.9362
181.5600,98.9380
181.3197,99.0024
181.2750,99.0144
181.2750,99.0144
181.0025,99.1273
181.0025,99.1273
180.7470,99.2748
180.5130,99.4544
180.5130,99.4544
180.3044,99.6630
180.3044,99.6630
180.1248,99.8970
179.9773,100.1525
179.9773,100.1525
179.8644,100.4250
179.8644,100.4250
179.8307,100.5505
179.7880,100.7100
179.7880,100.7100
179.7495,101.0025
173.2199,101.0025
173.2754,100.9261
173.3594,100.7612
173.4166,100.5853
173.4455,100.4025
173.4455,100.2175
173.4166,100.0347
173.3594,99.8588
173.3594,99.8588
173.2754,99.6939
173.2529,99.6630
173.1666,99.5442
173.0358,99.4134
172.8861,99.3046
172.8275,99.2748
172.7212,99.2206
172.7212,99.2206
172.5453,99.1634
172.4539,99.1490
172.3625,99.1345
172.1775,99.1345
172.1166,99.1441
171.9947,99.1634
171.8188,99.2206
171.8188,99.2206
171.6539,99.3046
171.5685,99.3667
171.5042,99.4134
171.5042,99.4134
171.5042,99.4134
171.3734,99.5442
171.3734,99.5442
171.3734,99.5442
171.3303,99.6035
171.2646,99.6939
171.1806,99.8588
171.1806,99.8588
171.1234,100.0347
171.1048,100.1525
171.0945,100.2175
165.9455,100.2175
165.9166,100.0347
165.8594,99.8588
165.8594,99.8588
165.7754,99.6939
165.7529,99.6630
165.6666,99.5442
165.5358,99.4134
165.3861,99.3046
165.3275,99.2748
165.2212,99.2206
165.2212,99.2206
165.0453,99.1634
164.9539,99.1490
164.8625,99.1345
164.6775,99.1345
164.6166,99.1441
164.4947,99.1634
164.3188,99.2206
164.3188,99.2206
164.1539,99.3046
164.0685,99.3667
164.0042,99.4134
164.0042,99.4134
164.0042,99.4134
163.8734,99.5442
163.8734,99.5442
163.8734,99.5442
163.8303,99.6035
163.7646,99.6939
163.6806,99.8588
163.6806,99.8588
163.6234,100.0347
163.6048,100.1525
163.5945,100.2175
126.2681,100.2175
126.3160,100.1697
126.4309,99.9976
126.5101,99.8064
126.5505,99.6035
126.5505,99.3965
126.5101,99.1936
126.4309,99.0024
126.3160,98.8303
126.3160,98.8303
126.1697,98.6840
126.0358,98.5946
125.9976,98.5691
125.8064,98.4899
125.8064,98.4899
125.6035,98.4495
125.6035,98.4495
125.3965,98.4495
125.3965,98.4495
125.1936,98.4899
125.1936,98.4899
125.0024,98.5691
124.8303,98.6840
124.6840,98.8303
124.5691,99.0024
124.4899,99.1936
124.4899,99.1936
124.4495,99.3965
123.5822,99.3965
123.5726,97.5302
186.7995,97.5302
186.7995,98.4698
186.8111,98.5282
186.8111,98.5282
186.8554,98.5946
186.9218,98.6389
186.9218,98.6389
186.9802,98.6505
186.9802,98.6505
186.9803,98.6505
189.0197,98.6505
189.0198,98.6505
189.0346,98.6476
189.0782,98.6389
189.0782,98.6389
189.0782,98.6389
189.1446,98.5946
189.1889,98.5282
189.1889,98.5282
189.1889,98.5282
189.2005,98.4698
189.2005,98.4697
189.2005,97.5302
189.2005,97.5302
189.1889,97.4718
189.1889,97.4718
189.1446,97.4054
189.0782,97.3611
189.0782,97.3611
189.0198,97.3495
189.0197,97.3495
186.9803,97.3495
186.9802,97.3495
186.9218,97.3611
186.9218,97.3611
186.8554,97.4054
186.8111,97.4718
186.8111,97.4718
186.7995,97.5302
123.5726,97.5302
123.5604,95.1775
163.5945,95.1775
163.5945,95.3625
163.6234,95.5453
163.6806,95.7212
163.6806,95.7212
163.7646,95.8861
163.8734,96.0358
164.0042,96.1666
164.1539,96.2754
164.2348,96.3166
164.3188,96.3594
164.3188,96.3594
164.4067,96.3880
164.4947,96.4166
164.6775,96.4455
164.6775,96.4455
164.8625,96.4455
164.8625,96.4455
165.0453,96.4166
165.2212,96.3594
165.3861,96.2754
165.5358,96.1666
165.6666,96.0358
165.7754,95.8861
165.8594,95.7212
165.9166,95.5453
165.9455,95.3625
165.9455,95.1775
171.0945,95.1775
171.0945,95.3625
171.1234,95.5453
171.1806,95.7212
171.1806,95.7212
171.2646,95.8861
171.3734,96.0358
171.5042,96.1666
171.6539,96.2754
171.7348,96.3166
171.8188,96.3594
171.8188,96.3594
171.9067,96.3880
171.9947,96.4166
172.1775,96.4455
172.1775,96.4455
172.3625,96.4455
172.3625,96.4455
172.5453,96.4166
172.7212,96.3594
172.8861,96.2754
173.0358,96.1666
173.1666,96.0358
173.2754,95.8861
173.3594,95.7212
173.4166,95.5453
173.4455,95.3625
173.4455,95.1775
173.4166,94.9947
173.3594,94.8188
173.3594,94.8188
173.2754,94.6539
173.1666,94.5042
173.0358,94.3734
172.8861,94.2646
172.7212,94.1806
172.7212,94.1806
172.5453,94.1234
172.4539,94.1090
172.3625,94.0945
172.1775,94.0945
172.1166,94.1041
171.9947,94.1234
171.8188,94.1806
171.8188,94.1806
171.6539,94.2646
171.5685,94.3267
171.5042,94.3734
171.5042,94.3734
171.5042,94.3734
171.3734,94.5042
171.3734,94.5042
171.3734,94.5042
171.3267,94.5685
171.2646,94.6539
171.1806,94.8188
171.1806,94.8188
171.1234,94.9947
171.0945,95.1775
165.9455,95.1775
165.9166,94.9947
165.8594,94.8188
165.8594,94.8188
165.7754,94.6539
165.6666,94.5042
165.5358,94.3734
165.3861,94.2646
165.2212,94.1806
165.2212,94.1806
165.0453,94.1234
164.9539,94.1090
164.8625,94.0945
164.6775,94.0945
164.6166,94.1041
164.4947,94.1234
164.3188,94.1806
164.3188,94.1806
164.1539,94.2646
164.0685,94.3267
164.0042,94.3734
164.0042,94.3734
164.0042,94.3734
163.8734,94.5042
163.8734,94.5042
163.8734,94.5042
163.8267,94.5685
163.7646,94.6539
163.6806,94.8188
163.6806,94.8188
163.6234,94.9947
163.5945,95.1775
123.5604,95.1775
123.5506,93.2950
123.5700,93.2279
123.6225,93.1819
123.6750,93.1704
169.1199,93.3079
169.8300,93.3100
169.8300,93.3100
169.8300,93.3100
169.8238,90.1375
171.0945,90.1375
171.0945,90.3225
171.1234,90.5053
171.1806,90.6812
171.1806,90.6812
171.2646,90.8461
171.3734,90.9958
171.5042,91.1266
171.6539,91.2354
171.7348,91.2766
171.8188,91.3194
171.8188,91.3194
171.9067,91.3480
171.9947,91.3766
172.1775,91.4055
172.1775,91.4055
172.3625,91.4055
172.3625,91.4055
172.5453,91.3766
172.7212,91.3194
172.8861,91.2354
173.0358,91.1266
173.1666,90.9958
173.2754,90.8461
173.3594,90.6812
173.4166,90.5053
173.4455,90.3225
173.4455,90.1375
173.4166,89.9547
173.3594,89.7788
173.3594,89.7788
173.2754,89.6139
173.1666,89.4642
173.0358,89.3334
172.8861,89.2246
172.7212,89.1406
172.7212,89.1406
172.5453,89.0834
172.4539,89.0690
172.3625,89.0545
172.1775,89.0545
172.1166,89.0641
171.9947,89.0834
171.8188,89.1406
171.8188,89.1406
171.6539,89.2246
171.5685,89.2867
171.5042,89.3334
171.5042,89.3334
171.5042,89.3334
171.3734,89.4642
171.3734,89.4642
171.3734,89.4642
171.3267,89.5285
171.2646,89.6139
171.1806,89.7788
171.1806,89.7788
171.1234,89.9547
171.0945,90.1375
169.8238,90.1375
169.8189,87.6258
189.7870,87.6258
189.7870,87.8384
189.8203,88.0483
189.8860,88.2505
189.9825,88.4399
190.1074,88.6119
190.2577,88.7622
190.4297,88.8871
190.4297,88.8871
190.4297,88.8871
190.6191,88.9836
190.8213,89.0493
191.0312,89.0826
191.0312,89.0826
191.2438,89.0826
191.2438,89.0826
191.4538,89.0493
191.6559,88.9836
191.8453,88.8871
191.8673,88.8712
192.0173,88.7622
192.0173,88.7622
192.0173,88.7622
192.1676,88.6119
192.1676,88.6119
192.1676,88.6119
192.2926,88.4399
192.2926,88.4399
192.2926,88.4399
192.3891,88.2505
192.4548,88.0483
192.4880,87.8384
192.4880,87.6258
192.4548,87.4158
192.3891,87.2137
192.2926,87.0243
192.2926,87.0242
192.2926,87.0242
192.1676,86.8523
192.0173,86.7020
191.8453,86.5770
191.6559,86.4805
191.6559,86.4805
191.6559,86.4805
191.4538,86.4148
191.4538,86.4148
191.4538,86.4148
191.2925,86.3893
191.2438,86.3816
191.0312,86.3816
190.9826,86.3893
190.8213,86.4148
190.6191,86.4805
190.4297,86.5770
190.2577,86.7020
190.1074,86.8523
189.9825,87.0242
189.8860,87.2137
189.8203,87.4158
189.7870,87.6258
169.8189,87.6258
169.8100,83.1000
169.8100,83.1000
167.5240,83.1000
167.4570,83.0803
167.4112,83.0275
167.4000,82.9760
167.4000,77.4700
164.1801,77.4600
164.1800,77.4600
149.6540,77.4600
149.5870,77.4403
149.5412,77.3875
149.5300,77.3360
149.5300,76.6805
133.0645,76.6607
132.9975,76.6409
132.9518,76.5880
132.9407,76.5365
132.9449,73.8525
134.8995,73.8525
134.8995,74.1475
134.9316,74.3911
134.9380,74.4400
134.9380,74.4400
135.0144,74.7250
135.0144,74.7250
135.1273,74.9975
135.1273,74.9975
135.2748,75.2530
135.4544,75.4870
135.4544,75.4870
135.6630,75.6956
135.6630,75.6956
135.8970,75.8752
136.1525,76.0227
136.1525,76.0227
136.1525,76.0227
136.4250,76.1356
136.7100,76.2120
137.0025,76.2505
137.0025,76.2505
137.2975,76.2505
137.2975,76.2505
137.5900,76.2120
137.8750,76.1356
138.1475,76.0227
138.4030,75.8752
138.6370,75.6956
138.8456,75.4870
139.0252,75.2530
139.1727,74.9975
139.2856,74.7250
139.3620,74.4400
139.4005,74.1475
139.4005,73.8525
139.4005,73.8525
153.0495,73.8525
153.0495,74.1475
153.0816,74.3911
153.0880,74.4400
153.0880,74.4400
153.1644,74.7250
153.1644,74.7250
153.2773,74.9975
153.2773,74.9975
153.4248,75.2530
153.6044,75.4870
153.6044,75.4870
153.8130,75.6956
153.8130,75.6956
154.0470,75.8752
154.3025,76.0227
154.3025,76.0227
154.3025,76.0227
154.5750,76.1356
154.8600,76.2120
155.1525,76.2505
155.1525,76.2505
155.4475,76.2505
155.4475,76.2505
155.7400,76.2120
156.0250,76.1356
156.2975,76.0227
156.5530,75.8752
156.7870,75.6956
156.9956,75.4870
157.1752,75.2530
157.3227,74.9975
157.4356,74.7250
157.5120,74.4400
157.5505,74.1475
157.5505,73.8525
157.5120,73.5600
157.4356,73.2750
157.3227,73.0025
157.1752,72.7470
156.9956,72.5130
156.9956,72.5130
156.7870,72.3044
156.7870,72.3044
156.5530,72.1248
156.2975,71.9773
156.2975,71.9773
156.0250,71.8644
156.0250,71.8644
156.0250,71.8644
155.7400,71.7880
155.6911,71.7816
155.4475,71.7495
155.4475,71.7495
155.1525,71.7495
155.1525,71.7495
154.8741,71.7862
154.8600,71.7880
154.5750,71.8644
154.5750,71.8644
154.3025,71.9773
154.3025,71.9773
154.0470,72.1248
153.8130,72.3044
153.8130,72.3044
153.6044,72.5130
153.6044,72.5130
153.4248,72.7470
153.2773,73.0025
153.2773,73.0025
153.1644,73.2750
153.1644,73.2750
153.0880,73.5600
153.0880,73.5600
153.0495,73.8525
139.4005,73.8525
139.3620,73.5600
139.2856,73.2750
139.1727,73.0025
139.0252,72.7470
138.8456,72.5130
138.8456,72.5130
138.6370,72.3044
138.6370,72.3044
138.4030,72.1248
138.1475,71.9773
138.1475,71.9773
137.8750,71.8644
137.8750,71.8644
137.8750,71.8644
137.5900,71.7880
137.5411,71.7816
137.2975,71.7495
137.2975,71.7495
137.0025,71.7495
137.0025,71.7495
136.7241,71.7862
136.7100,71.7880
136.4250,71.8644
136.4250,71.8644
136.1525,71.9773
136.1525,71.9773
135.8970,72.1248
135.6630,72.3044
135.6630,72.3044
135.4544,72.5130
135.4544,72.5130
135.2748,72.7470
135.1273,73.0025
135.1273,73.0025
135.0144,73.2750
135.0144,73.2750
134.9380,73.5600
134.9380,73.5600
134.8995,73.8525
132.9449,73.8525
132.9556,66.9802
133.3495,66.9802
133.3495,69.0198
133.3611,69.0782
133.3611,69.0782
133.4054,69.1446
133.4718,69.1889
133.4718,69.1889
133.5302,69.2005
133.5302,69.2005
133.5303,69.2005
134.4698,69.2005
134.4698,69.2005
134.4846,69.1976
134.5282,69.1889
134.5282,69.1889
134.5282,69.1889
134.5946,69.1446
134.6389,69.0782
134.6389,69.0782
134.6389,69.0782
134.6505,69.0198
134.6505,69.0198
134.6505,66.9802
134.6505,66.9802
146.8495,66.9802
146.8495,69.0198
146.8611,69.0782
146.8611,69.0782
146.9054,69.1446
146.9718,69.1889
146.9718,69.1889
147.0302,69.2005
147.0302,69.2005
147.0303,69.2005
147.9698,69.2005
147.9698,69.2005
147.9846,69.1976
148.0282,69.1889
148.0282,69.1889
148.0282,69.1889
148.0946,69.1446
148.1389,69.0782
148.1389,69.0782
148.1389,69.0782
148.1505,69.0198
148.1505,69.0198
148.1505,66.9802
148.1505,66.9802
151.4995,66.9802
151.4995,69.0198
151.5111,69.0782
151.5111,69.0782
151.5554,69.1446
151.6218,69.1889
151.6218,69.1889
151.6802,69.2005
151.6803,69.2005
151.6803,69.2005
152.6197,69.2005
152.6198,69.2005
152.6346,69.1976
152.6782,69.1889
152.6782,69.1889
152.6782,69.1889
152.7446,69.1446
152.7889,69.0782
152.7889,69.0782
152.7889,69.0782
152.8005,69.0198
152.8005,69.0198
152.8005,66.9802
152.8005,66.9802
164.9995,66.9802
164.9995,69.0198
165.0111,69.0782
165.0111,69.0782
165.0554,69.1446
165.1218,69.1889
165.1218,69.1889
165.1802,69.2005
165.1803,69.2005
165.1803,69.2005
166.1197,69.2005
166.1198,69.2005
166.1346,69.1976
166.1782,69.1889
166.1782,69.1889
166.1782,69.1889
166.2446,69.1446
166.2889,69.0782
166.2889,69.0782
166.2889,69.0782
166.3005,69.0198
166.3005,69.0198
166.3005,66.9802
166.3005,66.9802
166.2889,66.9218
166.2889,66.9218
166.2446,66.8554
166.1782,66.8111
166.1782,66.8111
166.1198,66.7995
166.1197,66.7995
165.1803,66.7995
165.1802,66.7995
165.1218,66.8111
165.1218,66.8111
165.0554,66.8554
165.0111,66.9218
165.0111,66.9218
164.9995,66.9802
152.8005,66.9802
152.7889,66.9218
152.7889,66.9218
152.7446,66.8554
152.6782,66.8111
152.6782,66.8111
152.6198,66.7995
152.6197,66.7995
151.6803,66.7995
151.6802,66.7995
151.6218,66.8111
151.6218,66.8111
151.5554,66.8554
151.5111,66.9218
151.5111,66.9218
151.4995,66.9802
148.1505,66.9802
148.1389,66.9218
148.1389,66.9218
148.0946,66.8554
148.0282,66.8111
148.0282,66.8111
147.9698,66.7995
147.9697,66.7995
147.0303,66.7995
147.0302,66.7995
146.9718,66.8111
146.9718,66.8111
146.9054,66.8554
146.8611,66.9218
146.8611,66.9218
146.8495,66.9802
134.6505,66.9802
134.6389,66.9218
134.6389,66.9218
134.5946,66.8554
134.5282,66.8111
134.5282,66.8111
134.4698,66.7995
134.4697,66.7995
133.5303,66.7995
133.5302,66.7995
133.4718,66.8111
133.4718,66.8111
133.4054,66.8554
133.3611,66.9218
133.3611,66.9218
133.3495,66.9802
132.9556,66.9802
132.9683,58.8045
132.9881,58.7375
133.0029,58.7188
133.1764,58.5385
133.2371,58.5039
133.2657,58.5005
169.2549,58.5005
Z" /> 
<path style="fill:#B2803A; fill-opacity:1.0000; stroke:none;fill-rule:evenodd;"
d="M 148.8430,77.2197
148.8888,77.2725
148.9000,77.3240
148.9000,79.2105
148.8803,79.2775
148.8275,79.3233
148.7760,79.3345
148.4644,79.3345
148.4204,79.3393
148.4204,79.3393
148.3924,79.3454
148.3846,79.3471
148.3581,79.3500
143.0000,79.3500
143.0000,85.5760
142.9803,85.6430
142.9275,85.6888
142.8760,85.7000
129.8240,85.7000
129.7570,85.6803
129.7112,85.6275
129.7000,85.5760
129.7000,80.9240
129.7197,80.8570
129.7725,80.8112
129.8240,80.8000
137.9700,80.8000
137.9700,77.3240
137.9897,77.2570
138.0425,77.2112
138.0940,77.2000
148.7760,77.2000
Z" /> 
</g>
<g style="fill:#000000; fill-opacity:1.0000; stroke:none;">
<circle cx="126.6500" cy="82.4500" r="0.1500" /> 
</g>
<g style="fill:#000000; fill-opacity:1.0000; stroke:none;">
<circle cx="128.0000" cy="81.6500" r="0.1500" /> 
</g>
<g style="fill:#000000; fill-opacity:1.0000; stroke:none;">
<circle cx="145.0500" cy="84.6000" r="0.1500" /> 
</g>
<g style="fill:#000000; fill-opacity:1.0000; stroke:none;">
<circle cx="145.0500" cy="83.4500" r="0.1500" /> 
</g>
<g style="fill:#000000; fill-opacity:1.0000; stroke:none;">
<circle cx="146.1500" cy="83.4500" r="0.1500" /> 
</g>
<g style="fill:#000000; fill-opacity:1.0000; stroke:none;">
<circle cx="126.6500" cy="80.8000" r="0.1500" /> 
</g>
<g style="fill:#000000; fill-opacity:1.0000; stroke:none;">
<circle cx="128.0000" cy="80.8000" r="0.1500" /> 
</g>
<g style="fill:#000000; fill-opacity:1.0000; stroke:none;">
<circle cx="145.0500" cy="85.7000" r="0.1500" /> 
</g>
<g style="fill:#000000; fill-opacity:1.0000; stroke:none;">
<circle cx="126.6500" cy="81.6500" r="0.1500" /> 
</g>
<g style="fill:#000000; fill-opacity:1.0000; stroke:none;">
<circle cx="146.1500" cy="84.6000" r="0.1500" /> 
</g>
<g style="fill:#000000; fill-opacity:1.0000; stroke:none;">
<circle cx="146.2000" cy="85.7000" r="0.1500" /> 
</g>
<g style="fill:#000000; fill-opacity:1.0000; stroke:none;">
<circle cx="128.0000" cy="82.4500" r="0.1500" /> 
</g>
<g style="fill:#000000; fill-opacity:1.0000; stroke:none;">
<circle cx="144.1300" cy="69.0700" r="0.1500" /> 
</g>
<g style="fill:#000000; fill-opacity:1.0000; stroke:none;">
<circle cx="163.5900" cy="67.5900" r="0.1500" /> 
</g>
<g style="fill:#000000; fill-opacity:1.0000; stroke:none;">
<circle cx="162.3600" cy="68.9500" r="0.1500" /> 
</g>
<g style="fill:#000000; fill-opacity:1.0000; stroke:none;">
<circle cx="143.6600" cy="95.4100" r="0.1500" /> 
</g>
<g style="fill:#000000; fill-opacity:1.0000; stroke:none;">
<circle cx="144.6200" cy="95.4300" r="0.1500" /> 
</g>
<g style="fill:#000000; fill-opacity:1.0000; stroke:none;">
<circle cx="145.3800" cy="69.1000" r="0.1500" /> 
</g>
<g style="fill:#000000; fill-opacity:1.0000; stroke:none;">
<circle cx="172.9600" cy="108.0800" r="0.1500" /> 
</g>
<g style="fill:#000000; fill-opacity:1.0000; stroke:none;">
<circle cx="144.1400" cy="67.6800" r="0.1500" /> 
</g>
<g style="fill:#000000; fill-opacity:1.0000; stroke:none;">
<circle cx="162.3700" cy="67.5600" r="0.1500" /> 
</g>
<g style="fill:#000000; fill-opacity:1.0000; stroke:none;">
<circle cx="143.6600" cy="95.4100" r="0.1500" /> 
</g>
<g style="fill:#000000; fill-opacity:1.0000; stroke:none;">
<circle cx="163.6100" cy="68.9800" r="0.1500" /> 
</g>
<g style="fill:#000000; fill-opacity:1.0000; stroke:none;">
<circle cx="173.2700" cy="123.2200" r="0.1500" /> 
</g>
<g style="fill:#000000; fill-opacity:1.0000; stroke:none;">
<circle cx="145.3600" cy="67.7100" r="0.1500" /> 
</g>
<g style="fill:#000000; fill-opacity:1.0000; stroke:none;">
<circle cx="145.3600" cy="67.7100" r="0.1500" /> 
</g>
<g style="fill:#000000; fill-opacity:1.0000; stroke:none;">
<circle cx="172.9800" cy="109.4700" r="0.1500" /> 
</g>
<g style="fill:#000000; fill-opacity:1.0000; stroke:none;">
<circle cx="171.7400" cy="108.0500" r="0.1500" /> 
</g>
<g style="fill:#000000; fill-opacity:1.0000; stroke:none;">
<circle cx="144.5300" cy="94.0800" r="0.1500" /> 
</g>
<g style="fill:#000000; fill-opacity:1.0000; stroke:none;">
<circle cx="144.1300" cy="69.0700" r="0.1500" /> 
</g>
<g style="fill:#000000; fill-opacity:1.0000; stroke:none;">
<circle cx="173.2700" cy="121.7200" r="0.1500" /> 
</g>
<g style="fill:#000000; fill-opacity:1.0000; stroke:none;">
<circle cx="144.6200" cy="95.4300" r="0.1500" /> 
</g>
<g style="fill:#000000; fill-opacity:1.0000; stroke:none;">
<circle cx="162.3600" cy="68.9500" r="0.1500" /> 
</g>
<g style="fill:#000000; fill-opacity:1.0000; stroke:none;">
<circle cx="162.3700" cy="67.5600" r="0.1500" /> 
</g>
<g style="fill:#000000; fill-opacity:1.0000; stroke:none;">
<circle cx="172.9800" cy="109.4700" r="0.1500" /> 
</g>
<g style="fill:#000000; fill-opacity:1.0000; stroke:none;">
<circle cx="171.7300" cy="109.4400" r="0.1500" /> 
</g>
<g style="fill:#000000; fill-opacity:1.0000; stroke:none;">
<circle cx="163.6100" cy="68.9800" r="0.1500" /> 
</g>
<g style="fill:#000000; fill-opacity:1.0000; stroke:none;">
<circle cx="163.5900" cy="67.5900" r="0.1500" /> 
</g>
<g style="fill:#000000; fill-opacity:1.0000; stroke:none;">
<circle cx="145.3800" cy="69.1000" r="0.1500" /> 
</g>
<g style="fill:#000000; fill-opacity:1.0000; stroke:none;">
<circle cx="172.9600" cy="108.0800" r="0.1500" /> 
</g>
<g style="fill:#000000; fill-opacity:1.0000; stroke:none;">
<circle cx="171.7400" cy="108.0500" r="0.1500" /> 
</g>
<g style="fill:#000000; fill-opacity:1.0000; stroke:none;">
<circle cx="173.2700" cy="120.2200" r="0.1500" /> 
</g>
<g style="fill:#000000; fill-opacity:1.0000; stroke:none;">
<circle cx="171.7300" cy="109.4400" r="0.1500" /> 
</g>
<g style="fill:#000000; fill-opacity:1.0000; stroke:none;">
<circle cx="143.6600" cy="94.1000" r="0.1500" /> 
</g>
<g style="fill:#000000; fill-opacity:1.0000; stroke:none;">
<circle cx="143.6600" cy="94.1000" r="0.1500" /> 
</g>
<g style="fill:#000000; fill-opacity:1.0000; stroke:none;">
<circle cx="144.1400" cy="67.6800" r="0.1500" /> 
</g>
<g style="fill:#000000; fill-opacity:1.0000; stroke:none;">
<circle cx="144.5300" cy="94.0800" r="0.1500" /> 
</g>
<g style="fill:#000000; fill-opacity:1.0000; stroke:none;">
<circle cx="162.3500" cy="86.8000" r="0.1500" /> 
</g>
<g style="fill:#000000; fill-opacity:1.0000; stroke:none;">
<circle cx="166.6100" cy="78.8200" r="0.1500" /> 
</g>
<g style="fill:#000000; fill-opacity:1.0000; stroke:none;">
<circle cx="162.3500" cy="84.6500" r="0.1500" /> 
</g>
<g style="fill:#000000; fill-opacity:1.0000; stroke:none;">
<circle cx="154.0500" cy="86.6500" r="0.1500" /> 
</g>
<g style="fill:#000000; fill-opacity:1.0000; stroke:none;">
<circle cx="152.9500" cy="86.6500" r="0.1500" /> 
</g>
<g style="fill:#000000; fill-opacity:1.0000; stroke:none;">
<circle cx="152.9500" cy="85.5000" r="0.1500" /> 
</g>
<g style="fill:#000000; fill-opacity:1.0000; stroke:none;">
<circle cx="152.9500" cy="84.4000" r="0.1500" /> 
</g>
<g style="fill:#000000; fill-opacity:1.0000; stroke:none;">
<circle cx="162.3500" cy="85.8500" r="0.1500" /> 
</g>
<g style="fill:#000000; fill-opacity:1.0000; stroke:none;">
<circle cx="165.8800" cy="78.8100" r="0.1500" /> 
</g>
<g style="fill:#000000; fill-opacity:1.0000; stroke:none;">
<circle cx="163.3500" cy="86.8000" r="0.1500" /> 
</g>
<g style="fill:#000000; fill-opacity:1.0000; stroke:none;">
<circle cx="130.3000" cy="84.9500" r="0.1500" /> 
</g>
<g style="fill:#000000; fill-opacity:1.0000; stroke:none;">
<circle cx="130.3000" cy="83.8500" r="0.1500" /> 
</g>
<g style="fill:#000000; fill-opacity:1.0000; stroke:none;">
<circle cx="131.2000" cy="83.8500" r="0.1500" /> 
</g>
<g style="fill:#000000; fill-opacity:1.0000; stroke:none;">
<circle cx="139.1000" cy="84.0000" r="0.1500" /> 
</g>
<g style="fill:#000000; fill-opacity:1.0000; stroke:none;">
<circle cx="148.5000" cy="78.3000" r="0.1500" /> 
</g>
<g style="fill:#000000; fill-opacity:1.0000; stroke:none;">
<circle cx="139.9000" cy="84.0500" r="0.1500" /> 
</g>
<g style="fill:#000000; fill-opacity:1.0000; stroke:none;">
<circle cx="148.5000" cy="77.6000" r="0.1500" /> 
</g>
<g style="fill:#000000; fill-opacity:1.0000; stroke:none;">
<circle cx="139.9000" cy="83.1500" r="0.1500" /> 
</g>
<g style="fill:#000000; fill-opacity:1.0000; stroke:none;">
<circle cx="131.2500" cy="84.9500" r="0.1500" /> 
</g>
<g style="fill:#000000; fill-opacity:1.0000; stroke:none;">
<circle cx="147.7000" cy="78.3000" r="0.1500" /> 
</g>
<g style="fill:#000000; fill-opacity:1.0000; stroke:none;">
<circle cx="139.1000" cy="83.1500" r="0.1500" /> 
</g>
<g style="fill:#000000; fill-opacity:1.0000; stroke:none;">
<circle cx="168.2100" cy="85.7100" r="0.1500" /> 
</g>
<g style="fill:#000000; fill-opacity:1.0000; stroke:none;">
<circle cx="152.5200" cy="82.5900" r="0.1500" /> 
</g>
<g style="fill:#000000; fill-opacity:1.0000; stroke:none;">
<circle cx="151.6500" cy="82.5600" r="0.1500" /> 
</g>
<g style="fill:#000000; fill-opacity:1.0000; stroke:none;">
<circle cx="166.5800" cy="84.6100" r="0.1500" /> 
</g>
<g style="fill:#000000; fill-opacity:1.0000; stroke:none;">
<circle cx="153.3500" cy="81.4600" r="0.1500" /> 
</g>
<g style="fill:#000000; fill-opacity:1.0000; stroke:none;">
<circle cx="153.3400" cy="82.5600" r="0.1500" /> 
</g>
<g style="fill:#000000; fill-opacity:1.0000; stroke:none;">
<circle cx="151.7100" cy="81.4600" r="0.1500" /> 
</g>
<g style="fill:#000000; fill-opacity:1.0000; stroke:none;">
<circle cx="167.4100" cy="84.6000" r="0.1500" /> 
</g>
<g style="fill:#000000; fill-opacity:1.0000; stroke:none;">
<circle cx="167.3900" cy="85.7400" r="0.1500" /> 
</g>
<g style="fill:#000000; fill-opacity:1.0000; stroke:none;">
<circle cx="168.2200" cy="84.6100" r="0.1500" /> 
</g>
<g style="fill:#000000; fill-opacity:1.0000; stroke:none;">
<circle cx="166.5200" cy="85.7100" r="0.1500" /> 
</g>
<g style="fill:#000000; fill-opacity:1.0000; stroke:none;">
<circle cx="152.5400" cy="81.4500" r="0.1500" /> 
</g>
<g style="fill:#000000; fill-opacity:1.0000; stroke:none;">
<circle cx="114.2000" cy="95.5095" r="0.1500" /> 
</g>
<g style="fill:#000000; fill-opacity:1.0000; stroke:none;">
<circle cx="114.2000" cy="97.0000" r="0.1500" /> 
</g>
<g style="fill:#000000; fill-opacity:1.0000; stroke:none;">
<circle cx="191.1375" cy="117.7321" r="0.1750" /> 
</g>
<g style="fill:#000000; fill-opacity:1.0000; stroke:none;">
<circle cx="113.5000" cy="87.7321" r="0.1750" /> 
</g>
<g style="fill:#000000; fill-opacity:1.0000; stroke:none;">
<circle cx="191.1375" cy="87.7321" r="0.1750" /> 
</g>
<g style="fill:none; 
stroke:#000000; stroke-width:0.6000; stroke-opacity:1; 
stroke-linecap:round; stroke-linejoin:round;">
<path d="M152.1500 67.4500
L152.1500 68.5500
" />
<path d="M165.6500 67.4500
L165.6500 68.5500
" />
</g>
<g style="fill:#000000; fill-opacity:1.0000; stroke:none;">
<circle cx="162.5000" cy="74.0000" r="0.1750" /> 
</g>
<g style="fill:#000000; fill-opacity:1.0000; stroke:none;">
<circle cx="155.3000" cy="74.0000" r="0.1750" /> 
</g>
<g style="fill:none; 
stroke:#000000; stroke-width:0.6000; stroke-opacity:1; 
stroke-linecap:round; stroke-linejoin:round;">
<path d="M134.0000 67.4500
L134.0000 68.5500
" />
<path d="M147.5000 67.4500
L147.5000 68.5500
" />
</g>
<g style="fill:#000000; fill-opacity:1.0000; stroke:none;">
<circle cx="144.3500" cy="74.0000" r="0.1750" /> 
</g>
<g style="fill:#000000; fill-opacity:1.0000; stroke:none;">
<circle cx="137.1500" cy="74.0000" r="0.1750" /> 
</g>
<g style="fill:#000000; fill-opacity:1.0000; stroke:none;">
<circle cx="164.7700" cy="95.2700" r="0.1750" /> 
</g>
<g style="fill:#000000; fill-opacity:1.0000; stroke:none;">
<circle cx="164.7700" cy="100.3100" r="0.1750" /> 
</g>
<g style="fill:#000000; fill-opacity:1.0000; stroke:none;">
<circle cx="164.7700" cy="90.2300" r="0.1750" /> 
</g>
<g style="fill:#000000; fill-opacity:1.0000; stroke:none;">
<circle cx="172.2700" cy="95.2700" r="0.1750" /> 
</g>
<g style="fill:#000000; fill-opacity:1.0000; stroke:none;">
<circle cx="172.2700" cy="100.3100" r="0.1750" /> 
</g>
<g style="fill:#000000; fill-opacity:1.0000; stroke:none;">
<circle cx="172.2700" cy="90.2300" r="0.1750" /> 
</g>
<g style="fill:#000000; fill-opacity:1.0000; stroke:none;">
<circle cx="164.7700" cy="115.5700" r="0.1750" /> 
</g>
<g style="fill:#000000; fill-opacity:1.0000; stroke:none;">
<circle cx="172.2700" cy="115.5700" r="0.1750" /> 
</g>
<g style="fill:#000000; fill-opacity:1.0000; stroke:none;">
<circle cx="113.5000" cy="117.7321" r="0.1750" /> 
</g>
<g style="fill:#000000; fill-opacity:1.0000; stroke:none;">
<circle cx="125.5000" cy="96.9600" r="0.1750" /> 
</g>
<g style="fill:#000000; fill-opacity:1.0000; stroke:none;">
<circle cx="125.5000" cy="99.5000" r="0.1750" /> 
</g>
<g style="fill:#000000; fill-opacity:1.0000; stroke:none;">
<circle cx="125.5000" cy="102.0400" r="0.1750" /> 
</g>
<g style="fill:#000000; fill-opacity:1.0000; stroke:none;">
<circle cx="120.2944" cy="109.3724" r="0.1750" /> 
</g>
<g style="fill:#000000; fill-opacity:1.0000; stroke:none;">
<circle cx="120.2944" cy="111.9124" r="0.1750" /> 
</g>
<g style="fill:#000000; fill-opacity:1.0000; stroke:none;">
<circle cx="120.2944" cy="114.4524" r="0.1750" /> 
</g>
<g style="fill:#000000; fill-opacity:1.0000; stroke:none;">
<circle cx="122.8344" cy="109.3724" r="0.1750" /> 
</g>
<g style="fill:#000000; fill-opacity:1.0000; stroke:none;">
<circle cx="122.8344" cy="111.9124" r="0.1750" /> 
</g>
<g style="fill:#000000; fill-opacity:1.0000; stroke:none;">
<circle cx="122.8344" cy="114.4524" r="0.1750" /> 
</g>
<g style="fill:none; 
stroke:#000000; stroke-width:0.6000; stroke-opacity:1; 
stroke-linecap:round; stroke-linejoin:round;">
<path d="M188.5500 98.0000
L187.4500 98.0000
" />
<path d="M188.5500 111.5000
L187.4500 111.5000
" />
</g>
<g style="fill:#000000; fill-opacity:1.0000; stroke:none;">
<circle cx="182.0000" cy="108.3500" r="0.1750" /> 
</g>
<g style="fill:#000000; fill-opacity:1.0000; stroke:none;">
<circle cx="182.0000" cy="101.1500" r="0.1750" /> 
</g> 
</svg>
