<?xml version="1.0" standalone="no"?>
 <!DOCTYPE svg PUBLIC "-//W3C//DTD SVG 1.1//EN" 
 "http://www.w3.org/Graphics/SVG/1.1/DTD/svg11.dtd"> 
<svg
  xmlns:svg="http://www.w3.org/2000/svg"
  xmlns="http://www.w3.org/2000/svg"
  xmlns:xlink="http://www.w3.org/1999/xlink"
  version="1.1"
  width="297.0022mm" height="210.0072mm" viewBox="0.0000 0.0000 297.0022 210.0072">
<title>SVG Image created as E-Stop-B_Mask.svg date 2025/10/16 20:11:00 </title>
  <desc>Image generated by PCBNEW </desc>
<g style="fill:#000000; fill-opacity:1.0000;stroke:#000000; stroke-opacity:1.0000;
stroke-linecap:round; stroke-linejoin:round;"
 transform="translate(0 0) scale(1 1)">
</g>
<g style="fill:#000000; fill-opacity:1.0000; 
stroke:#000000; stroke-width:0.0212; stroke-opacity:1; 
stroke-linecap:round; stroke-linejoin:round;">
<rect x="82.915477" y="51.651750" width="139.769048" height="99.948250" rx="0.000000" />
</g>
<g style="fill:#FD0010; fill-opacity:0.4000; stroke:none;">
<circle cx="191.1375" cy="117.7321" r="1.1000" /> 
</g>
<g style="fill:#FD0010; fill-opacity:0.4000; stroke:none;">
<circle cx="113.5000" cy="87.7321" r="1.1000" /> 
</g>
<g style="fill:#FD0010; fill-opacity:0.4000; stroke:none;">
<circle cx="191.1375" cy="87.7321" r="1.1000" /> 
<path style="fill:#FD0010; fill-opacity:0.4000; stroke:none;fill-rule:evenodd;"
d="M 151.7000,69.0000
151.7000,67.0000
152.6000,67.0000
152.6000,69.0000
Z" /> 
<path style="fill:#FD0010; fill-opacity:0.4000; stroke:none;fill-rule:evenodd;"
d="M 165.2000,69.0000
165.2000,67.0000
166.1000,67.0000
166.1000,69.0000
Z" /> 
<path style="fill:#FD0010; fill-opacity:0.4000; stroke:none;fill-rule:evenodd;"
d="M 160.4500,72.9750
160.4697,72.7750
160.5280,72.5827
160.6227,72.4055
160.7502,72.2502
160.9055,72.1227
161.0827,72.0280
161.2750,71.9697
161.4750,71.9500
163.5250,71.9500
163.7250,71.9697
163.9173,72.0280
164.0945,72.1227
164.2498,72.2502
164.3773,72.4055
164.4720,72.5827
164.5303,72.7750
164.5500,72.9750
164.5500,75.0250
164.5303,75.2250
164.4720,75.4173
164.3773,75.5945
164.2498,75.7498
164.0945,75.8773
163.9173,75.9720
163.7250,76.0303
163.5250,76.0500
161.4750,76.0500
161.2750,76.0303
161.0827,75.9720
160.9055,75.8773
160.7502,75.7498
160.6227,75.5945
160.5280,75.4173
160.4697,75.2250
160.4500,75.0250
Z" /> 
</g>
<g style="fill:#FD0010; fill-opacity:0.4000; stroke:none;">
<circle cx="155.3000" cy="74.0000" r="2.0500" /> 
<path style="fill:#FD0010; fill-opacity:0.4000; stroke:none;fill-rule:evenodd;"
d="M 133.5500,69.0000
133.5500,67.0000
134.4500,67.0000
134.4500,69.0000
Z" /> 
<path style="fill:#FD0010; fill-opacity:0.4000; stroke:none;fill-rule:evenodd;"
d="M 147.0500,69.0000
147.0500,67.0000
147.9500,67.0000
147.9500,69.0000
Z" /> 
<path style="fill:#FD0010; fill-opacity:0.4000; stroke:none;fill-rule:evenodd;"
d="M 142.3000,72.9750
142.3197,72.7750
142.3780,72.5827
142.4727,72.4055
142.6002,72.2502
142.7555,72.1227
142.9327,72.0280
143.1250,71.9697
143.3250,71.9500
145.3750,71.9500
145.5750,71.9697
145.7673,72.0280
145.9445,72.1227
146.0998,72.2502
146.2273,72.4055
146.3220,72.5827
146.3803,72.7750
146.4000,72.9750
146.4000,75.0250
146.3803,75.2250
146.3220,75.4173
146.2273,75.5945
146.0998,75.7498
145.9445,75.8773
145.7673,75.9720
145.5750,76.0303
145.3750,76.0500
143.3250,76.0500
143.1250,76.0303
142.9327,75.9720
142.7555,75.8773
142.6002,75.7498
142.4727,75.5945
142.3780,75.4173
142.3197,75.2250
142.3000,75.0250
Z" /> 
</g>
<g style="fill:#FD0010; fill-opacity:0.4000; stroke:none;">
<circle cx="137.1500" cy="74.0000" r="2.0500" /> 
</g>
<g style="fill:#FD0010; fill-opacity:0.4000; stroke:none;">
<circle cx="164.7700" cy="95.2700" r="1.0770" /> 
</g>
<g style="fill:#FD0010; fill-opacity:0.4000; stroke:none;">
<circle cx="164.7700" cy="100.3100" r="1.0770" /> 
</g>
<g style="fill:#FD0010; fill-opacity:0.4000; stroke:none;">
<circle cx="164.7700" cy="90.2300" r="1.0770" /> 
</g>
<g style="fill:#FD0010; fill-opacity:0.4000; stroke:none;">
<circle cx="172.2700" cy="95.2700" r="1.0770" /> 
</g>
<g style="fill:#FD0010; fill-opacity:0.4000; stroke:none;">
<circle cx="172.2700" cy="100.3100" r="1.0770" /> 
</g>
<g style="fill:#FD0010; fill-opacity:0.4000; stroke:none;">
<circle cx="172.2700" cy="90.2300" r="1.0770" /> 
</g>
<g style="fill:#FD0010; fill-opacity:0.4000; stroke:none;">
<circle cx="164.7700" cy="115.5700" r="1.0770" /> 
</g>
<g style="fill:#FD0010; fill-opacity:0.4000; stroke:none;">
<circle cx="172.2700" cy="115.5700" r="1.0770" /> 
</g>
<g style="fill:#FD0010; fill-opacity:0.4000; stroke:none;">
<circle cx="113.5000" cy="117.7321" r="1.1000" /> 
<path style="fill:#FD0010; fill-opacity:0.4000; stroke:none;fill-rule:evenodd;"
d="M 124.6500,97.8100
124.6500,96.1100
126.3500,96.1100
126.3500,97.8100
Z" /> 
</g>
<g style="fill:#FD0010; fill-opacity:0.4000; stroke:none;">
<circle cx="125.5000" cy="99.5000" r="0.8500" /> 
<circle cx="125.5000" cy="102.0400" r="0.8500" /> 
<circle cx="120.2944" cy="109.3724" r="0.5500" /> 
</g>
<g style="fill:#FD0010; fill-opacity:0.4000; stroke:none;">
<circle cx="120.2944" cy="111.9124" r="0.5500" /> 
</g>
<g style="fill:#FD0010; fill-opacity:0.4000; stroke:none;">
<circle cx="120.2944" cy="114.4524" r="0.5500" /> 
<path style="fill:#FD0010; fill-opacity:0.4000; stroke:none;fill-rule:evenodd;"
d="M 123.6844,108.2724
123.7801,108.2914
123.8612,108.3456
123.9154,108.4267
123.9344,108.5224
123.9344,110.2224
123.9154,110.3181
123.8612,110.3992
123.7801,110.4534
123.6844,110.4724
121.9844,110.4724
121.8887,110.4534
121.8076,110.3992
121.7534,110.3181
121.7344,110.2224
121.7344,108.5224
121.7534,108.4267
121.8076,108.3456
121.8887,108.2914
121.9844,108.2724
Z" /> 
</g>
<g style="fill:#FD0010; fill-opacity:0.4000; stroke:none;">
<circle cx="122.8344" cy="111.9124" r="1.1000" /> 
</g>
<g style="fill:#FD0010; fill-opacity:0.4000; stroke:none;">
<circle cx="122.8344" cy="114.4524" r="1.1000" /> 
<path style="fill:#FD0010; fill-opacity:0.4000; stroke:none;fill-rule:evenodd;"
d="M 187.0000,97.5500
189.0000,97.5500
189.0000,98.4500
187.0000,98.4500
Z" /> 
<path style="fill:#FD0010; fill-opacity:0.4000; stroke:none;fill-rule:evenodd;"
d="M 187.0000,111.0500
189.0000,111.0500
189.0000,111.9500
187.0000,111.9500
Z" /> 
<path style="fill:#FD0010; fill-opacity:0.4000; stroke:none;fill-rule:evenodd;"
d="M 183.0250,106.3000
183.2250,106.3197
183.4173,106.3780
183.5945,106.4727
183.7498,106.6002
183.8773,106.7555
183.9720,106.9327
184.0303,107.1250
184.0500,107.3250
184.0500,109.3750
184.0303,109.5750
183.9720,109.7673
183.8773,109.9445
183.7498,110.0998
183.5945,110.2273
183.4173,110.3220
183.2250,110.3803
183.0250,110.4000
180.9750,110.4000
180.7750,110.3803
180.5827,110.3220
180.4055,110.2273
180.2502,110.0998
180.1227,109.9445
180.0280,109.7673
179.9697,109.5750
179.9500,109.3750
179.9500,107.3250
179.9697,107.1250
180.0280,106.9327
180.1227,106.7555
180.2502,106.6002
180.4055,106.4727
180.5827,106.3780
180.7750,106.3197
180.9750,106.3000
Z" /> 
</g>
<g style="fill:#FD0010; fill-opacity:0.4000; stroke:none;">
<circle cx="182.0000" cy="101.1500" r="2.0500" /> 
</g>
<g style="fill:#000000; fill-opacity:1.0000; stroke:none;">
<circle cx="191.1375" cy="117.7321" r="0.1750" /> 
</g>
<g style="fill:#000000; fill-opacity:1.0000; stroke:none;">
<circle cx="113.5000" cy="87.7321" r="0.1750" /> 
</g>
<g style="fill:#000000; fill-opacity:1.0000; stroke:none;">
<circle cx="191.1375" cy="87.7321" r="0.1750" /> 
</g>
<g style="fill:none; 
stroke:#000000; stroke-width:0.6000; stroke-opacity:1; 
stroke-linecap:round; stroke-linejoin:round;">
<path d="M152.1500 67.4500
L152.1500 68.5500
" />
<path d="M165.6500 67.4500
L165.6500 68.5500
" />
</g>
<g style="fill:#000000; fill-opacity:1.0000; stroke:none;">
<circle cx="162.5000" cy="74.0000" r="0.1750" /> 
</g>
<g style="fill:#000000; fill-opacity:1.0000; stroke:none;">
<circle cx="155.3000" cy="74.0000" r="0.1750" /> 
</g>
<g style="fill:none; 
stroke:#000000; stroke-width:0.6000; stroke-opacity:1; 
stroke-linecap:round; stroke-linejoin:round;">
<path d="M134.0000 67.4500
L134.0000 68.5500
" />
<path d="M147.5000 67.4500
L147.5000 68.5500
" />
</g>
<g style="fill:#000000; fill-opacity:1.0000; stroke:none;">
<circle cx="144.3500" cy="74.0000" r="0.1750" /> 
</g>
<g style="fill:#000000; fill-opacity:1.0000; stroke:none;">
<circle cx="137.1500" cy="74.0000" r="0.1750" /> 
</g>
<g style="fill:#000000; fill-opacity:1.0000; stroke:none;">
<circle cx="164.7700" cy="95.2700" r="0.1750" /> 
</g>
<g style="fill:#000000; fill-opacity:1.0000; stroke:none;">
<circle cx="164.7700" cy="100.3100" r="0.1750" /> 
</g>
<g style="fill:#000000; fill-opacity:1.0000; stroke:none;">
<circle cx="164.7700" cy="90.2300" r="0.1750" /> 
</g>
<g style="fill:#000000; fill-opacity:1.0000; stroke:none;">
<circle cx="172.2700" cy="95.2700" r="0.1750" /> 
</g>
<g style="fill:#000000; fill-opacity:1.0000; stroke:none;">
<circle cx="172.2700" cy="100.3100" r="0.1750" /> 
</g>
<g style="fill:#000000; fill-opacity:1.0000; stroke:none;">
<circle cx="172.2700" cy="90.2300" r="0.1750" /> 
</g>
<g style="fill:#000000; fill-opacity:1.0000; stroke:none;">
<circle cx="164.7700" cy="115.5700" r="0.1750" /> 
</g>
<g style="fill:#000000; fill-opacity:1.0000; stroke:none;">
<circle cx="172.2700" cy="115.5700" r="0.1750" /> 
</g>
<g style="fill:#000000; fill-opacity:1.0000; stroke:none;">
<circle cx="113.5000" cy="117.7321" r="0.1750" /> 
</g>
<g style="fill:#000000; fill-opacity:1.0000; stroke:none;">
<circle cx="125.5000" cy="96.9600" r="0.1750" /> 
</g>
<g style="fill:#000000; fill-opacity:1.0000; stroke:none;">
<circle cx="125.5000" cy="99.5000" r="0.1750" /> 
</g>
<g style="fill:#000000; fill-opacity:1.0000; stroke:none;">
<circle cx="125.5000" cy="102.0400" r="0.1750" /> 
</g>
<g style="fill:#000000; fill-opacity:1.0000; stroke:none;">
<circle cx="120.2944" cy="109.3724" r="0.1750" /> 
</g>
<g style="fill:#000000; fill-opacity:1.0000; stroke:none;">
<circle cx="120.2944" cy="111.9124" r="0.1750" /> 
</g>
<g style="fill:#000000; fill-opacity:1.0000; stroke:none;">
<circle cx="120.2944" cy="114.4524" r="0.1750" /> 
</g>
<g style="fill:#000000; fill-opacity:1.0000; stroke:none;">
<circle cx="122.8344" cy="109.3724" r="0.1750" /> 
</g>
<g style="fill:#000000; fill-opacity:1.0000; stroke:none;">
<circle cx="122.8344" cy="111.9124" r="0.1750" /> 
</g>
<g style="fill:#000000; fill-opacity:1.0000; stroke:none;">
<circle cx="122.8344" cy="114.4524" r="0.1750" /> 
</g>
<g style="fill:none; 
stroke:#000000; stroke-width:0.6000; stroke-opacity:1; 
stroke-linecap:round; stroke-linejoin:round;">
<path d="M188.5500 98.0000
L187.4500 98.0000
" />
<path d="M188.5500 111.5000
L187.4500 111.5000
" />
</g>
<g style="fill:#000000; fill-opacity:1.0000; stroke:none;">
<circle cx="182.0000" cy="108.3500" r="0.1750" /> 
</g>
<g style="fill:#000000; fill-opacity:1.0000; stroke:none;">
<circle cx="182.0000" cy="101.1500" r="0.1750" /> 
</g> 
</svg>
