%TF.GenerationSoftware,KiCad,Pcbnew,9.0.4*%
%TF.CreationDate,2025-10-16T20:01:58-07:00*%
%TF.ProjectId,E-Stop,452d5374-6f70-42e6-9b69-6361645f7063,rev?*%
%TF.SameCoordinates,Original*%
%TF.FileFunction,Paste,Top*%
%TF.FilePolarity,Positive*%
%FSLAX46Y46*%
G04 Gerber Fmt 4.6, Leading zero omitted, Abs format (unit mm)*
G04 Created by KiCad (PCBNEW 9.0.4) date 2025-10-16 20:01:58*
%MOMM*%
%LPD*%
G01*
G04 APERTURE LIST*
G04 Aperture macros list*
%AMRoundRect*
0 Rectangle with rounded corners*
0 $1 Rounding radius*
0 $2 $3 $4 $5 $6 $7 $8 $9 X,Y pos of 4 corners*
0 Add a 4 corners polygon primitive as box body*
4,1,4,$2,$3,$4,$5,$6,$7,$8,$9,$2,$3,0*
0 Add four circle primitives for the rounded corners*
1,1,$1+$1,$2,$3*
1,1,$1+$1,$4,$5*
1,1,$1+$1,$6,$7*
1,1,$1+$1,$8,$9*
0 Add four rect primitives between the rounded corners*
20,1,$1+$1,$2,$3,$4,$5,0*
20,1,$1+$1,$4,$5,$6,$7,0*
20,1,$1+$1,$6,$7,$8,$9,0*
20,1,$1+$1,$8,$9,$2,$3,0*%
G04 Aperture macros list end*
%ADD10RoundRect,0.375000X-0.625000X-0.375000X0.625000X-0.375000X0.625000X0.375000X-0.625000X0.375000X0*%
%ADD11RoundRect,0.500000X-0.500000X-1.400000X0.500000X-1.400000X0.500000X1.400000X-0.500000X1.400000X0*%
%ADD12RoundRect,0.079500X-0.079500X-0.100500X0.079500X-0.100500X0.079500X0.100500X-0.079500X0.100500X0*%
%ADD13R,1.066800X0.254000*%
%ADD14RoundRect,0.150000X-0.150000X0.512500X-0.150000X-0.512500X0.150000X-0.512500X0.150000X0.512500X0*%
%ADD15RoundRect,0.150000X0.150000X-0.587500X0.150000X0.587500X-0.150000X0.587500X-0.150000X-0.587500X0*%
%ADD16RoundRect,0.079500X0.100500X-0.079500X0.100500X0.079500X-0.100500X0.079500X-0.100500X-0.079500X0*%
%ADD17RoundRect,0.079500X0.079500X0.100500X-0.079500X0.100500X-0.079500X-0.100500X0.079500X-0.100500X0*%
%ADD18RoundRect,0.250000X-1.000000X-0.650000X1.000000X-0.650000X1.000000X0.650000X-1.000000X0.650000X0*%
%ADD19RoundRect,0.125000X-0.687500X-0.125000X0.687500X-0.125000X0.687500X0.125000X-0.687500X0.125000X0*%
G04 APERTURE END LIST*
D10*
%TO.C,U1*%
X134500000Y-94700000D03*
X134500000Y-97000000D03*
D11*
X140800000Y-97000000D03*
D10*
X134500000Y-99300000D03*
%TD*%
D12*
%TO.C,100nF*%
X117546600Y-93980000D03*
X118236600Y-93980000D03*
%TD*%
%TO.C,10K*%
X144110000Y-77730000D03*
X144800000Y-77730000D03*
%TD*%
D13*
%TO.C,U2*%
X118567200Y-98442401D03*
X118567200Y-97942400D03*
X118567200Y-97442400D03*
X118567200Y-96942399D03*
X115722400Y-96942399D03*
X115722400Y-97442400D03*
X115722400Y-97942400D03*
X115722400Y-98442401D03*
%TD*%
D14*
%TO.C,Q1*%
X165472500Y-82992500D03*
X164522500Y-82992500D03*
X163572500Y-82992500D03*
X163572500Y-85267500D03*
X164522500Y-85267500D03*
X165472500Y-85267500D03*
%TD*%
D15*
%TO.C,Q4*%
X132680000Y-84250000D03*
X134580000Y-84250000D03*
X133630000Y-82375000D03*
%TD*%
D16*
%TO.C,10k*%
X117500400Y-95610200D03*
X117500400Y-94920200D03*
%TD*%
D17*
%TO.C,47k*%
X165785000Y-79600000D03*
X165095000Y-79600000D03*
%TD*%
D15*
%TO.C,Q3*%
X154000000Y-85000000D03*
X155900000Y-85000000D03*
X154950000Y-83125000D03*
%TD*%
D18*
%TO.C,D1*%
X164270000Y-121220000D03*
X168270000Y-121220000D03*
%TD*%
D19*
%TO.C,XOR*%
X155287000Y-119970000D03*
X155287000Y-120620000D03*
X155287000Y-121270000D03*
X155287000Y-121920000D03*
X159512000Y-121920000D03*
X159512000Y-121270000D03*
X159512000Y-120620000D03*
X159512000Y-119970000D03*
%TD*%
D14*
%TO.C,Transistor*%
X143752500Y-81462500D03*
X142802500Y-81462500D03*
X141852500Y-81462500D03*
X141852500Y-83737500D03*
X142802500Y-83737500D03*
X143752500Y-83737500D03*
%TD*%
D17*
%TO.C,47k*%
X147490000Y-77560000D03*
X146800000Y-77560000D03*
%TD*%
D12*
%TO.C,10K*%
X161640000Y-79590000D03*
X162330000Y-79590000D03*
%TD*%
M02*
