<?xml version="1.0" standalone="no"?>
 <!DOCTYPE svg PUBLIC "-//W3C//DTD SVG 1.1//EN" 
 "http://www.w3.org/Graphics/SVG/1.1/DTD/svg11.dtd"> 
<svg
  xmlns:svg="http://www.w3.org/2000/svg"
  xmlns="http://www.w3.org/2000/svg"
  xmlns:xlink="http://www.w3.org/1999/xlink"
  version="1.1"
  width="297.0022mm" height="210.0072mm" viewBox="0.0000 0.0000 297.0022 210.0072">
<title>SVG Image created as E-Stop-F_Cu.svg date 2025/10/16 20:11:00 </title>
  <desc>Image generated by PCBNEW </desc>
<g style="fill:#000000; fill-opacity:1.0000;stroke:#000000; stroke-opacity:1.0000;
stroke-linecap:round; stroke-linejoin:round;"
 transform="translate(0 0) scale(1 1)">
</g>
<g style="fill:#000000; fill-opacity:1.0000; 
stroke:#000000; stroke-width:0.0212; stroke-opacity:1; 
stroke-linecap:round; stroke-linejoin:round;">
<rect x="82.915477" y="51.651750" width="139.769048" height="99.948250" rx="0.000000" />
<path style="fill:#37CBCB; fill-opacity:1.0000; stroke:none;fill-rule:evenodd;"
d="M 133.5000,94.3250
133.5156,94.2180
133.5698,94.1071
133.6571,94.0198
133.7680,93.9656
133.8750,93.9500
135.1250,93.9500
135.2320,93.9656
135.3429,94.0198
135.4302,94.1071
135.4844,94.2180
135.5000,94.3250
135.5000,95.0750
135.4844,95.1820
135.4302,95.2929
135.3429,95.3802
135.2320,95.4344
135.1250,95.4500
133.8750,95.4500
133.7680,95.4344
133.6571,95.3802
133.5698,95.2929
133.5156,95.1820
133.5000,95.0750
Z" /> 
<path style="fill:#37CBCB; fill-opacity:1.0000; stroke:none;fill-rule:evenodd;"
d="M 133.5000,96.6250
133.5156,96.5180
133.5698,96.4071
133.6571,96.3198
133.7680,96.2656
133.8750,96.2500
135.1250,96.2500
135.2320,96.2656
135.3429,96.3198
135.4302,96.4071
135.4844,96.5180
135.5000,96.6250
135.5000,97.3750
135.4844,97.4820
135.4302,97.5929
135.3429,97.6802
135.2320,97.7344
135.1250,97.7500
133.8750,97.7500
133.7680,97.7344
133.6571,97.6802
133.5698,97.5929
133.5156,97.4820
133.5000,97.3750
Z" /> 
<path style="fill:#37CBCB; fill-opacity:1.0000; stroke:none;fill-rule:evenodd;"
d="M 139.8000,95.6000
139.8114,95.4937
139.8612,95.3604
139.9464,95.2464
140.0604,95.1612
140.1937,95.1114
140.3000,95.1000
141.3000,95.1000
141.4063,95.1114
141.5396,95.1612
141.6536,95.2464
141.7388,95.3604
141.7886,95.4937
141.8000,95.6000
141.8000,98.4000
141.7886,98.5063
141.7388,98.6396
141.6536,98.7536
141.5396,98.8388
141.4063,98.8886
141.3000,98.9000
140.3000,98.9000
140.1937,98.8886
140.0604,98.8388
139.9464,98.7536
139.8612,98.6396
139.8114,98.5063
139.8000,98.4000
Z" /> 
<path style="fill:#37CBCB; fill-opacity:1.0000; stroke:none;fill-rule:evenodd;"
d="M 133.5000,98.9250
133.5156,98.8180
133.5698,98.7071
133.6571,98.6198
133.7680,98.5656
133.8750,98.5500
135.1250,98.5500
135.2320,98.5656
135.3429,98.6198
135.4302,98.7071
135.4844,98.8180
135.5000,98.9250
135.5000,99.6750
135.4844,99.7820
135.4302,99.8929
135.3429,99.9802
135.2320,100.0344
135.1250,100.0500
133.8750,100.0500
133.7680,100.0344
133.6571,99.9802
133.5698,99.8929
133.5156,99.7820
133.5000,99.6750
Z" /> 
<path style="fill:#37CBCB; fill-opacity:1.0000; stroke:none;fill-rule:evenodd;"
d="M 117.3416,93.8800
117.3492,93.8417
117.3709,93.8093
117.4033,93.7876
117.4416,93.7800
117.7016,93.7800
117.7399,93.7876
117.7723,93.8093
117.7940,93.8417
117.8016,93.8800
117.8016,94.0800
117.7940,94.1183
117.7723,94.1507
117.7399,94.1724
117.7016,94.1800
117.4416,94.1800
117.4033,94.1724
117.3709,94.1507
117.3492,94.1183
117.3416,94.0800
Z" /> 
<path style="fill:#37CBCB; fill-opacity:1.0000; stroke:none;fill-rule:evenodd;"
d="M 117.9816,93.8800
117.9892,93.8417
118.0109,93.8093
118.0433,93.7876
118.0816,93.7800
118.3416,93.7800
118.3799,93.7876
118.4123,93.8093
118.4340,93.8417
118.4416,93.8800
118.4416,94.0800
118.4340,94.1183
118.4123,94.1507
118.3799,94.1724
118.3416,94.1800
118.0816,94.1800
118.0433,94.1724
118.0109,94.1507
117.9892,94.1183
117.9816,94.0800
Z" /> 
<path style="fill:#37CBCB; fill-opacity:1.0000; stroke:none;fill-rule:evenodd;"
d="M 151.7000,69.0000
151.7000,67.0000
152.6000,67.0000
152.6000,69.0000
Z" /> 
<path style="fill:#37CBCB; fill-opacity:1.0000; stroke:none;fill-rule:evenodd;"
d="M 165.2000,69.0000
165.2000,67.0000
166.1000,67.0000
166.1000,69.0000
Z" /> 
<path style="fill:#37CBCB; fill-opacity:1.0000; stroke:none;fill-rule:evenodd;"
d="M 160.4500,72.9750
160.4697,72.7750
160.5280,72.5827
160.6227,72.4055
160.7502,72.2502
160.9055,72.1227
161.0827,72.0280
161.2750,71.9697
161.4750,71.9500
163.5250,71.9500
163.7250,71.9697
163.9173,72.0280
164.0945,72.1227
164.2498,72.2502
164.3773,72.4055
164.4720,72.5827
164.5303,72.7750
164.5500,72.9750
164.5500,75.0250
164.5303,75.2250
164.4720,75.4173
164.3773,75.5945
164.2498,75.7498
164.0945,75.8773
163.9173,75.9720
163.7250,76.0303
163.5250,76.0500
161.4750,76.0500
161.2750,76.0303
161.0827,75.9720
160.9055,75.8773
160.7502,75.7498
160.6227,75.5945
160.5280,75.4173
160.4697,75.2250
160.4500,75.0250
Z" /> 
</g>
<g style="fill:#37CBCB; fill-opacity:1.0000; stroke:none;">
<circle cx="155.3000" cy="74.0000" r="2.0500" /> 
<path style="fill:#37CBCB; fill-opacity:1.0000; stroke:none;fill-rule:evenodd;"
d="M 143.9050,77.6300
143.9126,77.5917
143.9343,77.5593
143.9667,77.5376
144.0050,77.5300
144.2650,77.5300
144.3033,77.5376
144.3357,77.5593
144.3574,77.5917
144.3650,77.6300
144.3650,77.8300
144.3574,77.8683
144.3357,77.9007
144.3033,77.9224
144.2650,77.9300
144.0050,77.9300
143.9667,77.9224
143.9343,77.9007
143.9126,77.8683
143.9050,77.8300
Z" /> 
<path style="fill:#37CBCB; fill-opacity:1.0000; stroke:none;fill-rule:evenodd;"
d="M 144.5450,77.6300
144.5526,77.5917
144.5743,77.5593
144.6067,77.5376
144.6450,77.5300
144.9050,77.5300
144.9433,77.5376
144.9757,77.5593
144.9974,77.5917
145.0050,77.6300
145.0050,77.8300
144.9974,77.8683
144.9757,77.9007
144.9433,77.9224
144.9050,77.9300
144.6450,77.9300
144.6067,77.9224
144.5743,77.9007
144.5526,77.8683
144.5450,77.8300
Z" /> 
<path style="fill:#37CBCB; fill-opacity:1.0000; stroke:none;fill-rule:evenodd;"
d="M 119.1006,98.3154
119.1006,98.5694
118.0338,98.5694
118.0338,98.3154
Z" /> 
<path style="fill:#37CBCB; fill-opacity:1.0000; stroke:none;fill-rule:evenodd;"
d="M 119.1006,97.8154
119.1006,98.0694
118.0338,98.0694
118.0338,97.8154
Z" /> 
<path style="fill:#37CBCB; fill-opacity:1.0000; stroke:none;fill-rule:evenodd;"
d="M 119.1006,97.3154
119.1006,97.5694
118.0338,97.5694
118.0338,97.3154
Z" /> 
<path style="fill:#37CBCB; fill-opacity:1.0000; stroke:none;fill-rule:evenodd;"
d="M 119.1006,96.8154
119.1006,97.0694
118.0338,97.0694
118.0338,96.8154
Z" /> 
<path style="fill:#37CBCB; fill-opacity:1.0000; stroke:none;fill-rule:evenodd;"
d="M 116.2558,96.8154
116.2558,97.0694
115.1890,97.0694
115.1890,96.8154
Z" /> 
<path style="fill:#37CBCB; fill-opacity:1.0000; stroke:none;fill-rule:evenodd;"
d="M 116.2558,97.3154
116.2558,97.5694
115.1890,97.5694
115.1890,97.3154
Z" /> 
<path style="fill:#37CBCB; fill-opacity:1.0000; stroke:none;fill-rule:evenodd;"
d="M 116.2558,97.8154
116.2558,98.0694
115.1890,98.0694
115.1890,97.8154
Z" /> 
<path style="fill:#37CBCB; fill-opacity:1.0000; stroke:none;fill-rule:evenodd;"
d="M 116.2558,98.3154
116.2558,98.5694
115.1890,98.5694
115.1890,98.3154
Z" /> 
<path style="fill:#37CBCB; fill-opacity:1.0000; stroke:none;fill-rule:evenodd;"
d="M 133.5500,69.0000
133.5500,67.0000
134.4500,67.0000
134.4500,69.0000
Z" /> 
<path style="fill:#37CBCB; fill-opacity:1.0000; stroke:none;fill-rule:evenodd;"
d="M 147.0500,69.0000
147.0500,67.0000
147.9500,67.0000
147.9500,69.0000
Z" /> 
<path style="fill:#37CBCB; fill-opacity:1.0000; stroke:none;fill-rule:evenodd;"
d="M 142.3000,72.9750
142.3197,72.7750
142.3780,72.5827
142.4727,72.4055
142.6002,72.2502
142.7555,72.1227
142.9327,72.0280
143.1250,71.9697
143.3250,71.9500
145.3750,71.9500
145.5750,71.9697
145.7673,72.0280
145.9445,72.1227
146.0998,72.2502
146.2273,72.4055
146.3220,72.5827
146.3803,72.7750
146.4000,72.9750
146.4000,75.0250
146.3803,75.2250
146.3220,75.4173
146.2273,75.5945
146.0998,75.7498
145.9445,75.8773
145.7673,75.9720
145.5750,76.0303
145.3750,76.0500
143.3250,76.0500
143.1250,76.0303
142.9327,75.9720
142.7555,75.8773
142.6002,75.7498
142.4727,75.5945
142.3780,75.4173
142.3197,75.2250
142.3000,75.0250
Z" /> 
</g>
<g style="fill:#37CBCB; fill-opacity:1.0000; stroke:none;">
<circle cx="137.1500" cy="74.0000" r="2.0500" /> 
<path style="fill:#37CBCB; fill-opacity:1.0000; stroke:none;fill-rule:evenodd;"
d="M 165.6225,82.3300
165.6799,82.3414
165.7286,82.3739
165.7611,82.4226
165.7725,82.4800
165.7725,83.5050
165.7611,83.5624
165.7286,83.6111
165.6799,83.6436
165.6225,83.6550
165.3225,83.6550
165.2651,83.6436
165.2164,83.6111
165.1839,83.5624
165.1725,83.5050
165.1725,82.4800
165.1839,82.4226
165.2164,82.3739
165.2651,82.3414
165.3225,82.3300
Z" /> 
<path style="fill:#37CBCB; fill-opacity:1.0000; stroke:none;fill-rule:evenodd;"
d="M 164.6725,82.3300
164.7299,82.3414
164.7786,82.3739
164.8111,82.4226
164.8225,82.4800
164.8225,83.5050
164.8111,83.5624
164.7786,83.6111
164.7299,83.6436
164.6725,83.6550
164.3725,83.6550
164.3151,83.6436
164.2664,83.6111
164.2339,83.5624
164.2225,83.5050
164.2225,82.4800
164.2339,82.4226
164.2664,82.3739
164.3151,82.3414
164.3725,82.3300
Z" /> 
<path style="fill:#37CBCB; fill-opacity:1.0000; stroke:none;fill-rule:evenodd;"
d="M 163.7225,82.3300
163.7799,82.3414
163.8286,82.3739
163.8611,82.4226
163.8725,82.4800
163.8725,83.5050
163.8611,83.5624
163.8286,83.6111
163.7799,83.6436
163.7225,83.6550
163.4225,83.6550
163.3651,83.6436
163.3164,83.6111
163.2839,83.5624
163.2725,83.5050
163.2725,82.4800
163.2839,82.4226
163.3164,82.3739
163.3651,82.3414
163.4225,82.3300
Z" /> 
<path style="fill:#37CBCB; fill-opacity:1.0000; stroke:none;fill-rule:evenodd;"
d="M 163.7225,84.6050
163.7799,84.6164
163.8286,84.6489
163.8611,84.6976
163.8725,84.7550
163.8725,85.7800
163.8611,85.8374
163.8286,85.8861
163.7799,85.9186
163.7225,85.9300
163.4225,85.9300
163.3651,85.9186
163.3164,85.8861
163.2839,85.8374
163.2725,85.7800
163.2725,84.7550
163.2839,84.6976
163.3164,84.6489
163.3651,84.6164
163.4225,84.6050
Z" /> 
<path style="fill:#37CBCB; fill-opacity:1.0000; stroke:none;fill-rule:evenodd;"
d="M 164.6725,84.6050
164.7299,84.6164
164.7786,84.6489
164.8111,84.6976
164.8225,84.7550
164.8225,85.7800
164.8111,85.8374
164.7786,85.8861
164.7299,85.9186
164.6725,85.9300
164.3725,85.9300
164.3151,85.9186
164.2664,85.8861
164.2339,85.8374
164.2225,85.7800
164.2225,84.7550
164.2339,84.6976
164.2664,84.6489
164.3151,84.6164
164.3725,84.6050
Z" /> 
<path style="fill:#37CBCB; fill-opacity:1.0000; stroke:none;fill-rule:evenodd;"
d="M 165.6225,84.6050
165.6799,84.6164
165.7286,84.6489
165.7611,84.6976
165.7725,84.7550
165.7725,85.7800
165.7611,85.8374
165.7286,85.8861
165.6799,85.9186
165.6225,85.9300
165.3225,85.9300
165.2651,85.9186
165.2164,85.8861
165.1839,85.8374
165.1725,85.7800
165.1725,84.7550
165.1839,84.6976
165.2164,84.6489
165.2651,84.6164
165.3225,84.6050
Z" /> 
<path style="fill:#37CBCB; fill-opacity:1.0000; stroke:none;fill-rule:evenodd;"
d="M 132.5300,84.9875
132.4726,84.9761
132.4239,84.9436
132.3914,84.8949
132.3800,84.8375
132.3800,83.6625
132.3914,83.6051
132.4239,83.5564
132.4726,83.5239
132.5300,83.5125
132.8300,83.5125
132.8874,83.5239
132.9361,83.5564
132.9686,83.6051
132.9800,83.6625
132.9800,84.8375
132.9686,84.8949
132.9361,84.9436
132.8874,84.9761
132.8300,84.9875
Z" /> 
<path style="fill:#37CBCB; fill-opacity:1.0000; stroke:none;fill-rule:evenodd;"
d="M 134.4300,84.9875
134.3726,84.9761
134.3239,84.9436
134.2914,84.8949
134.2800,84.8375
134.2800,83.6625
134.2914,83.6051
134.3239,83.5564
134.3726,83.5239
134.4300,83.5125
134.7300,83.5125
134.7874,83.5239
134.8361,83.5564
134.8686,83.6051
134.8800,83.6625
134.8800,84.8375
134.8686,84.8949
134.8361,84.9436
134.7874,84.9761
134.7300,84.9875
Z" /> 
<path style="fill:#37CBCB; fill-opacity:1.0000; stroke:none;fill-rule:evenodd;"
d="M 133.4800,83.1125
133.4226,83.1011
133.3739,83.0686
133.3414,83.0199
133.3300,82.9625
133.3300,81.7875
133.3414,81.7301
133.3739,81.6814
133.4226,81.6489
133.4800,81.6375
133.7800,81.6375
133.8374,81.6489
133.8861,81.6814
133.9186,81.7301
133.9300,81.7875
133.9300,82.9625
133.9186,83.0199
133.8861,83.0686
133.8374,83.1011
133.7800,83.1125
Z" /> 
<path style="fill:#37CBCB; fill-opacity:1.0000; stroke:none;fill-rule:evenodd;"
d="M 117.4004,95.8152
117.3621,95.8076
117.3297,95.7859
117.3080,95.7535
117.3004,95.7152
117.3004,95.4552
117.3080,95.4169
117.3297,95.3845
117.3621,95.3628
117.4004,95.3552
117.6004,95.3552
117.6387,95.3628
117.6711,95.3845
117.6928,95.4169
117.7004,95.4552
117.7004,95.7152
117.6928,95.7535
117.6711,95.7859
117.6387,95.8076
117.6004,95.8152
Z" /> 
<path style="fill:#37CBCB; fill-opacity:1.0000; stroke:none;fill-rule:evenodd;"
d="M 117.4004,95.1752
117.3621,95.1676
117.3297,95.1459
117.3080,95.1135
117.3004,95.0752
117.3004,94.8152
117.3080,94.7769
117.3297,94.7445
117.3621,94.7228
117.4004,94.7152
117.6004,94.7152
117.6387,94.7228
117.6711,94.7445
117.6928,94.7769
117.7004,94.8152
117.7004,95.0752
117.6928,95.1135
117.6711,95.1459
117.6387,95.1676
117.6004,95.1752
Z" /> 
</g>
<g style="fill:#37CBCB; fill-opacity:1.0000; stroke:none;">
<circle cx="164.7700" cy="95.2700" r="0.9750" /> 
</g>
<g style="fill:#37CBCB; fill-opacity:1.0000; stroke:none;">
<circle cx="164.7700" cy="100.3100" r="0.9750" /> 
</g>
<g style="fill:#37CBCB; fill-opacity:1.0000; stroke:none;">
<circle cx="164.7700" cy="90.2300" r="0.9750" /> 
</g>
<g style="fill:#37CBCB; fill-opacity:1.0000; stroke:none;">
<circle cx="172.2700" cy="95.2700" r="0.9750" /> 
</g>
<g style="fill:#37CBCB; fill-opacity:1.0000; stroke:none;">
<circle cx="172.2700" cy="100.3100" r="0.9750" /> 
</g>
<g style="fill:#37CBCB; fill-opacity:1.0000; stroke:none;">
<circle cx="172.2700" cy="90.2300" r="0.9750" /> 
</g>
<g style="fill:#37CBCB; fill-opacity:1.0000; stroke:none;">
<circle cx="164.7700" cy="115.5700" r="0.9750" /> 
</g>
<g style="fill:#37CBCB; fill-opacity:1.0000; stroke:none;">
<circle cx="172.2700" cy="115.5700" r="0.9750" /> 
<path style="fill:#37CBCB; fill-opacity:1.0000; stroke:none;fill-rule:evenodd;"
d="M 165.9900,79.7000
165.9824,79.7383
165.9607,79.7707
165.9283,79.7924
165.8900,79.8000
165.6300,79.8000
165.5917,79.7924
165.5593,79.7707
165.5376,79.7383
165.5300,79.7000
165.5300,79.5000
165.5376,79.4617
165.5593,79.4293
165.5917,79.4076
165.6300,79.4000
165.8900,79.4000
165.9283,79.4076
165.9607,79.4293
165.9824,79.4617
165.9900,79.5000
Z" /> 
<path style="fill:#37CBCB; fill-opacity:1.0000; stroke:none;fill-rule:evenodd;"
d="M 165.3500,79.7000
165.3424,79.7383
165.3207,79.7707
165.2883,79.7924
165.2500,79.8000
164.9900,79.8000
164.9517,79.7924
164.9193,79.7707
164.8976,79.7383
164.8900,79.7000
164.8900,79.5000
164.8976,79.4617
164.9193,79.4293
164.9517,79.4076
164.9900,79.4000
165.2500,79.4000
165.2883,79.4076
165.3207,79.4293
165.3424,79.4617
165.3500,79.5000
Z" /> 
<path style="fill:#37CBCB; fill-opacity:1.0000; stroke:none;fill-rule:evenodd;"
d="M 153.8500,85.7375
153.7926,85.7261
153.7439,85.6936
153.7114,85.6449
153.7000,85.5875
153.7000,84.4125
153.7114,84.3551
153.7439,84.3064
153.7926,84.2739
153.8500,84.2625
154.1500,84.2625
154.2074,84.2739
154.2561,84.3064
154.2886,84.3551
154.3000,84.4125
154.3000,85.5875
154.2886,85.6449
154.2561,85.6936
154.2074,85.7261
154.1500,85.7375
Z" /> 
<path style="fill:#37CBCB; fill-opacity:1.0000; stroke:none;fill-rule:evenodd;"
d="M 155.7500,85.7375
155.6926,85.7261
155.6439,85.6936
155.6114,85.6449
155.6000,85.5875
155.6000,84.4125
155.6114,84.3551
155.6439,84.3064
155.6926,84.2739
155.7500,84.2625
156.0500,84.2625
156.1074,84.2739
156.1561,84.3064
156.1886,84.3551
156.2000,84.4125
156.2000,85.5875
156.1886,85.6449
156.1561,85.6936
156.1074,85.7261
156.0500,85.7375
Z" /> 
<path style="fill:#37CBCB; fill-opacity:1.0000; stroke:none;fill-rule:evenodd;"
d="M 154.8000,83.8625
154.7426,83.8511
154.6939,83.8186
154.6614,83.7699
154.6500,83.7125
154.6500,82.5375
154.6614,82.4801
154.6939,82.4314
154.7426,82.3989
154.8000,82.3875
155.1000,82.3875
155.1574,82.3989
155.2061,82.4314
155.2386,82.4801
155.2500,82.5375
155.2500,83.7125
155.2386,83.7699
155.2061,83.8186
155.1574,83.8511
155.1000,83.8625
Z" /> 
<path style="fill:#37CBCB; fill-opacity:1.0000; stroke:none;fill-rule:evenodd;"
d="M 124.6500,97.8100
124.6500,96.1100
126.3500,96.1100
126.3500,97.8100
Z" /> 
</g>
<g style="fill:#37CBCB; fill-opacity:1.0000; stroke:none;">
<circle cx="125.5000" cy="99.5000" r="0.8500" /> 
<circle cx="125.5000" cy="102.0400" r="0.8500" /> 
<path style="fill:#37CBCB; fill-opacity:1.0000; stroke:none;fill-rule:evenodd;"
d="M 123.6844,108.2724
123.7801,108.2914
123.8612,108.3456
123.9154,108.4267
123.9344,108.5224
123.9344,110.2224
123.9154,110.3181
123.8612,110.3992
123.7801,110.4534
123.6844,110.4724
121.9844,110.4724
121.8887,110.4534
121.8076,110.3992
121.7534,110.3181
121.7344,110.2224
121.7344,108.5224
121.7534,108.4267
121.8076,108.3456
121.8887,108.2914
121.9844,108.2724
Z" /> 
<circle cx="122.8344" cy="111.9124" r="1.1000" /> 
</g>
<g style="fill:#37CBCB; fill-opacity:1.0000; stroke:none;">
<circle cx="122.8344" cy="114.4524" r="1.1000" /> 
<path style="fill:#37CBCB; fill-opacity:1.0000; stroke:none;fill-rule:evenodd;"
d="M 163.0200,120.5700
163.0390,120.4743
163.0932,120.3932
163.1743,120.3390
163.2700,120.3200
165.2700,120.3200
165.3657,120.3390
165.4468,120.3932
165.5010,120.4743
165.5200,120.5700
165.5200,121.8700
165.5010,121.9657
165.4468,122.0468
165.3657,122.1010
165.2700,122.1200
163.2700,122.1200
163.1743,122.1010
163.0932,122.0468
163.0390,121.9657
163.0200,121.8700
Z" /> 
<path style="fill:#37CBCB; fill-opacity:1.0000; stroke:none;fill-rule:evenodd;"
d="M 167.0200,120.5700
167.0390,120.4743
167.0932,120.3932
167.1743,120.3390
167.2700,120.3200
169.2700,120.3200
169.3657,120.3390
169.4468,120.3932
169.5010,120.4743
169.5200,120.5700
169.5200,121.8700
169.5010,121.9657
169.4468,122.0468
169.3657,122.1010
169.2700,122.1200
167.2700,122.1200
167.1743,122.1010
167.0932,122.0468
167.0390,121.9657
167.0200,121.8700
Z" /> 
<path style="fill:#37CBCB; fill-opacity:1.0000; stroke:none;fill-rule:evenodd;"
d="M 154.4745,119.8450
154.4840,119.7972
154.5111,119.7566
154.5517,119.7295
154.5995,119.7200
155.9745,119.7200
156.0223,119.7295
156.0629,119.7566
156.0900,119.7972
156.0995,119.8450
156.0995,120.0950
156.0900,120.1428
156.0629,120.1834
156.0223,120.2105
155.9745,120.2200
154.5995,120.2200
154.5517,120.2105
154.5111,120.1834
154.4840,120.1428
154.4745,120.0950
Z" /> 
<path style="fill:#37CBCB; fill-opacity:1.0000; stroke:none;fill-rule:evenodd;"
d="M 154.4745,120.4950
154.4840,120.4472
154.5111,120.4066
154.5517,120.3795
154.5995,120.3700
155.9745,120.3700
156.0223,120.3795
156.0629,120.4066
156.0900,120.4472
156.0995,120.4950
156.0995,120.7450
156.0900,120.7928
156.0629,120.8334
156.0223,120.8605
155.9745,120.8700
154.5995,120.8700
154.5517,120.8605
154.5111,120.8334
154.4840,120.7928
154.4745,120.7450
Z" /> 
<path style="fill:#37CBCB; fill-opacity:1.0000; stroke:none;fill-rule:evenodd;"
d="M 154.4745,121.1450
154.4840,121.0972
154.5111,121.0566
154.5517,121.0295
154.5995,121.0200
155.9745,121.0200
156.0223,121.0295
156.0629,121.0566
156.0900,121.0972
156.0995,121.1450
156.0995,121.3950
156.0900,121.4428
156.0629,121.4834
156.0223,121.5105
155.9745,121.5200
154.5995,121.5200
154.5517,121.5105
154.5111,121.4834
154.4840,121.4428
154.4745,121.3950
Z" /> 
<path style="fill:#37CBCB; fill-opacity:1.0000; stroke:none;fill-rule:evenodd;"
d="M 154.4745,121.7950
154.4840,121.7472
154.5111,121.7066
154.5517,121.6795
154.5995,121.6700
155.9745,121.6700
156.0223,121.6795
156.0629,121.7066
156.0900,121.7472
156.0995,121.7950
156.0995,122.0450
156.0900,122.0928
156.0629,122.1334
156.0223,122.1605
155.9745,122.1700
154.5995,122.1700
154.5517,122.1605
154.5111,122.1334
154.4840,122.0928
154.4745,122.0450
Z" /> 
<path style="fill:#37CBCB; fill-opacity:1.0000; stroke:none;fill-rule:evenodd;"
d="M 158.6995,121.7950
158.7090,121.7472
158.7361,121.7066
158.7767,121.6795
158.8245,121.6700
160.1995,121.6700
160.2473,121.6795
160.2879,121.7066
160.3150,121.7472
160.3245,121.7950
160.3245,122.0450
160.3150,122.0928
160.2879,122.1334
160.2473,122.1605
160.1995,122.1700
158.8245,122.1700
158.7767,122.1605
158.7361,122.1334
158.7090,122.0928
158.6995,122.0450
Z" /> 
<path style="fill:#37CBCB; fill-opacity:1.0000; stroke:none;fill-rule:evenodd;"
d="M 158.6995,121.1450
158.7090,121.0972
158.7361,121.0566
158.7767,121.0295
158.8245,121.0200
160.1995,121.0200
160.2473,121.0295
160.2879,121.0566
160.3150,121.0972
160.3245,121.1450
160.3245,121.3950
160.3150,121.4428
160.2879,121.4834
160.2473,121.5105
160.1995,121.5200
158.8245,121.5200
158.7767,121.5105
158.7361,121.4834
158.7090,121.4428
158.6995,121.3950
Z" /> 
<path style="fill:#37CBCB; fill-opacity:1.0000; stroke:none;fill-rule:evenodd;"
d="M 158.6995,120.4950
158.7090,120.4472
158.7361,120.4066
158.7767,120.3795
158.8245,120.3700
160.1995,120.3700
160.2473,120.3795
160.2879,120.4066
160.3150,120.4472
160.3245,120.4950
160.3245,120.7450
160.3150,120.7928
160.2879,120.8334
160.2473,120.8605
160.1995,120.8700
158.8245,120.8700
158.7767,120.8605
158.7361,120.8334
158.7090,120.7928
158.6995,120.7450
Z" /> 
<path style="fill:#37CBCB; fill-opacity:1.0000; stroke:none;fill-rule:evenodd;"
d="M 158.6995,119.8450
158.7090,119.7972
158.7361,119.7566
158.7767,119.7295
158.8245,119.7200
160.1995,119.7200
160.2473,119.7295
160.2879,119.7566
160.3150,119.7972
160.3245,119.8450
160.3245,120.0950
160.3150,120.1428
160.2879,120.1834
160.2473,120.2105
160.1995,120.2200
158.8245,120.2200
158.7767,120.2105
158.7361,120.1834
158.7090,120.1428
158.6995,120.0950
Z" /> 
<path style="fill:#37CBCB; fill-opacity:1.0000; stroke:none;fill-rule:evenodd;"
d="M 143.9025,80.8000
143.9599,80.8114
144.0086,80.8439
144.0411,80.8926
144.0525,80.9500
144.0525,81.9750
144.0411,82.0324
144.0086,82.0811
143.9599,82.1136
143.9025,82.1250
143.6025,82.1250
143.5451,82.1136
143.4964,82.0811
143.4639,82.0324
143.4525,81.9750
143.4525,80.9500
143.4639,80.8926
143.4964,80.8439
143.5451,80.8114
143.6025,80.8000
Z" /> 
<path style="fill:#37CBCB; fill-opacity:1.0000; stroke:none;fill-rule:evenodd;"
d="M 142.9525,80.8000
143.0099,80.8114
143.0586,80.8439
143.0911,80.8926
143.1025,80.9500
143.1025,81.9750
143.0911,82.0324
143.0586,82.0811
143.0099,82.1136
142.9525,82.1250
142.6525,82.1250
142.5951,82.1136
142.5464,82.0811
142.5139,82.0324
142.5025,81.9750
142.5025,80.9500
142.5139,80.8926
142.5464,80.8439
142.5951,80.8114
142.6525,80.8000
Z" /> 
<path style="fill:#37CBCB; fill-opacity:1.0000; stroke:none;fill-rule:evenodd;"
d="M 142.0025,80.8000
142.0599,80.8114
142.1086,80.8439
142.1411,80.8926
142.1525,80.9500
142.1525,81.9750
142.1411,82.0324
142.1086,82.0811
142.0599,82.1136
142.0025,82.1250
141.7025,82.1250
141.6451,82.1136
141.5964,82.0811
141.5639,82.0324
141.5525,81.9750
141.5525,80.9500
141.5639,80.8926
141.5964,80.8439
141.6451,80.8114
141.7025,80.8000
Z" /> 
<path style="fill:#37CBCB; fill-opacity:1.0000; stroke:none;fill-rule:evenodd;"
d="M 142.0025,83.0750
142.0599,83.0864
142.1086,83.1189
142.1411,83.1676
142.1525,83.2250
142.1525,84.2500
142.1411,84.3074
142.1086,84.3561
142.0599,84.3886
142.0025,84.4000
141.7025,84.4000
141.6451,84.3886
141.5964,84.3561
141.5639,84.3074
141.5525,84.2500
141.5525,83.2250
141.5639,83.1676
141.5964,83.1189
141.6451,83.0864
141.7025,83.0750
Z" /> 
<path style="fill:#37CBCB; fill-opacity:1.0000; stroke:none;fill-rule:evenodd;"
d="M 142.9525,83.0750
143.0099,83.0864
143.0586,83.1189
143.0911,83.1676
143.1025,83.2250
143.1025,84.2500
143.0911,84.3074
143.0586,84.3561
143.0099,84.3886
142.9525,84.4000
142.6525,84.4000
142.5951,84.3886
142.5464,84.3561
142.5139,84.3074
142.5025,84.2500
142.5025,83.2250
142.5139,83.1676
142.5464,83.1189
142.5951,83.0864
142.6525,83.0750
Z" /> 
<path style="fill:#37CBCB; fill-opacity:1.0000; stroke:none;fill-rule:evenodd;"
d="M 143.9025,83.0750
143.9599,83.0864
144.0086,83.1189
144.0411,83.1676
144.0525,83.2250
144.0525,84.2500
144.0411,84.3074
144.0086,84.3561
143.9599,84.3886
143.9025,84.4000
143.6025,84.4000
143.5451,84.3886
143.4964,84.3561
143.4639,84.3074
143.4525,84.2500
143.4525,83.2250
143.4639,83.1676
143.4964,83.1189
143.5451,83.0864
143.6025,83.0750
Z" /> 
<path style="fill:#37CBCB; fill-opacity:1.0000; stroke:none;fill-rule:evenodd;"
d="M 187.0000,97.5500
189.0000,97.5500
189.0000,98.4500
187.0000,98.4500
Z" /> 
<path style="fill:#37CBCB; fill-opacity:1.0000; stroke:none;fill-rule:evenodd;"
d="M 187.0000,111.0500
189.0000,111.0500
189.0000,111.9500
187.0000,111.9500
Z" /> 
<path style="fill:#37CBCB; fill-opacity:1.0000; stroke:none;fill-rule:evenodd;"
d="M 183.0250,106.3000
183.2250,106.3197
183.4173,106.3780
183.5945,106.4727
183.7498,106.6002
183.8773,106.7555
183.9720,106.9327
184.0303,107.1250
184.0500,107.3250
184.0500,109.3750
184.0303,109.5750
183.9720,109.7673
183.8773,109.9445
183.7498,110.0998
183.5945,110.2273
183.4173,110.3220
183.2250,110.3803
183.0250,110.4000
180.9750,110.4000
180.7750,110.3803
180.5827,110.3220
180.4055,110.2273
180.2502,110.0998
180.1227,109.9445
180.0280,109.7673
179.9697,109.5750
179.9500,109.3750
179.9500,107.3250
179.9697,107.1250
180.0280,106.9327
180.1227,106.7555
180.2502,106.6002
180.4055,106.4727
180.5827,106.3780
180.7750,106.3197
180.9750,106.3000
Z" /> 
</g>
<g style="fill:#37CBCB; fill-opacity:1.0000; stroke:none;">
<circle cx="182.0000" cy="101.1500" r="2.0500" /> 
<path style="fill:#37CBCB; fill-opacity:1.0000; stroke:none;fill-rule:evenodd;"
d="M 147.6950,77.6600
147.6874,77.6983
147.6657,77.7307
147.6333,77.7524
147.5950,77.7600
147.3350,77.7600
147.2967,77.7524
147.2643,77.7307
147.2426,77.6983
147.2350,77.6600
147.2350,77.4600
147.2426,77.4217
147.2643,77.3893
147.2967,77.3676
147.3350,77.3600
147.5950,77.3600
147.6333,77.3676
147.6657,77.3893
147.6874,77.4217
147.6950,77.4600
Z" /> 
<path style="fill:#37CBCB; fill-opacity:1.0000; stroke:none;fill-rule:evenodd;"
d="M 147.0550,77.6600
147.0474,77.6983
147.0257,77.7307
146.9933,77.7524
146.9550,77.7600
146.6950,77.7600
146.6567,77.7524
146.6243,77.7307
146.6026,77.6983
146.5950,77.6600
146.5950,77.4600
146.6026,77.4217
146.6243,77.3893
146.6567,77.3676
146.6950,77.3600
146.9550,77.3600
146.9933,77.3676
147.0257,77.3893
147.0474,77.4217
147.0550,77.4600
Z" /> 
<path style="fill:#37CBCB; fill-opacity:1.0000; stroke:none;fill-rule:evenodd;"
d="M 161.4350,79.4900
161.4426,79.4517
161.4643,79.4193
161.4967,79.3976
161.5350,79.3900
161.7950,79.3900
161.8333,79.3976
161.8657,79.4193
161.8874,79.4517
161.8950,79.4900
161.8950,79.6900
161.8874,79.7283
161.8657,79.7607
161.8333,79.7824
161.7950,79.7900
161.5350,79.7900
161.4967,79.7824
161.4643,79.7607
161.4426,79.7283
161.4350,79.6900
Z" /> 
<path style="fill:#37CBCB; fill-opacity:1.0000; stroke:none;fill-rule:evenodd;"
d="M 162.0750,79.4900
162.0826,79.4517
162.1043,79.4193
162.1367,79.3976
162.1750,79.3900
162.4350,79.3900
162.4733,79.3976
162.5057,79.4193
162.5274,79.4517
162.5350,79.4900
162.5350,79.6900
162.5274,79.7283
162.5057,79.7607
162.4733,79.7824
162.4350,79.7900
162.1750,79.7900
162.1367,79.7824
162.1043,79.7607
162.0826,79.7283
162.0750,79.6900
Z" /> 
</g>
<g style="fill:#37CBCB; fill-opacity:1.0000; stroke:none;">
<circle cx="126.6500" cy="82.4500" r="0.3000" /> 
</g>
<g style="fill:#37CBCB; fill-opacity:1.0000; stroke:none;">
<circle cx="128.0000" cy="81.6500" r="0.3000" /> 
</g>
<g style="fill:#37CBCB; fill-opacity:1.0000; stroke:none;">
<circle cx="145.0500" cy="84.6000" r="0.3000" /> 
</g>
<g style="fill:#37CBCB; fill-opacity:1.0000; stroke:none;">
<circle cx="145.0500" cy="83.4500" r="0.3000" /> 
</g>
<g style="fill:#37CBCB; fill-opacity:1.0000; stroke:none;">
<circle cx="146.1500" cy="83.4500" r="0.3000" /> 
</g>
<g style="fill:#37CBCB; fill-opacity:1.0000; stroke:none;">
<circle cx="126.6500" cy="80.8000" r="0.3000" /> 
</g>
<g style="fill:#37CBCB; fill-opacity:1.0000; stroke:none;">
<circle cx="128.0000" cy="80.8000" r="0.3000" /> 
</g>
<g style="fill:#37CBCB; fill-opacity:1.0000; stroke:none;">
<circle cx="145.0500" cy="85.7000" r="0.3000" /> 
</g>
<g style="fill:#37CBCB; fill-opacity:1.0000; stroke:none;">
<circle cx="126.6500" cy="81.6500" r="0.3000" /> 
</g>
<g style="fill:#37CBCB; fill-opacity:1.0000; stroke:none;">
<circle cx="146.1500" cy="84.6000" r="0.3000" /> 
</g>
<g style="fill:#37CBCB; fill-opacity:1.0000; stroke:none;">
<circle cx="146.2000" cy="85.7000" r="0.3000" /> 
</g>
<g style="fill:#37CBCB; fill-opacity:1.0000; stroke:none;">
<circle cx="128.0000" cy="82.4500" r="0.3000" /> 
</g>
<g style="fill:#37CBCB; fill-opacity:1.0000; stroke:none;">
<circle cx="144.1300" cy="69.0700" r="0.3000" /> 
</g>
<g style="fill:#37CBCB; fill-opacity:1.0000; stroke:none;">
<circle cx="163.5900" cy="67.5900" r="0.3000" /> 
</g>
<g style="fill:#37CBCB; fill-opacity:1.0000; stroke:none;">
<circle cx="162.3600" cy="68.9500" r="0.3000" /> 
</g>
<g style="fill:#37CBCB; fill-opacity:1.0000; stroke:none;">
<circle cx="143.6600" cy="95.4100" r="0.3000" /> 
</g>
<g style="fill:#37CBCB; fill-opacity:1.0000; stroke:none;">
<circle cx="144.6200" cy="95.4300" r="0.3000" /> 
</g>
<g style="fill:#37CBCB; fill-opacity:1.0000; stroke:none;">
<circle cx="145.3800" cy="69.1000" r="0.3000" /> 
</g>
<g style="fill:#37CBCB; fill-opacity:1.0000; stroke:none;">
<circle cx="172.9600" cy="108.0800" r="0.3000" /> 
</g>
<g style="fill:#37CBCB; fill-opacity:1.0000; stroke:none;">
<circle cx="144.1400" cy="67.6800" r="0.3000" /> 
</g>
<g style="fill:#37CBCB; fill-opacity:1.0000; stroke:none;">
<circle cx="162.3700" cy="67.5600" r="0.3000" /> 
</g>
<g style="fill:#37CBCB; fill-opacity:1.0000; stroke:none;">
<circle cx="143.6600" cy="95.4100" r="0.3000" /> 
</g>
<g style="fill:#37CBCB; fill-opacity:1.0000; stroke:none;">
<circle cx="163.6100" cy="68.9800" r="0.3000" /> 
</g>
<g style="fill:#37CBCB; fill-opacity:1.0000; stroke:none;">
<circle cx="173.2700" cy="123.2200" r="0.3000" /> 
</g>
<g style="fill:#37CBCB; fill-opacity:1.0000; stroke:none;">
<circle cx="145.3600" cy="67.7100" r="0.3000" /> 
</g>
<g style="fill:#37CBCB; fill-opacity:1.0000; stroke:none;">
<circle cx="145.3600" cy="67.7100" r="0.3000" /> 
</g>
<g style="fill:#37CBCB; fill-opacity:1.0000; stroke:none;">
<circle cx="172.9800" cy="109.4700" r="0.3000" /> 
</g>
<g style="fill:#37CBCB; fill-opacity:1.0000; stroke:none;">
<circle cx="171.7400" cy="108.0500" r="0.3000" /> 
</g>
<g style="fill:#37CBCB; fill-opacity:1.0000; stroke:none;">
<circle cx="144.5300" cy="94.0800" r="0.3000" /> 
</g>
<g style="fill:#37CBCB; fill-opacity:1.0000; stroke:none;">
<circle cx="144.1300" cy="69.0700" r="0.3000" /> 
</g>
<g style="fill:#37CBCB; fill-opacity:1.0000; stroke:none;">
<circle cx="173.2700" cy="121.7200" r="0.3000" /> 
</g>
<g style="fill:#37CBCB; fill-opacity:1.0000; stroke:none;">
<circle cx="144.6200" cy="95.4300" r="0.3000" /> 
</g>
<g style="fill:#37CBCB; fill-opacity:1.0000; stroke:none;">
<circle cx="162.3600" cy="68.9500" r="0.3000" /> 
</g>
<g style="fill:#37CBCB; fill-opacity:1.0000; stroke:none;">
<circle cx="162.3700" cy="67.5600" r="0.3000" /> 
</g>
<g style="fill:#37CBCB; fill-opacity:1.0000; stroke:none;">
<circle cx="172.9800" cy="109.4700" r="0.3000" /> 
</g>
<g style="fill:#37CBCB; fill-opacity:1.0000; stroke:none;">
<circle cx="171.7300" cy="109.4400" r="0.3000" /> 
</g>
<g style="fill:#37CBCB; fill-opacity:1.0000; stroke:none;">
<circle cx="163.6100" cy="68.9800" r="0.3000" /> 
</g>
<g style="fill:#37CBCB; fill-opacity:1.0000; stroke:none;">
<circle cx="163.5900" cy="67.5900" r="0.3000" /> 
</g>
<g style="fill:#37CBCB; fill-opacity:1.0000; stroke:none;">
<circle cx="145.3800" cy="69.1000" r="0.3000" /> 
</g>
<g style="fill:#37CBCB; fill-opacity:1.0000; stroke:none;">
<circle cx="172.9600" cy="108.0800" r="0.3000" /> 
</g>
<g style="fill:#37CBCB; fill-opacity:1.0000; stroke:none;">
<circle cx="171.7400" cy="108.0500" r="0.3000" /> 
</g>
<g style="fill:#37CBCB; fill-opacity:1.0000; stroke:none;">
<circle cx="173.2700" cy="120.2200" r="0.3000" /> 
</g>
<g style="fill:#37CBCB; fill-opacity:1.0000; stroke:none;">
<circle cx="171.7300" cy="109.4400" r="0.3000" /> 
</g>
<g style="fill:#37CBCB; fill-opacity:1.0000; stroke:none;">
<circle cx="143.6600" cy="94.1000" r="0.3000" /> 
</g>
<g style="fill:#37CBCB; fill-opacity:1.0000; stroke:none;">
<circle cx="143.6600" cy="94.1000" r="0.3000" /> 
</g>
<g style="fill:#37CBCB; fill-opacity:1.0000; stroke:none;">
<circle cx="144.1400" cy="67.6800" r="0.3000" /> 
</g>
<g style="fill:#37CBCB; fill-opacity:1.0000; stroke:none;">
<circle cx="144.5300" cy="94.0800" r="0.3000" /> 
</g>
<g style="fill:#37CBCB; fill-opacity:1.0000; stroke:none;">
<circle cx="162.3500" cy="86.8000" r="0.3000" /> 
</g>
<g style="fill:#37CBCB; fill-opacity:1.0000; stroke:none;">
<circle cx="166.6100" cy="78.8200" r="0.3000" /> 
</g>
<g style="fill:#37CBCB; fill-opacity:1.0000; stroke:none;">
<circle cx="162.3500" cy="84.6500" r="0.3000" /> 
</g>
<g style="fill:#37CBCB; fill-opacity:1.0000; stroke:none;">
<circle cx="154.0500" cy="86.6500" r="0.3000" /> 
</g>
<g style="fill:#37CBCB; fill-opacity:1.0000; stroke:none;">
<circle cx="152.9500" cy="86.6500" r="0.3000" /> 
</g>
<g style="fill:#37CBCB; fill-opacity:1.0000; stroke:none;">
<circle cx="152.9500" cy="85.5000" r="0.3000" /> 
</g>
<g style="fill:#37CBCB; fill-opacity:1.0000; stroke:none;">
<circle cx="152.9500" cy="84.4000" r="0.3000" /> 
</g>
<g style="fill:#37CBCB; fill-opacity:1.0000; stroke:none;">
<circle cx="162.3500" cy="85.8500" r="0.3000" /> 
</g>
<g style="fill:#37CBCB; fill-opacity:1.0000; stroke:none;">
<circle cx="165.8800" cy="78.8100" r="0.3000" /> 
</g>
<g style="fill:#37CBCB; fill-opacity:1.0000; stroke:none;">
<circle cx="163.3500" cy="86.8000" r="0.3000" /> 
</g>
<g style="fill:#37CBCB; fill-opacity:1.0000; stroke:none;">
<circle cx="130.3000" cy="84.9500" r="0.3000" /> 
</g>
<g style="fill:#37CBCB; fill-opacity:1.0000; stroke:none;">
<circle cx="130.3000" cy="83.8500" r="0.3000" /> 
</g>
<g style="fill:#37CBCB; fill-opacity:1.0000; stroke:none;">
<circle cx="131.2000" cy="83.8500" r="0.3000" /> 
</g>
<g style="fill:#37CBCB; fill-opacity:1.0000; stroke:none;">
<circle cx="139.1000" cy="84.0000" r="0.3000" /> 
</g>
<g style="fill:#37CBCB; fill-opacity:1.0000; stroke:none;">
<circle cx="148.5000" cy="78.3000" r="0.3000" /> 
</g>
<g style="fill:#37CBCB; fill-opacity:1.0000; stroke:none;">
<circle cx="139.9000" cy="84.0500" r="0.3000" /> 
</g>
<g style="fill:#37CBCB; fill-opacity:1.0000; stroke:none;">
<circle cx="148.5000" cy="77.6000" r="0.3000" /> 
</g>
<g style="fill:#37CBCB; fill-opacity:1.0000; stroke:none;">
<circle cx="139.9000" cy="83.1500" r="0.3000" /> 
</g>
<g style="fill:#37CBCB; fill-opacity:1.0000; stroke:none;">
<circle cx="131.2500" cy="84.9500" r="0.3000" /> 
</g>
<g style="fill:#37CBCB; fill-opacity:1.0000; stroke:none;">
<circle cx="147.7000" cy="78.3000" r="0.3000" /> 
</g>
<g style="fill:#37CBCB; fill-opacity:1.0000; stroke:none;">
<circle cx="139.1000" cy="83.1500" r="0.3000" /> 
</g>
<g style="fill:#37CBCB; fill-opacity:1.0000; stroke:none;">
<circle cx="168.2100" cy="85.7100" r="0.3000" /> 
</g>
<g style="fill:#37CBCB; fill-opacity:1.0000; stroke:none;">
<circle cx="152.5200" cy="82.5900" r="0.3000" /> 
</g>
<g style="fill:#37CBCB; fill-opacity:1.0000; stroke:none;">
<circle cx="151.6500" cy="82.5600" r="0.3000" /> 
</g>
<g style="fill:#37CBCB; fill-opacity:1.0000; stroke:none;">
<circle cx="166.5800" cy="84.6100" r="0.3000" /> 
</g>
<g style="fill:#37CBCB; fill-opacity:1.0000; stroke:none;">
<circle cx="153.3500" cy="81.4600" r="0.3000" /> 
</g>
<g style="fill:#37CBCB; fill-opacity:1.0000; stroke:none;">
<circle cx="153.3400" cy="82.5600" r="0.3000" /> 
</g>
<g style="fill:#37CBCB; fill-opacity:1.0000; stroke:none;">
<circle cx="151.7100" cy="81.4600" r="0.3000" /> 
</g>
<g style="fill:#37CBCB; fill-opacity:1.0000; stroke:none;">
<circle cx="167.4100" cy="84.6000" r="0.3000" /> 
</g>
<g style="fill:#37CBCB; fill-opacity:1.0000; stroke:none;">
<circle cx="167.3900" cy="85.7400" r="0.3000" /> 
</g>
<g style="fill:#37CBCB; fill-opacity:1.0000; stroke:none;">
<circle cx="168.2200" cy="84.6100" r="0.3000" /> 
</g>
<g style="fill:#37CBCB; fill-opacity:1.0000; stroke:none;">
<circle cx="166.5200" cy="85.7100" r="0.3000" /> 
</g>
<g style="fill:#37CBCB; fill-opacity:1.0000; stroke:none;">
<circle cx="152.5400" cy="81.4500" r="0.3000" /> 
</g>
<g style="fill:#37CBCB; fill-opacity:1.0000; stroke:none;">
<circle cx="114.2000" cy="95.5095" r="0.3000" /> 
</g>
<g style="fill:#37CBCB; fill-opacity:1.0000; stroke:none;">
<circle cx="114.2000" cy="97.0000" r="0.3000" /> 
</g>
<g style="fill:none; 
stroke:#37CBCB; stroke-width:0.2540; stroke-opacity:1; 
stroke-linecap:round; stroke-linejoin:round;">
<path d="M115.7224 97.4424
L114.6424 97.4424
" />
<path d="M117.5004 94.0512
L117.5716 93.9800
" />
<path d="M117.5004 94.9452
L117.5004 94.0512
" />
<path d="M114.6424 97.4424
L114.2000 97.0000
" />
<path d="M114.2000 95.5095
L114.7643 94.9452
" />
<path d="M114.7643 94.9452
L117.5004 94.9452
" />
</g>
<g style="fill:none; 
stroke:#37CBCB; stroke-width:0.3810; stroke-opacity:1; 
stroke-linecap:round; stroke-linejoin:round;">
<path d="M156.1919 122.5615
L125.3115 122.5615
" />
<path d="M156.4910 120.2776
L156.4910 122.2624
" />
<path d="M115.7224 96.6224
L115.7224 96.9239
" />
<path d="M115.3000 96.2000
L115.7224 96.6224
" />
<path d="M125.3115 122.5615
L113.1000 110.3500
" />
<path d="M155.2870 119.9700
L156.1834 119.9700
" />
<path d="M113.1000 96.9000
L113.8000 96.2000
" />
<path d="M156.4910 122.2624
L156.1919 122.5615
" />
<path d="M113.1000 110.3500
L113.1000 96.9000
" />
<path d="M113.8000 96.2000
L115.3000 96.2000
" />
<path d="M156.1834 119.9700
L156.4910 120.2776
" />
<path d="M155.2870 120.6200
L129.0020 120.6200
" />
<path d="M129.0020 120.6200
L122.8344 114.4524
" />
<path style="fill:#37CBCB; fill-opacity:1.0000; stroke:none;fill-rule:evenodd;"
d="M 143.1990,82.5697
143.2448,82.6225
143.2560,82.6740
143.2560,83.1553
143.2547,83.1732
143.2520,83.1917
143.2520,84.2833
143.2534,84.2927
143.2547,84.3018
143.2560,84.3197
143.2560,87.4750
155.1000,87.4750
155.1000,84.1751
155.1197,84.1080
155.1725,84.0623
155.1855,84.0572
155.1956,84.0539
155.2014,84.0531
155.2079,84.0499
155.2161,84.0472
155.2215,84.0471
155.2365,84.0424
155.4890,84.0053
155.5160,84.0013
155.5341,84.0000
160.0769,84.0000
160.1439,84.0197
160.1897,84.0725
160.2009,84.1231
160.2250,87.4500
161.6000,87.4750
164.1750,87.4750
164.1750,84.2496
164.1947,84.1825
164.2475,84.1368
164.2997,84.1256
164.9779,84.1293
164.9857,84.1316
164.9936,84.1304
165.0186,84.1415
165.0448,84.1494
165.0501,84.1555
165.0575,84.1588
165.0725,84.1817
165.0903,84.2024
165.0924,84.2119
165.0958,84.2172
165.1012,84.2521
165.1030,84.4262
165.0840,84.4935
165.0667,84.5152
165.0333,84.5485
164.9819,84.6536
164.9720,84.7217
164.9720,85.8133
164.9819,85.8814
165.0333,85.9865
165.0837,86.0368
165.1171,86.0982
165.1200,86.1233
165.1250,86.6250
171.4992,86.5500
171.5007,86.5500
175.5754,86.5500
175.6424,86.5697
175.6882,86.6225
175.6994,86.6746
175.6553,95.4843
175.6506,96.4266
175.6306,96.4936
175.5776,96.5391
175.5266,96.5500
166.9740,96.5500
166.9070,96.5303
166.8612,96.4775
166.8500,96.4260
166.8500,91.4400
165.4861,91.4400
165.4191,91.4203
165.3733,91.3675
165.3634,91.2984
165.3924,91.2348
165.4132,91.2157
165.5358,91.1266
165.6666,90.9958
165.7754,90.8461
165.8594,90.6812
165.9166,90.5053
165.9455,90.3225
165.9455,90.1375
171.0945,90.1375
171.0945,90.3225
171.1234,90.5053
171.1806,90.6812
171.1806,90.6812
171.2646,90.8461
171.3734,90.9958
171.5042,91.1266
171.6539,91.2354
171.7238,91.2710
171.8188,91.3194
171.8188,91.3194
171.8842,91.3406
171.9947,91.3766
172.1775,91.4055
172.1775,91.4055
172.3625,91.4055
172.3625,91.4055
172.5453,91.3766
172.7212,91.3194
172.8861,91.2354
173.0358,91.1266
173.1666,90.9958
173.2754,90.8461
173.3594,90.6812
173.4166,90.5053
173.4455,90.3225
173.4455,90.1375
173.4166,89.9547
173.3594,89.7788
173.3594,89.7788
173.2754,89.6139
173.1666,89.4642
173.0358,89.3334
172.8861,89.2246
172.7212,89.1406
172.7212,89.1406
172.5453,89.0834
172.4539,89.0690
172.3625,89.0545
172.1775,89.0545
172.1166,89.0641
171.9947,89.0834
171.8188,89.1406
171.8188,89.1406
171.6539,89.2246
171.5685,89.2867
171.5042,89.3334
171.5042,89.3334
171.5042,89.3334
171.3734,89.4642
171.3734,89.4642
171.3734,89.4642
171.3267,89.5285
171.2646,89.6139
171.1806,89.7788
171.1806,89.7788
171.1234,89.9547
171.0945,90.1375
165.9455,90.1375
165.9166,89.9547
165.8594,89.7788
165.8594,89.7788
165.7754,89.6139
165.6666,89.4642
165.5358,89.3334
165.3861,89.2246
165.2212,89.1406
165.2212,89.1406
165.0453,89.0834
164.9539,89.0690
164.8625,89.0545
164.6775,89.0545
164.6166,89.0641
164.4947,89.0834
164.3188,89.1406
164.3188,89.1406
164.1539,89.2246
164.0685,89.2867
164.0042,89.3334
164.0042,89.3334
164.0042,89.3334
163.8734,89.4642
163.8734,89.4642
163.8734,89.4642
163.8267,89.5285
163.7646,89.6139
163.6806,89.7788
163.6806,89.7788
163.6234,89.9547
163.5945,90.1375
163.5945,90.3225
163.6234,90.5053
163.6806,90.6812
163.6806,90.6812
163.7646,90.8461
163.8734,90.9958
164.0042,91.1266
164.1268,91.2157
164.1695,91.2710
164.1754,91.3406
164.1428,91.4024
164.0820,91.4368
164.0539,91.4400
135.6360,91.4400
135.6360,95.3800
135.6163,95.4470
135.5635,95.4928
135.5120,95.5040
133.4740,95.5040
133.4070,95.4843
133.3612,95.4315
133.3500,95.3800
133.3500,83.6900
133.3697,83.6230
133.4225,83.5772
133.4740,83.5660
138.0520,83.5660
138.1190,83.5857
138.1648,83.6385
138.1760,83.6900
138.1760,84.8360
142.2400,84.8360
142.2400,84.5595
142.2597,84.4925
142.2763,84.4719
142.2824,84.4658
142.2917,84.4565
142.3431,84.3514
142.3530,84.2833
142.3530,83.1917
142.3431,83.1236
142.2917,83.0185
142.2917,83.0185
142.2917,83.0185
142.2763,83.0031
142.2616,82.9762
142.2450,82.9504
142.2441,82.9442
142.2428,82.9418
142.2400,82.9155
142.2400,82.6740
142.2597,82.6070
142.3125,82.5612
142.3640,82.5500
143.1320,82.5500
Z" /> 
<path style="fill:#37CBCB; fill-opacity:1.0000; stroke:none;fill-rule:evenodd;"
d="M 129.8506,98.3568
129.8561,98.3575
129.9114,98.3655
137.6003,98.3655
137.6674,98.3852
137.7131,98.4380
137.7243,98.4886
137.7368,100.2276
137.7485,100.3322
137.7595,100.3824
137.7926,100.4823
137.7926,100.4823
137.8479,100.5691
137.8699,100.6036
137.9154,100.6566
137.9576,100.6935
137.9951,100.7524
138.0000,100.7868
138.0000,106.7643
137.9803,106.8314
137.9275,106.8771
137.8584,106.8871
137.8488,106.8857
137.8488,106.8857
118.4855,106.8857
118.4185,106.8660
118.3727,106.8132
118.3615,106.7617
118.3615,101.1240
118.3812,101.0570
118.4340,101.0112
118.4855,101.0000
127.5000,101.0000
127.5000,98.4795
127.5197,98.4125
127.5725,98.3667
127.6240,98.3555
129.8329,98.3555
Z" /> 
<path style="fill:#37CBCB; fill-opacity:1.0000; stroke:none;fill-rule:evenodd;"
d="M 147.5429,82.5697
147.5887,82.6225
147.6000,82.6741
147.6000,86.8760
147.5803,86.9430
147.5275,86.9888
147.4760,87.0000
143.6240,87.0000
143.5570,86.9803
143.5112,86.9275
143.5000,86.8760
143.5000,82.6779
143.5197,82.6109
143.5725,82.5651
143.6239,82.5539
147.4759,82.5501
Z" /> 
<path style="fill:#37CBCB; fill-opacity:1.0000; stroke:none;fill-rule:evenodd;"
d="M 150.1840,58.5202
150.2298,58.5730
150.2410,58.6245
150.2410,77.0770
150.2213,77.1440
150.1685,77.1898
150.1170,77.2010
149.0660,77.2010
148.9990,77.1813
148.9880,77.1723
148.9878,77.1725
148.9808,77.1672
148.9009,77.1225
148.9009,77.1225
148.8339,77.1028
148.8339,77.1028
148.8339,77.1028
148.7760,77.0945
147.3968,77.0945
147.3968,77.0945
147.3968,77.0945
147.3780,77.0954
147.3780,77.0954
147.3554,77.0974
147.2813,77.1188
147.2190,77.1504
147.2190,77.1504
147.1973,77.1631
147.1973,77.1631
147.1842,77.1770
147.1239,77.2123
147.0939,77.2160
147.0390,77.2160
147.0390,77.3692
147.0382,77.3835
147.0345,77.4151
147.0345,77.7049
147.0345,77.7049
147.0382,77.7365
147.0390,77.7508
147.0390,78.6160
147.0193,78.6830
146.9665,78.7288
146.9150,78.7400
144.6795,78.7400
144.6125,78.7203
144.5667,78.6675
144.5555,78.6160
144.5555,77.9422
144.5624,77.9096
144.5601,77.9090
144.5626,77.9000
144.5626,77.9000
144.5655,77.8749
144.5655,77.5851
144.5626,77.5600
144.5626,77.5600
144.5601,77.5510
144.5624,77.5504
144.5555,77.5178
144.5555,77.2740
144.5555,77.2740
144.5508,77.2303
144.5469,77.2123
144.5396,77.1788
144.5381,77.1725
144.5371,77.1686
144.4941,77.0879
144.4483,77.0351
144.4308,77.0172
144.3990,76.9994
144.3990,76.9620
144.3151,76.9620
144.2871,76.9538
144.2871,76.9538
144.2839,76.9528
144.2839,76.9528
144.2839,76.9528
144.2260,76.9445
140.8393,76.9445
140.7723,76.9248
140.7265,76.8720
140.7153,76.8211
140.6666,66.9802
146.8495,66.9802
146.8495,69.0198
146.8611,69.0782
146.8611,69.0782
146.9054,69.1446
146.9718,69.1889
146.9718,69.1889
147.0302,69.2005
147.0302,69.2005
147.0303,69.2005
147.9698,69.2005
147.9698,69.2005
147.9846,69.1976
148.0282,69.1889
148.0282,69.1889
148.0282,69.1889
148.0946,69.1446
148.1389,69.0782
148.1389,69.0782
148.1389,69.0782
148.1505,69.0198
148.1505,69.0198
148.1505,66.9802
148.1505,66.9802
148.1389,66.9218
148.1389,66.9218
148.0946,66.8554
148.0282,66.8111
148.0282,66.8111
147.9698,66.7995
147.9697,66.7995
147.0303,66.7995
147.0302,66.7995
146.9718,66.8111
146.9718,66.8111
146.9054,66.8554
146.8611,66.9218
146.8611,66.9218
146.8495,66.9802
140.6666,66.9802
140.6666,66.9748
140.6253,58.6251
140.6446,58.5580
140.6972,58.5120
140.7493,58.5005
150.1170,58.5005
Z" /> 
<path style="fill:#37CBCB; fill-opacity:1.0000; stroke:none;fill-rule:evenodd;"
d="M 140.1329,58.5202
140.1787,58.5730
140.1899,58.6246
140.1874,63.9582
140.1814,77.1030
140.1735,77.1421
140.1745,77.1424
140.1528,77.2161
140.1445,77.2740
140.1445,82.0760
140.1492,82.1197
140.1497,82.1230
140.1489,82.1231
140.1442,82.1893
140.1023,82.2453
140.0369,82.2697
140.0280,82.2700
135.2400,82.2700
135.2400,82.9560
135.2203,83.0230
135.1675,83.0688
135.1160,83.0800
123.5339,83.0800
123.4669,83.0603
123.4211,83.0075
123.4099,82.9559
123.4105,81.8669
123.4177,68.7298
123.4374,68.6628
123.4523,68.6439
125.0532,66.9802
133.3495,66.9802
133.3495,69.0198
133.3611,69.0782
133.3611,69.0782
133.4054,69.1446
133.4718,69.1889
133.4718,69.1889
133.5302,69.2005
133.5302,69.2005
133.5303,69.2005
134.4698,69.2005
134.4698,69.2005
134.4846,69.1976
134.5282,69.1889
134.5282,69.1889
134.5282,69.1889
134.5946,69.1446
134.6389,69.0782
134.6389,69.0782
134.6389,69.0782
134.6505,69.0198
134.6505,69.0198
134.6505,66.9802
134.6505,66.9802
134.6389,66.9218
134.6389,66.9218
134.5946,66.8554
134.5282,66.8111
134.5282,66.8111
134.4698,66.7995
134.4697,66.7995
133.5303,66.7995
133.5302,66.7995
133.4718,66.8111
133.4718,66.8111
133.4054,66.8554
133.3611,66.9218
133.3611,66.9218
133.3495,66.9802
125.0532,66.9802
133.0921,58.6261
133.1764,58.5385
133.2371,58.5039
133.2657,58.5005
140.0659,58.5005
Z" /> 
<path style="fill:#37CBCB; fill-opacity:1.0000; stroke:none;fill-rule:evenodd;"
d="M 148.8430,77.3197
148.8888,77.3725
148.9000,77.4240
148.9000,78.6160
148.8803,78.6830
148.8275,78.7288
148.7760,78.7400
147.3740,78.7400
147.3070,78.7203
147.2612,78.6675
147.2500,78.6160
147.2500,77.7561
147.2522,77.7393
147.2515,77.7393
147.2526,77.7300
147.2555,77.7049
147.2555,77.4933
147.2592,77.4632
147.2765,77.3939
147.3119,77.3337
147.3742,77.3021
147.3968,77.3000
148.7760,77.3000
Z" /> 
<path style="fill:#37CBCB; fill-opacity:1.0000; stroke:none;fill-rule:evenodd;"
d="M 141.9794,82.5481
142.0251,82.6009
142.0351,82.6701
142.0345,82.6740
142.0345,82.9155
142.0353,82.9307
142.0353,82.9307
142.0357,82.9374
142.0365,82.9449
142.0365,82.9449
142.0385,82.9638
142.0398,82.9698
142.0395,82.9698
142.0415,82.9785
142.0416,82.9796
142.0416,82.9796
142.0416,82.9797
142.0520,83.0076
142.0520,83.0076
142.0532,83.0107
142.0625,83.0403
142.0638,83.0427
142.0649,83.0420
142.0711,83.0588
142.0712,83.0588
142.0721,83.0615
142.0721,83.0615
142.0823,83.0773
142.0867,83.0847
142.0883,83.0875
142.0883,83.0875
142.0883,83.0877
142.0884,83.0877
142.0960,83.1016
142.1109,83.1216
142.1231,83.1415
142.1349,83.1657
142.1475,83.2201
142.1475,84.2549
142.1349,84.3093
142.1279,84.3236
142.1131,84.3469
142.0997,84.3636
142.0625,84.4346
142.0428,84.5016
142.0428,84.5016
142.0396,84.5241
142.0106,84.5877
141.9518,84.6255
141.9169,84.6305
138.6240,84.6305
138.5570,84.6108
138.5112,84.5580
138.5000,84.5065
138.5000,82.6524
138.5197,82.5854
138.5725,82.5396
138.6240,82.5284
141.9123,82.5284
Z" /> 
<path style="fill:#37CBCB; fill-opacity:1.0000; stroke:none;fill-rule:evenodd;"
d="M 144.2930,77.1697
144.3388,77.2225
144.3500,77.2740
144.3500,77.5339
144.3478,77.5507
144.3485,77.5507
144.3445,77.5851
144.3445,77.8749
144.3445,77.8749
144.3485,77.9093
144.3478,77.9093
144.3500,77.9261
144.3500,82.0760
144.3303,82.1430
144.2775,82.1888
144.2260,82.2000
140.4740,82.2000
140.4070,82.1803
140.3612,82.1275
140.3500,82.0760
140.3500,77.2740
140.3697,77.2070
140.4225,77.1612
140.4740,77.1500
144.2260,77.1500
Z" /> 
<path style="fill:#37CBCB; fill-opacity:1.0000; stroke:none;fill-rule:evenodd;"
d="M 196.3230,106.2397
196.3688,106.2925
196.3800,106.3440
196.3800,117.6060
196.3603,117.6730
196.3075,117.7188
196.2560,117.7300
192.6104,117.7300
192.5434,117.7103
192.4976,117.6575
192.4880,117.6254
192.4548,117.4158
192.4548,117.4158
192.3891,117.2137
192.2926,117.0243
192.2926,117.0242
192.2926,117.0242
192.1676,116.8523
192.0173,116.7020
191.8453,116.5770
191.6559,116.4805
191.6559,116.4805
191.6559,116.4805
191.4538,116.4148
191.4538,116.4148
191.4538,116.4148
191.2925,116.3893
191.2438,116.3816
191.0312,116.3816
190.9826,116.3893
190.8213,116.4148
190.6191,116.4805
190.4297,116.5770
190.2577,116.7020
190.1074,116.8523
189.9825,117.0242
189.8860,117.2137
189.8203,117.4158
189.7871,117.6254
189.7572,117.6885
189.6978,117.7255
189.6646,117.7300
169.5940,117.7300
169.5270,117.7103
169.4812,117.6575
169.4700,117.6060
169.4700,111.0021
186.4995,111.0021
186.4995,111.9979
186.4995,111.9979
186.5059,112.0575
186.5562,112.1923
186.5562,112.1923
186.6425,112.3075
186.6425,112.3075
186.7577,112.3938
186.7577,112.3938
186.8925,112.4441
186.8925,112.4441
186.8994,112.4448
186.9521,112.4505
189.0479,112.4505
189.1075,112.4441
189.2423,112.3938
189.3575,112.3075
189.4438,112.1923
189.4941,112.0575
189.5005,111.9979
189.5005,111.0021
189.4941,110.9425
189.4438,110.8077
189.4438,110.8077
189.4438,110.8077
189.3575,110.6925
189.3575,110.6925
189.2423,110.6062
189.2423,110.6062
189.1075,110.5559
189.1075,110.5559
189.0479,110.5495
189.0479,110.5495
189.0479,110.5495
189.0479,110.5495
186.9521,110.5495
186.9521,110.5495
186.8925,110.5559
186.7577,110.6062
186.7577,110.6062
186.6425,110.6925
186.6425,110.6925
186.5562,110.8077
186.5562,110.8077
186.5059,110.9425
186.4995,111.0021
186.4995,111.0021
186.4995,111.0021
169.4700,111.0021
169.4700,106.3440
169.4897,106.2770
169.5425,106.2312
169.5940,106.2200
196.2560,106.2200
Z" /> 
<path style="fill:#37CBCB; fill-opacity:1.0000; stroke:none;fill-rule:evenodd;"
d="M 175.2130,118.2397
175.2588,118.2925
175.2700,118.3440
175.2700,124.0960
175.2503,124.1630
175.1975,124.2088
175.1460,124.2200
166.3940,124.2200
166.3270,124.2003
166.2812,124.1475
166.2700,124.0960
166.2700,118.3440
166.2897,118.2770
166.3425,118.2312
166.3940,118.2200
175.1460,118.2200
Z" /> 
<path style="fill:#37CBCB; fill-opacity:1.0000; stroke:none;fill-rule:evenodd;"
d="M 126.8774,98.2994
126.9445,98.3192
126.9901,98.3721
127.0000,98.4411
126.9945,98.4795
126.9945,100.3705
126.9748,100.4375
126.9220,100.4833
126.8705,100.4945
118.4855,100.4945
118.4855,100.4945
118.4855,100.4945
118.3780,100.5061
118.3780,100.5061
118.3265,100.5173
118.2247,100.5512
118.1548,100.5537
118.0947,100.5180
118.0635,100.4555
118.0615,100.4335
118.0615,98.6990
118.0615,98.6990
118.0575,98.6589
118.0575,98.6589
118.0575,98.6589
118.0481,98.6115
118.0481,98.6115
118.0474,98.6092
118.0445,98.5974
118.0412,98.5809
118.0388,98.5567
118.0388,98.4444
118.0585,98.3774
118.1113,98.3316
118.1628,98.3204
119.0573,98.3204
119.1244,98.3401
119.1317,98.3452
119.1344,98.3472
119.1401,98.3511
119.1537,98.3586
119.1536,98.3586
119.1569,98.3601
119.2134,98.3927
119.2802,98.4132
119.3380,98.4222
119.5329,98.4247
121.8719,98.4539
121.8719,98.4539
121.8719,98.4539
121.8973,98.4514
121.9169,98.4495
121.9169,98.4495
121.9169,98.4495
121.9699,98.4383
121.9814,98.4355
122.0621,98.3925
122.1149,98.3468
122.1328,98.3292
122.1328,98.3292
122.1331,98.3289
122.1948,98.2961
122.2200,98.2935
Z" /> 
<path style="fill:#37CBCB; fill-opacity:1.0000; stroke:none;fill-rule:evenodd;"
d="M 154.6754,84.0417
154.6804,84.0442
154.7320,84.0913
154.7500,84.1556
154.7500,87.1455
154.7303,87.2125
154.6775,87.2583
154.6260,87.2695
152.3240,87.2695
152.2570,87.2498
152.2112,87.1970
152.2000,87.1455
152.2000,84.1531
152.2197,84.0861
152.2725,84.0403
152.3240,84.0291
154.6209,84.0291
Z" /> 
<path style="fill:#37CBCB; fill-opacity:1.0000; stroke:none;fill-rule:evenodd;"
d="M 146.4361,91.9597
146.5031,91.9796
146.5487,92.0325
146.5599,92.0839
146.5501,100.2556
146.5304,100.3227
146.4775,100.3684
146.4256,100.3795
138.3657,100.3471
138.2988,100.3271
138.2532,100.2741
138.2422,100.2240
138.2254,97.8600
129.9114,97.8600
129.8773,97.8500
129.8500,97.8500
123.6340,97.8500
123.5670,97.8303
123.5212,97.7775
123.5100,97.7260
123.5100,97.1000
122.0855,97.1000
122.0236,97.0835
122.0047,97.0726
122.0047,97.0726
121.9379,97.0520
121.9379,97.0520
121.8801,97.0430
119.2838,97.0105
119.2838,97.0105
119.2837,97.0105
119.2806,97.0105
119.2806,97.0105
119.2806,97.0105
119.2769,97.0105
119.2161,97.0199
119.1494,97.0408
119.1316,97.0493
119.1256,97.0522
119.1254,97.0523
119.0719,97.0644
118.1628,97.0644
118.1541,97.0618
118.1452,97.0631
118.1211,97.0522
118.0958,97.0447
118.0898,97.0379
118.0816,97.0341
118.0673,97.0119
118.0500,96.9919
118.0477,96.9814
118.0438,96.9753
118.0388,96.9404
118.0388,96.8281
118.0412,96.8039
118.0445,96.7874
118.0474,96.7756
118.0481,96.7733
118.0576,96.7259
118.0615,96.6858
118.0615,95.4811
118.0615,95.4811
118.0596,95.4532
118.0596,95.4532
118.0550,95.4197
118.0257,95.3388
117.9886,95.2795
117.9875,95.2779
117.9645,95.2119
117.9644,95.2059
117.9644,94.2549
117.9750,94.2048
117.9992,94.1500
118.0021,94.1249
118.0021,93.8351
118.0021,93.8351
117.9992,93.8100
117.9992,93.8100
117.9992,93.8100
117.9750,93.7552
117.9729,93.7454
117.9694,93.7400
117.9644,93.7051
117.9644,93.6240
117.9841,93.5569
118.0369,93.5112
118.0884,93.5000
127.3368,93.5000
131.6461,93.5029
131.7131,93.5226
131.7588,93.5754
131.7700,93.6269
131.7700,95.7200
132.9799,95.7200
132.9803,95.7200
135.8700,95.7300
135.8700,95.7300
135.8700,95.7300
135.8774,92.9380
135.8797,92.0637
135.8995,91.9967
135.9525,91.9511
136.0037,91.9400
136.6300,91.9400
Z" /> 
<path style="fill:#37CBCB; fill-opacity:1.0000; stroke:none;fill-rule:evenodd;"
d="M 168.7130,112.2397
168.7588,112.2925
168.7700,112.3440
168.7700,117.5960
168.7503,117.6630
168.6975,117.7088
168.6460,117.7200
165.7700,117.7200
165.7700,126.0960
165.7503,126.1630
165.6975,126.2088
165.6460,126.2200
165.2700,126.2200
163.2700,126.2200
157.8620,126.2200
157.7950,126.2003
157.7492,126.1475
157.7380,126.0960
157.7380,121.1069
158.4990,121.1069
158.4990,121.4331
158.4990,121.4331
158.5052,121.4805
158.5052,121.4805
158.5052,121.4806
158.5342,121.5426
158.5447,121.6117
158.5342,121.6474
158.5052,121.7095
158.4990,121.7569
158.4990,122.0831
158.4990,122.0831
158.5052,122.1305
158.5538,122.2346
158.6349,122.3157
158.7390,122.3643
158.7864,122.3705
160.2376,122.3705
160.2850,122.3643
160.3891,122.3157
160.4702,122.2346
160.5188,122.1305
160.5250,122.0831
160.5250,121.7569
160.5188,121.7095
160.4898,121.6474
160.4793,121.5783
160.4898,121.5426
160.5188,121.4805
160.5250,121.4331
160.5250,121.1069
160.5188,121.0595
160.4702,120.9554
160.3891,120.8743
160.2850,120.8257
160.2850,120.8257
160.2850,120.8257
160.2376,120.8195
158.7864,120.8195
158.7713,120.8215
158.7390,120.8257
158.7390,120.8257
158.7390,120.8257
158.6349,120.8743
158.5538,120.9554
158.5052,121.0595
158.4990,121.1069
157.7380,121.1069
157.7380,119.8069
158.4990,119.8069
158.4990,120.1331
158.4990,120.1331
158.5052,120.1805
158.5538,120.2846
158.6349,120.3657
158.7390,120.4143
158.7864,120.4205
160.2376,120.4205
160.2850,120.4143
160.3891,120.3657
160.4702,120.2846
160.5188,120.1805
160.5250,120.1331
160.5250,119.8069
160.5188,119.7595
160.4702,119.6554
160.3891,119.5743
160.2850,119.5257
160.2850,119.5257
160.2850,119.5257
160.2376,119.5195
158.7864,119.5195
158.7713,119.5215
158.7390,119.5257
158.7390,119.5257
158.7390,119.5257
158.6349,119.5743
158.5538,119.6554
158.5052,119.7595
158.4990,119.8069
157.7380,119.8069
157.7380,112.3440
157.7577,112.2770
157.8105,112.2312
157.8620,112.2200
168.6460,112.2200
Z" /> 
<path style="fill:#37CBCB; fill-opacity:1.0000; stroke:none;fill-rule:evenodd;"
d="M 161.8530,79.0597
161.8988,79.1125
161.9100,79.1640
161.9100,79.3201
161.8994,79.3701
161.8774,79.4200
161.8774,79.4200
161.8745,79.4451
161.8745,79.7349
161.8745,79.7349
161.8774,79.7600
161.8774,79.7600
161.8774,79.7600
161.8774,79.7600
161.8994,79.8099
161.9100,79.8599
161.9100,80.0100
161.9100,80.1600
166.6869,80.1600
166.7539,80.1797
166.7997,80.2325
166.8109,80.2843
166.8016,83.6263
166.7817,83.6933
166.7288,83.7389
166.6776,83.7500
160.4340,83.7500
160.3670,83.7303
160.3212,83.6775
160.3100,83.6260
160.3100,79.1640
160.3297,79.0970
160.3825,79.0512
160.4340,79.0400
161.7860,79.0400
Z" /> 
<path style="fill:#37CBCB; fill-opacity:1.0000; stroke:none;fill-rule:evenodd;"
d="M 166.9430,77.8197
166.9888,77.8725
167.0000,77.9240
167.0000,79.7760
166.9803,79.8430
166.9275,79.8888
166.8760,79.9000
165.6717,79.9000
165.6047,79.8803
165.5589,79.8275
165.5485,79.7617
165.5505,79.7449
165.5505,79.7449
165.5505,79.4551
165.5505,79.4551
165.5476,79.4300
165.5476,79.4300
165.5476,79.4300
165.5106,79.3462
165.5000,79.2961
165.5000,77.9240
165.5197,77.8570
165.5725,77.8112
165.6240,77.8000
166.8760,77.8000
Z" /> 
<path style="fill:#37CBCB; fill-opacity:1.0000; stroke:none;fill-rule:evenodd;"
d="M 121.8776,97.2485
121.9443,97.2690
121.9894,97.3224
122.0000,97.3725
122.0000,98.1244
121.9803,98.1915
121.9275,98.2372
121.8744,98.2484
119.3406,98.2168
119.2738,98.1962
119.2554,98.1779
119.2538,98.1795
119.2452,98.1708
119.1788,98.1265
119.1788,98.1265
119.1204,98.1149
119.1203,98.1149
118.1240,98.1149
118.0570,98.0952
118.0112,98.0424
118.0000,97.9909
118.0000,97.3939
118.0197,97.3269
118.0725,97.2811
118.1240,97.2699
119.1203,97.2699
119.1204,97.2699
119.1788,97.2583
119.2108,97.2369
119.2775,97.2160
119.2811,97.2160
Z" /> 
<path style="fill:#37CBCB; fill-opacity:1.0000; stroke:none;fill-rule:evenodd;"
d="M 130.4002,83.3000
132.9766,83.3119
133.0435,83.3319
133.0890,83.3849
133.1000,83.4359
133.1000,85.4760
133.0803,85.5430
133.0275,85.5888
132.9760,85.6000
129.8740,85.6000
129.8070,85.5803
129.7612,85.5275
129.7500,85.4760
129.7500,83.4240
129.7697,83.3570
129.8225,83.3112
129.8740,83.3000
130.3996,83.3000
Z" /> 
<path style="fill:#37CBCB; fill-opacity:1.0000; stroke:none;fill-rule:evenodd;"
d="M 163.9221,84.0697
163.9679,84.1225
163.9778,84.1916
163.9778,84.1916
163.9695,84.2496
163.9695,87.1455
163.9498,87.2125
163.8970,87.2583
163.8455,87.2695
161.6740,87.2695
161.6070,87.2498
161.5612,87.1970
161.5500,87.1455
161.5500,84.1740
161.5697,84.1070
161.6225,84.0612
161.6740,84.0500
163.8551,84.0500
Z" /> 
<path style="fill:#37CBCB; fill-opacity:1.0000; stroke:none;fill-rule:evenodd;"
d="M 186.6058,97.0197
186.6516,97.0725
186.6615,97.1416
186.6381,97.1983
186.5562,97.3077
186.5562,97.3077
186.5059,97.4425
186.4995,97.5021
186.4995,97.5021
186.4995,97.5021
186.4995,98.4979
186.4995,98.4979
186.5059,98.5575
186.5562,98.6923
186.5562,98.6923
186.6425,98.8075
186.6425,98.8075
186.7577,98.8938
186.7577,98.8938
186.8925,98.9441
186.8925,98.9441
186.8994,98.9448
186.9521,98.9505
189.0479,98.9505
189.1075,98.9441
189.2423,98.8938
189.3575,98.8075
189.4438,98.6923
189.4941,98.5575
189.5005,98.4979
189.5005,97.5021
189.4941,97.4425
189.4438,97.3077
189.4438,97.3077
189.4438,97.3077
189.3619,97.1983
189.3375,97.1328
189.3524,97.0646
189.4018,97.0152
189.4612,97.0000
196.5130,97.0000
196.5801,97.0197
196.6258,97.0725
196.6370,97.1240
196.6370,105.5360
196.6173,105.6030
196.5645,105.6488
196.5130,105.6600
166.8947,105.6600
166.8277,105.6403
166.7819,105.5875
166.7707,105.5353
166.8101,98.8938
166.8202,97.1758
166.8403,97.1088
166.8934,97.0634
166.9619,97.0538
166.9740,97.0555
166.9740,97.0555
175.5266,97.0555
175.5266,97.0555
175.6328,97.0442
175.6838,97.0333
175.7447,97.0132
175.7661,97.0062
175.8048,97.0000
186.5388,97.0000
Z" /> 
<path style="fill:#37CBCB; fill-opacity:1.0000; stroke:none;fill-rule:evenodd;"
d="M 117.2660,95.3536
117.2724,95.3526
117.3064,95.3622
117.3189,95.3677
117.3304,95.3728
117.3555,95.3757
117.6453,95.3757
117.6453,95.3757
117.6453,95.3757
117.6704,95.3728
117.6704,95.3728
117.6704,95.3728
117.6819,95.3677
117.7512,95.3586
117.8144,95.3884
117.8514,95.4477
117.8560,95.4811
117.8560,96.6858
117.8466,96.7332
117.8449,96.7372
117.8333,96.7956
117.8333,97.0892
117.8473,97.1596
117.8436,97.1603
117.8487,97.2082
117.8349,97.2468
117.8225,97.2690
117.8028,97.3360
117.7945,97.3939
117.7945,97.9909
117.7992,98.0346
117.8104,98.0861
117.8129,98.0963
117.8129,98.0963
117.8362,98.1401
117.8504,98.2085
117.8464,98.2250
117.8473,98.2252
117.8333,98.2956
117.8333,98.5892
117.8449,98.6476
117.8466,98.6516
117.8560,98.6990
117.8560,107.3912
137.8488,107.3912
137.9158,107.4109
137.9616,107.4637
137.9728,107.5152
137.9728,112.8044
137.9531,112.8714
137.9003,112.9172
137.8488,112.9284
120.5488,112.9284
120.4818,112.9087
120.4360,112.8559
120.4261,112.7868
120.4551,112.7232
120.5139,112.6854
120.5247,112.6828
120.5267,112.6824
120.5279,112.6821
120.6736,112.6218
120.8047,112.5342
120.9162,112.4227
121.0038,112.2916
121.0641,112.1459
121.0949,111.9912
121.0949,111.8336
121.0949,111.8336
121.0949,111.8336
121.0641,111.6789
121.0641,111.6789
121.0038,111.5332
121.0038,111.5332
120.9162,111.4021
120.9162,111.4021
120.8047,111.2906
120.8047,111.2906
120.6736,111.2030
120.6736,111.2030
120.5279,111.1427
120.5279,111.1427
120.3732,111.1119
120.3732,111.1119
120.2156,111.1119
120.2156,111.1119
120.0609,111.1427
120.0609,111.1427
119.9152,111.2030
119.9152,111.2030
119.7841,111.2906
119.7841,111.2906
119.6726,111.4021
119.6726,111.4021
119.5850,111.5332
119.5850,111.5332
119.5247,111.6789
119.5247,111.6789
119.4939,111.8336
119.4939,111.9912
119.5247,112.1459
119.5247,112.1459
119.5850,112.2916
119.5850,112.2916
119.6726,112.4227
119.6726,112.4227
119.7841,112.5342
119.7841,112.5342
119.9152,112.6218
119.9152,112.6218
120.0609,112.6821
120.0609,112.6821
120.0609,112.6821
120.0609,112.6821
120.0641,112.6828
120.0657,112.6836
120.0667,112.6839
120.0667,112.6841
120.1261,112.7152
120.1606,112.7759
120.1569,112.8457
120.1160,112.9023
120.0510,112.9279
120.0400,112.9284
116.2827,112.9284
116.2157,112.9087
116.1950,112.8921
113.7775,110.4746
113.7440,110.4132
113.7412,110.3869
113.7412,109.2936
119.4939,109.2936
119.4939,109.4512
119.5247,109.6059
119.5247,109.6059
119.5850,109.7516
119.5850,109.7516
119.6726,109.8827
119.6726,109.8827
119.7841,109.9942
119.7841,109.9942
119.9152,110.0818
119.9152,110.0818
120.0609,110.1421
120.0609,110.1421
120.2156,110.1729
120.2156,110.1729
120.2156,110.1729
120.3732,110.1729
120.3732,110.1729
120.5279,110.1421
120.6736,110.0818
120.8047,109.9942
120.9162,109.8827
121.0038,109.7516
121.0641,109.6059
121.0949,109.4512
121.0949,109.2936
121.0949,109.2936
121.0949,109.2936
121.0641,109.1389
121.0641,109.1389
121.0641,109.1389
121.0038,108.9932
121.0038,108.9932
120.9162,108.8621
120.9162,108.8621
120.8047,108.7506
120.8047,108.7506
120.6736,108.6630
120.6736,108.6630
120.5279,108.6027
120.5279,108.6027
120.4484,108.5869
120.4484,108.5869
120.3732,108.5719
120.3732,108.5719
120.2156,108.5719
120.2156,108.5719
120.0609,108.6027
120.0609,108.6027
119.9152,108.6630
119.9152,108.6630
119.7841,108.7506
119.7841,108.7506
119.6726,108.8621
119.6726,108.8621
119.5850,108.9932
119.5850,108.9932
119.5247,109.1389
119.5247,109.1389
119.4939,109.2936
113.7412,109.2936
113.7412,108.4681
121.5339,108.4681
121.5339,110.2767
121.5339,110.2767
121.5368,110.3071
121.5368,110.3071
121.5368,110.3071
121.5368,110.3071
121.5816,110.4353
121.6622,110.5446
121.7169,110.5849
121.7715,110.6252
121.8142,110.6401
121.8997,110.6700
121.9067,110.6707
121.9301,110.6729
123.7387,110.6729
123.7691,110.6700
123.8973,110.6252
124.0065,110.5446
124.0872,110.4353
124.1096,110.3712
124.1320,110.3071
124.1320,110.3071
124.1328,110.2985
124.1349,110.2767
124.1349,108.4681
124.1320,108.4377
124.0872,108.3095
124.0065,108.2002
123.9325,108.1456
123.8973,108.1196
123.8973,108.1196
123.7691,108.0748
123.7387,108.0719
121.9301,108.0719
121.9162,108.0732
121.8997,108.0748
121.8997,108.0748
121.8997,108.0748
121.8997,108.0748
121.7715,108.1196
121.6622,108.2002
121.5816,108.3095
121.5368,108.4377
121.5368,108.4377
121.5339,108.4681
113.7412,108.4681
113.7412,97.8632
113.7609,97.7962
113.8137,97.7504
113.8652,97.7392
114.4711,97.7392
114.5079,97.7465
114.5081,97.7455
114.5160,97.7476
114.5160,97.7476
114.5993,97.7699
114.5993,97.7699
116.2755,97.7699
116.2756,97.7699
116.2904,97.7670
116.3340,97.7583
116.3453,97.7536
116.3461,97.7555
116.3980,97.7392
116.4002,97.7392
116.5352,97.7392
116.5352,95.4756
116.5549,95.4086
116.6077,95.3628
116.6592,95.3516
117.2563,95.3516
Z" /> 
<path style="fill:#37CBCB; fill-opacity:1.0000; stroke:none;fill-rule:evenodd;"
d="M 165.3130,58.5202
165.3588,58.5730
165.3700,58.6245
165.3700,66.6755
165.3503,66.7425
165.2975,66.7883
165.2460,66.7995
165.1802,66.7995
165.1218,66.8111
165.1218,66.8111
165.0554,66.8554
165.0111,66.9218
165.0111,66.9218
164.9995,66.9802
164.9995,69.0198
165.0111,69.0782
165.0111,69.0782
165.0554,69.1446
165.1218,69.1889
165.1218,69.1889
165.1802,69.2005
165.1803,69.2005
165.2460,69.2005
165.3130,69.2202
165.3588,69.2730
165.3700,69.3245
165.3700,77.6818
165.3542,77.7424
165.3225,77.7991
165.3028,77.8661
165.2945,77.9240
165.2945,79.2961
165.2989,79.3385
165.2989,79.3385
165.3095,79.3886
165.3235,79.4321
165.3295,79.4701
165.3295,79.7449
165.3295,79.7449
165.3324,79.7700
165.3324,79.7700
165.3370,79.7804
165.3461,79.8497
165.3163,79.9129
165.2570,79.9499
165.2236,79.9545
162.2371,79.9545
162.2056,79.9452
162.1737,79.9371
162.1722,79.9354
162.1701,79.9348
162.1485,79.9100
162.1262,79.8859
162.1254,79.8833
162.1243,79.8820
162.1151,79.8524
162.1142,79.8479
162.1111,79.8175
162.1005,79.7674
162.0989,79.7625
162.0974,79.7543
162.0981,79.7482
162.0955,79.7324
162.0955,79.4476
162.1006,79.4159
162.0997,79.4157
162.1005,79.4126
162.1111,79.3625
162.1111,79.3625
162.1155,79.3201
162.1155,79.1640
162.1108,79.1203
162.1069,79.1024
162.0996,79.0688
162.0993,79.0678
162.0971,79.0586
162.0971,79.0586
162.0971,79.0586
162.0686,79.0050
162.0686,79.0050
162.0541,78.9779
162.0500,78.9732
162.0500,78.9700
162.0472,78.9700
162.0083,78.9251
162.0083,78.9251
162.0083,78.9251
161.9908,78.9072
161.9908,78.9072
161.9908,78.9072
161.9908,78.9072
161.9907,78.9072
161.9109,78.8625
161.9109,78.8625
161.8439,78.8428
161.8439,78.8428
161.8439,78.8428
161.7860,78.8345
160.4340,78.8345
160.4340,78.8345
160.3903,78.8392
160.3388,78.8504
160.3286,78.8529
160.3286,78.8529
160.2479,78.8959
160.2479,78.8959
160.1974,78.9397
160.1338,78.9687
160.1162,78.9700
159.7040,78.9700
159.6370,78.9503
159.5912,78.8975
159.5800,78.8460
159.5800,76.1501
159.5700,64.7699
159.5394,58.6251
159.5587,58.5580
159.6113,58.5120
159.6634,58.5005
165.2460,58.5005
Z" /> 
<path style="fill:#37CBCB; fill-opacity:1.0000; stroke:none;fill-rule:evenodd;"
d="M 158.8541,58.5202
158.8998,58.5730
158.9110,58.6238
159.0541,83.6445
159.0348,83.7116
158.9822,83.7577
158.9301,83.7692
150.7968,83.7692
150.7298,83.7495
150.6840,83.6967
150.6728,83.6452
150.6728,66.9802
151.4995,66.9802
151.4995,69.0198
151.5111,69.0782
151.5111,69.0782
151.5554,69.1446
151.6218,69.1889
151.6218,69.1889
151.6802,69.2005
151.6803,69.2005
151.6803,69.2005
152.6197,69.2005
152.6198,69.2005
152.6346,69.1976
152.6782,69.1889
152.6782,69.1889
152.6782,69.1889
152.7446,69.1446
152.7889,69.0782
152.7889,69.0782
152.7889,69.0782
152.8005,69.0198
152.8005,69.0198
152.8005,66.9802
152.8005,66.9802
152.7889,66.9218
152.7889,66.9218
152.7446,66.8554
152.6782,66.8111
152.6782,66.8111
152.6198,66.7995
152.6197,66.7995
151.6803,66.7995
151.6802,66.7995
151.6218,66.8111
151.6218,66.8111
151.5554,66.8554
151.5111,66.9218
151.5111,66.9218
151.4995,66.9802
150.6728,66.9802
150.6728,58.6245
150.6925,58.5575
150.7453,58.5117
150.7968,58.5005
158.7870,58.5005
Z" /> 
<path style="fill:#37CBCB; fill-opacity:1.0000; stroke:none;fill-rule:evenodd;"
d="M 169.2430,84.0197
169.2888,84.0725
169.3000,84.1240
169.3000,86.2478
169.2803,86.3149
169.2275,86.3606
169.1775,86.3718
165.4526,86.4156
165.3854,86.3967
165.3390,86.3445
165.3272,86.2929
165.3255,86.1212
165.3242,86.1003
165.3214,86.0752
165.2975,85.9997
165.2752,85.9588
165.2600,85.8993
165.2600,84.6216
165.2737,84.5650
165.2817,84.5494
165.3007,84.4822
165.3007,84.4821
165.3085,84.4242
165.3085,84.4242
165.3085,84.4242
165.3067,84.2500
165.3043,84.2208
165.2990,84.1859
165.2979,84.1833
165.2928,84.1665
165.2927,84.1660
165.2910,84.1583
165.2896,84.1525
165.2894,84.1518
165.2915,84.1176
165.2931,84.0834
165.2936,84.0828
165.2936,84.0820
165.3138,84.0544
165.3336,84.0265
165.3344,84.0262
165.3348,84.0256
165.3667,84.0133
165.3985,84.0006
165.3998,84.0005
165.4000,84.0004
165.4003,84.0005
165.4103,84.0000
169.1760,84.0000
Z" /> 
</g>
<g style="fill:#000000; fill-opacity:1.0000; stroke:none;">
<circle cx="126.6500" cy="82.4500" r="0.1500" /> 
</g>
<g style="fill:#000000; fill-opacity:1.0000; stroke:none;">
<circle cx="128.0000" cy="81.6500" r="0.1500" /> 
</g>
<g style="fill:#000000; fill-opacity:1.0000; stroke:none;">
<circle cx="145.0500" cy="84.6000" r="0.1500" /> 
</g>
<g style="fill:#000000; fill-opacity:1.0000; stroke:none;">
<circle cx="145.0500" cy="83.4500" r="0.1500" /> 
</g>
<g style="fill:#000000; fill-opacity:1.0000; stroke:none;">
<circle cx="146.1500" cy="83.4500" r="0.1500" /> 
</g>
<g style="fill:#000000; fill-opacity:1.0000; stroke:none;">
<circle cx="126.6500" cy="80.8000" r="0.1500" /> 
</g>
<g style="fill:#000000; fill-opacity:1.0000; stroke:none;">
<circle cx="128.0000" cy="80.8000" r="0.1500" /> 
</g>
<g style="fill:#000000; fill-opacity:1.0000; stroke:none;">
<circle cx="145.0500" cy="85.7000" r="0.1500" /> 
</g>
<g style="fill:#000000; fill-opacity:1.0000; stroke:none;">
<circle cx="126.6500" cy="81.6500" r="0.1500" /> 
</g>
<g style="fill:#000000; fill-opacity:1.0000; stroke:none;">
<circle cx="146.1500" cy="84.6000" r="0.1500" /> 
</g>
<g style="fill:#000000; fill-opacity:1.0000; stroke:none;">
<circle cx="146.2000" cy="85.7000" r="0.1500" /> 
</g>
<g style="fill:#000000; fill-opacity:1.0000; stroke:none;">
<circle cx="128.0000" cy="82.4500" r="0.1500" /> 
</g>
<g style="fill:#000000; fill-opacity:1.0000; stroke:none;">
<circle cx="144.1300" cy="69.0700" r="0.1500" /> 
</g>
<g style="fill:#000000; fill-opacity:1.0000; stroke:none;">
<circle cx="163.5900" cy="67.5900" r="0.1500" /> 
</g>
<g style="fill:#000000; fill-opacity:1.0000; stroke:none;">
<circle cx="162.3600" cy="68.9500" r="0.1500" /> 
</g>
<g style="fill:#000000; fill-opacity:1.0000; stroke:none;">
<circle cx="143.6600" cy="95.4100" r="0.1500" /> 
</g>
<g style="fill:#000000; fill-opacity:1.0000; stroke:none;">
<circle cx="144.6200" cy="95.4300" r="0.1500" /> 
</g>
<g style="fill:#000000; fill-opacity:1.0000; stroke:none;">
<circle cx="145.3800" cy="69.1000" r="0.1500" /> 
</g>
<g style="fill:#000000; fill-opacity:1.0000; stroke:none;">
<circle cx="172.9600" cy="108.0800" r="0.1500" /> 
</g>
<g style="fill:#000000; fill-opacity:1.0000; stroke:none;">
<circle cx="144.1400" cy="67.6800" r="0.1500" /> 
</g>
<g style="fill:#000000; fill-opacity:1.0000; stroke:none;">
<circle cx="162.3700" cy="67.5600" r="0.1500" /> 
</g>
<g style="fill:#000000; fill-opacity:1.0000; stroke:none;">
<circle cx="143.6600" cy="95.4100" r="0.1500" /> 
</g>
<g style="fill:#000000; fill-opacity:1.0000; stroke:none;">
<circle cx="163.6100" cy="68.9800" r="0.1500" /> 
</g>
<g style="fill:#000000; fill-opacity:1.0000; stroke:none;">
<circle cx="173.2700" cy="123.2200" r="0.1500" /> 
</g>
<g style="fill:#000000; fill-opacity:1.0000; stroke:none;">
<circle cx="145.3600" cy="67.7100" r="0.1500" /> 
</g>
<g style="fill:#000000; fill-opacity:1.0000; stroke:none;">
<circle cx="145.3600" cy="67.7100" r="0.1500" /> 
</g>
<g style="fill:#000000; fill-opacity:1.0000; stroke:none;">
<circle cx="172.9800" cy="109.4700" r="0.1500" /> 
</g>
<g style="fill:#000000; fill-opacity:1.0000; stroke:none;">
<circle cx="171.7400" cy="108.0500" r="0.1500" /> 
</g>
<g style="fill:#000000; fill-opacity:1.0000; stroke:none;">
<circle cx="144.5300" cy="94.0800" r="0.1500" /> 
</g>
<g style="fill:#000000; fill-opacity:1.0000; stroke:none;">
<circle cx="144.1300" cy="69.0700" r="0.1500" /> 
</g>
<g style="fill:#000000; fill-opacity:1.0000; stroke:none;">
<circle cx="173.2700" cy="121.7200" r="0.1500" /> 
</g>
<g style="fill:#000000; fill-opacity:1.0000; stroke:none;">
<circle cx="144.6200" cy="95.4300" r="0.1500" /> 
</g>
<g style="fill:#000000; fill-opacity:1.0000; stroke:none;">
<circle cx="162.3600" cy="68.9500" r="0.1500" /> 
</g>
<g style="fill:#000000; fill-opacity:1.0000; stroke:none;">
<circle cx="162.3700" cy="67.5600" r="0.1500" /> 
</g>
<g style="fill:#000000; fill-opacity:1.0000; stroke:none;">
<circle cx="172.9800" cy="109.4700" r="0.1500" /> 
</g>
<g style="fill:#000000; fill-opacity:1.0000; stroke:none;">
<circle cx="171.7300" cy="109.4400" r="0.1500" /> 
</g>
<g style="fill:#000000; fill-opacity:1.0000; stroke:none;">
<circle cx="163.6100" cy="68.9800" r="0.1500" /> 
</g>
<g style="fill:#000000; fill-opacity:1.0000; stroke:none;">
<circle cx="163.5900" cy="67.5900" r="0.1500" /> 
</g>
<g style="fill:#000000; fill-opacity:1.0000; stroke:none;">
<circle cx="145.3800" cy="69.1000" r="0.1500" /> 
</g>
<g style="fill:#000000; fill-opacity:1.0000; stroke:none;">
<circle cx="172.9600" cy="108.0800" r="0.1500" /> 
</g>
<g style="fill:#000000; fill-opacity:1.0000; stroke:none;">
<circle cx="171.7400" cy="108.0500" r="0.1500" /> 
</g>
<g style="fill:#000000; fill-opacity:1.0000; stroke:none;">
<circle cx="173.2700" cy="120.2200" r="0.1500" /> 
</g>
<g style="fill:#000000; fill-opacity:1.0000; stroke:none;">
<circle cx="171.7300" cy="109.4400" r="0.1500" /> 
</g>
<g style="fill:#000000; fill-opacity:1.0000; stroke:none;">
<circle cx="143.6600" cy="94.1000" r="0.1500" /> 
</g>
<g style="fill:#000000; fill-opacity:1.0000; stroke:none;">
<circle cx="143.6600" cy="94.1000" r="0.1500" /> 
</g>
<g style="fill:#000000; fill-opacity:1.0000; stroke:none;">
<circle cx="144.1400" cy="67.6800" r="0.1500" /> 
</g>
<g style="fill:#000000; fill-opacity:1.0000; stroke:none;">
<circle cx="144.5300" cy="94.0800" r="0.1500" /> 
</g>
<g style="fill:#000000; fill-opacity:1.0000; stroke:none;">
<circle cx="162.3500" cy="86.8000" r="0.1500" /> 
</g>
<g style="fill:#000000; fill-opacity:1.0000; stroke:none;">
<circle cx="166.6100" cy="78.8200" r="0.1500" /> 
</g>
<g style="fill:#000000; fill-opacity:1.0000; stroke:none;">
<circle cx="162.3500" cy="84.6500" r="0.1500" /> 
</g>
<g style="fill:#000000; fill-opacity:1.0000; stroke:none;">
<circle cx="154.0500" cy="86.6500" r="0.1500" /> 
</g>
<g style="fill:#000000; fill-opacity:1.0000; stroke:none;">
<circle cx="152.9500" cy="86.6500" r="0.1500" /> 
</g>
<g style="fill:#000000; fill-opacity:1.0000; stroke:none;">
<circle cx="152.9500" cy="85.5000" r="0.1500" /> 
</g>
<g style="fill:#000000; fill-opacity:1.0000; stroke:none;">
<circle cx="152.9500" cy="84.4000" r="0.1500" /> 
</g>
<g style="fill:#000000; fill-opacity:1.0000; stroke:none;">
<circle cx="162.3500" cy="85.8500" r="0.1500" /> 
</g>
<g style="fill:#000000; fill-opacity:1.0000; stroke:none;">
<circle cx="165.8800" cy="78.8100" r="0.1500" /> 
</g>
<g style="fill:#000000; fill-opacity:1.0000; stroke:none;">
<circle cx="163.3500" cy="86.8000" r="0.1500" /> 
</g>
<g style="fill:#000000; fill-opacity:1.0000; stroke:none;">
<circle cx="130.3000" cy="84.9500" r="0.1500" /> 
</g>
<g style="fill:#000000; fill-opacity:1.0000; stroke:none;">
<circle cx="130.3000" cy="83.8500" r="0.1500" /> 
</g>
<g style="fill:#000000; fill-opacity:1.0000; stroke:none;">
<circle cx="131.2000" cy="83.8500" r="0.1500" /> 
</g>
<g style="fill:#000000; fill-opacity:1.0000; stroke:none;">
<circle cx="139.1000" cy="84.0000" r="0.1500" /> 
</g>
<g style="fill:#000000; fill-opacity:1.0000; stroke:none;">
<circle cx="148.5000" cy="78.3000" r="0.1500" /> 
</g>
<g style="fill:#000000; fill-opacity:1.0000; stroke:none;">
<circle cx="139.9000" cy="84.0500" r="0.1500" /> 
</g>
<g style="fill:#000000; fill-opacity:1.0000; stroke:none;">
<circle cx="148.5000" cy="77.6000" r="0.1500" /> 
</g>
<g style="fill:#000000; fill-opacity:1.0000; stroke:none;">
<circle cx="139.9000" cy="83.1500" r="0.1500" /> 
</g>
<g style="fill:#000000; fill-opacity:1.0000; stroke:none;">
<circle cx="131.2500" cy="84.9500" r="0.1500" /> 
</g>
<g style="fill:#000000; fill-opacity:1.0000; stroke:none;">
<circle cx="147.7000" cy="78.3000" r="0.1500" /> 
</g>
<g style="fill:#000000; fill-opacity:1.0000; stroke:none;">
<circle cx="139.1000" cy="83.1500" r="0.1500" /> 
</g>
<g style="fill:#000000; fill-opacity:1.0000; stroke:none;">
<circle cx="168.2100" cy="85.7100" r="0.1500" /> 
</g>
<g style="fill:#000000; fill-opacity:1.0000; stroke:none;">
<circle cx="152.5200" cy="82.5900" r="0.1500" /> 
</g>
<g style="fill:#000000; fill-opacity:1.0000; stroke:none;">
<circle cx="151.6500" cy="82.5600" r="0.1500" /> 
</g>
<g style="fill:#000000; fill-opacity:1.0000; stroke:none;">
<circle cx="166.5800" cy="84.6100" r="0.1500" /> 
</g>
<g style="fill:#000000; fill-opacity:1.0000; stroke:none;">
<circle cx="153.3500" cy="81.4600" r="0.1500" /> 
</g>
<g style="fill:#000000; fill-opacity:1.0000; stroke:none;">
<circle cx="153.3400" cy="82.5600" r="0.1500" /> 
</g>
<g style="fill:#000000; fill-opacity:1.0000; stroke:none;">
<circle cx="151.7100" cy="81.4600" r="0.1500" /> 
</g>
<g style="fill:#000000; fill-opacity:1.0000; stroke:none;">
<circle cx="167.4100" cy="84.6000" r="0.1500" /> 
</g>
<g style="fill:#000000; fill-opacity:1.0000; stroke:none;">
<circle cx="167.3900" cy="85.7400" r="0.1500" /> 
</g>
<g style="fill:#000000; fill-opacity:1.0000; stroke:none;">
<circle cx="168.2200" cy="84.6100" r="0.1500" /> 
</g>
<g style="fill:#000000; fill-opacity:1.0000; stroke:none;">
<circle cx="166.5200" cy="85.7100" r="0.1500" /> 
</g>
<g style="fill:#000000; fill-opacity:1.0000; stroke:none;">
<circle cx="152.5400" cy="81.4500" r="0.1500" /> 
</g>
<g style="fill:#000000; fill-opacity:1.0000; stroke:none;">
<circle cx="114.2000" cy="95.5095" r="0.1500" /> 
</g>
<g style="fill:#000000; fill-opacity:1.0000; stroke:none;">
<circle cx="114.2000" cy="97.0000" r="0.1500" /> 
</g>
<g style="fill:#000000; fill-opacity:1.0000; stroke:none;">
<circle cx="191.1375" cy="117.7321" r="0.1750" /> 
</g>
<g style="fill:#000000; fill-opacity:1.0000; stroke:none;">
<circle cx="113.5000" cy="87.7321" r="0.1750" /> 
</g>
<g style="fill:#000000; fill-opacity:1.0000; stroke:none;">
<circle cx="191.1375" cy="87.7321" r="0.1750" /> 
</g>
<g style="fill:none; 
stroke:#000000; stroke-width:0.6000; stroke-opacity:1; 
stroke-linecap:round; stroke-linejoin:round;">
<path d="M152.1500 67.4500
L152.1500 68.5500
" />
<path d="M165.6500 67.4500
L165.6500 68.5500
" />
</g>
<g style="fill:#000000; fill-opacity:1.0000; stroke:none;">
<circle cx="162.5000" cy="74.0000" r="0.1750" /> 
</g>
<g style="fill:#000000; fill-opacity:1.0000; stroke:none;">
<circle cx="155.3000" cy="74.0000" r="0.1750" /> 
</g>
<g style="fill:none; 
stroke:#000000; stroke-width:0.6000; stroke-opacity:1; 
stroke-linecap:round; stroke-linejoin:round;">
<path d="M134.0000 67.4500
L134.0000 68.5500
" />
<path d="M147.5000 67.4500
L147.5000 68.5500
" />
</g>
<g style="fill:#000000; fill-opacity:1.0000; stroke:none;">
<circle cx="144.3500" cy="74.0000" r="0.1750" /> 
</g>
<g style="fill:#000000; fill-opacity:1.0000; stroke:none;">
<circle cx="137.1500" cy="74.0000" r="0.1750" /> 
</g>
<g style="fill:#000000; fill-opacity:1.0000; stroke:none;">
<circle cx="164.7700" cy="95.2700" r="0.1750" /> 
</g>
<g style="fill:#000000; fill-opacity:1.0000; stroke:none;">
<circle cx="164.7700" cy="100.3100" r="0.1750" /> 
</g>
<g style="fill:#000000; fill-opacity:1.0000; stroke:none;">
<circle cx="164.7700" cy="90.2300" r="0.1750" /> 
</g>
<g style="fill:#000000; fill-opacity:1.0000; stroke:none;">
<circle cx="172.2700" cy="95.2700" r="0.1750" /> 
</g>
<g style="fill:#000000; fill-opacity:1.0000; stroke:none;">
<circle cx="172.2700" cy="100.3100" r="0.1750" /> 
</g>
<g style="fill:#000000; fill-opacity:1.0000; stroke:none;">
<circle cx="172.2700" cy="90.2300" r="0.1750" /> 
</g>
<g style="fill:#000000; fill-opacity:1.0000; stroke:none;">
<circle cx="164.7700" cy="115.5700" r="0.1750" /> 
</g>
<g style="fill:#000000; fill-opacity:1.0000; stroke:none;">
<circle cx="172.2700" cy="115.5700" r="0.1750" /> 
</g>
<g style="fill:#000000; fill-opacity:1.0000; stroke:none;">
<circle cx="113.5000" cy="117.7321" r="0.1750" /> 
</g>
<g style="fill:#000000; fill-opacity:1.0000; stroke:none;">
<circle cx="125.5000" cy="96.9600" r="0.1750" /> 
</g>
<g style="fill:#000000; fill-opacity:1.0000; stroke:none;">
<circle cx="125.5000" cy="99.5000" r="0.1750" /> 
</g>
<g style="fill:#000000; fill-opacity:1.0000; stroke:none;">
<circle cx="125.5000" cy="102.0400" r="0.1750" /> 
</g>
<g style="fill:#000000; fill-opacity:1.0000; stroke:none;">
<circle cx="120.2944" cy="109.3724" r="0.1750" /> 
</g>
<g style="fill:#000000; fill-opacity:1.0000; stroke:none;">
<circle cx="120.2944" cy="111.9124" r="0.1750" /> 
</g>
<g style="fill:#000000; fill-opacity:1.0000; stroke:none;">
<circle cx="120.2944" cy="114.4524" r="0.1750" /> 
</g>
<g style="fill:#000000; fill-opacity:1.0000; stroke:none;">
<circle cx="122.8344" cy="109.3724" r="0.1750" /> 
</g>
<g style="fill:#000000; fill-opacity:1.0000; stroke:none;">
<circle cx="122.8344" cy="111.9124" r="0.1750" /> 
</g>
<g style="fill:#000000; fill-opacity:1.0000; stroke:none;">
<circle cx="122.8344" cy="114.4524" r="0.1750" /> 
</g>
<g style="fill:none; 
stroke:#000000; stroke-width:0.6000; stroke-opacity:1; 
stroke-linecap:round; stroke-linejoin:round;">
<path d="M188.5500 98.0000
L187.4500 98.0000
" />
<path d="M188.5500 111.5000
L187.4500 111.5000
" />
</g>
<g style="fill:#000000; fill-opacity:1.0000; stroke:none;">
<circle cx="182.0000" cy="108.3500" r="0.1750" /> 
</g>
<g style="fill:#000000; fill-opacity:1.0000; stroke:none;">
<circle cx="182.0000" cy="101.1500" r="0.1750" /> 
</g> 
</svg>
